<?xml version="1.0" encoding="utf-8"?>
<!-- Generator: Adobe Illustrator 23.0.1, SVG Export Plug-In . SVG Version: 6.00 Build 0)  -->
<svg version="1.1" id="Layer_1" xmlns="http://www.w3.org/2000/svg" xmlns:xlink="http://www.w3.org/1999/xlink" x="0px" y="0px"
	 viewBox="0 0 1000 1000" style="enable-background:new 0 0 1000 1000;" xml:space="preserve">
<style type="text/css">
	.st0{fill:#AEADB1;}
	.st1{fill:#02785D;}
</style>
<path class="st0" d="M284.1,742.1c-2.1-1.9-4.6-3.4-7.5-4.3c-2.9-0.9-6-1.4-9.5-1.4c-3.4,0-6.6,0.5-9.5,1.5c-2.9,1-5.4,2.5-7.5,4.4
	c-2.1,2-3.8,4.4-4.9,7.2c-1.2,2.8-1.8,6.1-1.8,9.9c0,1.2,0.2,2.6,0.7,3.9c0.4,1.4,1,2.7,1.6,4c0.6,1.3,1.3,2.4,2,3.4
	c0.7,1,1.4,1.8,2,2.3c-5.5,0.9-9.6,2.9-12.1,6.2c-2.6,3.2-3.9,7.4-3.9,12.4v13h10.9v-13.1c0-1.2,0.1-2.3,0.4-3.5
	c0.3-1.1,0.8-2.1,1.6-3c0.8-0.9,1.8-1.6,3.1-2.1c1.3-0.5,3-0.7,5-0.7h12.6c3.6,0,6.8-0.5,9.7-1.4c2.9-0.9,5.4-2.3,7.5-4.3
	c2.1-1.9,3.7-4.3,4.8-7.1c1.1-2.9,1.7-6.2,1.7-10.1c0-3.9-0.6-7.2-1.8-10.1C287.9,746.4,286.3,744,284.1,742.1 M276.4,769.3
	c-2.1,2.5-5.2,3.7-9.3,3.7s-7.1-1.3-9.3-3.7c-2.1-2.5-3.2-5.8-3.2-9.9c0-4.1,1.1-7.4,3.1-10c2.1-2.5,5.2-3.8,9.3-3.8
	c4.1,0,7.2,1.3,9.3,3.8c2.1,2.5,3.1,5.8,3.1,10C279.6,763.5,278.6,766.8,276.4,769.3"/>
<path class="st0" d="M438.5,768.7c-2-2.6-3-6.2-3-10.6c0-4,1-7,3-9.1c2-2.1,4.7-3.1,8-3.1c1.2,0,2.4,0.3,3.5,0.7
	c1.1,0.5,2.1,1.2,3,2c0.9,0.8,1.6,1.8,2.2,2.9c0.6,1.1,1.1,2.3,1.4,3.6h10.1c-0.4-2.7-1-5.2-2-7.5c-0.9-2.3-2.2-4.3-3.8-6
	c-1.6-1.7-3.6-3-6-3.9c-2.3-0.9-5.2-1.4-8.5-1.4c-3.3,0-6.3,0.5-9,1.5c-2.7,1-5.1,2.4-7,4.3c-2,1.9-3.5,4.1-4.6,6.8
	c-1.1,2.7-1.6,5.7-1.6,9.1c0,1.4,0.2,2.7,0.5,4.1c0.3,1.4,0.8,2.7,1.4,4c0.6,1.3,1.2,2.4,1.9,3.5c0.7,1.1,1.3,1.9,2,2.5v0.4h-16.7
	h-16.3h-16.3h-16.3h0h0h-5.1c-1,0-1.9-0.2-2.9-0.5c-1-0.3-1.9-0.9-2.6-1.6c-0.8-0.7-1.4-1.7-1.9-2.9c-0.5-1.1-0.7-2.5-0.7-4.2v-48
	h-11.2v49.9c0,1.4-0.2,2.6-0.7,3.6c-0.4,0.9-1,1.7-1.7,2.2c-0.7,0.6-1.4,0.9-2.1,1.2c-0.8,0.2-1.5,0.3-2.1,0.3h-13.6v-40h-11.2v40
	h-11.6v9.6h35.3c1,0,2.2-0.1,3.5-0.2c1.3-0.1,2.7-0.4,4.1-0.8c1.4-0.4,2.9-1,4.3-1.7c1.4-0.7,2.7-1.8,3.9-3.1c1.3,1.6,3,3,5.3,4.1
	c2.3,1.1,4.6,1.7,7,1.7h4h0h0h16.3h16.3h16.3h54v-9.6h-19.9C443.4,772.7,440.5,771.3,438.5,768.7"/>
<polygon class="st0" points="516.2,772.7 496,772.7 496,732.7 484.8,732.7 484.8,772.7 473.2,772.7 473.2,782.3 527.4,782.3 
	527.4,715.5 516.2,715.5 "/>
<path class="st0" d="M488.8,802.8c-0.6-0.7-1-1.7-1-2.9c0-1.2,0.3-2.1,0.9-2.8c0.6-0.6,1.3-1,2.2-1c0.9,0,1.6,0.3,2.2,0.9
	c0.6,0.6,0.9,1.3,1,2.2h4.3c-0.1-2.4-0.9-4.1-2.4-5.1c-1.5-1-3.2-1.5-5-1.5c-2.4,0-4.3,0.6-5.6,1.8c-1.3,1.2-2,2.9-2,5
	c0,0.7,0.1,1.4,0.4,2.1s0.6,1.4,1.1,1.9v0.4h-3.2v3.8h16.9v-3.8h-7C490.3,803.9,489.4,803.5,488.8,802.8"/>
<rect x="538.8" y="715.5" class="st0" width="10.9" height="66.8"/>
<rect x="590.8" y="715.5" class="st0" width="10.9" height="10.9"/>
<rect x="606.9" y="715.5" class="st0" width="10.9" height="10.9"/>
<path class="st0" d="M620.7,742.4c-2.1-2-4.5-3.4-7.4-4.4c-2.9-1-6.1-1.5-9.7-1.5c-3.6,0-6.8,0.5-9.7,1.5c-2.9,1-5.4,2.5-7.4,4.4
	c-2.1,2-3.7,4.4-4.8,7.3c-1.1,2.9-1.7,6.3-1.7,10.2c0,3.9,0.6,7.3,1.7,10.2c1.1,2.9,2.7,5.4,4.8,7.3c2.1,2,4.5,3.4,7.4,4.4
	c2.9,1,6.1,1.5,9.7,1.5c3.6,0,6.8-0.5,9.7-1.5c2.9-1,5.4-2.5,7.4-4.4c2.1-2,3.7-4.4,4.8-7.3c1.1-2.9,1.7-6.3,1.7-10.2
	c0-3.9-0.6-7.3-1.7-10.2C624.4,746.8,622.8,744.3,620.7,742.4 M613,769.8c-2.1,2.6-5.2,3.9-9.3,3.9c-4.1,0-7.2-1.3-9.3-3.9
	c-2.1-2.6-3.1-5.9-3.1-9.9c0-4,1-7.3,3.1-9.9c2.1-2.6,5.2-3.9,9.3-3.9c4.1,0,7.2,1.3,9.3,3.9c2.1,2.6,3.1,5.9,3.1,9.9
	C616.1,763.9,615.1,767.2,613,769.8"/>
<path class="st0" d="M646.4,782.7c0,2.7-0.2,5-0.5,6.6c-0.3,1.7-0.7,3-1.3,3.9c-0.6,0.9-1.3,1.5-2.1,1.8c-0.8,0.3-1.8,0.5-2.9,0.5
	c-2.8,0-5.2-0.5-7.1-1.6v9c0.6,0.3,1.4,0.6,2.2,0.8c0.7,0.2,1.6,0.4,2.6,0.6c1,0.2,2.2,0.2,3.5,0.2c6,0,10.2-1.9,12.7-5.7
	c2.5-3.8,3.8-9.2,3.8-16.2v-40.2h-10.8V782.7z"/>
<rect x="668.7" y="715.5" class="st0" width="10.8" height="66.8"/>
<rect x="701.2" y="715.5" class="st0" width="10.9" height="10.9"/>
<path class="st0" d="M700.1,782.7c0,2.7-0.2,5-0.5,6.6c-0.3,1.7-0.7,3-1.3,3.9c-0.6,0.9-1.3,1.5-2.1,1.8c-0.8,0.3-1.8,0.5-2.9,0.5
	c-2.8,0-5.2-0.5-7.1-1.6v9c0.6,0.3,1.4,0.6,2.2,0.8c0.7,0.2,1.6,0.4,2.6,0.6c1,0.2,2.2,0.2,3.5,0.2c6,0,10.2-1.9,12.7-5.7
	c2.5-3.8,3.7-9.2,3.7-16.2v-40.2h-10.8V782.7z"/>
<path class="st0" d="M765.4,752.5c-0.7-3.5-2-6.4-3.7-8.8c-1.7-2.4-4.1-4.2-7-5.5c-2.9-1.2-6.5-1.9-10.8-1.9s-7.9,0.7-10.8,2
	c-2.9,1.3-5.1,3.1-6.8,5.3c-1.7,2.2-2.9,4.8-3.5,7.7c-0.7,2.9-1,5.9-1,9c0,3.3,0.6,6.3,1.7,9c1.1,2.7,2.7,5,4.7,6.9
	c2,1.9,4.4,3.4,7.2,4.4c2.8,1,5.8,1.5,9.2,1.5h9.5c-0.6,2.8-1.4,5.1-2.4,6.8c-1,1.7-2.2,3-3.7,4c-1.4,0.9-3.1,1.6-5,1.9
	c-1.9,0.3-4,0.5-6.4,0.5c-1.7,0-3-0.1-4.1-0.4c-1.1-0.3-2.2-0.6-3.2-1.1v9.2c0.7,0.3,1.5,0.5,2.4,0.7c0.8,0.2,1.7,0.3,2.8,0.5
	c1.1,0.1,2.3,0.2,3.6,0.2c5.3,0,9.8-0.7,13.4-2.2c3.6-1.5,6.6-3.8,8.8-7c2.3-3.2,3.9-7.4,4.8-12.5c1-5.1,1.4-11.2,1.4-18.5
	C766.5,759.9,766.1,756,765.4,752.5 M755.2,772.7h-10.7c-3.9,0-6.8-1-8.7-2.9c-1.8-1.9-2.8-5-2.8-9.3c0-1.9,0.2-3.8,0.5-5.6
	c0.3-1.8,1-3.3,1.8-4.6c0.9-1.3,2-2.3,3.4-3.1s3.2-1.2,5.4-1.2c4.2,0,7.2,1.5,8.8,4.6c1.6,3,2.4,7.5,2.4,13.4
	C755.5,767.1,755.4,770,755.2,772.7"/>
<path class="st1" d="M501.1,545.5c25.7,17,61,41,59.4,49.4c-0.5,2.7-2.4,5.3-2.4,5.3c-1.1,1.5-2.8,3.9-4.8,3.9
	c-2.7-0.1-2.8-4.7-6.8-7.3c-3.6-2.3-9.3-2.5-13.6,0.5c-5.4,3.8-5.3,10.4-5.3,10.7c0.2,6.2,5.1,10.5,9.2,12.1
	c6.1,2.4,12-0.3,15.5-1.9c11.7-5.4,12.6-14.3,19.4-14.5c4.3-0.2,7.1,4.4,16.4,12.6c21.1,18.5,37.7,25.1,47.5,25.1
	c6.4,0,15-0.9,18.4-8.6c2.1-4.8-0.1-11.3-4.4-15c-5.1-4.4-12.8-4.6-17-1.5c-3.2,2.5-2.5,6.7-4.8,6.8c-3.7,0.2-34.6-28.5-46-40.7
	c-1.3-1.3,6.9-15.2,9.6-15.6c4.6-0.7,6,7,13,8.2c4.5,0.7,10.2-1.5,12.8-6.1c3-5.4,0-11.3-0.2-11.7c-3.4-6.4-12-8.8-18.5-7.8
	c-12.5,1.9-19.3,14.9-20,16.1c-2.3,3.8-3.2,6.6-5.8,7.3c-2.9,0.7-5.7-2.8-10.2-7.7c-6.7-7.5-31.3-29.2-32.2-31c0,0-0.2-0.5-0.3-1
	c-0.6-3.2,49.9-28.6,93.1-38.2c38.7-8.6,104.1-11.4,103.1-13.2h0c0,0,0,0,0,0c2.9-2.7-59.1-16.6-105.5-14.5
	c-24.2,1.1-68.6,7.3-119.7,45h-0.4c-51.1-37.7-95.4-44-119.7-45c-46.4-2.1-108.3,11.8-105.5,14.5c0,0,0,0,0,0l0,0
	c-1,1.8,64.4,4.6,103.1,13.2c43.2,9.6,93.7,35,93.1,38.2c-0.1,0.5-0.3,1-0.3,1c-0.9,1.8-25.4,23.5-32.2,31
	c-4.4,4.9-7.3,8.5-10.2,7.7c-2.6-0.6-3.6-3.5-5.8-7.3c-0.7-1.1-7.5-14.1-20-16.1c-6.5-1-15.2,1.4-18.5,7.8
	c-0.2,0.4-3.2,6.3-0.2,11.7c2.5,4.6,8.2,6.9,12.8,6.1c7-1.1,8.4-8.9,13-8.2c2.7,0.4,10.9,14.3,9.6,15.6
	c-11.5,12.2-42.4,40.9-46,40.7c-2.3-0.1-1.6-4.3-4.8-6.8c-4.1-3.2-11.9-3-17,1.5c-4.3,3.7-6.5,10.2-4.4,15
	c3.4,7.7,11.9,8.6,18.4,8.6c9.9,0,26.5-6.6,47.5-25.1c9.3-8.2,12.2-12.7,16.4-12.6c6.7,0.2,7.6,9.1,19.4,14.5
	c3.5,1.6,9.4,4.4,15.5,1.9c4.1-1.6,9-5.9,9.2-12.1c0-0.3,0.1-6.9-5.3-10.7c-4.3-3-10-2.8-13.6-0.5c-4,2.6-4,7.2-6.8,7.3
	c-2,0-3.8-2.4-4.8-3.9c0,0-1.9-2.6-2.4-5.3c-1.6-8.4,33.7-32.5,59.4-49.4H501.1z"/>
<path class="st1" d="M423.5,191.1c-19.6,9.6-39.8,24.2-52.1,47.4c-13.1,24.7-15.4,55.6-9.6,56.2c5.5,0.6,5.4-20.7,24.5-47.6
	c17.1-24.2,36.2-29.4,46-29.3c0.4,0,3.9-0.2-1,4.8c-2.9,2.9-29.1,19.8-38.5,53.7c-6.7,24,0.8,55.3,3,55.1c5.4-0.5,2.4-24,14.8-49.9
	c1.3-2.7,15.4-31.5,30.9-30.6c0.8,0,5.1,0.1,5,2.1c-0.1,2.9-7.3,9.5-15.2,22.3c-7.6,12.3-7.6,28.2-7.2,34.9
	c1.2,18.4,6.8,34.4,11.3,33.6c4.7-0.9-1-21.8,10.6-47.3c1.9-4.2,15.8-35.9,27.2-28.5c6.1,4,9.8,10.8,9.8,18.1
	c1.6,46.8,1.6,88.9-0.5,140.2c-0.8,18.6-6.1,35.9-7.3,53.7c0,0.4,4.4,1.8,4.7,2.3c0.2,0.2,0.4,0.4,0.6,0.5c5.2,3.2,14,9.4,19.5,14.2
	c0.5,0.4,1.3,0.5,1.8,0c4.6-3.9,13.5-10.4,18.1-13.4c0.6-0.4,4.8-2.2,4.8-2.9c-1.6-17.8-6.8-35-7.7-53.8
	c-2.7-52.6-2.2-94.9,0.4-140.9c1.1-6.4,4.6-14.7,9.8-18.1c11.4-7.4,25.3,24.3,27.2,28.5c11.6,25.5,5.8,46.4,10.6,47.3
	c4.5,0.8,10.1-15.2,11.3-33.6c0.4-6.7,0.4-22.6-7.2-34.9c-7.9-12.8-15.1-19.5-15.2-22.3c-0.1-2,4.2-2.1,5-2.1
	c15.5-0.9,29.6,28,30.9,30.6c12.4,25.9,9.4,49.4,14.8,49.9c2.2,0.2,9.7-31.1,3-55.1c-9.4-34-35.6-50.8-38.5-53.7
	c-4.9-4.9-1.4-4.7-1-4.8c9.9-0.1,28.9,5.1,46,29.3c19.1,26.9,19,48.2,24.5,47.6c5.8-0.6,3.5-31.5-9.6-56.2
	c-12.3-23.2-32.5-37.8-52.1-47.4c-6.8-3.3-2-6.8-1.5-7.4c3.6-3.8,31.2,1.9,44.7,13.3c4.7,4,12.2,11.9,9.7,2
	c-2.4-9.6-15-22.6-27.2-28.3c-14.1-6.6-24-8.1-35.4-12.4c-6.6-2.6-8.1-5.6-6.9-6.8c6.2-6,27.7-5.9,39.6-7.9
	c6.5-1.1-13.2-8.7-26.4-9.7c-25.4-1.9-33.1,11.3-37.7,7.3c-1.5-1.4-2.1-3.7-1.9-5.5c1.2-9.1,26.9-19.4,20.5-20.8
	c-10.9-2.6-30.6,10.3-42.2,20.6c-1.4,1.2-4,0.5-3.7-4c0.9-11,1.2-15.7-3.2-23.8c-1.2-2.3-3.8-5.5-5.3-5.6c-1.5,0-4,3.3-5.3,5.6
	c-4.3,8.1-4,12.8-3.2,23.8c0.3,4.5-2.3,5.2-3.7,4c-11.6-10.3-31.3-23.1-42.2-20.6c-6.3,1.5,19.3,11.8,20.5,20.8
	c0.2,1.8-0.3,4.2-1.8,5.5c-4.6,4-12.3-9.2-37.7-7.3c-13.3,1-33,8.6-26.4,9.7c11.9,2,33.4,1.9,39.6,7.9c1.3,1.2-0.2,4.2-6.9,6.8
	c-11.3,4.4-21.3,5.8-35.4,12.4c-12.2,5.7-24.7,18.7-27.2,28.3c-2.5,9.9,5,2,9.7-2c13.4-11.3,41.1-17.1,44.7-13.3
	C425.4,184.3,430.2,187.8,423.5,191.1"/>
<path class="st0" d="M508.2,679.4c73.6,0,133.3-2.8,133.3-6.2c0-3.4-59.7-6.2-133.3-6.2c-73.6,0-133.3,2.8-133.3,6.2
	C374.9,676.6,434.6,679.4,508.2,679.4"/>
<polygon class="st0" points="259,873 257.5,878.5 256,873 243.3,838.8 233.7,838.8 233.7,886.2 241.3,886.2 241.3,851.4 
	241.7,852.9 253.9,886.2 261,886.2 273.2,853 273.7,851.4 273.7,886.2 281.2,886.2 281.2,838.8 271.6,838.8 "/>
<rect x="291.9" y="853.2" class="st0" width="7.7" height="33"/>
<path class="st0" d="M295.8,840.3c-2.7,0-4.8,1.6-4.8,4.1c0,2.8,2.3,4.3,4.8,4.3c2.4,0,4.7-1.5,4.7-4.3
	C300.5,841.9,298.4,840.3,295.8,840.3"/>
<path class="st0" d="M324.5,852.2c-3.4,0-9.7,0.7-15.3,1.6v32.3h7.6v-26c2.6-0.5,5.3-0.7,7.3-0.7c4.9,0,7.8,1.8,7.8,6.7v19.9h7.7
	c0-7.1-0.1-14.3-0.1-21.4C339.6,855.1,332.8,852.2,324.5,852.2"/>
<rect x="349.3" y="853.2" class="st0" width="7.7" height="33"/>
<path class="st0" d="M353.2,840.3c-2.7,0-4.8,1.6-4.8,4.1c0,2.8,2.3,4.3,4.8,4.3c2.4,0,4.6-1.5,4.6-4.3
	C357.9,841.9,355.8,840.3,353.2,840.3"/>
<path class="st0" d="M380.9,866.1l-2.4-0.6c-4.6-1.2-6.6-1.7-6.6-4.1c0-2.3,2.4-3,6.4-3c3.5,0,7.2,0.9,10.3,2.3l2.1-5.9
	c-3.4-1.8-8.3-2.8-13.3-2.8c-8.4,0-13.4,3.6-13.4,9.4c0,5.4,3.3,8.6,10.6,10.4c1,0.2,2,0.5,3,0.8c5.7,1.5,6.8,2,6.8,4.5
	c0,2.8-3.2,3.5-7.9,3.5c-3.5,0-7.5-0.8-11.4-2.4l-2,5.9c4.5,2,9.1,2.9,14.2,2.9c9.8,0,14.7-3.5,14.7-10.3
	C391.9,871.4,388.7,868.1,380.9,866.1"/>
<path class="st0" d="M408,873.4v-13.5h12.8v-6.8H408v-11.9h-7.6v11.9h-6.1v6.8h6.1v15.7c0,7.1,2.9,10.5,11.5,10.5h8.9v-6.9h-6.1
	C410.2,879.3,408,877.9,408,873.4"/>
<path class="st0" d="M427.1,854.7v31.4h7.6v-25.4c1.2-0.6,4.9-0.7,6.6-0.7h5.2v-6.9h-6.1C436.9,853.2,431.9,853.5,427.1,854.7"/>
<path class="st0" d="M483,853.2h-7.6v24.1c-2.1,0.5-4.4,0.8-7.3,0.8c-4.7,0-7.2-1.7-7.2-6.8v-18.1h-7.6v19.5c0,9,5.1,12.6,14.5,12.6
	c2.9,0,5.4-0.2,7.6-0.7v1.2c0,5.4-3.2,7.2-9.4,7.2c-3.3,0-7.7-0.6-11-1.9l1.6,6.8c2.4,1,6.7,1.7,11,1.7c8.6,0,15.3-4.3,15.3-13.6
	v-3.4c0.1-0.1,0.1-0.1,0.1-0.1l-0.1-0.1V853.2z"/>
<path class="st0" d="M517.8,851.9L517.8,851.9c-10.4,0-18.4,7.5-18.4,17.6v0.1c0.1,10,7.9,17.4,18.3,17.4h0.1
	c10.5-0.1,18.4-7.3,18.4-17.4v-0.1C536.3,859.4,528.4,852,517.8,851.9 M528.6,869.6c0,5.8-4.3,10.4-10.7,10.4h-0.1
	c-6.3,0-10.6-4.6-10.6-10.4v-0.1c0-5.9,4.3-10.6,10.6-10.6h0.1C524.3,859,528.6,863.6,528.6,869.6L528.6,869.6z"/>
<path class="st0" d="M545.5,849.4v3.7h-6.2v7h6.2v26h7.7v-26H566v-7h-12.8v-2.5c0-4.2,2-5.5,6.8-5.5h6.1v-6.4h-7
	C549.5,838.8,545.5,841.1,545.5,849.4"/>
<path class="st0" d="M659.9,851.9c-10.4,0-17.4,7-17.4,17.5v0.1c0,10.4,7.1,17.4,17.8,17.4c6,0,10.7-1.4,14.2-3.2l-3.2-5.9
	c-2.6,1.5-6.4,2.5-10.4,2.5c-5.8,0-9.5-3-10.5-8.1h25.9v-3.6C676.3,858.6,669.8,851.9,659.9,851.9 M650.5,865.8
	c1-4.6,4.1-7.2,9.3-7.2c5.2,0,8.6,2.7,9.1,7.2H650.5z"/>
<path class="st0" d="M751.4,852.1c-4.3,0-8.8,0.8-11.4,1.9l-1.8,6.9c3.7-1.5,8.3-2.2,11.5-2.2c6.1,0,9.2,2.3,9.2,6.3v0.2
	c-2.9-0.4-5.7-0.6-8.1-0.6c-9.8,0-15.2,3.9-15.2,10.9v0.1c0,7.3,5.7,11.2,16,11.2c5.3,0,11.2-1.1,14.9-2.1v-19.7
	C766.5,855.9,760.3,852.1,751.4,852.1 M758.9,879.3c-1.9,0.5-5.2,0.8-7.3,0.8c-5.7,0-8.3-1.5-8.3-4.7c0-3.1,2.6-4.6,8.3-4.6
	c2.4,0,6,0.4,7.3,0.6V879.3z"/>
<path class="st0" d="M724.9,840.4c-2.7,0-4.8,1.6-4.8,4.1c0,2.8,2.3,4.3,4.8,4.3c2.4,0,4.7-1.5,4.7-4.3
	C729.6,842,727.5,840.4,724.9,840.4"/>
<rect x="721.1" y="853.2" class="st0" width="7.7" height="33"/>
<polygon class="st0" points="613.3,873.8 611.8,879.3 610.3,873.7 597.6,839.5 588,839.5 588,886.9 595.6,886.9 595.6,852.2 
	596,853.7 608.2,886.9 615.4,886.9 627.5,853.8 628,852.1 628,886.9 635.5,886.9 635.5,839.5 625.9,839.5 "/>
<path class="st0" d="M704,853.7c-1.3-0.4-2.9-0.6-4.8-0.6c-10.8,0-18.9,7.1-18.9,16.5c0,4.4,2.1,8.6,5.4,11.5
	c3.7,3.2,8.6,4.7,13.4,4.7h12.6V841H704V853.7z M704,877.6c-1.4,0.6-2.9,0.9-4.7,0.9h-0.1c-5.6,0-9.7-4-9.7-9v-0.1c0-5,4.1-9,9.7-9
	h0.1c1.7,0,3.3,0.4,4.7,1V877.6z"/>
</svg>
