<?xml version="1.0" encoding="iso-8859-1"?>
<!-- Generator: Adobe Illustrator 23.0.1, SVG Export Plug-In . SVG Version: 6.00 Build 0)  -->
<svg version="1.1" id="Layer_1" xmlns="http://www.w3.org/2000/svg" xmlns:xlink="http://www.w3.org/1999/xlink" x="0px" y="0px"
	 viewBox="0 0 512 512" style="enable-background:new 0 0 512 512;" xml:space="preserve">
<g>
	<path style="fill:#1C2C38;" d="M123.291,297.07c-1.75-3.467-4.312-5.198-7.69-5.198c-1.384,0-2.684,0.314-3.895,0.945
		c-1.218,0.628-2.267,1.492-3.149,2.595c-0.89,1.104-1.591,2.4-2.112,3.895c-0.521,1.495-0.779,3.083-0.779,4.774
		c0,2.987,0.809,5.313,2.437,6.978c1.621,1.669,3.858,2.499,6.715,2.499c1.3,0,2.522-0.192,3.67-0.583
		c1.144-0.388,2.156-0.93,3.024-1.621v4.545c0,0.868-1.432,1.514-4.29,1.946c-2.857,0.436-51.634,0.65-57.261,0.65h-1.495
		c-2.123,0-3.659-0.399-4.611-1.2c-0.952-0.801-1.403-2.134-1.362-3.994l0.258-22.011l-5.128,0.908v3.961
		c-5.239,1.082-9.318,2.795-12.239,5.132c-2.92,2.333-4.382,5.172-4.382,8.502c0,1.388,0.281,2.632,0.842,3.736
		c0.561,1.1,1.322,2.023,2.274,2.758c0.949,0.738,2.064,1.3,3.341,1.687c1.277,0.391,2.651,0.587,4.124,0.587
		c2.466,0,4.611-0.524,6.428-1.562c0.735,4.895,4.22,7.339,10.455,7.339h1.495c2.293,0,48.839-0.033,50.571-0.1
		c1.731-0.063,3.271-0.181,4.615-0.354c1.34-0.173,2.496-0.38,3.47-0.62c0.975-0.236,1.872-0.546,2.695-0.941
		c1.687-0.779,2.876-1.912,3.574-3.408c0.69-1.491,1.034-3.666,1.034-6.524C125.92,305.639,125.049,300.529,123.291,297.07
		 M118.684,308.171c-1.063,0.303-2.156,0.454-3.278,0.454c-1.82,0-3.216-0.41-4.19-1.237c-0.971-0.816-1.458-2.03-1.458-3.636
		c0-1.816,0.539-3.341,1.621-4.574c1.085-1.233,2.425-1.85,4.028-1.85c1.732,0,3.061,0.757,3.991,2.27
		c0.934,1.517,1.547,3.961,1.85,7.336C120.6,307.455,119.744,307.865,118.684,308.171 M42.362,312.912
		c-0.908,0-1.783-0.078-2.629-0.229c-0.845-0.151-1.591-0.391-2.237-0.712c-0.653-0.329-1.159-0.749-1.528-1.27
		c-0.373-0.517-0.554-1.167-0.554-1.946c0-0.952,0.336-1.827,1.008-2.629c0.672-0.801,1.58-1.514,2.725-2.145
		c1.148-0.628,2.459-1.144,3.932-1.554c1.469-0.413,3.005-0.705,4.611-0.879l0.126,10.455
		C46.257,312.609,44.437,312.912,42.362,312.912"/>
	<polygon style="fill:#1C2C38;" points="202.529,289.469 198.505,285.379 194.477,289.469 198.505,293.56 	"/>
	<polygon style="fill:#1C2C38;" points="212.009,289.469 207.985,285.379 203.957,289.469 207.985,293.56 	"/>
	<polygon style="fill:#1C2C38;" points="278.301,288.431 274.273,284.34 270.249,288.431 274.273,292.522 	"/>
	<polygon style="fill:#1C2C38;" points="279.013,300.898 283.04,296.808 279.013,292.717 274.989,296.808 	"/>
	<polygon style="fill:#1C2C38;" points="273.56,296.807 269.532,292.717 265.508,296.807 269.532,300.898 	"/>
	<path style="fill:#1C2C38;" d="M334.909,283.366l0.192,31.816c0,0.605-0.225,1.126-0.683,1.562c-0.45,0.428-1.034,0.775-1.75,1.037
		c-0.713,0.255-1.525,0.443-2.433,0.55c-0.908,0.111-46.274,0.159-47.259,0.159c-5.15,0-7.727-1.336-7.727-4.024
		c0-0.343,0.089-1.274,0.258-2.791c0.174-1.514,0.369-3.179,0.583-4.999l-4.415-0.521c-0.085,0.565-0.17,1.215-0.258,1.949
		c-0.089,0.735-0.196,1.473-0.321,2.208c-0.133,0.738-0.262,1.462-0.391,2.174c-0.129,0.712-0.24,1.311-0.329,1.783
		c-0.343,1.517-1.196,2.599-2.562,3.249c-1.362,0.65-47.942,0.971-50.796,0.971h-0.004c-1.299,0-2.536-0.015-3.707-0.059
		c-1.167-0.044-2.252-0.111-3.245-0.196c2.248-2.123,3.378-4.763,3.378-7.923c0-1.602-0.27-3.105-0.812-4.512
		c-0.543-1.407-1.277-2.632-2.208-3.67c-0.927-1.037-2.016-1.861-3.245-2.466c-1.233-0.605-2.544-0.908-3.928-0.908
		s-2.695,0.303-3.932,0.908c-1.233,0.605-2.315,1.429-3.245,2.466c-0.93,1.037-1.665,2.263-2.208,3.67
		c-0.543,1.407-0.808,2.909-0.808,4.512c0,3.204,1.122,5.844,3.378,7.923c-1.045,0.085-2.145,0.151-3.315,0.196
		c-1.17,0.044-46.916,0.059-48.171,0.059c-2.123,0-3.648-0.395-4.578-1.196c-0.93-0.801-1.395-2.134-1.395-3.995l0.258-30.842
		l-5.132,0.908l0.262,31.883c0.092,6.058,3.614,9.089,10.585,9.089c2.422,0,49.342-0.196,51.679-0.583
		c2.337-0.391,4.548-0.952,6.623-1.691c2.078,0.738,4.286,1.299,6.619,1.691c2.341,0.388,4.722,0.583,7.147,0.583
		c2.728,0,49.608-0.38,51.583-1.137c1.964-0.757,3.382-1.827,4.249-3.215c1.691,2.902,5.065,4.353,10.127,4.353h0.004
		c1.613,0,47.595-0.162,49.046-0.487c1.443-0.325,2.743-0.868,3.895-1.624c1.144-0.757,2.075-1.754,2.787-2.987
		c0.72-1.233,1.071-2.758,1.071-4.578l0.266-32.204L334.909,283.366z M203.246,316.936c-3.984-1.296-5.973-3.441-5.973-6.427
		c0-0.868,0.148-1.669,0.454-2.403c0.303-0.735,0.724-1.384,1.266-1.949c0.539-0.561,1.178-0.993,1.912-1.296
		c0.735-0.303,1.517-0.458,2.341-0.458c0.823,0,1.599,0.155,2.337,0.458c0.738,0.303,1.37,0.735,1.912,1.296
		c0.543,0.565,0.964,1.215,1.27,1.949c0.303,0.735,0.454,1.536,0.454,2.403C209.219,313.496,207.226,315.641,203.246,316.936"/>
	<polygon style="fill:#1C2C38;" points="348.545,324.337 348.22,283.369 353.351,282.457 353.027,324.337 	"/>
	<path style="fill:#1C2C38;" d="M394.644,314.601c0,3.112-0.997,5.593-2.987,7.432c-1.994,1.839-4.718,2.761-8.181,2.761
		c-3.677,0-6.472-0.901-8.377-2.695c-1.905-1.798-2.858-4.386-2.858-7.76c0-2.119,0.303-4.124,0.908-6.003
		c0.609-1.886,1.418-3.54,2.437-4.969c1.015-1.429,2.211-2.555,3.574-3.378c1.359-0.823,2.799-1.233,4.316-1.233
		c1.554,0,3.016,0.41,4.379,1.233c1.366,0.823,2.547,1.949,3.541,3.378c0.997,1.429,1.79,3.105,2.37,5.032
		C394.352,310.326,394.644,312.389,394.644,314.601 M378.669,293.561l-4.024-4.09l4.024-4.09l4.028,4.09L378.669,293.561z
		 M390.228,315.184c0-1.517-0.162-2.913-0.487-4.19c-0.321-1.274-0.79-2.381-1.396-3.312c-0.605-0.93-1.318-1.654-2.141-2.174
		c-0.827-0.517-1.731-0.779-2.728-0.779c-0.912,0-1.783,0.229-2.629,0.683c-0.845,0.454-1.569,1.071-2.178,1.85
		c-0.602,0.779-1.093,1.687-1.462,2.728c-0.366,1.037-0.55,2.141-0.55,3.312c0,1.861,0.587,3.278,1.754,4.253
		c1.17,0.975,2.857,1.458,5.065,1.458c0.908,0,1.776-0.096,2.595-0.292c0.823-0.192,1.536-0.473,2.145-0.845
		c0.602-0.365,1.093-0.775,1.462-1.233C390.044,316.188,390.228,315.701,390.228,315.184 M388.15,293.561l-4.028-4.09l4.028-4.09
		l4.028,4.09L388.15,293.561z"/>
	<path style="fill:#1C2C38;" d="M392.819,332.194c2.341-0.868,4.504-1.861,6.494-2.987c1.99-1.126,3.71-2.304,5.165-3.537
		c1.447-1.233,2.584-2.47,3.404-3.703c0.823-1.233,1.237-2.411,1.237-3.537c0-0.694-0.155-1.58-0.458-2.665
		c-0.299-1.078-0.727-2.259-1.263-3.537c-0.543-1.277-1.181-2.61-1.912-3.995c-0.742-1.384-1.521-2.728-2.341-4.024l4.674-2.599
		c1.816,2.426,3.249,5.11,4.283,8.052c1.041,2.946,1.562,5.693,1.562,8.248c0,4.068-1.562,7.801-4.674,11.201
		c-3.116,3.396-7.513,6.136-13.184,8.211L392.819,332.194z"/>
	<polygon style="fill:#1C2C38;" points="422.625,324.337 422.3,283.369 427.432,282.457 427.107,324.337 	"/>
	<path style="fill:#1C2C38;" d="M430.678,332.193c2.337-0.868,4.5-1.861,6.494-2.987c1.986-1.126,3.71-2.304,5.161-3.537
		c1.451-1.233,2.584-2.47,3.408-3.703c0.823-1.233,1.233-2.411,1.233-3.537c0-0.694-0.151-1.58-0.454-2.665
		c-0.303-1.078-0.727-2.259-1.266-3.537c-0.539-1.277-1.178-2.606-1.912-3.995c-0.742-1.384-1.517-2.724-2.341-4.024l4.674-2.595
		c1.82,2.422,3.249,5.106,4.286,8.052c1.041,2.942,1.562,5.689,1.562,8.244c0,4.072-1.562,7.801-4.674,11.201
		c-3.12,3.396-7.513,6.136-13.184,8.211L430.678,332.193z M442.562,296.353l-4.028-4.09l4.028-4.09l4.024,4.09L442.562,296.353z"/>
	<path style="fill:#1C2C38;" d="M460.027,331.997c9.355-1.299,14.742-4.696,16.174-10.193c-0.871,0.65-1.879,1.152-3.024,1.495
		c-1.144,0.347-2.37,0.521-3.666,0.521c-2.857,0-5.154-0.997-6.885-2.99c-1.731-1.986-2.599-4.608-2.599-7.856
		c0-1.816,0.266-3.493,0.783-5.029c0.517-1.539,1.237-2.868,2.145-3.994c0.905-1.126,1.99-2.005,3.245-2.629
		c1.255-0.628,2.617-0.941,4.087-0.941c3.378,0,6.007,1.525,7.889,4.578c1.883,3.049,2.824,7.347,2.824,12.888
		c0,2.595-0.439,4.999-1.329,7.207c-0.886,2.204-2.141,4.153-3.766,5.844c-1.621,1.687-3.581,3.083-5.877,4.186
		c-2.296,1.104-4.847,1.85-7.661,2.237L460.027,331.997z M470.353,318.559c1.211,0,2.392-0.173,3.537-0.521
		c1.152-0.347,2.049-0.779,2.699-1.296c-0.177-3.422-0.812-6.062-1.916-7.923c-1.108-1.861-2.632-2.791-4.578-2.791
		c-1.687,0-3.064,0.628-4.124,1.883c-1.063,1.255-1.591,2.898-1.591,4.932c0,1.816,0.528,3.227,1.591,4.22
		C467.03,318.064,468.492,318.559,470.353,318.559"/>
	<polygon style="fill:#1C2C38;" points="32.776,347.423 38.048,347.423 49.67,367.289 61.296,347.423 66.442,347.423 
		68.218,385.612 62.835,385.612 61.576,356.298 50.814,374.329 48.064,374.329 37.472,356.523 36.158,385.612 31,385.612 	"/>
	<path style="fill:#1C2C38;" d="M77.583,347.256l4.087,4.087l-4.087,4.09l-4.091-4.09L77.583,347.256z M75.039,358.988h5.15v26.622
		h-5.15V358.988z"/>
	<path style="fill:#1C2C38;" d="M87.513,385.611v-23.875v-1.06c0-0.362-0.022-0.927-0.059-1.687h4.925l0.174,4.006
		c0.343-0.458,0.764-0.964,1.259-1.517c0.495-0.55,1.108-1.056,1.831-1.517c0.724-0.458,1.573-0.838,2.547-1.144
		c0.975-0.306,2.071-0.458,3.293-0.458c3.47,0,6.055,1.012,7.734,3.035c1.672,2.027,2.514,4.774,2.514,8.244v15.975h-5.158v-15.572
		c0-2.481-0.528-4.305-1.599-5.471c-1.067-1.159-2.573-1.743-4.522-1.743c-1.491,0-2.728,0.303-3.725,0.916
		c-0.989,0.609-1.783,1.403-2.37,2.374c-0.598,0.975-1.026,2.078-1.288,3.323c-0.27,1.24-0.399,2.51-0.399,3.806v12.368H87.513z"/>
	<path style="fill:#1C2C38;" d="M120.53,347.256l4.087,4.087l-4.087,4.09l-4.091-4.09L120.53,347.256z M117.987,358.988h5.15v26.622
		h-5.15V358.988z"/>
	<path style="fill:#1C2C38;" d="M131.722,378.912c0.952,0.953,2.101,1.717,3.441,2.289c1.329,0.572,2.88,0.86,4.633,0.86
		c1.717,0,3.149-0.277,4.297-0.831c1.141-0.55,1.717-1.421,1.717-2.606c0-0.609-0.126-1.133-0.369-1.573
		c-0.258-0.439-0.672-0.831-1.266-1.174c-0.591-0.343-1.373-0.661-2.344-0.945c-0.975-0.288-2.189-0.602-3.633-0.945
		c-1.034-0.229-2.053-0.532-3.064-0.916c-1.019-0.384-1.92-0.886-2.721-1.517c-0.805-0.628-1.455-1.392-1.949-2.289
		c-0.495-0.897-0.742-1.975-0.742-3.234c0-1.299,0.292-2.437,0.89-3.408c0.587-0.975,1.381-1.794,2.37-2.462
		c0.997-0.668,2.108-1.174,3.352-1.517c1.237-0.343,2.521-0.517,3.862-0.517c2.256,0,4.19,0.295,5.811,0.89
		c1.624,0.594,3.049,1.421,4.271,2.492l-2.809,3.548c-0.801-0.724-1.802-1.333-3.001-1.835c-1.211-0.491-2.607-0.746-4.212-0.746
		c-1.647,0-2.961,0.27-3.95,0.805c-0.997,0.535-1.492,1.41-1.492,2.632c0,1.148,0.665,1.997,1.979,2.551
		c1.314,0.554,3.038,1.078,5.18,1.573c1.259,0.306,2.437,0.661,3.518,1.06c1.093,0.402,2.045,0.916,2.869,1.547
		c0.82,0.628,1.466,1.403,1.949,2.319c0.469,0.916,0.712,2.023,0.712,3.323c0,1.333-0.306,2.507-0.916,3.518
		c-0.613,1.012-1.436,1.861-2.462,2.551c-1.03,0.683-2.219,1.2-3.548,1.543c-1.34,0.34-2.736,0.513-4.183,0.513
		c-5.039,0-8.812-1.351-11.338-4.061L131.722,378.912z"/>
	<path style="fill:#1C2C38;" d="M159.316,363.282h-4.807v-4.293h4.807v-8.706h5.15v8.706h7.79v4.293h-7.79v13.11
		c0,2.138,0.336,3.607,1.004,4.412c0.668,0.801,1.613,1.2,2.835,1.2c0.989,0,1.809-0.155,2.459-0.458
		c0.646-0.306,1.299-0.768,1.949-1.377l2.348,3.149c-1.111,1.071-2.248,1.846-3.411,2.322c-1.163,0.476-2.544,0.716-4.146,0.716
		c-2.828,0-4.895-0.764-6.21-2.289c-1.325-1.532-1.979-3.913-1.979-7.158V363.282z"/>
	<path style="fill:#1C2C38;" d="M179.467,385.611v-24.045v-0.919c0-0.343-0.022-0.897-0.059-1.658h4.925l0.174,4.294
		c0.306-0.458,0.705-0.964,1.2-1.517c0.495-0.554,1.1-1.06,1.805-1.521c0.705-0.454,1.525-0.845,2.466-1.17
		c0.93-0.325,2.005-0.487,3.227-0.487c0.576,0,1.1,0.037,1.58,0.114c0.473,0.081,0.923,0.192,1.344,0.343l-1.148,4.807
		c-0.683-0.262-1.565-0.399-2.632-0.399c-1.108,0-2.123,0.21-3.061,0.628c-0.941,0.425-1.746,1.004-2.429,1.75
		c-0.69,0.742-1.237,1.613-1.639,2.606c-0.399,0.993-0.594,2.038-0.594,3.149v14.025H179.467z"/>
	<path style="fill:#1C2C38;" d="M201.338,392.138c0.377,0.343,0.823,0.646,1.314,0.916c0.498,0.266,1.108,0.399,1.835,0.399
		c0.613,0,1.137-0.133,1.573-0.399c0.443-0.27,0.842-0.679,1.207-1.233c0.354-0.55,0.705-1.222,1.023-2.001
		c0.329-0.783,0.701-1.687,1.122-2.721l0.683-1.717l-11.906-26.393h5.9l8.58,20.095l7.565-20.095h5.608l-10.647,25.935
		c-0.495,1.222-1.004,2.566-1.517,4.035c-0.521,1.469-1.159,2.861-1.923,4.179c-0.764,1.314-1.695,2.414-2.798,3.297
		c-1.115,0.875-2.503,1.314-4.183,1.314c-1.34,0-2.459-0.181-3.374-0.546c-0.919-0.362-1.717-0.849-2.407-1.458L201.338,392.138z"/>
	<path style="fill:#1C2C38;" d="M251.213,386.412c-2.056,0-3.95-0.373-5.667-1.119c-1.717-0.742-3.201-1.761-4.438-3.061
		c-1.24-1.299-2.211-2.795-2.913-4.497c-0.716-1.698-1.063-3.518-1.063-5.464c0-1.949,0.347-3.773,1.063-5.471
		c0.701-1.695,1.672-3.193,2.913-4.493c1.237-1.296,2.721-2.315,4.438-3.064c1.717-0.746,3.611-1.115,5.667-1.115
		c2.019,0,3.899,0.369,5.615,1.115c1.717,0.749,3.208,1.768,4.463,3.064c1.259,1.299,2.241,2.798,2.946,4.493
		c0.705,1.698,1.063,3.522,1.063,5.471c0,1.946-0.358,3.766-1.063,5.464c-0.705,1.702-1.687,3.197-2.946,4.497
		c-1.255,1.3-2.747,2.319-4.463,3.061C255.111,386.039,253.232,386.412,251.213,386.412 M251.213,381.945
		c1.373,0,2.617-0.277,3.725-0.827c1.104-0.554,2.042-1.277,2.806-2.178c0.764-0.897,1.347-1.927,1.746-3.09
		c0.399-1.163,0.602-2.355,0.602-3.578c0-1.185-0.203-2.359-0.602-3.526c-0.399-1.163-0.997-2.2-1.776-3.12
		c-0.786-0.912-1.717-1.647-2.806-2.204c-1.085-0.55-2.322-0.827-3.695-0.827c-1.373,0-2.61,0.277-3.718,0.827
		c-1.111,0.557-2.042,1.281-2.806,2.178c-0.764,0.897-1.347,1.931-1.746,3.09c-0.399,1.167-0.602,2.359-0.602,3.581
		c0,1.222,0.203,2.403,0.602,3.548s0.989,2.178,1.776,3.094c0.779,0.916,1.717,1.65,2.806,2.204
		C248.61,381.668,249.839,381.945,251.213,381.945"/>
	<path style="fill:#1C2C38;" d="M273.148,363.282h-4.814v-4.293h4.814v-2.174c0-1.794,0.255-3.352,0.772-4.667
		c0.517-1.318,1.2-2.396,2.056-3.238c0.86-0.838,1.842-1.458,2.953-1.857c1.108-0.406,2.271-0.605,3.493-0.605
		c1.41,0,2.795,0.221,4.153,0.661c1.355,0.439,2.606,1.192,3.743,2.259l-2.573,3.323c-1.41-1.185-2.924-1.776-4.523-1.776
		c-1.491,0-2.684,0.48-3.577,1.432c-0.897,0.952-1.347,2.595-1.347,4.925v1.717h7.616v4.293h-7.616v22.328h-5.15V363.282z"/>
	<path style="fill:#1C2C38;" d="M335.465,378.912c-0.421,0.687-1.071,1.469-1.949,2.348c-0.879,0.875-1.949,1.706-3.208,2.488
		c-1.259,0.786-2.714,1.443-4.349,1.975c-1.643,0.535-3.456,0.805-5.438,0.805c-2.824,0-5.405-0.502-7.734-1.491
		c-2.326-0.989-4.327-2.378-6.007-4.15c-1.68-1.776-2.987-3.873-3.921-6.298c-0.938-2.422-1.403-5.065-1.403-7.93
		c0-2.784,0.465-5.397,1.403-7.842c0.934-2.444,2.241-4.585,3.921-6.413c1.68-1.835,3.696-3.271,6.036-4.323
		c2.352-1.052,4.954-1.576,7.819-1.576c2.023,0,3.832,0.247,5.442,0.746c1.599,0.495,3.005,1.119,4.201,1.861
		c1.207,0.742,2.234,1.554,3.094,2.433c0.856,0.879,1.554,1.717,2.093,2.518l-3.899,3.319c-0.458-0.646-0.997-1.322-1.628-2.03
		c-0.635-0.705-1.384-1.344-2.263-1.916c-0.879-0.572-1.89-1.052-3.031-1.432c-1.152-0.38-2.466-0.572-3.95-0.572
		c-2.101,0-3.98,0.399-5.645,1.203c-1.658,0.801-3.068,1.887-4.231,3.26c-1.167,1.377-2.053,2.983-2.662,4.811
		c-0.613,1.835-0.919,3.78-0.919,5.84c0,2.06,0.314,3.998,0.945,5.811c0.628,1.816,1.514,3.389,2.662,4.725
		c1.144,1.336,2.54,2.385,4.175,3.149c1.647,0.76,3.478,1.144,5.501,1.144c1.713,0,3.197-0.218,4.434-0.661
		c1.244-0.439,2.293-0.964,3.149-1.573c0.86-0.613,1.565-1.233,2.115-1.861c0.554-0.631,1.03-1.155,1.407-1.576L335.465,378.912z"/>
	<path style="fill:#1C2C38;" d="M340.84,358.988h5.157v15.628c0,2.521,0.517,4.342,1.543,5.471c1.03,1.122,2.522,1.687,4.464,1.687
		c1.491,0,2.721-0.306,3.696-0.916c0.975-0.609,1.768-1.399,2.378-2.377c0.609-0.975,1.041-2.078,1.288-3.319
		c0.247-1.24,0.369-2.51,0.369-3.806v-12.368h5.158v23.931v1.06c0,0.557,0.015,1.1,0.059,1.635h-4.925l-0.173-3.954
		c-0.343,0.461-0.764,0.956-1.259,1.491c-0.502,0.532-1.115,1.019-1.835,1.454c-0.724,0.439-1.562,0.816-2.521,1.119
		c-0.953,0.303-2.038,0.458-3.26,0.458c-3.478,0-6.029-1-7.672-3.005c-1.643-2.001-2.466-4.74-2.466-8.214V358.988z"/>
	<rect x="371.99" y="347.422" style="fill:#1C2C38;" width="5.158" height="38.189"/>
	<path style="fill:#1C2C38;" d="M386.479,363.282h-4.807v-4.293h4.807v-8.706h5.15v8.706h7.79v4.293h-7.79v13.11
		c0,2.138,0.332,3.607,1.004,4.412c0.668,0.801,1.613,1.2,2.835,1.2c0.989,0,1.813-0.155,2.459-0.458
		c0.646-0.306,1.299-0.768,1.949-1.377l2.348,3.149c-1.111,1.071-2.245,1.846-3.408,2.322c-1.167,0.476-2.547,0.716-4.15,0.716
		c-2.828,0-4.895-0.764-6.21-2.289c-1.325-1.532-1.979-3.913-1.979-7.158V363.282z"/>
	<path style="fill:#1C2C38;" d="M405.425,358.988h5.157v15.628c0,2.521,0.517,4.342,1.543,5.471c1.03,1.122,2.522,1.687,4.464,1.687
		c1.491,0,2.721-0.306,3.696-0.916c0.975-0.609,1.768-1.399,2.378-2.377c0.613-0.975,1.041-2.078,1.288-3.319
		c0.247-1.24,0.369-2.51,0.369-3.806v-12.368h5.158v23.931v1.06c0,0.557,0.015,1.1,0.059,1.635h-4.925l-0.173-3.954
		c-0.343,0.461-0.764,0.956-1.259,1.491c-0.502,0.532-1.115,1.019-1.835,1.454c-0.724,0.439-1.562,0.816-2.521,1.119
		c-0.953,0.303-2.038,0.458-3.26,0.458c-3.474,0-6.029-1-7.672-3.005c-1.643-2.001-2.466-4.74-2.466-8.214V358.988z"/>
	<path style="fill:#1C2C38;" d="M436.628,385.611v-24.045v-0.919c0-0.343-0.022-0.897-0.059-1.658h4.925l0.174,4.294
		c0.306-0.458,0.705-0.964,1.2-1.517c0.495-0.554,1.1-1.06,1.802-1.521c0.709-0.454,1.528-0.845,2.47-1.17
		c0.93-0.325,2.008-0.487,3.227-0.487c0.576,0,1.1,0.037,1.58,0.114c0.473,0.081,0.923,0.192,1.344,0.343l-1.148,4.807
		c-0.683-0.262-1.565-0.399-2.632-0.399c-1.108,0-2.126,0.21-3.061,0.628c-0.941,0.425-1.746,1.004-2.433,1.75
		c-0.687,0.742-1.233,1.613-1.635,2.606c-0.399,0.993-0.594,2.038-0.594,3.149v14.025H436.628z"/>
	<path style="fill:#1C2C38;" d="M480.317,381.717c-0.306,0.343-0.764,0.783-1.373,1.318c-0.613,0.535-1.407,1.048-2.378,1.547
		c-0.978,0.495-2.119,0.923-3.437,1.285c-1.314,0.362-2.813,0.546-4.493,0.546c-2.064,0-3.95-0.343-5.667-1.034
		c-1.724-0.683-3.19-1.661-4.415-2.92c-1.222-1.255-2.16-2.765-2.824-4.522c-0.672-1.754-1.008-3.703-1.008-5.84
		c0-1.946,0.329-3.766,0.975-5.464c0.646-1.698,1.565-3.168,2.75-4.408c1.178-1.24,2.581-2.226,4.205-2.95
		c1.621-0.724,3.408-1.089,5.353-1.089c2.289,0,4.253,0.439,5.9,1.318c1.643,0.875,2.987,2.042,4.035,3.492s1.824,3.112,2.319,4.98
		s0.742,3.821,0.742,5.84h-21.01c0.037,1.181,0.299,2.271,0.772,3.264c0.48,0.993,1.119,1.85,1.92,2.577
		c0.797,0.724,1.717,1.299,2.747,1.717c1.034,0.421,2.119,0.628,3.267,0.628c2.248,0,4.102-0.38,5.549-1.144
		c1.455-0.764,2.503-1.506,3.149-2.234L480.317,381.717z M475.676,369.981c-0.151-2.064-0.879-3.814-2.175-5.264
		c-1.296-1.451-3.127-2.178-5.497-2.178c-1.222,0-2.322,0.21-3.29,0.628c-0.975,0.421-1.802,0.975-2.496,1.661
		c-0.683,0.687-1.218,1.48-1.599,2.374c-0.388,0.897-0.594,1.827-0.631,2.78H475.676z"/>
	<path style="fill:#E75032;" d="M387.465,131.74c-2.791,38.111,0.624,76.067-0.284,114.514c-0.166,7.07,0.709,14.627,0.192,21.727
		c-0.063,0.838-0.303,1.48-1.584,1.495c-1.746-0.181-3.496-0.34-5.261,0.022c-0.569-5.091-0.351-9.03-0.812-13.413
		c-1.008-9.569-0.439-17.374-0.517-27.8c-0.137-17.85-1.65-36.04-0.347-53.86c0.465-6.354,0.509-16.765,0.192-23.126
		c-0.329-6.464-0.668-11.26-0.27-19.508C381.864,131.411,384.755,131.404,387.465,131.74"/>
	<path style="fill:#E75032;" d="M71.085,121.01c3.12,0.306,4.486,1.237,4.729,4.729c0.358,5.228-0.399,8.089,0.159,13.213
		c1.857,17.053-2.123,34.334-0.34,51.394c0.941,9.019,0.037,17.127,0.358,26.186c0.476,13.464-0.133,28.734-0.465,44.539h-41.98
		c-1.473-2.064-1.204-12.578-0.753-15.318c0.391-2.396,0.373-4.84,0.351-7.265c-0.092-9.92,0.524-18.755,0.436-28.678
		c-0.055-5.829-0.111-11.688-1.06-17.44c-0.845-5.091,0.465-14.007-0.292-19.109c-0.956-6.416-1.458-44.682-1.126-52.011
		C31.102,121.25,66.149,120.53,71.085,121.01"/>
	<path style="fill:#751D43;" d="M148.078,129.945c-2.411-0.893-2.045,1.949-2.016,3.452c0.026,1.384-0.007,2.252-0.033,4.109
		c-0.048,3.684,0.266,13.737,0.306,17.363c0.074,6.103,0.458,11.43,0.354,16.24c-0.199,9.049-0.244,18.105,0.129,27.15
		c0.927,22.524-0.166,45.103,0.509,67.494c0.059,1.942,1.281,2.485,3.057,2.939l2.603,0.432
		c-0.089-19.179,1.429-39.285,0.214-58.409c-0.506-7.978-0.207-15.941-0.225-23.938c-0.022-7.672-0.063-15.343,0.078-23.015
		c0.085-4.652,0.037-9.304-0.111-13.955c-0.185-5.766,0.126-16.853-1.425-18.396C150.581,130.477,149.669,130.536,148.078,129.945"
		/>
	<path style="fill:#9DBEB9;" d="M106.608,253.359c2.551-0.055,2.056-1.949,2.034-3.47c-0.018-1.392,0.314-2.267,0.347-4.139
		c0.07-3.714-0.192-13.855-0.214-17.51c-0.044-6.151-0.399-11.526-0.27-16.373c0.247-9.126,0.336-18.253,0.015-27.375
		c-0.808-22.716,0.399-45.472-0.159-68.052c-0.052-1.96-1.34-2.056-3.544-2.126l-3.046,0.14
		c-0.015,19.338,0.199,39.913,0.473,60.502c0.111,8.059,0.018,14.332-0.004,22.395c-0.022,7.734,0.148,13.907,0.133,21.642
		c-0.007,4.094-0.185,8.62-0.233,14.313c-0.052,5.818-0.329,16.809,1.034,18.555C104.112,253.064,105.024,253.392,106.608,253.359"
		/>
	<path style="fill:#E75032;" d="M161.851,265.217c-2.333-0.299-2.651-1.344-2.573-4.017c0.233-7.912-0.273-24.798-1.111-35.143
		c-0.76-9.362-0.55-18.921,0.624-28.18c0.809-6.405-0.325-11.183-0.362-19.124c-0.048-10.448,0.591-18.625,0.543-25.669
		c-0.03-4.345-0.166-8.687-0.369-13.029c-0.192-4.05-0.137-13.003-0.107-13.992c0.679-0.233,3.075-0.177,3.71-0.111
		c2.241,0.24,3.319,0.506,4.921,1.277c0.967,4.142,0.653,12.862,0.679,17.739c0.011,2.865-0.196,14.694-0.004,17.54
		c0.314,4.733,0.144,9.503,0.177,14.258c0.041,6.058,0.406,12.102,0.391,18.156c-0.018,7.687-0.646,15.332-0.831,23.011
		c-0.347,14.155,1.44,32.422,1.288,44.247c-0.03,2.352,0.244,3.622-2.263,3.622C166.565,265.804,164.184,265.512,161.851,265.217"/>
	<path style="fill:#B61829;" d="M374.507,258.738c0.476-5.874-0.786-14.959-0.801-19.681c-0.007-2.769-0.321-14.221-0.144-16.979
		c0.292-4.581,0.074-9.2,0.07-13.804c-0.007-5.859,0.329-11.714,0.262-17.577c-0.078-7.439-0.801-14.837-1.06-22.266
		c-0.543-15.465,1.739-36.04,0.79-46.945c-3.884-0.842-8.657-1.056-13.904-0.938c-1.322,8.628-0.964,17.267-0.801,27.759
		c0.107,6.819-0.502,14.742-0.365,24.854c0.107,7.69,2.071,16.883,1.27,23.089c-1.155,8.975-1.299,18.227-0.424,27.283
		c1.251,12.947,0.794,34.201,0.956,34.478L374.507,258.738z"/>
	<path style="fill:#751D43;" d="M415.376,259.05c0.624-15.993,0.535-25.681,0.794-39.492c0.188-9.743-1.37-22.107-1.181-32.374
		c0.343-18.836,0.554-25.282-0.941-42.77c-0.336-3.935,0.229-11.356,0.081-15.303c-0.1-2.647-0.199-6.058-0.299-8.705
		c0,0,12.907,2.78,22.923,0.672c15.953-3.356,42.364,0.1,42.364,0.1c1.569,2.68,1.783,8.916,1.743,10.455
		c-0.295,11.544-0.535,7.487-0.133,19.024c0.373,10.88-1.658,20.497-1.658,35.87c0,10.097,1.517,16.735,1.864,23.462
		c0.358,6.918-0.845,12.718-0.399,23.694c0.277,6.767,0.122,24.507,0.233,26.135c0,0-47.544,0.277-57.682-0.938
		C417.731,258.234,415.376,259.05,415.376,259.05"/>
	<path style="fill:#FACAA3;" d="M328.406,114.63c0.262,23.89,0.476,50.383,1.654,71.969c0.395,7.192,0.185,16.215,0.469,24.425
		c0.125,3.655-0.506,10.95-0.797,15.805c-0.233,3.932-0.133,7.871-0.033,11.81c0.103,4.172,0.192,12.896-0.174,13.088
		c-2.44-0.388-5.017-0.41-7.749,0c-0.89-3.212-0.303-6.217-0.247-9.543c0.498-28.675-1.495-49.619-1.023-76.019
		c0.155-8.569-0.126-20.276-0.797-28.822c-0.58-7.395-0.318-15.716,0.58-23.082C323.112,114.21,325.811,114.346,328.406,114.63"/>
	<path style="fill:#F49501;" d="M408.22,115.903c0.738,12.323,0.162,20.442,0.399,31.041c0.21,9.311,1.237,17.245,0.676,27.933
		c-0.491,9.218,0.454,18.463,0.65,27.696c0.192,8.986,0.358,17.976,0.465,26.969c0.159,6.959,0.314,13.261,0.325,20.235
		c0.004,1.167-0.137,3.659-0.129,4.829c0,0-2.451-0.465-4.844-0.251c-6.04,0.539-10.695-0.185-12.46-0.513
		c-1.488-0.34-0.236-24.639-0.196-26.873c0.155-9.126,0.192-18.253,0.148-27.382c-0.041-9.233-0.908-19.039-1.085-28.272
		c-0.177-9.333,0.336-18.097,0.089-27.427c-0.247-9.418-0.524-17.429-0.768-26.847c-0.052-1.92,1.754-2.92,4.792-2.09
		C400.316,116.058,404.546,114.733,408.22,115.903"/>
	<path style="fill:#751D43;" d="M91.767,127.481c2.798,0.38,4.899,3.039,4.954,6.191c0.078,4.515-0.011,8.517-0.114,12.438
		c-0.118,4.39-0.255,8.672-0.196,13.453c0.236,19.497,1.078,38.118,0.207,58.309c-0.738,17.104,0.838,33.795,0.657,49.471
		c-5.206-0.299-11.375-0.764-16.41-1c1.421-28.937,0.517-56.33,0.185-86.441c-0.192-16.942,2.599-30.155,0.229-52.716
		C84.926,126.805,88.393,127.019,91.767,127.481"/>
	<path style="fill:#1C2C38;" d="M315.369,191.752c-0.358-10.308-0.284-29.793,0.495-40.142c0.871-11.515-1.979-28.948-8.344-28.567
		c-5.553-0.303-11.633,0.314-17.189,0.598c-4.46,0.225-10.164,0.247-14.616,0.631c-7.638,0.657-8.473-0.351-16.141-0.34
		c-9.566,0.011-17.824,0.775-27.39,0.79c-9.263,0.011-19.585-0.236-28.826-0.938c-9.071-0.687-18.718-1.949-27.733-1.683
		c-1.299,0.037-2.045,5.889-2.304,13.054c-0.247,6.911-0.698,21.867-0.126,29.04c4.212-5.169,9.518-7.188,14.708-7.664
		c4.168-0.384,9.008-0.631,13.516,0.081c0.45,0.07-2.953-3.134-5.73-5.357c-1.562-1.252-3.326-2.518-5.305-2.81
		c-2.448-0.358-4.988-0.126-7.461-0.255c1.783-1.558,4.936-5.545,12.685-4.486c4.172,0.576,11.161,7.827,13.682,5.844
		c2.799-2.2,1.698-10.839,5.409-11.773c3.024-0.764,5.021,10.747,6.468,13.283c3.378-4.316,8.454-7.435,13.937-8.07
		c2.858-0.332,11.652,0.716,12.844,4.917c0.007-0.048-11.205-2.049-18.168,8.026c9.89-3.913,19.862-2.621,28.224,3.814
		c2.318,1.787,3.821,3.67,5.394,5.811c2.237,3.042,1.975,4.412,1.923,6.151c-3.662-0.735-7.055-7.022-13.387-8.968
		c-5.316-1.635-10.998-1.318-16.277,0.303c12.028,1.949,28.634,17.95,22.901,31.052c-1.857,4.234-2.374,1.399-3.027-2.152
		c-0.783-4.238-1.957-6.653-3.98-9.389c-1.768-2.4-3.629-4.522-5.807-6.612c-1.92-1.838-7.823-4.449-10.588-4.297
		c7.749,2.175,12.718,17.584,13.383,19.227c1.613,3.987,1.591,8.565,1.691,12.803c0.059,2.448,0.262,10.946-2.843,11.755
		c0.044-0.015,0.513-20.575-14.055-32.352c3.803,6.66,4.105,14.826,3.666,22.258c-0.247,4.183-0.912,7.535-2.739,11.327
		c-0.399,0.827-1.938,4.607-2.547,4.744c-1.942,0.439-0.912-11.515-1.204-13.627c-0.358-2.61-5.069-20.279-10.016-15.941
		c-2.514,2.2-1.233,12.139-0.923,16.558c0.377,5.427,1.03,13.346,1.13,18.788c0.203,11.297,0.513,19.205,1.971,30.535
		c12.944-6.97,69.916-36.158,78.046-12.08c0.03,0.764-0.45,0.222-0.45,0.222h-0.007c-5.571-8.336-20.77-4.039-28.372-1.698
		c-13.527,4.172-26.478,10.751-38.739,17.769c20.154,0.048,51.21-0.018,74.221,0c5.302,0.004,9.54-4.382,9.363-9.68
		c-0.133-3.895-0.24-8.55-0.24-13.616c0-5.667,0.295-11.844,0.45-17.511C317.248,209.798,315.764,203.079,315.369,191.752
		 M202.332,203.614c-0.809,2.924-1.787,7.904-1.935,9.178c-0.144,1.274-1.189,8.311-1.189,8.311
		c-0.476-0.27-0.724-0.801-0.941-1.296c-2.861-6.498-2.296-16.757-2.293-16.805c0.989-16.148,6.738-20.442,6.771-20.398
		c-2.588-1.48-7.794,4.604-10.526,8.44c-3.655,5.128-3.02,8.654-3.485,16.613c-1.953-0.395-3.895-3.655-4.02-6.073
		c-0.661-12.552,4.888-24.086,10.932-28.796c0.683-0.602-6.959,0.89-8.299,1.436c-4.954,2.023-8.488,5.56-10.924,10.304
		c-5.106,9.95-1.846,21.789-2.558,32.651c-0.413,6.269,0.502,12.434,0.443,18.714c-0.048,4.733-1.24,5.619,3.485,6.047
		c1.875,0.17,3.74,0.458,5.578,0.856c11.142,2.403,20.073,7.528,27.914,15.676c1.248-14.498,1.418-27.859,1.418-42.423
		c0-5.752,0.949-18.075-2.887-22.993C205.924,188.068,203.233,200.339,202.332,203.614 M174.997,245.938
		c-0.255,5.623,0.085,10.167,0.185,16.728c5.542-0.384,8.831,0.107,14.354,0.45c5.309,0.329,10.939-0.251,16.259,0.458
		C197.673,254.768,187.306,247.016,174.997,245.938 M184.083,168.224c1.99-1.325,10.127-5.453,11.101-5.401
		c-5.859-2.241-12.885-1.709-18.064,1.58c-5.014,3.182-3.334,11.969-3.984,17.603C175.643,176.97,179.365,171.377,184.083,168.224"
		/>
	<path style="fill:#9DBEB9;" d="M350.382,125.622c0.753,0.103,1.314,0.738,1.333,1.492c0.38,15.672,0.72,29.797,1.731,45.989
		c0.402,6.428,0.727,15.916-0.207,23.458c-1.233,9.931,1.299,17.983,0.598,27.962c-0.93,13.169,1.015,23.982,0.269,37.162
		l-16.362,0.358c-1.348,0.044-2.57-1.233-2.381-4.382c0.188-3.153-0.078-16.717-0.078-26.899c0-10.178,1.348-19.648,0.225-30.982
		c-0.557-5.593,0.772-11.541,0.447-17.152c-0.587-10.167-0.912-19.046-1.122-29.228c-0.125-6.01,0.011-15.247-0.177-21.154
		c-0.137-4.116,0.764-7.14,3.035-8.163C340.296,122.916,347.432,125.224,350.382,125.622"/>
	<path style="fill:#F49501;" d="M114.225,245.781c-0.162,3.803-0.244,5.11-0.244,6.542c0,0.956,0.853,1.122,1.621,1.547
		c0.513,0.281,4.918,1.207,6.357,1.514c1.248,0.266,3.035,0.465,4.308,0.443c4.238-0.07,8.436,1.392,12.663,0.997
		c0.137-0.015,0.273-0.063,0.395-0.137c0.354-0.225,1.536-0.779,1.861-3.149c0.487-3.596-0.498-6.738,0.052-13.294
		c0.554-6.557,0.066-24.315,0.103-28.582c0.262-32.348-1.573-32.88-0.753-57.848c0.288-8.82,0.066-11.733-0.897-20.948
		c-0.251-2.448-1.37-8.617-0.816-12.885c0.199-1.551-0.753-2.865-2.274-2.946c-7.011-0.362-21.73,0.76-21.73,0.76
		c-0.794,3.26-0.952,6.346-0.753,10.74c0.14,3.053-0.439,8.078-0.443,11.135c-0.007,3.444-0.233,6.874-0.078,10.315
		c0.421,9.23,0.668,18.471,0.388,27.704c-0.713,23.392,1.344,36.963,0.439,59.952L114.225,245.781z"/>
</g>
</svg>
