<?xml version="1.0" encoding="utf-8"?>
<!-- Generator: Adobe Illustrator 22.0.1, SVG Export Plug-In . SVG Version: 6.00 Build 0)  -->
<svg version="1.1" id="Layer_1" xmlns="http://www.w3.org/2000/svg" xmlns:xlink="http://www.w3.org/1999/xlink" x="0px" y="0px"
	 viewBox="0 0 1000 1000" style="enable-background:new 0 0 1000 1000;" xml:space="preserve">
<style type="text/css">
	.st0{fill:#20BAAC;}
	.st1{fill:#A3A2A3;}
</style>
<g>
	<g>
		<path class="st0" d="M341.7,477.3l-9.1-9.1l133.8-133.8c0.9-0.9,0.9-2.4,0-3.3L358.5,223.2l9.1-9.1l107.8,107.8c6,6,6,15.6,0,21.6
			"/>
		<path class="st0" d="M412.9,323.1H267.1v-12.9h132.4l-34.2-34.2l9.1-9.1l43.7,43.7c2.1,2.1,2.7,5.2,1.6,8
			C418.6,321.3,415.9,323.1,412.9,323.1"/>
		<path class="st0" d="M374.4,398.6l-9.1-9.1l34.2-34.2h-89.9v-12.9h103.3c3,0,5.7,1.8,6.8,4.5c1.1,2.7,0.5,5.9-1.6,8"/>
		<path class="st0" d="M500,312.6c-3.9,0-7.8-1.5-10.8-4.5L355.5,174.4l9.1-9.1L498.4,299c0.9,0.9,2.4,0.9,3.3,0l107.8-107.8
			l9.1,9.1L510.8,308.1C507.9,311.1,503.9,312.6,500,312.6"/>
		<path class="st0" d="M517,253c-0.9,0-1.9-0.2-2.8-0.6c-2.8-1.1-4.5-3.8-4.5-6.8V99.8h12.9v132.4l34.2-34.2l9.1,9.1l-43.7,43.7
			C520.8,252.2,518.9,253,517,253"/>
		<path class="st0" d="M483.1,253c-1.9,0-3.8-0.7-5.2-2.2l-43.7-43.7l9.1-9.1l34.2,34.2v-89.9h12.9v103.3c0,3-1.8,5.6-4.5,6.8
			C484.9,252.8,484,253,483.1,253"/>
		<path class="st0" d="M632.4,451.3L524.6,343.5c-6-6-6-15.6,0-21.6l133.8-133.8l9.1,9.1L533.7,331.1c-0.9,0.9-0.9,2.4,0,3.3
			l107.8,107.8"/>
		<path class="st0" d="M625.6,398.6l-43.7-43.7c-2.1-2.1-2.7-5.2-1.6-8c1.1-2.8,3.8-4.5,6.8-4.5h145.8v12.9H600.5l34.2,34.2"/>
		<path class="st0" d="M690.4,323.1H587.1c-3,0-5.7-1.8-6.8-4.5c-1.1-2.8-0.5-5.9,1.6-8l43.7-43.7l9.1,9.1l-34.2,34.2h89.9"/>
		<path class="st0" d="M635.4,500.2L501.7,366.4c-0.6-0.6-1.3-0.7-1.7-0.7c-0.4,0-1.1,0.1-1.7,0.7L390.5,474.2l-9.1-9.1l107.8-107.8
			c2.9-2.9,6.7-4.5,10.8-4.5c4.1,0,7.9,1.6,10.8,4.5l133.8,133.8"/>
		<path class="st1" d="M488.3,681c1.6-1.6,2.4-3.8,2.3-6c-0.1-2.2-1.2-4.3-2.9-5.7L359.6,566l-8.1,10l123.7,99.8l-33.3,33.3h18.3"/>
		<path class="st1" d="M524.8,675.9l123.7-99.8l-8.1-10L512.3,669.4c-1.7,1.4-2.8,3.5-2.9,5.7c-0.1,2.2,0.7,4.4,2.3,6l28.1,28.1
			h18.3"/>
		<path class="st1" d="M477.5,619.6L264.9,448.1l-8.1,10l219.4,177c1.6,1.3,3.5,2,5.5,2c1.8,0,3.5-0.5,5.1-1.7
			c2.4-1.7,3.6-4.6,3.6-7.5v-213h-12.9"/>
		<path class="st1" d="M735.1,448.1L522.5,619.6V414.9h-12.9v213c0,2.9,1.2,5.8,3.6,7.5c1.6,1.1,3.4,1.6,5.1,1.6c2,0,3.9-0.7,5.5-2
			l219.3-177"/>
	</g>
	<g>
		<polyline class="st1" points="164.3,834.6 169.2,839.5 174.1,834.6 169.2,829.7 		"/>
		<polyline class="st1" points="174.1,834.6 179.1,839.5 184,834.6 179.1,829.7 		"/>
		<path class="st1" d="M347.6,816.8h-16.7c-0.5,0-1.1,0-1.7-0.2c-0.7-0.1-1.3-0.3-1.8-0.5c-0.6-0.2-1.1-0.5-1.4-0.9
			c-0.4-0.4-0.6-0.8-0.6-1.3v-26.3h-6.9v22.6c0,2.3-0.3,3.9-1,5c-0.7,1-2.1,1.5-4.3,1.5h-15c-1-1.3-1.8-3-2.1-4.9
			c-0.4-2-0.7-4.1-1-6.3c-0.3-2.2-0.7-4.4-1.1-6.6c-0.4-2.2-1.3-4.2-2.4-6c-1.2-1.8-2.8-3.2-4.9-4.3c-2.1-1.1-4.9-1.7-8.5-1.7
			c-2.3,0-4.3,0.2-6,0.6c-1.7,0.4-3.1,0.8-4.1,1.3l-0.7,5.5c0.9-0.3,2.8-0.9,4.3-1.2c1.5-0.4,3.4-0.5,5.5-0.5c2.3,0,4.2,0.4,5.5,1.2
			c1.3,0.8,2.4,1.9,3.1,3.2c0.7,1.3,1.2,2.8,1.5,4.5c0.3,1.7,0.5,3.4,0.7,5.2c0.2,1.8,0.5,3.6,0.9,5.3c0.4,1.8,1,3.3,1.8,4.7h-31.7
			h-1.6c-0.5,0-1.1,0-1.7-0.2c-0.7-0.1-1.3-0.3-1.8-0.5c-0.5-0.2-1-0.5-1.4-0.9c-0.4-0.4-0.6-0.8-0.6-1.3v-5.7c0-3-0.3-5.8-0.9-8.3
			c-0.6-2.5-1.7-4.7-3.4-6.5c-1.7-1.8-4-3.2-6.9-4.2c-2.9-1-6.7-1.5-11.2-1.5c-1.6,0-3.4,0.1-5.3,0.3c-2,0.2-3.9,0.4-5.9,0.7
			c-2,0.3-3.9,0.6-5.6,1c-1.8,0.4-3.3,0.7-4.5,0.9v-27.4h-6.9v53.5h-17.3c-0.5,0-1.1,0-1.7-0.2c-0.7-0.1-1.3-0.3-1.8-0.5
			c-0.6-0.2-1.1-0.5-1.4-0.9c-0.4-0.4-0.6-0.8-0.6-1.3v-26.3h-6.9v22.6c0,2.3-0.3,3.9-1,5c-0.7,1-2.1,1.5-4.3,1.5h-11.8
			c-0.5,0-1.1,0-1.7-0.2c-0.7-0.1-1.3-0.3-1.8-0.5c-0.6-0.2-1-0.5-1.4-0.9c-0.4-0.4-0.6-0.8-0.6-1.3v-5.7c0-3-0.3-5.8-0.9-8.3
			c-0.6-2.5-1.7-4.7-3.4-6.5c-1.7-1.8-4-3.2-6.9-4.2c-2.9-1-6.7-1.5-11.2-1.5c-1.6,0-3.3,0.1-5.3,0.3c-1.9,0.2-3.9,0.4-5.8,0.7
			c-2,0.3-3.8,0.6-5.6,1c-1.8,0.4-3.3,0.7-4.5,0.9v-27.4h-6.9v53.5h-7.8l-0.8,5.7H138c2.8,0,5-0.4,6.4-1.1c1.4-0.7,2.5-1.5,3.1-2.4
			c0.9,1.3,1.9,2.2,3.2,2.7c1.2,0.5,2.7,0.8,4.2,0.8h0.9h11.7c2.8,0,5-0.4,6.4-1.1c1.4-0.7,2.5-1.5,3.1-2.4c0.9,1.3,1.9,2.2,3.2,2.7
			c1.2,0.5,2.6,0.8,4.2,0.8H241c2.8,0,5-0.4,6.4-1.1c1.4-0.7,2.5-1.5,3.1-2.4c0.9,1.3,1.9,2.2,3.2,2.7c1.2,0.5,2.6,0.8,4.2,0.8h0.9
			h55.7c2.8,0,5-0.4,6.4-1.1c1.4-0.7,2.5-1.5,3.1-2.4c0.9,1.3,1.9,2.2,3.2,2.7c1.2,0.5,2.6,0.8,4.2,0.8h23v-59.3h-6.9 M141.9,810.4
			c0,2.3-0.3,3.9-1,5c-0.7,1-2.1,1.5-4.3,1.5h-31.5v-20.9c1.2-0.3,2.6-0.6,4.2-0.9c1.6-0.3,3.2-0.6,5-0.9c1.7-0.3,3.5-0.5,5.3-0.7
			c1.8-0.2,3.5-0.2,5.1-0.2c3.4,0,6.3,0.3,8.5,1c2.2,0.7,4,1.7,5.3,3.1c1.3,1.4,2.2,3.1,2.7,5.1c0.5,2,0.7,4.5,0.7,7.2V810.4z
			 M244.9,810.4c0,2.3-0.3,3.9-1,5c-0.7,1-2.1,1.5-4.3,1.5H208v-20.9c1.2-0.3,2.6-0.6,4.2-0.9c1.6-0.3,3.3-0.6,5-0.9
			c1.8-0.3,3.6-0.5,5.3-0.7c1.8-0.2,3.5-0.2,5.1-0.2c3.4,0,6.3,0.3,8.5,1c2.2,0.7,4,1.7,5.3,3.1c1.3,1.4,2.2,3.1,2.7,5.1
			c0.5,2,0.7,4.5,0.7,7.2V810.4z"/>
		<rect x="370.2" y="763.3" class="st1" width="6.9" height="59.3"/>
		<path class="st1" d="M413.2,787.1c-3.9,0-7.3,0.4-10.1,1.3c-2.8,0.9-5.1,2.1-6.8,3.7c-1.8,1.6-3.1,3.5-3.9,5.7
			c-0.8,2.2-1.3,4.6-1.3,7.3c0,1.8,0.2,3.7,0.7,5.8c0.5,2.1,1.5,4,2.9,5.7c1.4,1.7,3.5,3.2,6.1,4.3c2.6,1.1,6.1,1.7,10.4,1.7h4.8
			c-0.2,3.1-1,5.4-2.4,6.8c-1.4,1.4-3.8,2.1-7.1,2.1h-10v5.5h10c3.3,0,6-0.4,8.1-1.1c2.2-0.8,3.8-1.9,5.1-3.3
			c1.2-1.5,2.1-3.2,2.5-5.3c0.5-2.1,0.7-4.4,0.7-7v-32.4c-1.6-0.1-3.3-0.2-5.1-0.4C416.2,787.2,414.6,787.1,413.2,787.1
			 M416.2,816.8h-4.3c-2.1,0-4-0.2-5.7-0.6c-1.7-0.4-3.1-1.1-4.4-2c-1.2-0.9-2.2-2.1-2.8-3.7c-0.7-1.5-1-3.3-1-5.5
			c0-2.9,0.5-5.2,1.5-6.9c1-1.7,2.3-2.9,3.8-3.8c1.5-0.8,3.2-1.4,5-1.5c1.8-0.2,3.5-0.3,5.1-0.3c0.5,0,1,0,1.5,0
			c0.5,0,1,0.1,1.4,0.1V816.8z"/>
		<path class="st1" d="M484.1,792.9c-1.6-1.6-3.9-2.9-6.9-3.8c-2.9-0.9-6.7-1.4-11.4-1.4h-7.1l-0.8,5.5h7.4c3.8,0,6.7,0.4,8.8,1.1
			c2.1,0.7,3.7,1.7,4.8,3c1.1,1.3,1.7,2.8,2,4.6c0.3,1.8,0.4,3.8,0.4,5.9v8.9h-27.7v5.7h34.6v-16.1c0-2.8-0.3-5.4-0.9-7.7
			C486.9,796.5,485.8,794.5,484.1,792.9"/>
		<path class="st1" d="M644.4,787.1c-3.4,0-6.4,0.4-8.9,1.3c-2.5,0.9-4.6,2.1-6.2,3.6c-1.6,1.5-2.9,3.3-3.7,5.4
			c-0.8,2.1-1.2,4.3-1.2,6.8c0,1.9,0.2,3.9,0.7,6.1c0.5,2.2,1.2,4.4,2.1,6.6h-15.7c-0.5,0-1.1,0-1.7-0.2c-0.6-0.1-1.3-0.3-1.8-0.5
			c-0.6-0.2-1.1-0.5-1.4-0.9c-0.4-0.4-0.6-0.8-0.6-1.3v-26.3H599v22.6c0,2.3-0.3,3.9-1,5c-0.7,1-2.1,1.5-4.3,1.5h-5.8h-3.8
			c-0.5,0-1.1,0-1.7-0.2c-0.7-0.1-1.3-0.3-1.8-0.5c-0.6-0.2-1-0.5-1.4-0.9c-0.4-0.4-0.6-0.8-0.6-1.3v-5.7c0-3-0.3-5.8-0.9-8.3
			c-0.6-2.5-1.7-4.7-3.4-6.5c-1.7-1.8-4-3.2-6.9-4.2c-2.9-1-6.7-1.5-11.2-1.5c-1.6,0-3.4,0.1-5.3,0.3c-2,0.2-3.9,0.4-5.9,0.7
			c-2,0.3-3.8,0.6-5.6,1c-1.8,0.4-3.3,0.7-4.5,0.9v-3H528v29.1h-13.7h-2.1c-2.4,0-4-0.6-4.7-1.7c-0.7-1.1-1.1-2.7-1.1-4.9v-47h-6.9
			v47.9c0,4.1,1.1,7,3.2,8.7c2.1,1.7,4.9,2.6,8.4,2.6h3.1h53.7c2.8,0,5-0.4,6.4-1.1c1.4-0.7,2.5-1.5,3.1-2.4
			c0.9,1.3,1.9,2.2,3.2,2.7c1.2,0.5,2.6,0.8,4.2,0.8h3.1h7.3c2.8,0,5-0.4,6.4-1.1c1.4-0.7,2.5-1.5,3.1-2.4c0.9,1.3,1.9,2.2,3.2,2.7
			c1.2,0.5,2.6,0.8,4.2,0.8h44.7v-34.8c-1.7-0.1-3.6-0.2-5.5-0.4C649.3,787.2,647,787.1,644.4,787.1 M571.7,810.4c0,2.3-0.3,3.9-1,5
			c-0.6,1-2.1,1.5-4.3,1.5h-31.5v-20.9c1.2-0.3,2.6-0.6,4.2-0.9c1.6-0.3,3.3-0.6,5-0.9c1.8-0.3,3.6-0.5,5.3-0.7
			c1.8-0.2,3.5-0.2,5.1-0.2c3.4,0,6.3,0.3,8.5,1c2.2,0.7,4,1.7,5.3,3.1c1.3,1.4,2.2,3.1,2.7,5.1c0.5,2,0.7,4.5,0.7,7.2V810.4z
			 M649.9,816.8h-15.2c-1.5-3.6-2.4-6.3-2.7-8.4c-0.3-2-0.5-3.5-0.5-4.4c0-4.2,1.3-7.2,3.9-8.9c2.6-1.7,6.4-2.6,11.4-2.6
			c0.4,0,0.9,0,1.5,0.1c0.5,0.1,1.1,0.1,1.6,0.2V816.8z"/>
		<polyline class="st1" points="705.3,816.8 690.3,816.8 690.3,777.6 683.4,777.6 683.4,816.8 666.6,816.8 666.6,822.6 712.2,822.6 
			712.2,763.3 705.3,763.3 		"/>
		<rect x="727.9" y="763.3" class="st1" width="6.9" height="59.3"/>
		<path class="st1" d="M795.9,792.6c-1.5-1.7-3.2-3-5.4-4.1c-2.2-1-4.7-1.5-7.5-1.5c-2.8,0-5.3,0.5-7.5,1.5c-2.2,1-4,2.4-5.4,4.1
			c-1.4,1.7-2.5,3.6-3.3,5.9c-0.7,2.2-1.1,4.5-1.1,6.9c0,2,0.3,4,0.9,6.1c0.6,2.1,1.6,4,3,5.7c1.4,1.7,3.2,3.1,5.4,4.2
			c2.2,1.1,4.8,1.6,7.9,1.6c3.1,0,5.8-0.5,7.9-1.6c2.2-1.1,4-2.5,5.4-4.2c1.4-1.7,2.4-3.6,3-5.7c0.6-2.1,0.9-4.1,0.9-6.1
			c0-2.4-0.4-4.7-1.1-6.9C798.5,796.2,797.4,794.3,795.9,792.6 M792.6,810c-0.4,1.4-1,2.6-1.8,3.7c-0.8,1.1-1.9,1.9-3.2,2.6
			c-1.3,0.6-2.8,0.9-4.5,0.9c-1.7,0-3.3-0.3-4.6-0.9c-1.3-0.6-2.3-1.5-3.1-2.6c-0.8-1.1-1.4-2.3-1.9-3.7c-0.4-1.4-0.6-2.9-0.6-4.5
			c0-1.8,0.2-3.5,0.7-5c0.5-1.6,1.1-2.9,2-4.1c0.9-1.1,1.9-2,3.2-2.7c1.3-0.6,2.7-1,4.3-1c1.6,0,3,0.3,4.3,1
			c1.3,0.7,2.3,1.6,3.2,2.7c0.9,1.1,1.5,2.5,2,4.1c0.5,1.6,0.7,3.2,0.7,5C793.2,807.1,793,808.6,792.6,810"/>
		<path class="st1" d="M816.1,821.2c0,3.5-0.6,6-1.9,7.6c-1.2,1.6-3.5,2.4-6.9,2.4h-0.9v5.7h1.5c3,0,5.5-0.4,7.4-1.2
			c2-0.8,3.5-1.9,4.6-3.3c1.1-1.4,1.9-3.1,2.3-5c0.4-1.9,0.6-4.1,0.6-6.4v-33.4h-6.9"/>
		<rect x="836.8" y="763.3" class="st1" width="6.9" height="59.3"/>
		<path class="st1" d="M860.9,821.2c0,3.5-0.6,6-1.9,7.6c-1.2,1.6-3.5,2.4-6.9,2.4h-0.9v5.7h1.5c3,0,5.5-0.4,7.5-1.2
			c2-0.8,3.5-1.9,4.6-3.3c1.1-1.4,1.9-3.1,2.3-5c0.4-1.9,0.7-4.1,0.7-6.4v-33.4h-6.9"/>
		<path class="st1" d="M905.3,787.3c-1.8-0.2-3.4-0.3-4.8-0.3c-3.9,0-7.3,0.4-10.1,1.3c-2.8,0.9-5.1,2.1-6.8,3.7
			c-1.8,1.6-3.1,3.5-3.9,5.7c-0.9,2.2-1.3,4.6-1.3,7.3c0,1.8,0.2,3.7,0.7,5.8c0.5,2.1,1.5,4,2.9,5.7c1.4,1.7,3.5,3.2,6.1,4.3
			c2.6,1.1,6.1,1.7,10.4,1.7h4.8c-0.2,3.1-1,5.4-2.4,6.8c-1.4,1.4-3.8,2.1-7.1,2.1h-10v5.5h10c3.3,0,6-0.4,8.1-1.1
			c2.2-0.8,3.8-1.9,5.1-3.3c1.2-1.5,2.1-3.2,2.5-5.3c0.5-2.1,0.7-4.4,0.7-7v-32.4C908.7,787.6,907,787.5,905.3,787.3 M903.5,816.8
			h-4.3c-2.1,0-4-0.2-5.7-0.6c-1.7-0.4-3.1-1.1-4.4-2c-1.2-0.9-2.2-2.1-2.8-3.7c-0.6-1.5-1-3.3-1-5.5c0-2.9,0.5-5.2,1.5-6.9
			c1-1.7,2.3-2.9,3.8-3.8c1.5-0.8,3.2-1.4,5-1.5c1.8-0.2,3.5-0.3,5.1-0.3c0.5,0,1,0,1.5,0c0.5,0,0.9,0.1,1.4,0.1V816.8z"/>
		<polyline class="st1" points="602.5,774.1 597.5,769.1 592.6,774.1 597.5,779 		"/>
		<polyline class="st1" points="612.3,774.1 607.4,769.1 602.5,774.1 607.4,779 		"/>
		<polyline class="st1" points="321.9,774.1 317,769.1 312,774.1 317,779 		"/>
		<polyline class="st1" points="285.6,774.1 280.7,769.1 275.8,774.1 280.7,779 		"/>
		<polyline class="st1" points="331.7,774.1 326.8,769.1 321.9,774.1 326.8,779 		"/>
		<polyline class="st1" points="647.1,774.1 642.2,769.1 637.3,774.1 642.2,779 		"/>
		<polyline class="st1" points="647.1,774.1 652.1,779 657,774.1 652.1,769.1 		"/>
		<polyline class="st1" points="783,774.1 778.1,769.1 773.2,774.1 778.1,779 		"/>
		<polyline class="st1" points="792.9,774.1 788,769.1 783,774.1 788,779 		"/>
		<polyline class="st1" points="859.2,774.1 864.1,779 869,774.1 864.1,769.1 		"/>
		<polyline class="st1" points="95.6,864.6 105.3,884.9 114.7,864.6 120.7,864.6 120.7,899.5 115,899.5 115,874.8 107.5,891.2 
			102.9,891.2 95.3,875.1 95.3,899.5 89.6,899.5 89.6,864.6 		"/>
		<rect x="128.3" y="864.6" class="st1" width="6.1" height="34.9"/>
		<polyline class="st1" points="147.3,864.6 162.4,889.5 162.4,864.6 168,864.6 168,899.5 162.7,899.5 147.6,874.6 147.6,899.5 
			142,899.5 142,864.6 		"/>
		<rect x="175.6" y="864.6" class="st1" width="6.1" height="34.9"/>
		<path class="st1" d="M198,900c-2,0-3.9-0.1-5.7-0.4c-1.8-0.3-3.4-0.7-4.7-1.1l1-4.8c1.4,0.4,2.8,0.7,4.4,0.9
			c1.5,0.3,3.1,0.4,4.8,0.4c2.7,0,4.6-0.4,5.8-1.3c1.1-0.9,1.7-2.3,1.7-4.2c0-0.6-0.1-1.2-0.2-1.7c-0.1-0.5-0.4-1-0.7-1.4
			c-0.4-0.4-0.9-0.8-1.5-1.1c-0.6-0.3-1.5-0.5-2.5-0.6l-3.9-0.5c-2.8-0.4-4.9-1.4-6.3-3c-1.4-1.6-2.2-3.7-2.2-6.4v-0.5
			c0-3.5,1.1-6,3.3-7.6c2.2-1.6,5.5-2.4,9.9-2.4c1.7,0,3.3,0.1,4.8,0.4c1.5,0.2,3,0.6,4.5,1.1l-1,4.8c-1.1-0.4-2.3-0.7-3.7-0.9
			c-1.4-0.2-2.9-0.3-4.6-0.3c-2.6,0-4.5,0.4-5.7,1.1c-1.2,0.8-1.8,2-1.8,3.9c0,1.5,0.4,2.5,1.1,3.2c0.8,0.7,2,1.2,3.8,1.4l3.8,0.6
			c1.3,0.2,2.5,0.5,3.6,1c1.1,0.4,2,1,2.8,1.7c0.8,0.7,1.4,1.6,1.8,2.7c0.4,1.1,0.6,2.5,0.6,4.1v0.5C211.3,896.4,206.9,900,198,900"
			/>
		<polyline class="st1" points="243.2,864.6 242.5,869.7 232.4,869.7 232.4,899.5 226.2,899.5 226.2,869.7 215.4,869.7 216.1,864.6 
					"/>
		<path class="st1" d="M273,875.8c0,2.4-0.6,4.5-1.7,6.1c-1.1,1.6-2.8,2.8-4.9,3.4l7.8,14.1h-6.6l-7.1-13.4h-5.9v13.4h-6v-34.8h14
			c1.9,0,3.5,0.3,4.8,0.8c1.3,0.5,2.4,1.3,3.2,2.2c0.8,0.9,1.4,2,1.8,3.2c0.4,1.2,0.6,2.5,0.6,3.9 M254.6,881.1h6.5
			c1.9,0,3.3-0.4,4.3-1.3c1-0.8,1.5-2.2,1.5-4.1v-0.7c0-3.6-1.8-5.4-5.5-5.4h-6.8V881.1z"/>
		<polyline class="st1" points="290.6,880.4 298.5,864.6 305,864.6 293.5,885.4 293.5,899.5 287.4,899.5 287.4,885.4 276.1,864.6 
			282.8,864.6 		"/>
		<path class="st1" d="M335.3,863.9c2.8,0,5.2,0.4,7,1.2c1.8,0.8,3.2,1.9,4.3,3.3c1.1,1.4,1.8,3.1,2.2,5.1c0.4,2,0.6,4.1,0.6,6.5
			v4.2c0,2.4-0.2,4.6-0.6,6.5c-0.4,2-1.2,3.7-2.2,5.1c-1.1,1.4-2.5,2.5-4.3,3.3c-1.8,0.8-4.1,1.2-6.9,1.2c-2.8,0-5.1-0.4-6.9-1.2
			c-1.8-0.8-3.2-1.9-4.3-3.3c-1-1.4-1.8-3.1-2.2-5.1c-0.4-2-0.6-4.1-0.6-6.5v-4.2c0-2.4,0.2-4.6,0.7-6.5c0.4-2,1.2-3.7,2.3-5.1
			c1.1-1.4,2.5-2.5,4.3-3.3C330.2,864.3,332.5,863.9,335.3,863.9 M335.3,895.1c1.2,0,2.3-0.1,3.3-0.4c1-0.3,1.8-0.8,2.4-1.7
			c0.7-0.8,1.2-1.9,1.5-3.4c0.3-1.4,0.5-3.2,0.5-5.5v-4.3c0-2.3-0.2-4.1-0.5-5.5c-0.3-1.4-0.8-2.5-1.4-3.3c-0.6-0.8-1.4-1.4-2.4-1.6
			c-1-0.3-2.1-0.4-3.4-0.4c-1.2,0-2.4,0.1-3.3,0.4c-1,0.3-1.8,0.8-2.5,1.6c-0.6,0.8-1.1,1.9-1.5,3.3c-0.3,1.4-0.5,3.2-0.5,5.5v4.3
			c0,2.2,0.2,4.1,0.5,5.5c0.3,1.4,0.8,2.5,1.5,3.3c0.7,0.8,1.5,1.4,2.4,1.7C332.9,895,334,895.1,335.3,895.1"/>
		<polyline class="st1" points="377.7,864.6 377,869.7 362.2,869.7 362.2,879.9 375.5,879.9 374.8,884.9 362.2,884.9 362.2,899.5 
			356,899.5 356,864.6 		"/>
		<polyline class="st1" points="417.7,864.6 417,869.5 401.3,869.5 401.3,879.2 416.2,879.2 415.5,884.1 401.3,884.1 401.3,894.6 
			417.7,894.6 417,899.5 395.2,899.5 395.2,864.6 		"/>
		<path class="st1" d="M437.1,900c-2.9,0-5.3-0.3-7.1-1c-1.9-0.7-3.4-1.7-4.5-3c-1.1-1.3-1.9-3-2.3-5c-0.4-2-0.7-4.3-0.7-6.9v-3.7
			c0-2.4,0.2-4.7,0.7-6.7c0.5-2,1.3-3.7,2.4-5.1c1.1-1.4,2.7-2.5,4.6-3.3c1.9-0.8,4.4-1.2,7.3-1.2c1.4,0,2.8,0.1,4.1,0.3
			c1.3,0.2,2.5,0.5,3.5,0.9l-1,4.7c-0.8-0.2-1.6-0.4-2.7-0.6c-1-0.2-2.1-0.3-3.3-0.3c-1.7,0-3.1,0.2-4.3,0.5
			c-1.2,0.3-2.2,0.9-2.9,1.7c-0.8,0.8-1.3,2-1.7,3.4c-0.3,1.5-0.5,3.3-0.5,5.6v3.3c0,2.3,0.2,4.1,0.5,5.5c0.3,1.4,0.8,2.6,1.6,3.4
			c0.8,0.8,1.7,1.4,3,1.7c1.2,0.3,2.8,0.4,4.6,0.4c1,0,2-0.1,3.2-0.2c1.2-0.1,2.4-0.3,3.4-0.5l-1,4.9c-1.1,0.3-2.2,0.5-3.5,0.6
			C439.3,899.9,438.2,900,437.1,900"/>
		<path class="st1" d="M463.8,863.9c2.8,0,5.2,0.4,7,1.2c1.8,0.8,3.2,1.9,4.3,3.3c1,1.4,1.8,3.1,2.2,5.1c0.4,2,0.6,4.1,0.6,6.5v4.2
			c0,2.4-0.2,4.6-0.6,6.5c-0.4,2-1.2,3.7-2.2,5.1c-1.1,1.4-2.5,2.5-4.3,3.3c-1.8,0.8-4.1,1.2-6.9,1.2c-2.8,0-5.1-0.4-6.9-1.2
			c-1.8-0.8-3.2-1.9-4.3-3.3c-1-1.4-1.8-3.1-2.2-5.1c-0.4-2-0.6-4.1-0.6-6.5v-4.2c0-2.4,0.2-4.6,0.7-6.5c0.4-2,1.2-3.7,2.3-5.1
			c1.1-1.4,2.5-2.5,4.3-3.3C458.8,864.3,461,863.9,463.8,863.9 M463.8,895.1c1.2,0,2.3-0.1,3.3-0.4c1-0.3,1.8-0.8,2.4-1.7
			c0.7-0.8,1.2-1.9,1.5-3.4c0.3-1.4,0.5-3.2,0.5-5.5v-4.3c0-2.3-0.2-4.1-0.5-5.5c-0.3-1.4-0.8-2.5-1.4-3.3c-0.6-0.8-1.4-1.4-2.4-1.6
			c-1-0.3-2.1-0.4-3.4-0.4c-1.2,0-2.3,0.1-3.3,0.4c-1,0.3-1.8,0.8-2.5,1.6c-0.6,0.8-1.1,1.9-1.5,3.3c-0.3,1.4-0.5,3.2-0.5,5.5v4.3
			c0,2.2,0.2,4.1,0.5,5.5c0.3,1.4,0.8,2.5,1.5,3.3c0.7,0.8,1.5,1.4,2.4,1.7C461.4,895,462.5,895.1,463.8,895.1"/>
		<polyline class="st1" points="489.9,864.6 505,889.5 505,864.6 510.7,864.6 510.7,899.5 505.3,899.5 490.2,874.6 490.2,899.5 
			484.6,899.5 484.6,864.6 		"/>
		<path class="st1" d="M531.5,863.9c2.8,0,5.2,0.4,7,1.2c1.8,0.8,3.2,1.9,4.3,3.3c1.1,1.4,1.8,3.1,2.2,5.1c0.4,2,0.6,4.1,0.6,6.5
			v4.2c0,2.4-0.2,4.6-0.6,6.5c-0.4,2-1.2,3.7-2.2,5.1c-1.1,1.4-2.5,2.5-4.3,3.3c-1.8,0.8-4.1,1.2-6.9,1.2c-2.8,0-5.1-0.4-6.9-1.2
			c-1.8-0.8-3.2-1.9-4.3-3.3c-1-1.4-1.8-3.1-2.2-5.1c-0.4-2-0.6-4.1-0.6-6.5v-4.2c0-2.4,0.2-4.6,0.7-6.5c0.4-2,1.2-3.7,2.3-5.1
			c1.1-1.4,2.5-2.5,4.3-3.3C526.5,864.3,528.7,863.9,531.5,863.9 M531.5,895.1c1.2,0,2.3-0.1,3.3-0.4c1-0.3,1.8-0.8,2.4-1.7
			c0.7-0.8,1.2-1.9,1.5-3.4c0.3-1.4,0.5-3.2,0.5-5.5v-4.3c0-2.3-0.2-4.1-0.5-5.5c-0.3-1.4-0.8-2.5-1.4-3.3c-0.6-0.8-1.4-1.4-2.4-1.6
			c-1-0.3-2.1-0.4-3.4-0.4c-1.2,0-2.3,0.1-3.3,0.4c-1,0.3-1.8,0.8-2.4,1.6c-0.7,0.8-1.2,1.9-1.5,3.3c-0.3,1.4-0.5,3.2-0.5,5.5v4.3
			c0,2.2,0.2,4.1,0.5,5.5c0.3,1.4,0.8,2.5,1.5,3.3c0.7,0.8,1.5,1.4,2.4,1.7C529.1,895,530.2,895.1,531.5,895.1"/>
		<polyline class="st1" points="558.3,864.6 567.9,884.9 577.3,864.6 583.4,864.6 583.4,899.5 577.6,899.5 577.6,874.8 570.2,891.2 
			565.6,891.2 558,875.1 558,899.5 552.3,899.5 552.3,864.6 		"/>
		<polyline class="st1" points="603.2,880.4 611.2,864.6 617.6,864.6 606.1,885.4 606.1,899.5 600,899.5 600,885.4 588.7,864.6 
			595.5,864.6 		"/>
		<path class="st1" d="M686,886.5v13h-6.1v-34.8h13.7c1.9,0,3.4,0.3,4.8,0.8c1.3,0.5,2.4,1.2,3.2,2.2c0.8,0.9,1.4,2,1.8,3.2
			c0.4,1.2,0.6,2.6,0.6,4.1v1.2c0,3.4-1,5.9-2.9,7.7c-1.9,1.8-4.8,2.7-8.5,2.7 M686,881.7h6c2,0,3.4-0.4,4.4-1.3
			c1-0.9,1.4-2.3,1.4-4.2v-1.1c0-1.9-0.5-3.3-1.3-4.2c-0.9-1-2.3-1.4-4.3-1.4H686V881.7z"/>
		<polyline class="st1" points="716,864.6 716,894.4 731.5,894.4 730.8,899.5 709.9,899.5 709.9,864.6 		"/>
		<path class="st1" d="M756.7,890.3h-12.3l-2.9,9.2h-6.1l11.9-34.8h6.6l12.1,34.8h-6.4 M745.9,885.4h9.3l-4.6-14.8L745.9,885.4z"/>
		<polyline class="st1" points="776.8,864.6 791.9,889.5 791.9,864.6 797.5,864.6 797.5,899.5 792.1,899.5 777,874.6 777,899.5 
			771.4,899.5 771.4,864.6 		"/>
		<polyline class="st1" points="810.4,864.6 825.5,889.5 825.5,864.6 831.1,864.6 831.1,899.5 825.7,899.5 810.7,874.6 810.7,899.5 
			805,899.5 805,864.6 		"/>
		<rect x="838.7" y="864.6" class="st1" width="6.1" height="34.9"/>
		<polyline class="st1" points="857.7,864.6 872.8,889.5 872.8,864.6 878.4,864.6 878.4,899.5 873,899.5 858,874.6 858,899.5 
			852.3,899.5 852.3,864.6 		"/>
		<path class="st1" d="M901.7,869.2c-1.9,0-3.4,0.2-4.7,0.5c-1.3,0.3-2.4,0.9-3.2,1.8c-0.8,0.8-1.4,2-1.8,3.5
			c-0.4,1.5-0.6,3.3-0.6,5.6v3.3c0,2.2,0.2,4,0.5,5.5c0.3,1.4,0.9,2.6,1.6,3.4c0.7,0.8,1.7,1.4,2.9,1.7c1.2,0.3,2.6,0.5,4.4,0.5
			c0.7,0,1.3,0,1.9-0.1c0.6,0,1.3-0.1,1.9-0.2v-9.2h-5l0.6-4.8h10.2v17.9c-1.1,0.4-2.7,0.8-4.6,1.1c-1.9,0.3-3.9,0.4-5.9,0.4
			c-3,0-5.5-0.4-7.4-1.2c-1.9-0.8-3.4-1.8-4.5-3.3c-1.1-1.4-1.8-3.1-2.2-5c-0.4-1.9-0.6-4.1-0.6-6.4v-3.7c0-2.4,0.3-4.6,0.7-6.6
			c0.5-2,1.3-3.7,2.5-5.1c1.2-1.4,2.8-2.5,4.9-3.3c2.1-0.8,4.6-1.2,7.8-1.2c1.6,0,3.2,0.1,4.7,0.4c1.5,0.3,2.8,0.6,3.8,1l-1.1,4.7
			c-0.9-0.3-1.9-0.5-3.1-0.7C904.3,869.3,903.1,869.2,901.7,869.2"/>
		<path class="st1" d="M646,899.4c-1.5,0-3-0.1-4.6-0.4c-1.6-0.3-3.1-0.8-4.4-1.5c-1.4-0.8-2.5-1.8-3.3-3.1
			c-0.9-1.3-1.3-3.1-1.3-5.2c0-1.3,0.2-2.6,0.6-3.7c0.4-1.1,1-2,1.8-2.8c0.7-0.8,1.6-1.4,2.7-1.9c0.2-0.1,0.4-0.2,0.6-0.3
			c-0.7-0.3-1.3-0.8-1.9-1.3c-0.7-0.6-1.2-1.5-1.7-2.5c-0.4-1-0.6-2.2-0.6-3.6c0-1.7,0.4-3.1,1.1-4.3c0.7-1.2,1.7-2.2,2.8-2.9
			c1.1-0.8,2.4-1.3,3.7-1.6c1.3-0.3,2.6-0.5,3.9-0.5c1,0,2.1,0.1,3.1,0.2c1,0.1,1.8,0.2,3.2,0.6l1.1,0.4l-1,4.8l-0.5-0.2
			c-0.8-0.2-1.7-0.4-2.5-0.6c-0.8-0.2-1.7-0.2-2.5-0.2c-0.8,0-1.6,0.1-2.5,0.3c-0.8,0.2-1.5,0.4-2.1,0.8c-0.6,0.4-1.1,0.9-1.5,1.5
			c-0.4,0.6-0.5,1.4-0.5,2.3c0,1.1,0.2,1.9,0.7,2.5c0.5,0.6,1.1,1.1,1.9,1.4c0.8,0.3,1.7,0.6,2.7,0.7c1,0.1,1.9,0.2,2.8,0.2h4.6
			v-6.2h6.1v6.2h6.1l-1,4.7h-5.1v16.1 M647.6,883.4c-1,0-2.1,0.1-3.3,0.2c-1.1,0.1-2.1,0.3-3,0.7c-0.9,0.4-1.6,0.9-2.2,1.7
			c-0.5,0.7-0.8,1.7-0.8,2.9c0,1.3,0.3,2.3,0.9,3c0.6,0.8,1.4,1.3,2.4,1.7c1,0.4,2.1,0.6,3.3,0.7c1.2,0.1,2.4,0.1,3.5,0.1h4v-11.1
			H647.6z"/>
	</g>
</g>
</svg>
