<?xml version="1.0" encoding="iso-8859-1"?>
<!-- Generator: Adobe Illustrator 23.0.1, SVG Export Plug-In . SVG Version: 6.00 Build 0)  -->
<svg version="1.1" id="Layer_1" xmlns="http://www.w3.org/2000/svg" xmlns:xlink="http://www.w3.org/1999/xlink" x="0px" y="0px"
	 viewBox="0 0 512 512" style="enable-background:new 0 0 512 512;" xml:space="preserve">
<g>
	<g>
		<path style="fill:#005E52;" d="M211.745,268.37c6.905,0,15.285,3.13,19.888,7.734l15.192,15.192
			c2.301,2.301,5.341,3.499,8.562,3.499c3.222,0,6.262-1.289,8.564-3.499l15.193-15.192c5.247-5.249,15.56-8.655,22.926-7.457
			l21.27,3.406c6.629,1.012,12.798-3.499,13.811-10.037l3.408-21.27c1.196-7.366,7.55-16.112,14.179-19.52l19.152-9.76
			c5.984-3.039,8.287-10.313,5.247-16.296l-9.76-19.152c-3.406-6.63-3.406-17.495,0-24.124l9.76-19.152
			c1.473-2.853,1.75-6.168,0.737-9.207c-1.012-3.039-3.131-5.616-5.984-7.089l-19.152-9.761
			c-6.629-3.406-12.982-12.154-14.179-19.52l-3.408-21.268c-0.461-3.223-2.209-5.986-4.879-7.919c-2.579-1.933-5.8-2.671-9.023-2.21
			l-21.271,3.406c-7.366,1.198-17.678-2.209-22.926-7.457L263.86,36.524c-2.303-2.301-5.341-3.499-8.564-3.499
			c-3.224,0-6.261,1.289-8.564,3.499L231.54,51.716c-5.249,5.249-15.56,8.655-22.926,7.457l-21.27-3.406
			c-6.629-1.012-12.799,3.5-13.811,10.037l-3.406,21.27c-1.198,7.366-7.55,16.114-14.179,19.52l-19.152,9.76
			c-2.856,1.473-4.973,3.958-5.986,7.089c-1.012,3.039-0.737,6.354,0.736,9.208l9.76,19.152c3.406,6.629,3.406,17.494,0,24.123
			l-9.76,19.151c-1.473,2.855-1.748,6.171-0.736,9.208c1.012,3.038,3.13,5.616,5.986,7.089l19.152,9.761
			c6.629,3.406,12.981,12.153,14.179,19.52l3.406,21.268c1.012,6.63,7.275,11.142,13.811,10.037l21.27-3.406
			C209.626,268.461,210.733,268.37,211.745,268.37 M255.388,296.729c-3.776,0-7.273-1.473-9.944-4.052l-15.191-15.191
			c-4.881-4.881-14.457-8.01-21.271-6.905l-21.268,3.406c-7.643,1.196-14.825-4.052-16.022-11.693l-3.406-21.27
			c-1.104-6.814-6.998-15.007-13.166-18.138l-19.152-9.76c-3.314-1.658-5.8-4.604-6.997-8.196c-1.198-3.59-0.83-7.365,0.828-10.68
			l9.76-19.152c3.13-6.17,3.13-16.205,0-22.375l-9.667-19.245c-1.658-3.314-2.028-7.089-0.83-10.678
			c1.198-3.592,3.592-6.446,6.998-8.196l19.152-9.76c6.168-3.131,12.061-11.233,13.166-18.14l3.406-21.268
			c1.198-7.643,8.378-12.891,16.021-11.694l21.27,3.406c6.814,1.104,16.389-2.025,21.27-6.905l15.192-15.192
			c2.669-2.671,6.17-4.051,9.944-4.051c3.776,0,7.273,1.473,9.944,4.051l15.193,15.192c4.881,4.881,14.455,8.009,21.27,6.905
			l21.268-3.406c3.683-0.552,7.367,0.275,10.406,2.485c3.039,2.21,5.065,5.433,5.616,9.117l3.406,21.268
			c1.105,6.814,6.998,15.009,13.166,18.138l19.152,9.761c3.315,1.655,5.802,4.603,6.998,8.193c1.198,3.592,0.828,7.366-0.83,10.681
			l-9.76,19.152c-3.13,6.168-3.13,16.205,0,22.375l9.76,19.151c3.5,6.907,0.737,15.376-6.168,18.877l-19.152,9.759
			c-6.168,3.131-12.061,11.233-13.166,18.138l-3.406,21.271c-1.198,7.641-8.378,12.89-16.022,11.693l-21.268-3.408
			c-6.814-1.105-16.389,2.026-21.27,6.905l-15.284,15.376C262.663,295.256,259.164,296.729,255.388,296.729"/>
		<path style="fill:#00685A;" d="M217.821,263.398c8.011,0,17.403,3.221,22.744,8.102l9.575,8.748
			c5.986,5.431,15.285,5.063,20.81-0.921l8.748-9.576c5.983-6.538,18.137-11.142,26.976-10.129l12.891,1.476
			c3.867,0.459,7.734-0.646,10.774-3.131c3.037-2.488,5.063-5.986,5.432-9.853l1.473-12.891c1.012-8.839,8.102-19.611,15.837-24.03
			l11.324-6.446c3.406-1.933,5.893-5.065,6.907-8.839c1.012-3.776,0.552-7.735-1.382-11.142l-6.445-11.326
			c-4.42-7.734-4.973-20.624-1.29-28.819l5.341-11.785c3.315-7.367,0.093-16.114-7.275-19.52l-11.785-5.34
			c-8.103-3.684-16.206-13.812-17.956-22.558l-2.577-12.707c-1.658-7.919-9.392-13.075-17.404-11.51l-12.706,2.578
			c-8.746,1.75-21.177-1.657-27.806-7.641l-9.576-8.748c-5.986-5.434-15.284-5.065-20.809,0.921l-8.748,9.576
			c-5.984,6.538-18.138,11.14-26.979,10.127l-12.89-1.473c-3.868-0.459-7.734,0.646-10.772,3.131
			c-3.038,2.485-5.065,5.986-5.433,9.853l-1.473,12.891c-1.012,8.838-8.104,19.61-15.837,24.03l-11.326,6.446
			c-3.408,1.933-5.893,5.065-6.905,8.839c-1.012,3.776-0.552,7.734,1.38,11.142l6.446,11.324c4.419,7.734,4.971,20.625,1.288,28.819
			l-5.34,11.786c-3.314,7.365-0.091,16.112,7.275,19.519l11.877,5.341c8.102,3.683,16.206,13.811,17.954,22.559l2.578,12.706
			c0.83,3.868,3.038,7.183,6.354,9.299c3.315,2.21,7.182,2.947,11.049,2.119l12.706-2.579
			C214.324,263.489,216.072,263.398,217.821,263.398 M260.084,286.048c-4.051,0-8.011-1.473-11.233-4.327l-9.575-8.748
			c-6.17-5.616-17.863-8.839-26.059-7.181l-12.706,2.577c-4.326,0.921-8.748,0-12.522-2.393c-3.683-2.487-6.261-6.17-7.182-10.497
			l-2.578-12.707c-1.657-8.193-9.207-17.676-16.849-21.177l-11.786-5.34c-4.051-1.841-7.089-5.156-8.655-9.299
			c-1.566-4.143-1.38-8.655,0.461-12.706l5.34-11.786c3.499-7.643,2.947-19.704-1.196-27.071l-6.445-11.324
			c-2.21-3.867-2.762-8.38-1.566-12.615c1.198-4.327,3.96-7.827,7.827-10.035l11.324-6.446c7.275-4.143,13.996-14.271,14.917-22.557
			l1.473-12.891c0.459-4.419,2.671-8.38,6.168-11.142c3.499-2.762,7.827-4.052,12.247-3.498l12.89,1.473
			c8.287,0.92,19.704-3.315,25.32-9.483l8.748-9.577c6.168-6.72,16.758-7.275,23.48-1.012l9.576,8.748
			c6.168,5.616,17.862,8.837,26.058,7.182l12.706-2.579c9.023-1.842,17.77,3.96,19.613,12.982l2.577,12.707
			c1.658,8.194,9.208,17.678,16.849,21.178l11.787,5.339c8.378,3.776,12.06,13.721,8.286,22.007l-5.34,11.785
			c-3.498,7.644-2.946,19.705,1.198,27.07l6.444,11.327c2.21,3.867,2.763,8.378,1.567,12.615c-1.198,4.328-3.96,7.825-7.827,10.035
			l-11.325,6.445c-7.275,4.144-13.995,14.273-14.916,22.558l-1.473,12.891c-0.461,4.419-2.671,8.378-6.171,11.142
			c-3.498,2.762-7.825,4.05-12.245,3.498l-12.89-1.473c-8.287-0.921-19.705,3.315-25.322,9.483l-8.746,9.576
			C269.108,284.298,264.596,286.048,260.084,286.048"/>
		<path style="fill:#046F5F;" d="M224.728,258.517c8.839,0,18.874,3.131,25.044,8.103l3.499,2.947
			c7.366,6.077,18.322,5.065,24.399-2.303l2.946-3.499c6.632-8.01,20.35-13.996,30.662-13.35l4.604,0.275
			c4.604,0.277,9.023-1.288,12.523-4.327c3.498-3.037,5.524-7.273,5.799-11.876l0.278-4.604
			c0.643-10.313,8.286-23.296,16.941-28.821l3.867-2.485c8.011-5.156,10.406-15.837,5.341-23.94l-2.487-3.867
			c-5.524-8.748-6.998-23.662-3.221-33.331l1.655-4.235c3.5-8.932-0.92-18.968-9.76-22.467l-4.235-1.657
			c-9.669-3.776-19.613-15.009-22.189-25.044l-1.106-4.42c-2.394-9.208-11.877-14.825-21.084-12.431l-4.42,1.105
			c-10.037,2.578-24.676-0.646-32.686-7.275l-3.499-2.946c-3.592-2.946-8.103-4.327-12.706-3.867
			c-4.604,0.461-8.748,2.669-11.694,6.17l-2.947,3.498c-6.63,8.012-20.348,13.995-30.662,13.352l-4.603-0.277
			c-4.604-0.277-9.023,1.289-12.523,4.327c-3.498,3.039-5.524,7.273-5.8,11.877l-0.277,4.604
			c-0.643,10.312-8.286,23.296-16.941,28.819l-3.867,2.487c-3.867,2.485-6.538,6.354-7.55,10.864
			c-1.014,4.513-0.185,9.208,2.301,13.075l2.485,3.867c5.525,8.748,6.998,23.664,3.224,33.332l-1.658,4.235
			c-1.657,4.327-1.566,9.023,0.277,13.259c1.841,4.235,5.247,7.55,9.483,9.207l4.235,1.658c9.669,3.776,19.613,15.009,22.191,25.044
			l1.105,4.42c2.394,9.207,11.877,14.823,21.086,12.429l4.42-1.104C219.387,258.886,221.965,258.517,224.728,258.517
			 M264.227,275.459c-4.328,0-8.655-1.473-12.245-4.419l-3.499-2.946c-7.551-6.262-21.453-9.299-30.938-6.907l-4.419,1.105
			c-10.312,2.671-20.809-3.498-23.478-13.811l-1.106-4.42c-2.485-9.483-11.877-20.165-20.993-23.756l-4.236-1.656
			c-4.787-1.842-8.562-5.525-10.587-10.221c-2.026-4.697-2.119-9.944-0.277-14.733l1.658-4.235
			c3.589-9.116,2.209-23.296-3.04-31.581l-2.485-3.868c-2.762-4.328-3.683-9.483-2.579-14.548c1.106-5.063,4.144-9.299,8.471-12.061
			l3.868-2.485c8.287-5.249,15.469-17.494,16.112-27.347l0.277-4.604c0.277-5.156,2.578-9.851,6.446-13.259
			c3.867-3.406,8.839-5.156,13.902-4.788l4.604,0.277c9.851,0.644,22.835-5.063,29.096-12.613l2.946-3.5
			c3.224-3.958,7.919-6.445,12.984-6.905c5.156-0.46,10.127,1.014,14.087,4.329l3.498,2.946c7.55,6.26,21.453,9.299,30.937,6.906
			l4.42-1.105c10.313-2.669,20.809,3.499,23.48,13.811l1.105,4.419c2.485,9.485,11.877,20.166,20.991,23.756l4.238,1.658
			c9.851,3.867,14.73,15.1,10.865,24.951l-1.658,4.236c-3.59,9.116-2.21,23.294,3.038,31.581l2.485,3.867
			c5.709,8.932,3.04,20.902-5.893,26.611l-3.867,2.487c-8.287,5.247-15.468,17.494-16.112,27.345l-0.277,4.604
			c-0.277,5.156-2.578,9.853-6.445,13.259c-3.867,3.408-8.84,5.156-13.904,4.788l-4.604-0.277
			c-9.76-0.644-22.834,5.065-29.096,12.615l-2.946,3.498C275.369,273.065,269.844,275.459,264.227,275.459"/>
		<path style="fill:#097764;" d="M233.567,253.452c8.562,0,17.954,2.579,24.031,6.998c3.866,2.855,8.655,3.96,13.443,3.222
			c4.787-0.736,9.023-3.314,11.785-7.181c6.354-8.656,20.257-15.746,31.031-15.746h0.091c9.944,0,18.046-8.102,18.046-18.047
			c0-10.772,7.091-24.675,15.837-31.028c8.103-5.895,9.853-17.219,4.052-25.229c-6.354-8.748-8.748-24.124-5.434-34.437
			c3.131-9.482-2.116-19.703-11.599-22.834c-10.221-3.315-21.271-14.363-24.585-24.676c-3.04-9.485-13.26-14.732-22.744-11.601
			c-10.221,3.314-25.688,0.828-34.343-5.525c-3.868-2.855-8.655-3.96-13.443-3.222c-4.788,0.737-9.023,3.314-11.785,7.181
			c-6.354,8.656-20.257,15.746-31.031,15.746h-0.091c-9.944,0-18.047,8.102-18.047,18.047c0,10.772-7.089,24.676-15.836,31.029
			c-3.868,2.853-6.446,6.997-7.183,11.785c-0.736,4.789,0.369,9.576,3.222,13.443c6.355,8.748,8.748,24.124,5.434,34.437
			c-1.473,4.603-1.106,9.483,1.104,13.81c2.21,4.329,5.894,7.551,10.497,9.024c10.219,3.315,21.27,14.364,24.583,24.677
			c3.04,9.483,13.26,14.731,22.744,11.599C226.293,253.913,229.884,253.452,233.567,253.452 M268.187,265.792
			c-4.235,0-8.287-1.289-11.694-3.776c-8.287-5.984-22.926-8.378-32.686-5.249c-10.497,3.408-21.823-2.394-25.229-12.89
			c-3.131-9.76-13.627-20.257-23.387-23.387c-5.065-1.658-9.208-5.156-11.602-9.945c-2.393-4.788-2.853-10.219-1.198-15.284
			c3.131-9.76,0.921-24.401-5.156-32.686c-3.13-4.329-4.419-9.576-3.498-14.916c0.828-5.341,3.683-9.944,8.011-13.075
			c8.287-5.986,15.007-19.243,15.007-29.464c0-11.049,9.024-19.981,19.982-19.981h0.091c10.221,0,23.387-6.722,29.464-15.009
			c3.131-4.326,7.735-7.089,13.075-7.918c5.341-0.83,10.588,0.461,14.916,3.592c8.287,5.983,22.926,8.377,32.686,5.247
			c10.497-3.408,21.823,2.394,25.229,12.89c3.131,9.76,13.627,20.257,23.387,23.387c10.497,3.408,16.205,14.733,12.798,25.229
			c-3.13,9.76-0.828,24.401,5.157,32.686c6.444,8.933,4.51,21.453-4.513,27.991c-8.287,5.986-15.009,19.245-15.009,29.464
			c0,11.049-9.024,19.981-19.981,19.981h-0.091c-10.221,0-23.478,6.723-29.464,15.009c-3.131,4.327-7.735,7.091-13.075,7.918
			C270.305,265.699,269.2,265.792,268.187,265.792"/>
		<path style="fill:#14806A;" d="M243.972,247.652c7.089,0,14.548,1.751,19.704,4.972c3.774,2.395,8.194,3.131,12.522,2.119
			c4.328-1.014,8.01-3.592,10.405-7.367c5.247-8.471,17.678-15.928,27.622-16.573c4.42-0.277,8.472-2.301,11.418-5.708
			c2.946-3.408,4.328-7.644,4.052-12.063c-0.646-9.945,4.971-23.294,12.615-29.649c6.995-5.892,7.916-16.389,2.116-23.478
			c-6.445-7.641-9.667-21.73-7.181-31.397c2.209-8.932-3.222-17.956-12.063-20.164c-9.667-2.395-20.532-11.879-24.308-21.178
			c-1.657-4.143-4.787-7.365-8.93-9.114c-4.052-1.75-8.656-1.842-12.706-0.185c-9.208,3.683-23.665,2.487-32.135-2.855
			c-7.735-4.879-18.048-2.485-22.928,5.249c-5.34,8.472-17.678,15.93-27.623,16.574c-9.114,0.645-16.112,8.562-15.469,17.77
			c0.646,9.944-4.971,23.296-12.613,29.648c-6.998,5.893-7.919,16.39-2.117,23.48c6.445,7.643,9.669,21.729,7.181,31.397
			c-1.104,4.327-0.368,8.748,1.842,12.615c2.301,3.774,5.893,6.538,10.221,7.55c9.669,2.394,20.532,11.879,24.308,21.177
			c1.658,4.143,4.787,7.366,8.932,9.115c4.051,1.751,8.655,1.842,12.706,0.184C235.224,248.297,239.553,247.652,243.972,247.652
			 M272.514,257.044c-3.406,0-6.814-0.921-9.76-2.855c-8.01-4.972-21.637-6.168-30.385-2.671c-4.604,1.842-9.669,1.75-14.179-0.183
			c-4.604-1.933-8.103-5.525-9.944-10.129c-3.499-8.748-13.812-17.77-23.02-19.981c-4.787-1.196-8.839-4.236-11.415-8.471
			c-2.579-4.235-3.315-9.299-2.119-14.087c2.301-9.116-0.736-22.466-6.813-29.741c-6.538-7.825-5.525-19.611,2.301-26.149
			c7.273-6.077,12.615-18.599,11.97-28.084c-0.737-10.221,6.997-19.059,17.217-19.795c9.392-0.646,21.177-7.643,26.15-15.653
			c5.433-8.655,16.941-11.326,25.597-5.892c8.011,4.971,21.637,6.168,30.385,2.668c4.603-1.841,9.575-1.748,14.179,0.185
			c4.604,1.933,8.103,5.525,9.945,10.129c3.498,8.746,13.81,17.771,23.018,19.979c9.944,2.487,16.021,12.615,13.536,22.56
			c-2.303,9.114,0.736,22.466,6.813,29.739c6.538,7.827,5.524,19.611-2.303,26.149c-7.273,6.077-12.613,18.6-11.969,28.082
			c0.369,4.973-1.289,9.669-4.511,13.444c-3.224,3.774-7.734,5.984-12.707,6.354c-9.391,0.643-21.177,7.641-26.149,15.652
			c-2.579,4.144-6.722,7.089-11.602,8.196C275.276,256.953,273.896,257.044,272.514,257.044"/>
		<path style="fill:#128D71;" d="M254.652,241.576c5.525,0,10.956,1.104,15.191,3.223c7.459,3.867,16.758,0.921,20.626-6.538
			c4.235-8.196,15.1-16.022,24.214-17.403c8.287-1.289,14.089-9.116,12.8-17.403c-1.382-9.114,2.855-21.823,9.392-28.358
			c5.984-5.894,6.077-15.654,0.091-21.639c-6.446-6.538-10.59-19.336-9.023-28.452c0.645-4.051-0.277-8.011-2.671-11.417
			c-2.394-3.315-5.893-5.525-9.944-6.168c-9.116-1.474-19.889-9.392-24.033-17.679c-1.841-3.592-4.971-6.354-8.839-7.643
			c-3.867-1.289-8.01-1.014-11.693,0.828c-8.286,4.144-21.637,4.052-29.832-0.184c-3.59-1.841-7.734-2.21-11.694-1.012
			c-3.867,1.196-7.091,3.867-8.932,7.55c-4.236,8.194-15.1,16.021-24.215,17.403c-8.287,1.289-14.089,9.116-12.799,17.401
			c1.38,9.117-2.855,21.823-9.392,28.268c-5.984,5.892-6.077,15.652-0.091,21.637c6.445,6.538,10.496,19.336,9.023,28.452
			c-0.645,4.052,0.277,8.01,2.671,11.418c2.394,3.314,5.893,5.524,9.944,6.168c9.116,1.473,19.888,9.392,24.031,17.679
			c1.842,3.59,4.972,6.352,8.839,7.641c3.868,1.289,8.012,1.012,11.695-0.828C244.062,242.588,249.311,241.576,254.652,241.576
			 M276.841,248.481c-2.669,0-5.34-0.646-7.919-1.935c-7.733-3.958-20.347-4.051-28.082-0.184
			c-4.051,2.026-8.746,2.394-13.166,0.921c-4.419-1.473-7.918-4.511-9.944-8.562c-3.867-7.735-13.995-15.193-22.651-16.667
			c-4.51-0.736-8.471-3.222-11.14-6.997c-2.671-3.776-3.776-8.287-3.038-12.799c1.382-8.564-2.394-20.532-8.471-26.795
			c-6.629-6.722-6.629-17.678,0.184-24.308c6.17-6.077,10.128-18.046,8.839-26.609c-1.473-9.392,5.065-18.138,14.457-19.613
			c8.564-1.288,18.783-8.654,22.834-16.389c2.119-4.051,5.709-7.089,10.038-8.471c4.419-1.38,9.023-1.012,13.166,1.106
			c7.732,3.958,20.347,4.05,28.082,0.184c4.052-2.026,8.748-2.394,13.166-0.921c4.419,1.473,7.919,4.511,9.944,8.562
			c3.868,7.735,13.995,15.192,22.651,16.665c4.511,0.737,8.471,3.224,11.142,6.998c2.669,3.776,3.774,8.287,3.037,12.799
			c-1.38,8.564,2.394,20.532,8.471,26.795c6.629,6.72,6.629,17.678-0.184,24.308c-6.168,6.077-10.128,18.046-8.839,26.609
			c1.473,9.392-5.065,18.138-14.455,19.611c-8.564,1.29-18.784,8.655-22.835,16.39C289.088,245.074,283.011,248.481,276.841,248.481
			"/>
		<path style="fill:#119276;" d="M229.699,89.652c-5.616,0-10.865,3.314-13.075,8.839c-3.221,7.916-12.521,16.112-20.808,18.231
			c-7.55,1.933-12.063,9.575-10.221,17.033c2.117,8.287-0.645,20.441-6.17,26.979c-2.393,2.853-3.499,6.536-3.222,10.312
			c0.369,3.774,2.117,7.181,4.973,9.575c6.536,5.525,11.415,16.851,10.864,25.414c-0.552,7.732,5.34,14.455,13.075,15.007
			c8.562,0.553,19.152,6.907,23.755,14.18c2.026,3.13,5.157,5.341,8.746,6.168c3.684,0.828,7.459,0.185,10.59-1.748
			c7.275-4.513,19.611-5.71,27.53-2.487c3.499,1.38,7.275,1.38,10.772-0.184c3.5-1.473,6.17-4.236,7.55-7.643
			c3.222-7.918,12.523-16.114,20.81-18.231c7.55-1.933,12.061-9.576,10.221-17.033c-2.119-8.288,0.643-20.348,6.168-26.979
			c2.394-2.855,3.498-6.538,3.222-10.313c-0.368-3.774-2.117-7.181-4.972-9.575c-6.538-5.525-11.417-16.849-10.865-25.413
			c0.552-7.734-5.341-14.457-13.075-15.009c-8.562-0.552-19.151-6.905-23.755-14.179c-4.144-6.538-12.798-8.562-19.429-4.42
			c-7.273,4.511-19.611,5.709-27.529,2.487C233.198,90.019,231.449,89.652,229.699,89.652 M240.932,243.601
			c-1.196,0-2.394-0.091-3.59-0.369c-4.144-0.92-7.735-3.498-9.944-7.089c-4.236-6.813-14.271-12.706-22.282-13.258
			c-8.839-0.552-15.469-8.196-14.916-17.035c0.552-8.01-4.052-18.691-10.221-23.847c-3.224-2.762-5.249-6.538-5.616-10.865
			c-0.369-4.235,0.92-8.378,3.59-11.694c5.156-6.168,7.734-17.495,5.8-25.228c-2.117-8.562,3.04-17.219,11.602-19.429
			c7.735-1.933,16.48-9.575,19.52-17.033c3.315-8.196,12.615-12.154,20.808-8.932c7.459,2.946,19.061,1.933,25.781-2.301
			c3.592-2.303,7.919-2.947,12.063-2.028c4.143,0.921,7.735,3.5,9.945,7.092c4.235,6.813,14.27,12.706,22.281,13.258
			c8.84,0.552,15.469,8.196,14.917,17.033c-0.553,8.012,4.051,18.692,10.219,23.849c3.315,2.761,5.249,6.538,5.709,10.865
			c0.368,4.235-0.921,8.378-3.59,11.693c-5.156,6.168-7.735,17.493-5.802,25.228c2.119,8.562-3.037,17.219-11.601,19.427
			c-7.734,1.935-16.482,9.576-19.519,17.035c-1.567,3.958-4.604,7.089-8.565,8.748c-3.958,1.657-8.287,1.748-12.245,0.184
			c-7.459-2.946-19.059-1.933-25.781,2.301C246.825,242.772,243.879,243.601,240.932,243.601"/>
		<path style="fill:#219D7B;" d="M215.797,221.687c7.825,0,17.862,4.695,22.65,10.681c2.119,2.671,5.249,4.42,8.748,4.788
			c3.498,0.368,6.906-0.553,9.575-2.763c6.262-4.971,17.588-7.273,25.229-5.156c3.316,0.921,6.814,0.46,9.853-1.196
			c3.038-1.75,5.249-4.511,6.17-7.827c2.116-7.641,9.944-16.205,17.401-19.059c6.722-2.485,10.129-10.035,7.643-16.758
			c-2.763-7.459-1.473-18.967,2.853-25.596c3.961-5.986,2.303-14.089-3.682-18.047c-6.63-4.419-12.338-14.457-12.707-22.375
			c-0.275-7.182-6.444-12.706-13.536-12.431c-7.918,0.368-18.506-4.419-23.478-10.68c-2.117-2.671-5.249-4.42-8.748-4.789
			c-3.498-0.367-6.904,0.553-9.575,2.763c-6.261,4.972-17.588,7.273-25.229,5.156c-3.315-0.921-6.814-0.46-9.851,1.198
			c-3.04,1.75-5.249,4.511-6.17,7.827c-2.117,7.641-9.945,16.203-17.403,19.058c-3.222,1.198-5.8,3.592-7.273,6.814
			c-1.473,3.131-1.567,6.721-0.369,9.944c2.763,7.459,1.473,18.968-2.853,25.597c-1.933,2.855-2.579,6.354-1.842,9.76
			c0.736,3.406,2.671,6.354,5.525,8.287c6.629,4.419,12.337,14.457,12.706,22.375c0.368,7.182,6.445,12.706,13.536,12.429H215.797
			 M248.667,239.182c-0.552,0-1.105,0-1.75-0.093c-3.958-0.459-7.55-2.394-10.035-5.524c-4.604-5.802-14.457-10.221-21.914-9.945
			c-8.287,0.369-15.194-5.984-15.56-14.271c-0.369-7.457-5.616-16.757-11.879-20.9c-3.315-2.21-5.616-5.525-6.352-9.483
			c-0.83-3.961,0-7.919,2.116-11.233c4.052-6.17,5.34-16.943,2.671-23.848c-1.38-3.684-1.289-7.735,0.369-11.418
			c1.657-3.683,4.603-6.446,8.378-7.825c6.997-2.579,14.271-10.59,16.205-17.772c1.012-3.867,3.592-6.998,6.998-9.024
			c3.499-1.932,7.55-2.485,11.324-1.38c7.183,1.933,17.679-0.184,23.572-4.788c3.131-2.485,6.998-3.592,10.956-3.131
			c3.96,0.46,7.55,2.394,10.037,5.525c4.604,5.8,14.548,10.221,21.914,9.944c8.286-0.368,15.193,5.984,15.56,14.271
			c0.369,7.459,5.616,16.758,11.877,20.902c6.905,4.511,8.748,13.811,4.236,20.716c-4.051,6.17-5.341,16.942-2.671,23.847
			c2.855,7.735-1.012,16.298-8.748,19.243c-6.997,2.579-14.27,10.59-16.205,17.77c-1.012,3.868-3.59,6.998-6.998,9.024
			c-3.498,1.933-7.55,2.487-11.324,1.382c-7.182-2.026-17.77,0.184-23.571,4.788C255.204,238.075,251.982,239.182,248.667,239.182"
			/>
		<path style="fill:#2BA881;" d="M228.318,221.964c6.905,0,15.01,2.946,19.613,7.366c4.788,4.603,12.431,4.511,17.126-0.277
			c5.156-5.34,15.468-8.839,22.835-7.827c3.131,0.461,6.354-0.369,8.93-2.303c2.579-1.933,4.236-4.787,4.697-7.918
			c1.012-7.365,7.275-16.298,13.904-19.704c2.855-1.473,4.972-4.052,5.893-7.182c0.92-3.13,0.644-6.354-0.828-9.207
			c-3.5-6.63-3.684-17.403-0.369-24.125c2.946-5.983,0.461-13.258-5.525-16.204c-6.72-3.315-13.166-11.97-14.455-19.337
			c-0.552-3.128-2.301-5.892-4.972-7.825c-2.669-1.841-5.893-2.578-9.023-2.026c-7.367,1.289-17.679-1.933-23.11-7.089
			c-4.789-4.604-12.431-4.513-17.127,0.277c-5.156,5.34-15.468,8.839-22.835,7.825c-3.13-0.46-6.352,0.369-8.93,2.303
			c-2.578,1.933-4.236,4.788-4.697,7.918c-1.012,7.366-7.273,16.298-13.904,19.797c-2.853,1.474-4.971,4.051-5.892,7.091
			c-0.921,3.13-0.645,6.352,0.828,9.207c3.499,6.63,3.683,17.403,0.368,24.123c-2.946,5.986-0.461,13.26,5.525,16.206
			c6.72,3.315,13.166,11.97,14.455,19.335c0.552,3.131,2.303,5.894,4.973,7.828c2.669,1.841,5.892,2.578,9.023,2.025
			C225.924,222.055,227.121,221.964,228.318,221.964 M256.309,234.67c-3.498,0-6.998-1.289-9.759-3.958
			c-4.973-4.789-14.549-7.735-21.362-6.538c-3.683,0.644-7.366-0.185-10.497-2.395c-3.037-2.117-5.156-5.34-5.8-9.023
			c-1.198-6.813-7.181-14.825-13.443-17.862c-6.905-3.406-9.851-11.786-6.445-18.784c3.038-6.261,2.853-16.296-0.368-22.373
			c-1.75-3.315-2.119-7.091-1.014-10.681c1.105-3.592,3.499-6.538,6.814-8.287c6.077-3.224,11.877-11.417,12.891-18.324
			c0.552-3.683,2.485-6.997,5.431-9.207c3.04-2.303,6.723-3.224,10.406-2.669c6.813,1.012,16.389-2.303,21.177-7.275
			c5.34-5.525,14.27-5.709,19.795-0.277c4.973,4.788,14.548,7.734,21.362,6.536c3.683-0.643,7.366,0.185,10.496,2.395
			c3.038,2.117,5.156,5.34,5.802,9.023c1.196,6.813,7.181,14.825,13.443,17.863c6.904,3.406,9.851,11.785,6.445,18.783
			c-3.038,6.262-2.855,16.298,0.368,22.374c1.75,3.314,2.119,7.089,1.012,10.681c-1.104,3.59-3.498,6.536-6.813,8.287
			c-6.077,3.222-11.879,11.417-12.891,18.322c-0.552,3.683-2.485,6.998-5.431,9.208c-3.04,2.209-6.723,3.222-10.406,2.669
			c-6.813-1.012-16.389,2.301-21.177,7.275C263.583,233.288,259.992,234.67,256.309,234.67"/>
		<path style="fill:#37B287;" d="M241.853,220.582c5.525,0,11.509,1.657,15.376,4.419c4.973,3.592,11.97,2.488,15.562-2.485
			c4.051-5.616,13.075-10.221,19.981-10.221c2.946,0,5.8-1.196,7.918-3.314s3.315-4.879,3.222-7.919
			c0-6.998,4.511-15.928,10.128-20.072c4.973-3.592,6.077-10.59,2.394-15.56c-4.143-5.616-5.708-15.56-3.59-22.191
			c0.92-2.855,0.645-5.893-0.736-8.471c-1.382-2.671-3.684-4.604-6.538-5.525c-6.63-2.117-13.812-9.207-15.93-15.837
			c-0.921-2.855-2.947-5.156-5.524-6.443c-2.671-1.382-5.709-1.567-8.564-0.646c-6.63,2.21-16.574,0.646-22.191-3.499
			c-2.394-1.75-5.34-2.393-8.287-1.932c-2.946,0.459-5.523,2.025-7.273,4.51c-4.051,5.616-13.074,10.221-19.981,10.221
			c-6.168,0-11.14,5.065-11.14,11.233c0,6.998-4.511,15.93-10.128,20.073c-2.395,1.75-3.96,4.326-4.42,7.275
			c-0.46,2.946,0.277,5.892,2.025,8.287c4.144,5.616,5.71,15.559,3.592,22.189c-0.921,2.853-0.644,5.893,0.737,8.471
			c1.382,2.669,3.683,4.603,6.538,5.524c6.629,2.117,13.809,9.208,15.928,15.837c1.933,5.892,8.194,9.023,14.088,7.182
			C237.065,220.857,239.367,220.582,241.853,220.582 M263.767,229.053c-2.669,0-5.34-0.828-7.641-2.485
			c-5.157-3.683-14.457-5.156-20.441-3.222c-6.813,2.21-14.271-1.474-16.481-8.38c-1.933-5.984-8.656-12.706-14.733-14.641
			c-3.314-1.105-5.983-3.406-7.641-6.536c-1.564-3.131-1.933-6.63-0.828-9.945c1.933-5.984,0.461-15.376-3.315-20.441
			c-2.025-2.853-2.855-6.26-2.394-9.759c0.552-3.499,2.394-6.538,5.249-8.564c5.065-3.683,9.391-12.154,9.391-18.506
			c0-7.182,5.802-13.075,13.075-13.168c6.354,0,14.733-4.327,18.416-9.483c2.025-2.855,5.063-4.695,8.562-5.249
			c3.499-0.552,6.905,0.278,9.76,2.303c5.156,3.683,14.455,5.156,20.532,3.222c3.315-1.105,6.814-0.828,9.944,0.736
			c3.131,1.567,5.433,4.329,6.538,7.55c1.933,5.986,8.656,12.707,14.732,14.641c3.315,1.105,5.986,3.406,7.643,6.538
			c1.566,3.131,1.934,6.629,0.828,9.944c-1.933,5.986-0.461,15.376,3.315,20.441c2.025,2.855,2.855,6.261,2.394,9.76
			c-0.553,3.498-2.394,6.538-5.156,8.562c-5.065,3.683-9.392,12.154-9.392,18.508c0,3.499-1.382,6.813-3.867,9.299
			c-2.487,2.487-5.709,3.867-9.208,3.867c-6.354,0-14.732,4.327-18.414,9.483C271.87,227.211,267.819,229.053,263.767,229.053"/>
		<path style="fill:#47BB89;" d="M255.388,217.267c3.776,0,7.551,0.736,10.406,2.212c2.394,1.195,5.247,1.473,7.825,0.643
			c2.578-0.828,4.697-2.671,5.984-5.065c2.949-5.799,10.499-11.233,16.943-12.245c5.616-0.921,9.392-6.168,8.562-11.785
			c-1.012-6.354,1.842-15.285,6.446-19.889c1.933-1.933,3.037-4.513,3.037-7.275c0-2.761-1.104-5.34-3.037-7.273
			c-4.604-4.604-7.459-13.443-6.446-19.888c0.921-5.618-2.946-10.865-8.562-11.786c-6.354-1.012-13.995-6.538-16.943-12.245
			c-1.195-2.394-3.406-4.236-5.984-5.065c-2.578-0.828-5.431-0.644-7.825,0.645c-5.802,2.947-15.101,2.947-20.902,0
			c-2.394-1.196-5.249-1.473-7.827-0.645c-2.578,0.828-4.788,2.671-5.986,5.065c-2.946,5.8-10.496,11.233-16.941,12.245
			c-2.671,0.46-5.065,1.842-6.721,4.143c-1.658,2.21-2.303,4.973-1.842,7.643c1.014,6.354-1.841,15.284-6.445,19.888
			c-1.933,1.933-3.038,4.513-3.038,7.273c0,2.762,1.105,5.341,3.038,7.275c4.604,4.604,7.459,13.443,6.445,19.889
			c-0.46,2.669,0.277,5.431,1.842,7.641c1.657,2.21,3.958,3.683,6.721,4.143c6.354,1.012,13.995,6.538,16.941,12.245
			c1.198,2.394,3.408,4.236,5.986,5.065c2.578,0.83,5.433,0.644,7.827-0.643C247.838,218.003,251.612,217.267,255.388,217.267
			 M270.489,222.516c-1.933,0-3.776-0.46-5.525-1.289c-5.156-2.669-13.995-2.669-19.151,0c-2.855,1.473-6.17,1.75-9.301,0.737
			c-3.13-1.012-5.616-3.131-7.089-6.077c-2.671-5.156-9.76-10.313-15.468-11.233c-3.222-0.553-5.986-2.21-7.919-4.881
			c-1.933-2.669-2.671-5.893-2.21-9.116c0.921-5.708-1.841-14.087-5.893-18.231c-2.3-2.301-3.59-5.341-3.59-8.655
			c0-3.224,1.29-6.352,3.59-8.655c4.143-4.144,6.814-12.431,5.893-18.231c-0.552-3.222,0.277-6.445,2.21-9.116
			c1.933-2.671,4.788-4.419,7.919-4.879c5.708-0.921,12.797-6.077,15.468-11.233c1.473-2.855,3.96-5.065,7.089-6.077
			c3.131-1.012,6.446-0.737,9.301,0.736c5.156,2.671,13.995,2.671,19.151,0c2.855-1.473,6.17-1.748,9.301-0.736
			c3.13,1.012,5.616,3.13,7.089,6.077c2.671,5.156,9.76,10.312,15.468,11.233c6.629,1.012,11.233,7.273,10.129,13.995
			c-0.921,5.709,1.841,14.087,5.892,18.231c2.301,2.303,3.592,5.34,3.592,8.655c0,3.222-1.29,6.354-3.592,8.655
			c-4.142,4.144-6.813,12.429-5.892,18.231c1.012,6.629-3.5,12.89-10.129,13.996c-5.708,0.92-12.797,6.077-15.468,11.233
			c-1.473,2.853-3.96,5.065-7.089,6.077C272.974,222.332,271.778,222.516,270.489,222.516"/>
		<path style="fill:#005E52;" d="M294.152,174.821l-1.657-0.552c-2.578-0.83-5.525-1.198-8.839-1.198
			c-8.287,0.091-17.679,2.762-25.32,7.182c-2.21-13.074-1.198-28.175-0.83-32.135c3.131,1.75,6.998,5.156,9.483,14.364l0.369,1.196
			l0.184-1.196c1.841-10.313-5.156-16.942-5.432-17.217c0.277,0,2.117,0,4.788,1.288c2.485,1.105,6.168,3.592,9.76,8.839
			l0.737,1.106l-0.277-1.382c-2.671-13.166-13.443-15.837-14.087-16.022c0.184-0.091,3.592-2.577,13.811,0.737l0.921,0.277
			l-0.645-0.737c-6.261-7.366-15.746-5.34-16.849-5.156c0.368-0.828,1.933-2.855,5.065-5.065l0.92-0.643l-1.198,0.184
			c-5.156,0.737-8.009,3.13-8.654,4.051c-0.093-1.105-0.277-3.222-1.014-4.788l-0.275-0.553l-0.277,0.553
			c-0.645,1.566-0.921,3.683-1.014,4.788c-0.643-0.828-3.498-3.314-8.654-4.051l-1.198-0.184l0.921,0.643
			c3.131,2.119,4.604,4.143,5.063,5.065c-0.92-0.184-10.588-2.21-16.849,5.156l-0.645,0.737l0.92-0.277
			c10.221-3.406,13.721-0.92,13.812-0.737c-0.645,0.185-11.418,2.856-14.087,16.022l-0.277,1.382l0.737-1.106
			c3.59-5.247,7.273-7.734,9.76-8.839c2.578-1.196,4.419-1.288,4.788-1.288c-0.277,0.275-7.275,6.904-5.433,17.217l0.184,1.196
			l0.368-1.196c2.487-9.208,6.354-12.522,9.485-14.364c0.275,3.867,1.289,19.061-0.83,32.135c-7.641-4.42-17.033-7.091-25.32-7.182
			h-0.368c-3.222,0-6.077,0.368-8.471,1.198l-1.658,0.552h1.75c14.457,0,23.204,3.592,33.24,9.76
			c-0.184,0.184-0.461,0.369-0.736,0.552c-4.144,2.946-13.812,9.944-18.599,9.944c-0.83,0-1.567-0.091-2.303-0.275l-0.921-0.277
			l0.736,0.828c0.555,0.645,1.935,2.303,4.421,2.303c5.893,0,13.995-5.616,18.874-9.024c0.921-0.645,1.75-1.196,2.303-1.566
			c0.644,0.369,1.473,0.921,2.393,1.566c4.881,3.408,12.984,9.024,18.877,9.024c2.485,0,3.774-1.567,4.419-2.303l0.737-0.828
			l-0.921,0.277c-0.644,0.184-1.473,0.275-2.301,0.275c-4.788,0-14.457-6.998-18.6-9.944c-0.277-0.183-0.552-0.368-0.737-0.552
			c10.038-6.168,18.786-9.76,33.241-9.76H294.152z"/>
		<polygon style="fill:#005E52;" points="33.638,434.041 42.386,434.041 54.908,452.918 55.277,453.837 55.461,452.918 
			68.074,434.041 72.771,434.041 72.771,470.044 67.706,470.044 67.706,441.776 67.246,443.156 56.659,458.625 53.71,458.625 
			43.214,443.156 42.754,442.053 42.754,470.044 37.691,470.044 37.691,437.633 33.638,436.527 		"/>
		<path style="fill:#005E52;" d="M87.595,437.079l-4.144,2.578l-2.485-4.235l4.236-2.487L87.595,437.079z M86.766,444.998v25.045
			h-4.788V448.13l-3.038-0.83v-2.21h7.827V444.998z"/>
		<path style="fill:#005E52;" d="M118.348,453.101v16.943h-4.788v-15.746c0-3.683-1.566-5.525-4.881-5.709
			c-2.485-0.184-5.34,1.289-8.654,4.236v17.219h-4.789V448.13l-3.037-0.921v-2.21h7.366l0.367,4.235
			c3.5-3.315,6.998-4.972,10.497-4.972C115.033,444.354,118.348,447.393,118.348,453.101"/>
		<path style="fill:#005E52;" d="M132.158,437.079l-4.144,2.578l-2.485-4.235l4.236-2.487L132.158,437.079z M131.331,444.998v25.045
			h-4.789V448.13l-3.037-0.83v-2.21h7.827V444.998z"/>
		<path style="fill:#005E52;" d="M148.917,470.504c-3.867,0.552-8.287-0.093-12.063-1.658l0.921-3.592
			c5.986,2.119,13.26,2.763,13.443-1.841c0-1.012-0.368-1.842-1.841-2.578c-0.736-0.368-1.382-0.737-1.842-0.92
			c-0.552-0.185-1.473-0.553-2.762-1.014c-5.065-1.841-7.734-3.683-7.55-7.457c0.185-7.735,11.233-8.196,17.586-5.341l-0.921,3.592
			c-4.972-2.117-12.154-2.026-12.061,1.657c0,1.289,0.737,2.026,2.119,2.669c1.012,0.553,1.38,0.646,2.853,1.106
			c0.736,0.275,1.196,0.461,1.566,0.643c4.972,1.842,7.641,3.684,7.457,7.735C155.546,467.373,152.692,469.951,148.917,470.504"/>
		<path style="fill:#005E52;" d="M174.606,469.675c-4.144,1.382-7.182,1.382-9.208-0.185c-2.025-1.473-3.13-3.683-3.13-6.72v-14.18
			h-4.235v-2.21l4.235-1.75v-5.616h4.879v5.986h5.249v3.683h-5.249v13.534c0,3.776,1.658,5.34,6.63,3.776L174.606,469.675z"/>
		<path style="fill:#005E52;" d="M184.55,449.142c3.592-3.776,6.077-5.525,9.945-4.604l-0.46,4.235
			c-3.408-0.643-5.709,1.014-9.299,4.788v16.483h-4.881V448.13l-3.038-0.921v-2.21h7.366L184.55,449.142z"/>
		<polygon style="fill:#005E52;" points="217.329,444.998 222.3,444.998 208.121,481 203.057,481 208.398,468.109 206.463,468.109 
			196.703,444.998 201.584,444.998 209.778,464.518 		"/>
		<path style="fill:#005E52;" d="M250.108,466.727c2.301,0,4.143-0.827,5.616-2.485c1.473-1.657,2.117-3.958,2.117-6.814
			c0-2.855-0.736-5.063-2.117-6.722c-1.473-1.657-3.315-2.485-5.616-2.485c-2.394,0-4.235,0.828-5.616,2.485
			c-1.473,1.658-2.119,3.867-2.119,6.722c0,2.856,0.737,5.156,2.119,6.814C245.964,465.9,247.807,466.727,250.108,466.727
			 M250.108,470.596c-3.776,0-6.723-1.289-9.116-3.683c-2.394-2.487-3.59-5.616-3.59-9.483c0-3.868,1.196-6.998,3.59-9.485
			c2.393-2.485,5.34-3.683,9.116-3.683c3.776,0,6.813,1.198,9.114,3.683c2.394,2.487,3.592,5.616,3.592,9.485
			c0,3.867-1.198,7.089-3.592,9.483C256.921,469.398,253.884,470.596,250.108,470.596"/>
		<path style="fill:#005E52;" d="M282.518,434.87c-6.077-1.564-8.011,0.185-8.011,3.868v6.261h6.261v3.683h-6.261v21.268h-4.788
			v-21.268h-3.866v-3.683h3.866v-6.17c0-3.222,1.014-5.709,3.224-7.275c2.116-1.564,5.616-1.656,10.587-0.368L282.518,434.87z"/>
		<polygon style="fill:#005E52;" points="323.767,438.184 307.103,438.184 307.103,451.352 320.637,451.352 320.637,455.494 
			307.103,455.494 307.103,470.044 302.039,470.044 302.039,437.724 297.895,436.527 297.895,434.041 323.767,434.041 		"/>
		<path style="fill:#005E52;" d="M336.289,437.079l-4.144,2.578l-2.485-4.235l4.236-2.487L336.289,437.079z M335.462,444.998v25.045
			h-4.789V448.13l-3.037-0.83v-2.21h7.827V444.998z"/>
		<path style="fill:#005E52;" d="M367.135,453.101v16.943h-4.788v-15.746c0-3.683-1.564-5.525-4.879-5.709
			c-2.487-0.184-5.341,1.289-8.655,4.236v17.219h-4.788V448.13l-3.038-0.921v-2.21h7.366l0.368,4.235
			c3.499-3.315,6.998-4.972,10.496-4.972C363.82,444.354,367.135,447.393,367.135,453.101"/>
		<path style="fill:#005E52;" d="M388.589,463.23l0.091-5.065c-6.538-0.369-9.298-0.184-10.772,1.841
			c-1.565,1.842-1.289,6.538,2.762,6.998C382.88,467.188,385.551,465.9,388.589,463.23 M373.857,467.925
			c-1.289-1.658-1.842-3.592-1.658-5.525c0.185-1.934,0.737-3.498,1.749-4.604c1.29-1.473,2.946-2.393,5.157-2.762
			c2.21-0.275,5.433-0.367,9.575-0.184v-2.853c0-3.961-4.051-4.788-12.245-2.487l-0.921-3.59c4.051-1.382,7.918-1.842,11.693-1.473
			c3.774,0.368,6.17,2.762,6.17,6.813l-0.093,15.653l3.131,0.828v2.209h-7.367l-0.275-3.774c-3.222,3.039-5.802,4.695-9.299,4.511
			C376.987,470.596,375.145,469.675,373.857,467.925"/>
		<path style="fill:#005E52;" d="M425.511,453.101v16.943h-4.788v-15.746c0-3.683-1.564-5.525-4.879-5.709
			c-2.487-0.184-5.341,1.289-8.655,4.236v17.219H402.4V448.13l-3.038-0.921v-2.21h7.366l0.368,4.235
			c3.499-3.315,6.998-4.972,10.496-4.972C422.195,444.354,425.511,447.393,425.511,453.101"/>
		<path style="fill:#005E52;" d="M434.442,467.096c-2.209-2.485-3.315-5.616-3.315-9.667c0-3.96,1.106-7.091,3.224-9.576
			c2.117-2.394,4.972-3.592,8.564-3.592c3.037,0,5.892,0.83,8.562,2.579l-0.828,3.406c-2.763-1.566-5.157-2.21-7.182-2.117
			c-4.604,0.091-7.459,3.682-7.459,9.298c0,5.525,2.855,9.117,7.643,9.393c2.394,0.091,4.881-0.646,7.641-2.026l0.83,3.408
			c-2.855,1.564-5.893,2.485-9.023,2.485C439.598,470.779,436.652,469.583,434.442,467.096"/>
		<path style="fill:#005E52;" d="M473.851,455.128c0.368-3.961-1.198-6.814-5.895-6.907c-3.958,0-6.629,2.671-7.089,6.907H473.851z
			 M459.118,466.913c-2.118-2.487-3.223-5.616-3.223-9.483c0-3.96,1.105-7.091,3.314-9.576c2.21-2.487,5.157-3.683,8.748-3.592
			c9.208,0,11.326,7.366,9.944,14.087h-17.217c0.093,5.341,3.038,8.287,8.378,8.287c2.578,0,5.157-0.736,7.735-2.025l0.828,3.314
			c-2.485,1.842-5.616,2.763-9.299,2.763C464.367,470.688,461.328,469.398,459.118,466.913"/>
		<polygon style="fill:#005E52;" points="412.713,336.995 412.713,340.217 408.293,341.413 408.293,393.528 401.294,393.528 
			401.294,336.995 		"/>
		<polygon style="fill:#005E52;" points="434.535,345.649 428.181,349.517 424.406,342.98 430.943,339.111 		"/>
		<path style="fill:#005E52;" d="M425.235,357.251v40.329c0,4.788-0.277,8.287-7.919,6.814l-1.38,5.34
			c13.995,3.222,16.203-4.511,16.298-12.338v-35.725l4.327-1.198v-3.223H425.235z"/>
		<path style="fill:#005E52;" d="M378.461,357.251v40.329c0,4.788-0.277,8.287-7.919,6.814l-1.38,5.34
			c13.995,3.222,16.203-4.511,16.298-12.338v-35.725l4.327-1.198v-3.223H378.461z"/>
		<polygon style="fill:#005E52;" points="360.506,345.649 354.153,349.517 350.285,342.98 356.823,339.111 		"/>
		<polygon style="fill:#005E52;" points="348.904,345.649 342.552,349.517 338.776,342.98 345.314,339.111 		"/>
		<path style="fill:#005E52;" d="M345.129,387.727c-3.776,0-9.207-2.117-9.207-11.693c0-12.706,11.233-13.075,15.375-13.075h3.868
			v24.769H345.129z M351.298,357.251c-6.538,0-22.466,1.198-22.466,18.783c0,16.206,11.97,17.495,16.297,17.495h17.035v-31.765
			l4.51-1.29v-3.223H351.298z"/>
		<path style="fill:#005E52;" d="M471.363,387.727h-8.01c-6.629,0-11.233-5.34-11.233-11.417c0-4.144,1.012-7.366,3.131-9.76
			c2.025-2.394,4.695-3.592,8.102-3.592h8.01V387.727z M478.362,357.251h-15.009c-5.431,0-9.76,1.75-13.167,5.249
			c-3.406,3.59-5.156,8.103-5.156,13.72c0,12.706,11.142,17.219,18.322,17.219h8.104c0,11.969-7.828,13.074-20.625,9.298
			l-1.382,5.433c9.115,2.762,16.205,2.762,21.269-0.091c5.063-2.855,7.641-7.275,7.641-14.639V357.251z"/>
		<polygon style="fill:#005E52;" points="139.525,404.21 143.301,410.653 149.746,406.788 146.063,400.25 		"/>
		<polygon style="fill:#005E52;" points="127.924,404.21 131.792,410.653 138.144,406.788 134.461,400.25 		"/>
		<polygon style="fill:#005E52;" points="70.193,344.453 66.601,338.008 60.064,341.873 63.84,348.32 		"/>
		<polygon style="fill:#005E52;" points="58.683,344.453 55,338.008 48.463,341.873 52.238,348.32 		"/>
		<polygon style="fill:#005E52;" points="298.999,336.995 298.999,393.528 305.997,393.528 305.997,341.413 310.417,340.217 
			310.417,336.995 		"/>
		<path style="fill:#005E52;" d="M254.988,387.727h-10.037c-3.774,0-9.208-2.116-9.208-11.693c0-12.706,5.434-13.074,9.577-13.074
			c4.235,0,9.575,0.368,9.575,13.074v11.693H254.988z M279.203,336.995v50.732h-17.126v-11.693
			c0-17.585-10.219-18.783-16.757-18.783c-6.538,0-16.667,1.198-16.667,18.783v2.119c0,9.575-5.433,9.575-9.207,9.575h-27.254
			v-50.732h-6.998v56.534h34.159c2.946,0,9.576,0.369,13.443-4.695c3.867,4.144,9.483,4.695,12.063,4.695h41.249v-52.115l4.42-1.196
			v-3.223H279.203z"/>
		<path style="fill:#005E52;" d="M62.551,383.861h-4.511c-3.776,0-13.259-0.553-13.259-10.774c0-12.706,9.76-13.074,13.904-13.074
			h3.867V383.861z M165.398,336.995v50.732h-12.615c-3.59,0-8.932,0-9.298-8.562V357.25h-6.998v20.902
			c0,9.575-5.616,9.575-9.299,9.575h-56.81c-0.369,0-0.737-0.275-0.737-0.736v-28.082l4.511-1.289v-3.224H58.775
			c-6.538,0-21.086,1.198-21.086,18.784c0,16.205,16.021,16.574,20.35,16.574h4.511v0.92c0,1.566,1.289,2.855,2.853,2.855h61.598
			c2.855,0,8.932,0.275,12.8-3.96c3.867,4.329,10.035,3.96,12.797,3.96h19.613v-52.115l4.419-1.196v-3.223H165.398z"/>
	</g>
</g>
</svg>
