<?xml version="1.0" encoding="iso-8859-1"?>
<!-- Generator: Adobe Illustrator 23.0.1, SVG Export Plug-In . SVG Version: 6.00 Build 0)  -->
<svg version="1.1" id="Layer_1" xmlns="http://www.w3.org/2000/svg" xmlns:xlink="http://www.w3.org/1999/xlink" x="0px" y="0px"
	 viewBox="0 0 512 512" style="enable-background:new 0 0 512 512;" xml:space="preserve">
<g>
	<path style="fill:#C38527;" d="M446.38,142.913c11.835,0.944,23.018,2.102,33.369,2.997c-9.776-8.841-24.12-16.316-40.008-21.102
		c-4.059,1.525-8.189,3.18-12.36,4.947C434.294,133.609,440.651,138.041,446.38,142.913"/>
	<path style="fill:#C38527;" d="M365.71,124.802c-15.888,4.789-30.22,12.264-40.015,21.108c10.267-0.891,21.322-1.86,33.027-2.693
		c5.829-4.984,12.291-9.531,19.344-13.463C373.896,127.982,369.79,126.333,365.71,124.802"/>
	<path style="fill:#FAA62B;" d="M383.721,114.915c-15.09-2.112-29.313-1.14-41.005,2.332c7.472,2.056,15.146,4.59,22.99,7.556
		c7.149-2.149,14.602-3.745,22.108-4.689C386.445,118.343,385.081,116.601,383.721,114.915"/>
	<path style="fill:#FAA62B;" d="M435.02,152.813c1.96,3.338,3.714,6.714,5.298,10.124c14.975,10.05,28.446,20.826,40.682,31.552
		c-4.736-17.124-16.692-36.35-34.62-51.58c-6.077-0.481-12.323-0.91-18.72-1.217C430.277,145.217,432.737,148.922,435.02,152.813"/>
	<path style="fill:#896634;" d="M439.745,124.802c7.851-2.959,15.524-5.5,22.981-7.556c-11.683-3.472-25.9-4.447-40.993-2.329
		c-1.379,1.686-2.742,3.425-4.096,5.192C425.13,121.056,432.599,122.647,439.745,124.802"/>
	<path style="fill:#896634;" d="M377.501,142.067c-6.419,0.329-12.689,0.724-18.779,1.152
		c-17.732,15.189-29.574,34.263-34.276,51.257c12.229-10.708,25.714-21.487,40.685-31.537c1.584-3.41,3.335-6.795,5.304-10.127
		C372.622,149.061,374.991,145.486,377.501,142.067"/>
	<path style="fill:#1AA249;" d="M414.961,147.57c-0.429-0.227-0.845-0.435-1.267-0.668c0.342,4.189,0.609,8.444,0.779,12.776
		c13.074,21.089,30.512,57.048,36.201,78.259c3.22-20.826,1.817-48.763-10.36-74.995
		C432.309,157.573,423.874,152.393,414.961,147.57"/>
	<path style="fill:#1AA249;" d="M396.68,112.98c0.025-0.13,0.084-0.394,0.143-0.699v0.009l0.009-0.009
		c-9.692-6.531-19.565-11.205-28.611-13.779c5.158,4.472,10.372,10.121,15.487,16.413c3.987,0.556,8.015,1.332,12.099,2.335
		C396.093,115.816,396.369,114.393,396.68,112.98"/>
	<path style="fill:#1AA249;" d="M408.611,112.29c0.074,0.27,0.14,0.522,0.177,0.683c0.304,1.41,0.593,2.841,0.86,4.279
		c4.081-1.006,8.108-1.779,12.093-2.338c5.118-6.289,10.326-11.941,15.503-16.403c-9.046,2.568-18.931,7.236-28.614,13.745v0.031
		l-0.009,0.003H408.611z"/>
	<path style="fill:#1AA249;" d="M390.493,147.57c-8.904,4.823-17.348,10.003-25.375,15.372
		c-12.155,26.232-13.559,54.17-10.329,74.995c5.677-21.223,23.142-57.201,36.22-78.297c0.171-4.317,0.435-8.559,0.767-12.748
		C391.35,147.117,390.928,147.343,390.493,147.57"/>
	<path style="fill:#097A42;" d="M408.629,112.261c-1.665-7.639-3.634-14.826-5.888-21.419c-2.258,6.593-4.239,13.785-5.897,21.425
		c1.966,1.335,3.935,2.733,5.876,4.208C404.691,114.997,406.645,113.59,408.629,112.261"/>
	<path style="fill:#097A42;" d="M402.718,141.247c-4.093,6.217-8.006,12.425-11.636,18.273c-0.037,0.037-0.059,0.087-0.081,0.124
		v0.009c-0.174,4.109-0.273,8.313-0.273,12.534c0,30.981,4.509,59.343,12.012,81.355c7.497-22.012,12.009-50.375,12.009-81.355
		c0-4.208-0.09-8.36-0.245-12.469c0,0-0.019-0.019-0.031-0.034c-0.025-0.062-0.065-0.115-0.109-0.165
		C410.736,153.672,406.82,147.464,402.718,141.247"/>
	<path style="fill:#D07527;" d="M379.663,128.828c3.584-1.931,7.183-3.652,10.804-5.202c-0.879-1.183-1.773-2.348-2.658-3.515
		c-7.503,0.95-14.95,2.54-22.099,4.692c4.081,1.534,8.186,3.18,12.357,4.947C378.601,129.455,379.126,129.126,379.663,128.828"/>
	<path style="fill:#D07527;" d="M420.42,132.795c2.518,2.811,4.941,5.786,7.251,8.894c6.388,0.311,12.636,0.736,18.702,1.227
		c-5.72-4.873-12.074-9.32-18.984-13.167C425.078,130.727,422.755,131.751,420.42,132.795"/>
	<path style="fill:#734517;" d="M414.979,123.635c3.621,1.534,7.226,3.264,10.795,5.193c0.537,0.289,1.068,0.621,1.618,0.925
		c4.152-1.77,8.289-3.419,12.357-4.953c-7.146-2.146-14.611-3.751-22.102-4.683C416.756,121.269,415.867,122.443,414.979,123.635"/>
	<path style="fill:#734517;" d="M385.037,132.795c-2.332-1.043-4.658-2.077-6.969-3.046c-7.056,3.938-13.518,8.484-19.348,13.472
		c6.096-0.426,12.357-0.823,18.779-1.162C379.904,138.819,382.416,135.723,385.037,132.795"/>
	<path style="fill:#773116;" d="M391.979,125.668c-0.506-0.689-1.013-1.363-1.509-2.031c-3.624,1.537-7.227,3.261-10.804,5.186
		c-0.54,0.301-1.062,0.63-1.596,0.935c2.31,0.969,4.63,1.994,6.969,3.034C387.277,130.286,389.597,127.928,391.979,125.668"/>
	<path style="fill:#773116;" d="M420.42,132.795c2.335-1.043,4.658-2.068,6.969-3.046c-0.546-0.292-1.078-0.624-1.615-0.919
		c-3.565-1.935-7.171-3.655-10.795-5.195c-0.509,0.674-0.988,1.36-1.494,2.037C415.858,127.925,418.181,130.292,420.42,132.795"/>
	<path style="fill:#4C7A38;" d="M395.406,119.394c0.124-0.711,0.267-1.428,0.41-2.137c-4.084-1.003-8.121-1.779-12.099-2.341
		c1.366,1.686,2.739,3.435,4.093,5.195C390.338,119.789,392.872,119.562,395.406,119.394"/>
	<path style="fill:#4C7A38;" d="M427.659,141.689c-4.752-0.227-9.574-0.397-14.478-0.459c0.18,1.876,0.357,3.764,0.513,5.674
		c0.425,0.217,0.832,0.444,1.267,0.671c8.913,4.823,17.341,9.987,25.353,15.375c-1.584-3.41-3.338-6.798-5.292-10.139
		C432.746,148.919,430.28,145.224,427.659,141.689"/>
	<path style="fill:#4B5020;" d="M413.181,141.229c4.913,0.065,9.742,0.227,14.478,0.46c-2.311-3.102-4.724-6.081-7.248-8.897
		c-2.587,1.155-5.158,2.345-7.77,3.578C412.83,137.977,413.016,139.586,413.181,141.229"/>
	<path style="fill:#4B5020;" d="M395.406,119.394c-2.534,0.168-5.068,0.394-7.596,0.717c0.885,1.165,1.786,2.326,2.658,3.516
		c1.506-0.637,3.003-1.208,4.497-1.789C395.114,121.028,395.251,120.205,395.406,119.394"/>
	<path style="fill:#302C17;" d="M394.739,123.103c0.081-0.425,0.161-0.835,0.227-1.264c-1.494,0.575-2.997,1.158-4.494,1.786
		c0.506,0.68,1.006,1.357,1.506,2.044C392.885,124.796,393.813,123.945,394.739,123.103"/>
	<path style="fill:#302C17;" d="M413.484,125.668c-0.643,0.891-1.276,1.78-1.919,2.674c0.394,2.637,0.752,5.314,1.078,8.034
		c2.602-1.239,5.189-2.438,7.776-3.584C418.167,130.292,415.857,127.928,413.484,125.668"/>
	<path style="fill:#2E5327;" d="M391.776,146.892c0.136-1.826,0.31-3.63,0.497-5.435c-5.009,0.171-9.941,0.367-14.782,0.609
		c-2.503,3.416-4.869,6.987-7.056,10.748c-1.969,3.332-3.72,6.714-5.32,10.127c8.028-5.369,16.475-10.543,25.378-15.372
		C390.928,147.339,391.347,147.119,391.776,146.892"/>
	<path style="fill:#2E5327;" d="M410.072,119.402c2.515,0.158,5.043,0.391,7.568,0.711c1.351-1.761,2.717-3.515,4.093-5.195
		c-3.981,0.559-8.006,1.329-12.08,2.335C409.805,117.961,409.933,118.679,410.072,119.402"/>
	<path style="fill:#25341A;" d="M385.037,132.795c-2.621,2.929-5.133,6.025-7.537,9.264c4.838-0.236,9.77-0.435,14.764-0.603
		c0.18-1.695,0.366-3.394,0.571-5.077C390.214,135.143,387.621,133.953,385.037,132.795"/>
	<path style="fill:#25341A;" d="M414.979,123.635c0.888-1.192,1.776-2.366,2.667-3.519c-2.531-0.323-5.062-0.556-7.574-0.714
		c0.146,0.801,0.289,1.64,0.435,2.438C411.998,122.415,413.486,123.005,414.979,123.635"/>
	<path style="fill:#2D2714;" d="M410.737,123.123c0.919,0.842,1.838,1.686,2.745,2.544c0.497-0.674,0.991-1.36,1.497-2.028
		c-1.488-0.646-2.987-1.224-4.475-1.798C410.578,122.278,410.659,122.691,410.737,123.123"/>
	<path style="fill:#2D2714;" d="M393.905,128.359c-0.64-0.904-1.283-1.798-1.926-2.692c-2.376,2.261-4.702,4.627-6.941,7.124
		c2.584,1.155,5.174,2.354,7.795,3.584C393.154,133.663,393.514,130.996,393.905,128.359"/>
	<path style="fill:#0B241A;" d="M413.484,125.668c-0.907-0.869-1.826-1.705-2.748-2.543c0.292,1.721,0.571,3.453,0.829,5.217
		C412.208,127.447,412.841,126.559,413.484,125.668"/>
	<path style="fill:#0B241A;" d="M391.979,125.668c0.643,0.894,1.285,1.789,1.925,2.689c0.261-1.77,0.534-3.522,0.832-5.255
		C393.805,123.944,392.886,124.798,391.979,125.668"/>
	<path style="fill:#005E30;" d="M396.831,112.285c-0.071,0.301-0.127,0.568-0.152,0.699c-0.307,1.407-0.587,2.835-0.863,4.27
		c1.466,0.363,2.935,0.761,4.422,1.18c0.832-0.662,1.652-1.32,2.487-1.953c-1.956-1.484-3.913-2.879-5.894-4.208v0.016V112.285z"/>
	<path style="fill:#005E30;" d="M402.751,141.229h-0.013l-0.022,0.022c4.103,6.217,8.031,12.416,11.646,18.267
		c0.044,0.056,0.084,0.112,0.109,0.161c-0.165-4.326-0.438-8.59-0.78-12.776C410.015,144.943,406.376,143.049,402.751,141.229"/>
	<path style="fill:#004925;" d="M400.237,118.43c-1.478-0.416-2.944-0.814-4.435-1.177c-0.127,0.717-0.27,1.432-0.394,2.14
		c1.286-0.071,2.578-0.131,3.866-0.177C399.604,118.952,399.914,118.688,400.237,118.43"/>
	<path style="fill:#004925;" d="M402.751,141.229c3.624,1.82,7.264,3.714,10.941,5.674c-0.155-1.91-0.323-3.795-0.512-5.674
		C409.745,141.17,406.26,141.17,402.751,141.229"/>
	<path style="fill:#002C19;" d="M397.038,121.058c0.736-0.63,1.481-1.22,2.239-1.838c-1.289,0.037-2.581,0.109-3.869,0.183
		c-0.165,0.804-0.295,1.618-0.441,2.438C395.652,121.577,396.351,121.31,397.038,121.058"/>
	<path style="fill:#002D1A;" d="M413.181,141.229c-0.165-1.643-0.351-3.251-0.54-4.86c-3.276,1.55-6.559,3.152-9.872,4.832
		c-0.009,0.013-0.009,0.019-0.028,0.028h0.019C406.259,141.17,409.749,141.17,413.181,141.229"/>
	<path style="fill:#041C16;" d="M394.967,121.842c-0.075,0.423-0.155,0.836-0.221,1.261c0.761-0.677,1.519-1.382,2.292-2.04
		C396.352,121.308,395.653,121.578,394.967,121.842"/>
	<path style="fill:#041C16;" d="M402.767,141.2c3.304-1.68,6.599-3.286,9.866-4.829c-0.317-2.717-0.668-5.391-1.056-8.034
		C408.546,132.551,405.608,136.874,402.767,141.2"/>
	<path style="fill:#005E30;" d="M402.718,141.247c0,0,0-0.015-0.009-0.022h-0.006c-3.615,1.82-7.261,3.708-10.925,5.671
		c-0.336,4.186-0.609,8.432-0.776,12.748c0.022-0.037,0.043-0.087,0.081-0.124C394.712,153.672,398.625,147.464,402.718,141.247"/>
	<path style="fill:#005E30;" d="M405.217,118.434c1.484-0.425,2.956-0.823,4.435-1.177c-0.273-1.438-0.559-2.882-0.87-4.289
		c-0.031-0.146-0.09-0.407-0.174-0.674v-0.019l0.019-0.013c-1.978,1.326-3.95,2.733-5.91,4.211
		C403.562,117.115,404.391,117.776,405.217,118.434"/>
	<path style="fill:#002E1B;" d="M391.776,146.892c3.668-1.956,7.31-3.854,10.928-5.661c-3.516,0.04-7.006,0.124-10.431,0.227
		C392.086,143.262,391.912,145.066,391.776,146.892"/>
	<path style="fill:#002E1B;" d="M410.072,119.402c-0.14-0.723-0.267-1.441-0.419-2.149c-1.472,0.363-2.954,0.758-4.435,1.183
		c0.332,0.258,0.643,0.522,0.96,0.786C407.476,119.266,408.768,119.322,410.072,119.402"/>
	<path style="fill:#071F17;" d="M408.417,121.058c0.692,0.264,1.394,0.525,2.087,0.783c-0.146-0.798-0.283-1.634-0.435-2.438
		c-1.304-0.074-2.602-0.146-3.882-0.183C406.92,119.838,407.668,120.428,408.417,121.058"/>
	<path style="fill:#031D19;" d="M402.694,141.2c-3.317-1.677-6.602-3.279-9.857-4.817c-0.205,1.683-0.394,3.366-0.562,5.074
		c3.432-0.099,6.904-0.183,10.428-0.23l0.009-0.006L402.694,141.2z"/>
	<path style="fill:#061C15;" d="M392.834,136.379c3.258,1.547,6.54,3.146,9.86,4.826c-2.848-4.326-5.786-8.633-8.779-12.841
		C393.514,130.988,393.154,133.671,392.834,136.379"/>
	<path style="fill:#061C15;" d="M410.503,121.846c-0.702-0.258-1.385-0.531-2.087-0.779c0.776,0.658,1.54,1.376,2.323,2.059
		C410.652,122.704,410.568,122.281,410.503,121.846"/>
	<path style="fill:#004A25;" d="M402.718,119.134h0.074c0.817-0.245,1.605-0.472,2.425-0.699c-0.829-0.671-1.658-1.326-2.5-1.956
		c-0.829,0.63-1.649,1.286-2.481,1.956c0.817,0.227,1.618,0.453,2.422,0.699H402.718z"/>
	<path style="fill:#00321E;" d="M402.664,119.138c-0.817-0.255-1.615-0.472-2.432-0.708c-0.311,0.261-0.637,0.528-0.95,0.789
		C400.4,119.182,401.53,119.138,402.664,119.138"/>
	<path style="fill:#0B221A;" d="M402.664,119.138c-1.134,0-2.264,0.044-3.382,0.081c-0.764,0.618-1.506,1.214-2.245,1.848
		c1.904-0.696,3.792-1.332,5.686-1.913L402.664,119.138z"/>
	<path style="fill:#0B221A;" d="M406.187,119.218c-0.326-0.264-0.643-0.522-0.969-0.779c-0.811,0.224-1.609,0.444-2.425,0.696
		C403.923,119.135,405.057,119.188,406.187,119.218"/>
	<path style="fill:#041C16;" d="M408.417,121.058c-0.749-0.63-1.497-1.22-2.23-1.838c-1.137-0.028-2.264-0.084-3.388-0.084
		c-0.031,0.006-0.056,0.019-0.071,0.022C404.621,119.751,406.522,120.369,408.417,121.058"/>
	<path style="fill:#121213;" d="M410.737,123.123c-0.78-0.686-1.547-1.401-2.332-2.062c-1.882-0.693-3.786-1.336-5.686-1.929
		c-1.882,0.593-3.776,1.236-5.677,1.929c-0.776,0.661-1.543,1.36-2.301,2.04c-0.295,1.739-0.575,3.484-0.836,5.261
		c3.003,4.208,5.935,8.515,8.789,12.841l0.025,0.013l0.053-0.022c2.835-4.317,5.776-8.636,8.795-12.851
		C411.308,126.58,411.025,124.85,410.737,123.123"/>
	<path style="fill:#C38527;" d="M446.38,142.913c11.835,0.944,23.018,2.102,33.369,2.997c-9.776-8.841-24.12-16.316-40.008-21.102
		c-4.059,1.525-8.189,3.18-12.36,4.947C434.294,133.609,440.651,138.041,446.38,142.913"/>
	<path style="fill:#C38527;" d="M365.71,124.802c-15.888,4.789-30.22,12.264-40.015,21.108c10.267-0.891,21.322-1.86,33.027-2.693
		c5.829-4.984,12.291-9.531,19.344-13.463C373.896,127.982,369.79,126.333,365.71,124.802"/>
	<path style="fill:#FAA62B;" d="M383.721,114.915c-15.09-2.112-29.313-1.14-41.005,2.332c7.472,2.056,15.146,4.59,22.99,7.556
		c7.149-2.149,14.602-3.745,22.108-4.689C386.445,118.343,385.081,116.601,383.721,114.915"/>
	<path style="fill:#FAA62B;" d="M435.02,152.813c1.96,3.338,3.714,6.714,5.298,10.124c14.975,10.05,28.446,20.826,40.682,31.552
		c-4.736-17.124-16.692-36.35-34.62-51.58c-6.077-0.481-12.323-0.91-18.72-1.217C430.277,145.217,432.737,148.922,435.02,152.813"/>
	<path style="fill:#896634;" d="M439.745,124.802c7.851-2.959,15.524-5.5,22.981-7.556c-11.683-3.472-25.9-4.447-40.993-2.329
		c-1.379,1.686-2.742,3.425-4.096,5.192C425.13,121.056,432.599,122.647,439.745,124.802"/>
	<path style="fill:#896634;" d="M377.501,142.067c-6.419,0.329-12.689,0.724-18.779,1.152
		c-17.732,15.189-29.574,34.263-34.276,51.257c12.229-10.708,25.714-21.487,40.685-31.537c1.584-3.41,3.335-6.795,5.304-10.127
		C372.622,149.061,374.991,145.486,377.501,142.067"/>
	<path style="fill:#1AA249;" d="M414.961,147.57c-0.429-0.227-0.845-0.435-1.267-0.668c0.342,4.189,0.609,8.444,0.779,12.776
		c13.074,21.089,30.512,57.048,36.201,78.259c3.22-20.826,1.817-48.763-10.36-74.995
		C432.309,157.573,423.874,152.393,414.961,147.57"/>
	<path style="fill:#1AA249;" d="M396.68,112.98c0.025-0.13,0.084-0.394,0.143-0.699v0.009l0.009-0.009
		c-9.692-6.531-19.565-11.205-28.611-13.779c5.158,4.472,10.372,10.121,15.487,16.413c3.987,0.556,8.015,1.332,12.099,2.335
		C396.093,115.816,396.369,114.393,396.68,112.98"/>
	<path style="fill:#1AA249;" d="M408.611,112.29c0.074,0.27,0.14,0.522,0.177,0.683c0.304,1.41,0.593,2.841,0.86,4.279
		c4.081-1.006,8.108-1.779,12.093-2.338c5.118-6.289,10.326-11.941,15.503-16.403c-9.046,2.568-18.931,7.236-28.614,13.745v0.031
		l-0.009,0.003H408.611z"/>
	<path style="fill:#1AA249;" d="M390.493,147.57c-8.904,4.823-17.348,10.003-25.375,15.372
		c-12.155,26.232-13.559,54.17-10.329,74.995c5.677-21.223,23.142-57.201,36.22-78.297c0.171-4.317,0.435-8.559,0.767-12.748
		C391.35,147.117,390.928,147.343,390.493,147.57"/>
	<path style="fill:#097A42;" d="M408.629,112.261c-1.665-7.639-3.634-14.826-5.888-21.419c-2.258,6.593-4.239,13.785-5.897,21.425
		c1.966,1.335,3.935,2.733,5.876,4.208C404.691,114.997,406.645,113.59,408.629,112.261"/>
	<path style="fill:#097A42;" d="M402.718,141.247c-4.093,6.217-8.006,12.425-11.636,18.273c-0.037,0.037-0.059,0.087-0.081,0.124
		v0.009c-0.174,4.109-0.273,8.313-0.273,12.534c0,30.981,4.509,59.343,12.012,81.355c7.497-22.012,12.009-50.375,12.009-81.355
		c0-4.208-0.09-8.36-0.245-12.469c0,0-0.019-0.019-0.031-0.034c-0.025-0.062-0.065-0.115-0.109-0.165
		C410.736,153.672,406.82,147.464,402.718,141.247"/>
	<path style="fill:#D07527;" d="M379.663,128.828c3.584-1.931,7.183-3.652,10.804-5.202c-0.879-1.183-1.773-2.348-2.658-3.515
		c-7.503,0.95-14.95,2.54-22.099,4.692c4.081,1.534,8.186,3.18,12.357,4.947C378.601,129.455,379.126,129.126,379.663,128.828"/>
	<path style="fill:#D07527;" d="M420.42,132.795c2.518,2.811,4.941,5.786,7.251,8.894c6.388,0.311,12.636,0.736,18.702,1.227
		c-5.72-4.873-12.074-9.32-18.984-13.167C425.078,130.727,422.755,131.751,420.42,132.795"/>
	<path style="fill:#734517;" d="M414.979,123.635c3.621,1.534,7.226,3.264,10.795,5.193c0.537,0.289,1.068,0.621,1.618,0.925
		c4.152-1.77,8.289-3.419,12.357-4.953c-7.146-2.146-14.611-3.751-22.102-4.683C416.756,121.269,415.867,122.443,414.979,123.635"/>
	<path style="fill:#734517;" d="M385.037,132.795c-2.332-1.043-4.658-2.077-6.969-3.046c-7.056,3.938-13.518,8.484-19.348,13.472
		c6.096-0.426,12.357-0.823,18.779-1.162C379.904,138.819,382.416,135.723,385.037,132.795"/>
	<path style="fill:#773116;" d="M391.979,125.668c-0.506-0.689-1.013-1.363-1.509-2.031c-3.624,1.537-7.227,3.261-10.804,5.186
		c-0.54,0.301-1.062,0.63-1.596,0.935c2.31,0.969,4.63,1.994,6.969,3.034C387.277,130.286,389.597,127.928,391.979,125.668"/>
	<path style="fill:#773116;" d="M420.42,132.795c2.335-1.043,4.658-2.068,6.969-3.046c-0.546-0.292-1.078-0.624-1.615-0.919
		c-3.565-1.935-7.171-3.655-10.795-5.195c-0.509,0.674-0.988,1.36-1.494,2.037C415.858,127.925,418.181,130.292,420.42,132.795"/>
	<path style="fill:#4C7A38;" d="M395.406,119.394c0.124-0.711,0.267-1.428,0.41-2.137c-4.084-1.003-8.121-1.779-12.099-2.341
		c1.366,1.686,2.739,3.435,4.093,5.195C390.338,119.789,392.872,119.562,395.406,119.394"/>
	<path style="fill:#4C7A38;" d="M427.659,141.689c-4.752-0.227-9.574-0.397-14.478-0.459c0.18,1.876,0.357,3.764,0.513,5.674
		c0.425,0.217,0.832,0.444,1.267,0.671c8.913,4.823,17.341,9.987,25.353,15.375c-1.584-3.41-3.338-6.798-5.292-10.139
		C432.746,148.919,430.28,145.224,427.659,141.689"/>
	<path style="fill:#4B5020;" d="M413.181,141.229c4.913,0.065,9.742,0.227,14.478,0.46c-2.311-3.102-4.724-6.081-7.248-8.897
		c-2.587,1.155-5.158,2.345-7.77,3.578C412.83,137.977,413.016,139.586,413.181,141.229"/>
	<path style="fill:#4B5020;" d="M395.406,119.394c-2.534,0.168-5.068,0.394-7.596,0.717c0.885,1.165,1.786,2.326,2.658,3.516
		c1.506-0.637,3.003-1.208,4.497-1.789C395.114,121.028,395.251,120.205,395.406,119.394"/>
	<path style="fill:#302C17;" d="M394.739,123.103c0.081-0.425,0.161-0.835,0.227-1.264c-1.494,0.575-2.997,1.158-4.494,1.786
		c0.506,0.68,1.006,1.357,1.506,2.044C392.885,124.796,393.813,123.945,394.739,123.103"/>
	<path style="fill:#302C17;" d="M413.484,125.668c-0.643,0.891-1.276,1.78-1.919,2.674c0.394,2.637,0.752,5.314,1.078,8.034
		c2.602-1.239,5.189-2.438,7.776-3.584C418.167,130.292,415.857,127.928,413.484,125.668"/>
	<path style="fill:#2E5327;" d="M391.776,146.892c0.136-1.826,0.31-3.63,0.497-5.435c-5.009,0.171-9.941,0.367-14.782,0.609
		c-2.503,3.416-4.869,6.987-7.056,10.748c-1.969,3.332-3.72,6.714-5.32,10.127c8.028-5.369,16.475-10.543,25.378-15.372
		C390.928,147.339,391.347,147.119,391.776,146.892"/>
	<path style="fill:#2E5327;" d="M410.072,119.402c2.515,0.158,5.043,0.391,7.568,0.711c1.351-1.761,2.717-3.515,4.093-5.195
		c-3.981,0.559-8.006,1.329-12.08,2.335C409.805,117.961,409.933,118.679,410.072,119.402"/>
	<path style="fill:#25341A;" d="M385.037,132.795c-2.621,2.929-5.133,6.025-7.537,9.264c4.838-0.236,9.77-0.435,14.764-0.603
		c0.18-1.695,0.366-3.394,0.571-5.077C390.214,135.143,387.621,133.953,385.037,132.795"/>
	<path style="fill:#25341A;" d="M414.979,123.635c0.888-1.192,1.776-2.366,2.667-3.519c-2.531-0.323-5.062-0.556-7.574-0.714
		c0.146,0.801,0.289,1.64,0.435,2.438C411.998,122.415,413.486,123.005,414.979,123.635"/>
	<path style="fill:#2D2714;" d="M410.737,123.123c0.919,0.842,1.838,1.686,2.745,2.544c0.497-0.674,0.991-1.36,1.497-2.028
		c-1.488-0.646-2.987-1.224-4.475-1.798C410.578,122.278,410.659,122.691,410.737,123.123"/>
	<path style="fill:#2D2714;" d="M393.905,128.359c-0.64-0.904-1.283-1.798-1.926-2.692c-2.376,2.261-4.702,4.627-6.941,7.124
		c2.584,1.155,5.174,2.354,7.795,3.584C393.154,133.663,393.514,130.996,393.905,128.359"/>
	<path style="fill:#0B241A;" d="M413.484,125.668c-0.907-0.869-1.826-1.705-2.748-2.543c0.292,1.721,0.571,3.453,0.829,5.217
		C412.208,127.447,412.841,126.559,413.484,125.668"/>
	<path style="fill:#0B241A;" d="M391.979,125.668c0.643,0.894,1.285,1.789,1.925,2.689c0.261-1.77,0.534-3.522,0.832-5.255
		C393.805,123.944,392.886,124.798,391.979,125.668"/>
	<path style="fill:#005E30;" d="M396.831,112.285c-0.071,0.301-0.127,0.568-0.152,0.699c-0.307,1.407-0.587,2.835-0.863,4.27
		c1.466,0.363,2.935,0.761,4.422,1.18c0.832-0.662,1.652-1.32,2.487-1.953c-1.956-1.484-3.913-2.879-5.894-4.208v0.016V112.285z"/>
	<path style="fill:#005E30;" d="M402.751,141.229h-0.013l-0.022,0.022c4.103,6.217,8.031,12.416,11.646,18.267
		c0.044,0.056,0.084,0.112,0.109,0.161c-0.165-4.326-0.438-8.59-0.78-12.776C410.015,144.943,406.376,143.049,402.751,141.229"/>
	<path style="fill:#004925;" d="M400.237,118.43c-1.478-0.416-2.944-0.814-4.435-1.177c-0.127,0.717-0.27,1.432-0.394,2.14
		c1.286-0.071,2.578-0.131,3.866-0.177C399.604,118.952,399.914,118.688,400.237,118.43"/>
	<path style="fill:#004925;" d="M402.751,141.229c3.624,1.82,7.264,3.714,10.941,5.674c-0.155-1.91-0.323-3.795-0.512-5.674
		C409.745,141.17,406.26,141.17,402.751,141.229"/>
	<path style="fill:#002C19;" d="M397.038,121.058c0.736-0.63,1.481-1.22,2.239-1.838c-1.289,0.037-2.581,0.109-3.869,0.183
		c-0.165,0.804-0.295,1.618-0.441,2.438C395.652,121.577,396.351,121.31,397.038,121.058"/>
	<path style="fill:#002D1A;" d="M413.181,141.229c-0.165-1.643-0.351-3.251-0.54-4.86c-3.276,1.55-6.559,3.152-9.872,4.832
		c-0.009,0.013-0.009,0.019-0.028,0.028h0.019C406.259,141.17,409.749,141.17,413.181,141.229"/>
	<path style="fill:#041C16;" d="M394.967,121.842c-0.075,0.423-0.155,0.836-0.221,1.261c0.761-0.677,1.519-1.382,2.292-2.04
		C396.352,121.308,395.653,121.578,394.967,121.842"/>
	<path style="fill:#041C16;" d="M402.767,141.2c3.304-1.68,6.599-3.286,9.866-4.829c-0.317-2.717-0.668-5.391-1.056-8.034
		C408.546,132.551,405.608,136.874,402.767,141.2"/>
	<path style="fill:#005E30;" d="M402.718,141.247c0,0,0-0.015-0.009-0.022h-0.006c-3.615,1.82-7.261,3.708-10.925,5.671
		c-0.336,4.186-0.609,8.432-0.776,12.748c0.022-0.037,0.043-0.087,0.081-0.124C394.712,153.672,398.625,147.464,402.718,141.247"/>
	<path style="fill:#005E30;" d="M405.217,118.434c1.484-0.425,2.956-0.823,4.435-1.177c-0.273-1.438-0.559-2.882-0.87-4.289
		c-0.031-0.146-0.09-0.407-0.174-0.674v-0.019l0.019-0.013c-1.978,1.326-3.95,2.733-5.91,4.211
		C403.562,117.115,404.391,117.776,405.217,118.434"/>
	<path style="fill:#002E1B;" d="M391.776,146.892c3.668-1.956,7.31-3.854,10.928-5.661c-3.516,0.04-7.006,0.124-10.431,0.227
		C392.086,143.262,391.912,145.066,391.776,146.892"/>
	<path style="fill:#002E1B;" d="M410.072,119.402c-0.14-0.723-0.267-1.441-0.419-2.149c-1.472,0.363-2.954,0.758-4.435,1.183
		c0.332,0.258,0.643,0.522,0.96,0.786C407.476,119.266,408.768,119.322,410.072,119.402"/>
	<path style="fill:#071F17;" d="M408.417,121.058c0.692,0.264,1.394,0.525,2.087,0.783c-0.146-0.798-0.283-1.634-0.435-2.438
		c-1.304-0.074-2.602-0.146-3.882-0.183C406.92,119.838,407.668,120.428,408.417,121.058"/>
	<path style="fill:#031D19;" d="M402.694,141.2c-3.317-1.677-6.602-3.279-9.857-4.817c-0.205,1.683-0.394,3.366-0.562,5.074
		c3.432-0.099,6.904-0.183,10.428-0.23l0.009-0.006L402.694,141.2z"/>
	<path style="fill:#061C15;" d="M392.834,136.379c3.258,1.547,6.54,3.146,9.86,4.826c-2.848-4.326-5.786-8.633-8.779-12.841
		C393.514,130.988,393.154,133.671,392.834,136.379"/>
	<path style="fill:#061C15;" d="M410.503,121.846c-0.702-0.258-1.385-0.531-2.087-0.779c0.776,0.658,1.54,1.376,2.323,2.059
		C410.652,122.704,410.568,122.281,410.503,121.846"/>
	<path style="fill:#004A25;" d="M402.718,119.134h0.074c0.817-0.245,1.605-0.472,2.425-0.699c-0.829-0.671-1.658-1.326-2.5-1.956
		c-0.829,0.63-1.649,1.286-2.481,1.956c0.817,0.227,1.618,0.453,2.422,0.699H402.718z"/>
	<path style="fill:#00321E;" d="M402.664,119.138c-0.817-0.255-1.615-0.472-2.432-0.708c-0.311,0.261-0.637,0.528-0.95,0.789
		C400.4,119.182,401.53,119.138,402.664,119.138"/>
	<path style="fill:#0B221A;" d="M402.664,119.138c-1.134,0-2.264,0.044-3.382,0.081c-0.764,0.618-1.506,1.214-2.245,1.848
		c1.904-0.696,3.792-1.332,5.686-1.913L402.664,119.138z"/>
	<path style="fill:#0B221A;" d="M406.187,119.218c-0.326-0.264-0.643-0.522-0.969-0.779c-0.811,0.224-1.609,0.444-2.425,0.696
		C403.923,119.135,405.057,119.188,406.187,119.218"/>
	<path style="fill:#041C16;" d="M408.417,121.058c-0.749-0.63-1.497-1.22-2.23-1.838c-1.137-0.028-2.264-0.084-3.388-0.084
		c-0.031,0.006-0.056,0.019-0.071,0.022C404.621,119.751,406.522,120.369,408.417,121.058"/>
	<path style="fill:#121213;" d="M410.737,123.123c-0.78-0.686-1.547-1.401-2.332-2.062c-1.882-0.693-3.786-1.336-5.686-1.929
		c-1.882,0.593-3.776,1.236-5.677,1.929c-0.776,0.661-1.543,1.36-2.301,2.04c-0.295,1.739-0.575,3.484-0.836,5.261
		c3.003,4.208,5.935,8.515,8.789,12.841l0.025,0.013l0.053-0.022c2.835-4.317,5.776-8.636,8.795-12.851
		C411.308,126.58,411.025,124.85,410.737,123.123"/>
	<polygon style="fill:#956E41;" points="204.444,418.592 204.304,418.735 204.304,421.024 204.444,421.158 206.726,421.158 
		206.86,421.024 206.86,418.735 206.726,418.592 	"/>
	<polygon style="fill:#956E41;" points="44.546,418.592 44.415,418.735 44.415,421.024 44.546,421.158 46.838,421.158 
		46.971,421.024 46.971,418.735 46.838,418.592 	"/>
	<polygon style="fill:#956E41;" points="200.216,418.592 200.086,418.735 200.086,421.024 200.216,421.158 202.508,421.158 
		202.638,421.024 202.638,418.735 202.508,418.592 	"/>
	<polygon style="fill:#956E41;" points="48.773,418.592 48.637,418.735 48.637,421.024 48.773,421.158 51.047,421.158 
		51.189,421.024 51.189,418.735 51.047,418.592 	"/>
	<polygon style="fill:#956E41;" points="220.733,418.592 220.587,418.735 220.587,421.024 220.733,421.158 223.009,421.158 
		223.146,421.024 223.146,418.735 223.009,418.592 	"/>
	<path style="fill:#956E41;" d="M267.931,394.142l-0.14-0.121l-1.82,0.484l-0.109,0.04l-0.134,0.121v17.652v0.317l0.239,0.829
		h-16.192c-0.385-0.255-0.717-0.68-0.717-1.096v-1.901v-3.82c0-2.127,1.186-3.258,2.891-3.258h2.494c1.702,0,2.81,0.562,3.143,0.755
		l0.152-0.078l0.078-0.357c0,0-0.603-2.292-3.671-2.292h-2.289c-2.838,0-4.994,1.674-4.994,4.755v4.888
		c0,0.866,0.239,1.894,1.028,2.404h-11.528v-11.559l-0.143-0.13l-1.804,0.497l-0.252,0.068v13.335c0,2.062-1.109,3.649-3.189,3.649
		c-0.792,0-2.329-0.115-3.028-1.233l-0.149-0.04l-0.416,0.208l-0.056,0.155c0.804,1.807,2.798,2.602,4.245,2.602
		c2.456,0,4.562-1.072,4.77-5.351h30.282l1.869-0.453l0.13-0.161l-0.683-2.416L267.931,394.142z"/>
	<path style="fill:#956E41;" d="M272.507,394.508l-0.109,0.04l-0.13,0.121v20.993c2.044-1.146,2.192-3.553,2.192-3.553v-17.965
		l-0.183-0.124L272.507,394.508z"/>
	<path style="fill:#956E41;" d="M226.068,412.652V401.9l-0.102-0.137l-1.842,0.478l-0.103,0.034l-0.137,0.137v10.239l0.205,0.82
		h-11.298c-1.64,0-3.003-0.649-3.003-3.003V401.9l-0.136-0.137l-1.808,0.478l-0.137,0.034l-0.106,0.137v8.056
		c0,2.354-1.329,3.003-2.969,3.003h-18.351c-1.602,0-2.969-0.649-2.969-3.003v-9.627l-0.137-0.134l-1.811,0.512
		c0,0-1.571-0.854-3.171-0.854c-2.835,0-5.428,1.671-5.463,4.745v4.674c0.034,3.208,2.251,4.814,4.677,4.814
		c2.795,0,3.683-1.64,3.891-2.152c0.509,2.152,2.081,3.208,4.025,3.208h20.229c1.261,0,2.354-0.444,3.14-1.363
		c0.752,0.919,1.876,1.363,3.174,1.363h12.903l1.839-0.444l0.136-0.171L226.068,412.652z M181.128,411.968
		c-0.41,0.242-0.957,0.649-2.764,0.649c-1.64,0-3.413-0.854-3.413-3.208v-3.823c0-2.115,1.602-3.242,3.31-3.242
		c1.845,0,2.867,0.991,2.867,2.901V411.968z"/>
	<polygon style="fill:#956E41;" points="182.092,397.844 182.232,397.707 182.232,395.418 182.092,395.278 179.816,395.278 
		179.676,395.418 179.676,397.707 179.816,397.844 	"/>
	<polygon style="fill:#956E41;" points="177.88,397.844 178.01,397.707 178.01,395.418 177.88,395.278 175.588,395.278 
		175.457,395.418 175.457,397.707 175.588,397.844 	"/>
	<polygon style="fill:#956E41;" points="36.133,397.844 36.26,397.698 36.26,395.418 36.133,395.282 33.829,395.282 33.701,395.418 
		33.701,397.698 33.829,397.844 	"/>
	<polygon style="fill:#956E41;" points="40.345,397.844 40.473,397.698 40.473,395.418 40.345,395.282 38.05,395.282 37.92,395.418 
		37.92,397.698 38.05,397.844 	"/>
	<path style="fill:#956E41;" d="M156.182,412.652v-18.496l-0.171-0.137l-1.811,0.475l-0.103,0.068l-0.137,0.103v17.987l0.239,0.82
		h-5.972c-1.5,0-3.006-0.307-3.655-0.546c0.208-0.581,0.311-1.264,0.311-2.012v-7.373h-0.071l-0.202-0.137l-1.742,0.478
		l-0.134,0.034l-0.071,0.068v6.484c0,2.354-1.332,3.208-2.9,3.208c-0.615,0-2.217-0.444-2.867-0.615
		c0.171-0.581,0.307-1.195,0.307-1.944v-7.612l-0.171-0.14l-1.776,0.481l-0.137,0.034l-0.099,0.137h-0.037v6.45
		c0,2.354-1.09,3.208-2.661,3.208c-0.581,0-2.252-0.481-2.795-0.615v-9.556l-0.174-0.14l-1.773,0.481l-0.106,0.034l-0.133,0.137
		v8.463l-0.273,0.991h-19.58c-0.376-0.276-0.717-0.683-0.717-1.093v-5.733c0-2.118,1.162-3.242,2.901-3.242h2.494
		c1.671,0,2.798,0.543,3.14,0.749l0.134-0.099l0.071-0.342c0,0-0.615-2.289-3.652-2.289h-2.286c-2.832,0-4.987,1.674-4.987,4.745
		v4.882c0,0.885,0.242,1.91,1.025,2.422H88.395c-0.988,0-1.363-0.137-1.602-0.41v-11.161l-0.137-0.136l-1.808,0.512
		c0,0-1.571-0.854-3.177-0.854c-2.832,0-5.459,1.674-5.459,4.745v4.677c0,3.205,2.252,4.81,4.711,4.81
		c2.73,0,3.584-1.637,3.789-2.149l-0.136,1.23v0.919c0,2.081-1.093,3.686-3.208,3.686c-0.752,0-2.32-0.137-3.003-1.23l-0.137-0.068
		l-0.447,0.208l-0.031,0.171c0.786,1.808,2.798,2.593,4.23,2.593c2.528,0,4.711-1.127,4.814-5.702
		c0.512,0.205,1.161,0.342,1.91,0.342h39.766l0.137-0.103l0.783-2.115c0.102,0.376,0.922,2.217,3.857,2.217
		c1.571,0,2.764-0.68,3.413-2.012c0.307,0.544,1.366,2.012,4.028,2.012c1.568,0,2.866-0.68,3.584-2.047
		c0.441,0.749,1.5,2.047,3.823,2.047h6.758l1.876-0.444l0.137-0.171L156.182,412.652z M84.575,413.062
		c-0.376,0.205-0.923,0.615-2.73,0.615c-1.64,0-3.416-0.854-3.416-3.208v-3.823c0-2.118,1.605-3.242,3.313-3.242
		c1.842,0,2.832,0.988,2.832,2.901V413.062z"/>
	<path style="fill:#956E41;" d="M54.334,412.651l0.034-10.748l-0.171-0.137l-1.773,0.475l-0.137,0.037l-0.14,0.137v10.236
		l0.239,0.82h-7.869c-1.602,0-2.972-0.649-2.972-3.003v-9.624l-0.136-0.136l-1.808,0.512c0,0-1.534-0.854-3.174-0.854
		c-2.832,0-5.425,1.674-5.425,4.745v4.674c0,3.208,2.251,4.814,4.674,4.814c2.764,0,3.652-1.64,3.891-2.149
		c0.512,2.115,2.05,3.205,4.028,3.205h9.441l1.879-0.441l0.102-0.171L54.334,412.651z M39.363,412.005
		c-0.376,0.205-0.957,0.612-2.764,0.612c-1.602,0-3.413-0.854-3.413-3.208v-3.82c0-2.118,1.637-3.242,3.345-3.242
		c1.845,0,2.832,0.988,2.832,2.901V412.005z"/>
	<path style="fill:#956E41;" d="M71.313,406.178c0-3.087-2.177-4.767-5.009-4.767h-2.283c-3.059,0-3.664,2.298-3.664,2.298
		l0.084,0.354l0.143,0.074c0.323-0.186,1.441-0.739,3.133-0.739h2.5c1.702,0,2.885,1.124,2.885,3.239v6l0.239,0.823h-7.217
		c-1.838,0-3.593-0.435-3.981-0.633l-0.189,0.425c0.22,0.494,1.227,2.36,3.925,2.41v0.006h8.105l1.876-0.453l0.14-0.158
		l-0.686-2.419V406.178z"/>
	<path style="fill:#956E41;" d="M160.742,394.508l-0.121,0.04l-0.134,0.121v20.993c2.044-1.146,2.214-3.553,2.214-3.553v-17.965
		l-0.199-0.112L160.742,394.508z"/>
	<polygon style="fill:#956E41;" points="289.661,397.844 289.791,397.707 289.791,395.424 289.661,395.282 287.384,395.282 
		287.238,395.424 287.238,397.707 287.384,397.844 	"/>
	<polygon style="fill:#956E41;" points="293.879,397.844 294.022,397.707 294.022,395.424 293.879,395.282 291.6,395.282 
		291.457,395.424 291.457,397.707 291.6,397.844 	"/>
	<path style="fill:#956E41;" d="M402.6,394.03l-1.758,0.475l-0.121,0.04l-0.13,0.121v21c2.05-1.14,2.208-3.556,2.208-3.556v-17.969
		L402.6,394.03z"/>
	<path style="fill:#956E41;" d="M396.25,412.653v-18.5l-0.14-0.137l-1.808,0.478l-0.102,0.034l-0.137,0.137v17.987l0.239,0.817
		h-8.466v-3.686c0-3.106-2.251-4.776-5.254-4.776c-3.04,0-5.289,1.671-5.289,4.776v3.686h-8.397v-3.686
		c0-3.106-2.254-4.776-5.292-4.776c-3.037,0-5.255,1.671-5.255,4.776v3.686h-10.509c-1.602,0-2.969-0.649-2.969-3.003v-16.313
		l-0.103-0.137l-1.845,0.478l-0.099,0.034l-0.137,0.137v15.801c0,2.354-1.366,3.003-2.969,3.003h-7.851
		c0.786-0.512,1.056-1.534,1.056-2.422v-3.037c0-3.071-2.183-4.745-5.016-4.745h-10.205c-1.773,0-2.559-0.817-2.559-2.73v-1.192
		c0.034-1.811,0.82-2.528,2.559-2.528l1.503-0.034c1.671,0,2.798,0.581,3.106,0.752l0.171-0.068l0.068-0.342
		c0,0-0.618-2.32-3.652-2.32h-1.195c-2.73,0-4.742,1.537-4.742,4.298v1.845c0,2.764,2.012,4.301,4.742,4.301h10.136
		c1.708,0,2.87,1.124,2.87,3.242v3.891c0,0.41-0.345,0.817-0.72,1.09h-29.909c-1.637,0-2.969-0.649-2.969-3.003v-3.823h-0.031
		v-5.801l-0.136-0.137l-1.811,0.513c0,0-1.537-0.854-3.174-0.854c-2.835,0-5.428,1.674-5.428,4.745v4.674
		c0,3.211,2.255,4.814,4.677,4.814c2.764,0,3.652-1.64,3.854-2.149l0.037,0.034c0.513,2.081,2.081,3.174,4.028,3.174h41.511
		c1.298,0,2.388-0.444,3.143-1.332c0.752,0.888,1.876,1.332,3.137,1.332h11.773c0.752,1.842,2.593,2.832,4.913,2.832
		s4.165-0.991,4.916-2.832h9.112c0.786,1.842,2.63,2.832,4.95,2.832c2.286,0,4.165-0.991,4.916-2.832h9.453l1.876-0.444l0.137-0.171
		L396.25,412.653z M292.892,412.004c-0.373,0.205-0.919,0.615-2.761,0.615c-1.605,0-3.382-0.854-3.382-3.211v-3.82
		c0-2.115,1.606-3.242,3.311-3.242c1.845,0,2.832,0.988,2.832,2.901V412.004z M364.679,413.268c0,2.115-1.161,3.239-3.074,3.239
		c-1.978,0-3.105-1.124-3.105-3.239v-3.04c0-2.149,1.127-3.242,3.105-3.242c1.913,0,3.074,1.093,3.074,3.242V413.268z
		 M383.654,413.268c0,2.115-1.162,3.239-3.071,3.239c-1.981,0-3.106-1.124-3.106-3.239v-3.04c0-2.149,1.124-3.242,3.106-3.242
		c1.91,0,3.071,1.093,3.071,3.242V413.268z"/>
	<polygon style="fill:#097A42;" points="372.964,268.117 372.731,268.344 372.731,272.26 372.964,272.496 376.88,272.496 
		377.116,272.26 377.116,268.344 376.88,268.117 	"/>
	<path style="fill:#097A42;" d="M373.461,277.273l-0.426,0.115v22.888c0,3.543-1.919,6.267-5.491,6.267
		c-1.339,0-3.991-0.174-5.214-2.099l-0.239-0.084l-0.696,0.345l-0.112,0.267c1.379,3.115,3.869,4.472,6.348,4.472
		c4.382,0,9.177-1.984,9.177-10.124v-22.655l-0.239-0.242L373.461,277.273z"/>
	<polygon style="fill:#097A42;" points="328.389,272.499 328.609,272.266 328.609,268.344 328.389,268.111 324.463,268.111 
		324.218,268.344 324.218,272.266 324.463,272.499 	"/>
	<polygon style="fill:#097A42;" points="321.132,272.499 321.38,272.266 321.38,268.344 321.132,268.111 317.215,268.111 
		316.989,268.344 316.989,272.266 317.215,272.499 	"/>
	<path style="fill:#097A42;" d="M322.799,300.261c5.189,0,9.046-2.863,9.046-8.155v-8.124c0-5.289-3.857-8.189-9.046-8.189
		c-5.186,0-9.077,2.901-9.077,8.189v8.124C313.721,297.397,317.612,300.261,322.799,300.261 M317.51,284.733
		c0-3.618,1.876-5.528,5.289-5.528c3.314,0,5.292,1.91,5.292,5.528v6.553c0,3.652-1.978,5.562-5.292,5.562
		c-3.413,0-5.289-1.91-5.289-5.562V284.733z"/>
	<path style="fill:#097A42;" d="M360.257,294.165v-30.828l-0.317-0.217l-3.037,0.835l-0.205,0.05l-0.223,0.23v36.036
		C359.977,298.292,360.257,294.165,360.257,294.165"/>
	<path style="fill:#097A42;" d="M331.646,304.963c1.376,3.112,3.876,4.478,6.344,4.478c4.385,0,9.168-1.997,9.168-10.13v-22.664
		l-0.227-0.239l-3.118,0.854l-0.41,0.115v22.882c0,3.553-1.935,6.279-5.497,6.279c-1.348,0-3.991-0.183-5.214-2.105l-0.236-0.087
		l-0.708,0.351L331.646,304.963z"/>
	<path style="fill:#097A42;" d="M225.158,263.336l-0.317-0.217l-3.037,0.835l-0.205,0.05l-0.223,0.233v36.033
		c3.503-1.978,3.783-6.105,3.783-6.105V263.336z"/>
	<path style="fill:#097A42;" d="M197.593,304.432l-0.236-0.087l-0.708,0.351l-0.103,0.267c1.376,3.112,3.876,4.478,6.345,4.478
		c4.385,0,9.167-1.997,9.167-10.13v-22.664l-0.23-0.239l-3.115,0.851l-0.41,0.118v22.881c0,3.553-1.935,6.279-5.5,6.279
		C201.459,306.538,198.819,306.355,197.593,304.432"/>
	<path style="fill:#097A42;" d="M402.598,276.44l-3.143,0.851c0,0-2.627-1.5-5.425-1.5c-4.848,0-9.317,2.904-9.351,8.192v8.018
		c0.034,5.497,3.888,8.261,8.053,8.261c4.745,0,6.177-2.832,6.553-3.686l-0.239,2.084v1.602c0,3.55-1.91,6.279-5.497,6.279
		c-1.326,0-3.956-0.171-5.183-2.081l-0.242-0.103l-0.714,0.342l-0.103,0.273c1.363,3.105,3.857,4.469,6.348,4.469
		c4.404,0,9.183-1.978,9.183-10.102v-22.661L402.598,276.44z M399.045,295.79c-0.646,0.342-1.603,1.059-4.711,1.059
		c-2.795,0-5.835-1.435-5.835-5.494v-6.59c0-3.615,2.767-5.562,5.668-5.562c3.208,0,4.879,1.705,4.879,5.018V295.79z"/>
	<path style="fill:#097A42;" d="M250.554,300.219h8.366c1.295,3.14,4.472,4.81,8.431,4.81c3.926,0,7.096-1.671,8.429-4.81
		l0.832,0.003v0.009l2.997,0.012l3.062,0.019l0.003-0.009l2.72,0.009l3.208-0.751l0.239-0.273l-1.162-4.161l-0.034-31.742
		l-0.239-0.205l-3.105,0.82l-0.202,0.068l-0.208,0.202v30.856l0.376,1.432l-7.838-0.043v-6.382c0-5.326-3.891-8.192-9.078-8.192
		c-5.189,0-9.08,2.866-9.08,8.192v6.382h-7.696v-19.785l-0.239-0.239l-3.143,0.851c0,0-2.627-1.5-5.425-1.5
		c-4.848,0-9.317,2.904-9.351,8.192v8.018c0.034,5.497,3.891,8.261,8.052,8.261c4.745,0,6.177-2.832,6.553-3.686l-0.236,2.084v1.602
		c0,3.55-1.913,6.279-5.497,6.279c-1.329,0-3.96-0.171-5.186-2.081l-0.242-0.103l-0.714,0.342l-0.102,0.273
		c1.363,3.105,3.857,4.469,6.348,4.469C245.632,309.443,250.215,307.607,250.554,300.219 M262.06,290.831
		c0-3.649,1.876-5.528,5.292-5.528c3.307,0,5.289,1.879,5.289,5.528v5.22c0,3.621-1.981,5.565-5.289,5.565
		c-3.416,0-5.292-1.944-5.292-5.565V290.831z M246.787,295.79c-0.649,0.342-1.606,1.059-4.714,1.059
		c-2.795,0-5.832-1.435-5.832-5.494v-6.59c0-3.615,2.764-5.562,5.665-5.562c3.208,0,4.882,1.705,4.882,5.018V295.79z"/>
	<path style="fill:#097A42;" d="M298.871,294.165v-30.828l-0.329-0.217l-3.028,0.835l-0.196,0.05l-0.23,0.23v36.036
		C298.582,298.292,298.871,294.165,298.871,294.165"/>
	<path style="fill:#097A42;" d="M399.455,343.47c0,0-2.627-1.466-5.425-1.466c-4.848,0-9.317,2.866-9.351,8.155v8.056
		c0.034,5.46,3.888,8.261,8.053,8.261c4.745,0,6.177-2.87,6.553-3.686l-0.239,2.081v1.606c0,3.546-1.91,6.279-5.497,6.279
		c-1.326,0-3.956-0.171-5.183-2.115l-0.242-0.106l-0.714,0.376l-0.103,0.273c1.363,3.105,3.857,4.472,6.348,4.472
		c4.404,0,9.183-2.015,9.183-10.137v-22.664l-0.239-0.236L399.455,343.47z M399.045,361.97c-0.646,0.376-1.603,1.093-4.711,1.093
		c-2.795,0-5.835-1.469-5.835-5.531v-6.553c0-3.652,2.767-5.562,5.668-5.562c3.208,0,4.879,1.705,4.879,4.981V361.97z"/>
	<polygon style="fill:#097A42;" points="40.809,332.103 40.809,335.991 41.042,336.224 44.933,336.224 45.166,335.991 
		45.166,332.103 44.933,331.87 41.042,331.87 	"/>
	<polygon style="fill:#097A42;" points="34.344,331.87 34.111,332.103 34.111,335.994 34.344,336.224 38.229,336.224 
		38.461,335.994 38.461,332.103 38.229,331.87 	"/>
	<polygon style="fill:#097A42;" points="55.718,304.085 55.718,307.973 55.951,308.206 59.842,308.206 60.075,307.973 
		60.075,304.085 59.842,303.852 55.951,303.852 	"/>
	<polygon style="fill:#097A42;" points="49.019,304.085 49.019,307.973 49.252,308.206 53.137,308.206 53.37,307.973 53.37,304.085 
		53.137,303.852 49.252,303.852 	"/>
	<path style="fill:#097A42;" d="M99.793,360.536c-0.512,0.171-1.059,0.307-1.571,0.444c-0.547,0.136-0.956,0.205-1.261,0.205h-5.36
		c-1.671,0-2.969-0.478-3.891-1.401c-0.888-0.922-1.332-2.32-1.332-4.13v-5.938c0-1.808,0.444-3.174,1.332-4.096
		c0.922-0.922,2.221-1.398,3.891-1.398c1.637,0,2.901,0.444,3.823,1.366c0.888,0.851,1.366,2.18,1.435,3.888l0.202,0.239h3.311
		l0.239-0.239v-0.512c0-1.295-0.239-2.491-0.68-3.481c-0.447-1.022-1.059-1.876-1.879-2.525c-0.786-0.683-1.739-1.192-2.867-1.568
		c-1.093-0.341-2.289-0.512-3.584-0.512c-1.264,0-2.456,0.171-3.584,0.512c-1.093,0.376-2.047,0.885-2.832,1.568
		c-0.82,0.649-1.432,1.503-1.879,2.525c-0.475,0.991-0.68,2.186-0.68,3.481v7.509c0,1.845,0.478,3.447,1.401,4.711H71.769v-19.795
		l-0.236-0.205l-3.276,0.475l-0.273,0.273v19.251H48.27v-19.487l-0.236-0.239l-3.106,0.851c-0.546-0.239-1.059-0.475-1.64-0.68
		c-0.512-0.208-1.059-0.376-1.742-0.55c-0.646-0.137-1.329-0.202-2.012-0.202c-1.192,0-2.323,0.171-3.376,0.512
		c-1.025,0.376-1.916,0.885-2.668,1.568c-0.783,0.649-1.363,1.503-1.808,2.525C31.242,346.475,31,347.67,31,348.965v7.953
		c0,2.73,0.717,4.779,2.084,6.146c1.366,1.363,3.074,2.043,5.155,2.043c1.162,0,2.183-0.137,2.969-0.441
		c0.786-0.273,1.435-0.615,1.91-1.059c0.513-0.376,0.851-0.786,1.127-1.195c0.236-0.41,0.407-0.714,0.475-0.953l-0.202,2.491v1.059
		h51.076c1.022,0,1.91-0.137,2.627-0.376c0.752-0.273,1.363-0.581,1.876-0.956c0.512-0.376,0.891-0.786,1.162-1.23
		c0.273-0.478,0.515-1.329,0.649-1.773l-0.171-0.786C101.054,360.126,100.405,360.365,99.793,360.536 M44.518,360.673
		c-0.239,0.068-0.55,0.171-0.957,0.273c-0.444,0.137-0.888,0.239-1.332,0.373c-0.478,0.103-0.953,0.208-1.366,0.311
		c-0.441,0.068-0.783,0.137-1.022,0.137c-0.717,0-1.363-0.103-1.981-0.307c-0.578-0.174-1.124-0.478-1.602-0.922
		c-0.444-0.444-0.82-0.991-1.093-1.708c-0.273-0.714-0.41-1.568-0.41-2.559v-6.518c0-1.808,0.444-3.174,1.366-4.093
		c0.922-0.96,2.118-1.435,3.584-1.435c3.208,0,4.814,1.671,4.814,4.981V360.673z"/>
	<polygon style="fill:#097A42;" points="151.144,331.824 150.914,332.054 150.914,335.939 151.144,336.178 155.035,336.178 
		155.265,335.939 155.265,332.054 155.035,331.824 	"/>
	<polygon style="fill:#097A42;" points="161.728,336.177 161.964,335.938 161.964,332.053 161.728,331.824 157.84,331.824 
		157.604,332.053 157.604,335.938 157.84,336.177 	"/>
	<polygon style="fill:#097A42;" points="107.73,274.508 107.96,274.269 107.96,270.384 107.73,270.155 103.839,270.155 
		103.612,270.384 103.612,274.269 103.839,274.508 	"/>
	<polygon style="fill:#097A42;" points="110.298,270.384 110.298,274.269 110.534,274.508 114.422,274.508 114.659,274.269 
		114.659,270.384 114.422,270.154 110.534,270.154 	"/>
	<polygon style="fill:#097A42;" points="111.078,267.475 111.317,267.236 111.317,263.351 111.078,263.121 107.193,263.121 
		106.954,263.351 106.954,267.236 107.193,267.475 	"/>
	<polygon style="fill:#097A42;" points="175.705,370.983 175.469,371.219 175.469,375.101 175.705,375.337 179.6,375.337 
		179.829,375.101 179.829,371.219 179.6,370.983 	"/>
	<path style="fill:#097A42;" d="M187.745,349.002c0-1.298-0.202-2.46-0.649-3.481c-0.475-0.991-1.09-1.845-1.876-2.528
		c-0.82-0.68-1.776-1.192-2.867-1.534c-1.124-0.376-2.32-0.547-3.581-0.547h-3.45c-1.059,0-1.981,0.137-2.73,0.376
		c-0.752,0.236-1.366,0.581-1.879,0.922c-0.509,0.376-0.956,0.783-1.261,1.261c-0.307,0.444-0.512,0.888-0.649,1.332l0.205,0.786
		c0.683-0.242,1.298-0.444,1.91-0.652c0.513-0.134,1.059-0.304,1.572-0.441c0.512-0.137,0.956-0.205,1.295-0.205h4.987
		c1.671,0,2.966,0.444,3.885,1.366c0.891,0.922,1.369,2.286,1.369,4.127v11.264l0.034,0.205h-25.77v-19.829l-0.205-0.171
		l-3.277,0.444l-0.239,0.307v19.248h-16.624v-6.382c0-5.326-3.854-8.192-9.043-8.192c-5.224,0-9.077,2.867-9.077,8.192v6.382h-5.938
		c-1.572-0.034-2.323-0.512-3.245-1.435c-0.919-0.919-1.363-2.286-1.363-4.093V328.08l-0.239-0.208l-3.276,0.481l-0.239,0.27v28.294
		c0,1.298,0.205,2.46,0.683,3.481c0.444,1.025,1.056,1.876,1.876,2.528c0.786,0.68,1.739,1.193,2.835,1.568
		c1.124,0.342,1.773,0.512,3.068,0.512h6.487c1.295,3.14,4.469,4.81,8.428,4.81c3.925,0,7.099-1.671,8.397-4.81h48.567l2.832-0.41
		l0.239-0.273l-1.196-4.127V349.002z M134.196,360.843c0,3.618-2.012,5.565-5.292,5.565c-3.413,0-5.289-1.947-5.289-5.565v-5.22
		c0-3.652,1.876-5.531,5.289-5.531c3.28,0,5.292,1.879,5.292,5.531V360.843z"/>
	<path style="fill:#097A42;" d="M212.317,328.341l-0.23,0.28v27.043c0,1.814-0.46,3.189-1.385,4.124
		c-0.919,0.938-2.211,1.401-3.863,1.401h-1.581l-0.432-1.45v-31.676l-0.239-0.186l-3.273,0.466l-0.233,0.28v32.381l0.087,0.186
		h-3.581c-0.345,0-0.767-0.065-1.289-0.208c-0.516-0.14-1.037-0.289-1.565-0.444c-0.596-0.192-1.236-0.404-1.925-0.655l-0.183,0.789
		c0.118,0.444,0.335,1.311,0.633,1.742c0.298,0.441,0.696,0.842,1.196,1.22c0.497,0.373,1.105,0.686,1.845,0.938
		c0.733,0.245,1.596,0.391,2.602,0.422h7.938c1.283,0,2.478-0.18,3.587-0.54c1.105-0.36,2.065-0.873,2.854-1.55
		c0.798-0.668,1.419-1.512,1.879-2.528c0.447-1.012,0.677-2.183,0.677-3.49v-28.822l-0.236-0.186L212.317,328.341z"/>
	<polygon style="fill:#097A42;" points="223.498,328.341 223.269,328.62 223.269,364.331 223.455,364.56 226.784,364.56 
		227.017,364.331 227.017,328.061 226.784,327.875 	"/>
	<polygon style="fill:#097A42;" points="244.967,332.103 244.967,335.991 245.203,336.224 249.091,336.224 249.318,335.991 
		249.318,332.103 249.091,331.87 245.203,331.87 	"/>
	<polygon style="fill:#097A42;" points="251.663,332.103 251.663,335.991 251.899,336.224 255.781,336.224 256.02,335.991 
		256.02,332.103 255.781,331.87 251.899,331.87 	"/>
	<polygon style="fill:#097A42;" points="276.796,370.983 276.566,371.219 276.566,375.101 276.796,375.337 280.684,375.337 
		280.923,375.101 280.923,371.219 280.684,370.983 	"/>
	<polygon style="fill:#097A42;" points="283.495,370.983 283.259,371.219 283.259,375.101 283.495,375.337 287.392,375.337 
		287.616,375.101 287.616,371.219 287.392,370.983 	"/>
	<polygon style="fill:#097A42;" points="64.589,370.983 64.356,371.219 64.356,375.101 64.589,375.337 68.474,375.337 
		68.71,375.101 68.71,371.219 68.474,370.983 	"/>
	<polygon style="fill:#097A42;" points="71.282,370.983 71.052,371.219 71.052,375.101 71.282,375.337 75.167,375.337 75.4,375.101 
		75.4,371.219 75.167,370.983 	"/>
	<polygon style="fill:#097A42;" points="331.955,332.103 331.955,335.991 332.194,336.224 336.092,336.224 336.312,335.991 
		336.312,332.103 336.092,331.87 332.194,331.87 	"/>
	<polygon style="fill:#097A42;" points="343.407,332.054 343.407,335.939 343.63,336.178 347.515,336.178 347.754,335.939 
		347.754,332.054 347.515,331.824 343.63,331.824 	"/>
	<polygon style="fill:#097A42;" points="354.219,336.177 354.455,335.938 354.455,332.053 354.219,331.824 350.331,331.824 
		350.098,332.053 350.098,335.938 350.331,336.177 	"/>
	<path style="fill:#097A42;" d="M373.434,328.705l-0.196,0.05l-0.23,0.23v36.036c3.503-1.981,3.783-6.102,3.783-6.102v-30.832
		l-0.332-0.214L373.434,328.705z"/>
	<path style="fill:#097A42;" d="M365.563,328.08l-0.236-0.208l-3.105,0.82l-0.205,0.068l-0.205,0.239v30.819l0.41,1.435h-11.434
		v-19.829l-0.205-0.205l-3.31,0.478l-0.205,0.273v19.282h-11.056v-19.829l-0.242-0.205l-3.277,0.478l-0.236,0.273v19.282h-19.161
		v-6.382c0-5.326-3.891-8.192-9.077-8.192c-5.189,0-9.081,2.867-9.081,8.192v6.382h-10.953v-19.829l-0.239-0.171l-3.28,0.444
		l-0.236,0.307v19.248h-21.118v-19.487l-0.239-0.242l-3.071,0.82c-0.547-0.236-1.093-0.475-1.64-0.683
		c-0.513-0.202-1.09-0.373-1.739-0.509c-0.649-0.171-1.332-0.239-2.015-0.239c-1.227,0-2.354,0.171-3.379,0.547
		c-1.025,0.342-1.91,0.854-2.696,1.534c-0.786,0.683-1.363,1.503-1.807,2.528c-0.444,1.022-0.649,2.183-0.649,3.481v7.984
		c0,2.696,0.683,4.745,2.047,6.112c1.398,1.398,3.106,2.081,5.186,2.081c1.162,0,2.155-0.137,2.972-0.444
		c0.786-0.307,1.432-0.649,1.91-1.059c0.478-0.41,0.854-0.82,1.093-1.227c0.239-0.376,0.41-0.683,0.512-0.888l-0.239,2.012v1.435
		h40.229c1.298,3.14,4.469,4.81,8.432,4.81c3.925,0,7.099-1.671,8.428-4.81h50.868l3.208-0.751l0.236-0.273l-1.159-4.165
		L365.563,328.08z M255.391,360.672c-0.239,0.068-0.547,0.171-0.991,0.273c-0.41,0.137-0.851,0.239-1.329,0.376
		c-0.481,0.102-0.922,0.205-1.366,0.307c-0.441,0.068-0.786,0.137-1.025,0.137c-0.683,0-1.332-0.103-1.944-0.307
		c-0.615-0.171-1.162-0.478-1.606-0.923c-0.478-0.444-0.854-0.988-1.127-1.705c-0.236-0.717-0.373-1.572-0.373-2.562v-6.518
		c0-1.808,0.444-3.171,1.366-4.093c0.885-0.957,2.078-1.435,3.546-1.435c3.208,0,4.848,1.674,4.848,4.981V360.672z M309.307,360.843
		c0,3.618-1.981,5.565-5.289,5.565c-3.416,0-5.292-1.947-5.292-5.565v-5.22c0-3.652,1.876-5.531,5.292-5.531
		c3.307,0,5.289,1.879,5.289,5.531V360.843z"/>
	<path style="fill:#097A42;" d="M183.481,300.206v0.006h13.528l3.13-0.752l0.23-0.264l-1.143-4.037v-10.782
		c0-5.152-3.633-7.953-8.36-7.953h-3.807c-5.102,0-6.115,3.835-6.115,3.835l0.14,0.593l0.239,0.124
		c0.54-0.314,2.404-1.233,5.227-1.233h4.177c2.838,0,4.814,1.873,4.814,5.401v10.015l0.397,1.373h-12.043
		c-3.068,0-5.997-0.727-6.646-1.059l-0.314,0.711C177.298,297.008,178.978,300.123,183.481,300.206"/>
	<polygon style="fill:#097A42;" points="134.909,305.259 134.909,309.144 135.142,309.383 139.027,309.383 139.266,309.144 
		139.266,305.259 139.027,305.029 135.142,305.029 	"/>
	<path style="fill:#097A42;" d="M165.516,294.166v-30.832l-0.332-0.214l-3.025,0.832l-0.199,0.05l-0.227,0.23v36.036
		C165.236,298.287,165.516,294.166,165.516,294.166"/>
	<path style="fill:#097A42;" d="M110.216,296.896c0.506,0.898,2.251,3.317,6.639,3.317c2.587,0,4.724-1.121,5.907-3.376
		c0.73,1.239,2.475,3.376,6.298,3.376h0.003l-0.003,0.043h22.978l3.205-0.752l0.239-0.273l-1.159-4.165l-0.037-31.738l-0.239-0.208
		l-3.106,0.82l-0.202,0.068l-0.205,0.239v30.819l0.407,1.435h-11.428V276.67l-0.208-0.205l-3.31,0.481l-0.205,0.273v19.282
		l-6.503,0.112c-2.475,0-4.95-0.506-6.022-0.897c0.342-0.96,0.506-2.084,0.506-3.323v-12.149h-0.112l-0.335-0.227l-2.869,0.789
		l-0.224,0.056l-0.115,0.115v10.686c0,3.882-2.196,5.289-4.783,5.289c-1.012,0-3.655-0.733-4.723-1.012
		c0.283-0.959,0.506-1.969,0.506-3.208v-12.543l-0.283-0.227l-2.925,0.789l-0.223,0.056l-0.168,0.227h-0.059v10.63
		c0,3.882-1.798,5.289-4.388,5.289c-0.953,0-3.711-0.789-4.612-1.012v-15.751l-0.283-0.227l-2.922,0.789l-0.171,0.056l-0.223,0.227
		v13.947l-0.45,1.634H78.736v-19.969l-0.23-0.236l-3.118,0.851l-0.41,0.118v22.881c0,3.553-1.935,6.279-5.497,6.279
		c-1.345,0-3.984-0.183-5.211-2.106l-0.236-0.087l-0.708,0.351l-0.106,0.267c1.382,3.112,3.879,4.478,6.348,4.478
		c4.217,0,8.801-1.851,9.143-9.23h18.003l0.227-0.168l1.295-3.487c0.168,0.618,1.519,3.655,6.354,3.655
		C107.179,300.213,109.145,299.091,110.216,296.896"/>
	<polygon style="fill:#097A42;" points="44.124,271.383 44.357,271.153 44.357,267.262 44.124,267.029 40.233,267.029 40,267.262 
		40,271.153 40.233,271.383 	"/>
	<polygon style="fill:#097A42;" points="37.419,271.383 37.651,271.153 37.651,267.262 37.419,267.029 33.533,267.029 
		33.297,267.262 33.297,271.153 33.533,271.383 	"/>
	<path style="fill:#097A42;" d="M38.237,300.271c1.162,0,2.183-0.137,2.969-0.444c0.786-0.273,1.435-0.615,1.91-1.059
		c0.513-0.376,0.854-0.786,1.13-1.193c0.236-0.413,0.407-0.717,0.475-0.956l-0.202,2.491v1.059h18.298l0.013,0.047l3.211-0.758
		l0.177-0.295l-1.168-4.084l0.056-18.385l-0.289-0.233l-3.037,0.817l-0.233,0.059l-0.233,0.233v17.509l0.37,1.267H48.271v-19.487
		l-0.239-0.239l-3.106,0.851c-0.543-0.239-1.056-0.475-1.64-0.68c-0.509-0.205-1.059-0.376-1.739-0.55
		c-0.646-0.133-1.329-0.202-2.015-0.202c-1.192,0-2.32,0.171-3.376,0.513c-1.025,0.376-1.913,0.885-2.665,1.568
		c-0.783,0.649-1.366,1.503-1.807,2.525c-0.444,0.991-0.683,2.186-0.683,3.484v7.95c0,2.733,0.714,4.779,2.084,6.146
		C34.448,299.587,36.157,300.271,38.237,300.271 M34.756,284.911c0-1.807,0.444-3.171,1.363-4.093
		c0.922-0.956,2.118-1.435,3.587-1.435c3.208,0,4.814,1.671,4.814,4.981v11.469c-0.242,0.068-0.55,0.171-0.956,0.273
		c-0.447,0.137-0.888,0.239-1.336,0.376c-0.475,0.103-0.95,0.205-1.363,0.307c-0.444,0.068-0.783,0.137-1.022,0.137
		c-0.72,0-1.366-0.102-1.981-0.307c-0.581-0.171-1.124-0.478-1.606-0.922c-0.441-0.441-0.817-0.991-1.09-1.705
		c-0.273-0.717-0.41-1.571-0.41-2.559V284.911z"/>
</g>
</svg>
