<?xml version="1.0" encoding="iso-8859-1"?>
<!-- Generator: Adobe Illustrator 23.0.1, SVG Export Plug-In . SVG Version: 6.00 Build 0)  -->
<svg version="1.1" id="Layer_1" xmlns="http://www.w3.org/2000/svg" xmlns:xlink="http://www.w3.org/1999/xlink" x="0px" y="0px"
	 viewBox="0 0 512 512" style="enable-background:new 0 0 512 512;" xml:space="preserve">
<g>
	<path style="fill:#04AC63;" d="M387.607,85.517C352.459,50.358,305.706,31,256,31c-49.706,0-96.448,19.358-131.607,54.517
		c-35.159,35.148-54.517,81.901-54.517,131.607c0,49.706,19.358,96.448,54.517,131.607c35.148,35.159,81.89,54.517,131.607,54.517
		s96.459-19.358,131.607-54.517c35.159-35.148,54.517-81.89,54.517-131.607S422.766,120.676,387.607,85.517z M382.294,343.43
		c-33.734,33.734-78.584,52.317-126.294,52.317c-47.711,0-92.561-18.583-126.295-52.317
		c-33.734-33.734-52.317-78.583-52.317-126.294c0-47.711,18.583-92.561,52.317-126.295C163.439,57.107,208.289,38.524,256,38.524
		c47.7,0,92.561,18.571,126.294,52.317c33.734,33.734,52.317,78.583,52.317,126.295C434.611,264.847,416.029,309.696,382.294,343.43
		z"/>
	<path style="fill:#04AC63;" d="M256.046,163.759l-0.051,0.042l-0.051-0.042c0,0-36.573-34.053-66.134-23.325
		c0,0,23.394-3.283,60.172,28.239l0.005,0.004l-11.109,9.014l-0.08-0.103c-1.379-1.744-1.619-2.577-1.528-2.93
		c0.969-0.091,2.018-0.342,2.577-0.775c1.163-0.923,1.265-2.759,0.217-4.093c-1.049-1.334-2.85-1.676-4.013-0.752
		c-0.502,0.399-0.889,1.186-1.026,1.539c-1.721,3.933-1.334,6.886,0.695,9.451c0.023,0.023,0.057,0.068,0.114,0.137l-3.112,2.531
		c-4.344,3.477-5.848-1.961-5.848-1.961c-1.87-4.606-7.023-1.721-7.023-1.721c-5.575,2.896-2.862,6.715-2.862,6.715
		c6.703,13.019,19.392,3.169,19.392,3.169l3.91-3.078c0.125,0.16,0.205,0.262,0.239,0.308c2.029,2.565,4.811,3.625,9.041,2.862
		c0.388-0.057,1.243-0.251,1.744-0.65c1.163-0.923,1.254-2.747,0.205-4.081c-1.049-1.334-2.862-1.664-4.024-0.741
		c-0.559,0.433-1.06,1.414-1.368,2.326c-0.376,0.011-1.129-0.41-2.497-2.155l-0.239-0.308L256,173.425l12.609,9.954l-0.239,0.308
		c-1.379,1.744-2.132,2.166-2.508,2.155c-0.308-0.912-0.809-1.893-1.368-2.326c-1.163-0.923-2.976-0.593-4.024,0.741
		c-1.049,1.334-0.958,3.158,0.205,4.081c0.502,0.399,1.357,0.593,1.744,0.65c4.23,0.764,7.011-0.296,9.041-2.862
		c0.034-0.046,0.114-0.148,0.239-0.308l3.91,3.078c0,0,12.689,9.85,19.392-3.169c0,0,2.713-3.819-2.862-6.715
		c0,0-5.153-2.884-7.023,1.721c0,0-1.505,5.438-5.848,1.961l-3.112-2.531c0.057-0.068,0.091-0.114,0.114-0.137
		c2.029-2.565,2.417-5.518,0.695-9.451c-0.137-0.353-0.524-1.14-1.026-1.539c-1.163-0.923-2.964-0.581-4.013,0.752
		c-1.049,1.334-0.946,3.169,0.217,4.093c0.559,0.433,1.608,0.684,2.577,0.775c0.091,0.353-0.148,1.186-1.528,2.93l-0.08,0.103
		l-11.103-9.009l0.01-0.008c36.778-31.522,60.172-28.239,60.172-28.239C292.63,129.706,256.046,163.759,256.046,163.759z"/>
	<path style="fill:#04AC63;" d="M240.222,76.693c0,0-19.05,5.358-9.941,22.197c0,0-0.49-13.954,10.477-17.112
		c0,0-14.433,11.435-1.425,21.091c0,0-2.679-10.842,4.857-15.79c0,0-5.335,12.164,5.062,22.413c0,0-2.417-10.409,4.572-16.132
		v52.761l-3.99,5.107h12.381l-3.739-5.107V93.361c6.59,5.723,4.549,16.132,4.549,16.132c10.397-10.249,5.05-22.413,5.05-22.413
		c7.547,4.948,4.845,15.79,4.845,15.79c12.997-9.656-1.425-21.091-1.425-21.091c10.967,3.158,10.477,17.112,10.477,17.112
		c9.109-16.839-9.941-22.197-9.941-22.197c8.904-1.311,14.9,9.611,14.9,9.611c-1.163-17.488-19.871-14.9-19.871-14.9
		c4.743-3.705,14.353,0.992,14.353,0.992c-6.988-9.736-16.998-6.954-16.998-6.954c1.197-2.246,8.379-1.756,8.379-1.756
		c-6.521-6.361-14.137,0.023-14.137,0.023c0.365-3.511-2.656-9.006-2.656-9.006s-2.896,5.495-2.531,9.006
		c0,0-7.559-6.396-14.08-0.023c0,0,7.205-0.49,8.414,1.756c0,0-9.998-2.782-16.987,6.954c0,0,9.622-4.697,14.365-0.992
		c0,0-18.708-2.588-19.871,14.9C225.31,86.304,231.307,75.382,240.222,76.693z"/>
	<path style="fill:#04AC63;" d="M301.089,284.467c0.764,0.091,1.619-0.16,2.565-0.752c0.376-0.239,0.855-0.581,1.414-1.049
		c-0.205-0.274-0.809-1.083-1.813-2.428c-0.445,0.638-0.889,1.368-1.323,2.2C301.499,283.258,301.226,283.942,301.089,284.467z"/>
	<path style="fill:#04AC63;" d="M328.051,262.783c0.707-0.308,1.813-1.493,3.34-3.546l-1.015-0.217
		c-1.265-0.262-2.086-0.365-2.451-0.296c-0.331,0.034-0.581,0.171-0.752,0.399c-0.262,0.353-0.308,0.889-0.148,1.619
		c0.16,0.73,0.467,1.425,0.923,2.075L328.051,262.783z"/>
	<path style="fill:#04AC63;" d="M335.165,252.375c0.65-0.399,1.585-1.721,2.804-3.956l-1.037-0.08
		c-1.288-0.091-2.109-0.08-2.463,0.034c-0.319,0.08-0.547,0.251-0.684,0.502c-0.205,0.376-0.182,0.923,0.08,1.619
		c0.262,0.695,0.661,1.345,1.197,1.927L335.165,252.375z"/>
	<path style="fill:#04AC63;" d="M173.29,236.152c-0.524-0.581-1.14-1.163-1.858-1.767c-0.718-0.604-1.311-1.026-1.801-1.266
		c-0.251,0.73-0.194,1.619,0.182,2.668c0.148,0.433,0.388,0.969,0.707,1.607C170.838,237.257,171.762,236.836,173.29,236.152z"/>
	<path style="fill:#04AC63;" d="M150.557,219.382c6.521,52.431,51.245,93.005,105.443,93.005c54.198,0,98.922-40.586,105.443-93.005
		h-33.084c-6.236,34.304-36.265,60.297-72.359,60.297c-36.094,0-66.123-26.004-72.359-60.297H150.557z M177.975,231.204
		c0.171-0.353,0.308-0.604,0.422-0.775l0.194-0.262c0.787,0.296,1.493,0.616,2.098,0.98c-0.331,0.935-0.616,1.539-0.832,1.824
		c0.673,0.274,1.266,0.559,1.79,0.855c-0.342,0.935-0.673,1.642-1.003,2.109c-0.331-0.068-0.661-0.194-1.015-0.365
		s-0.627-0.319-0.809-0.445l-0.285-0.182c0.205-0.638,0.467-1.231,0.809-1.767c-0.285-0.091-0.57-0.217-0.866-0.365
		c-0.296-0.148-0.513-0.285-0.673-0.399l-0.228-0.16C177.679,231.899,177.815,231.546,177.975,231.204z M173.837,259.386
		c-0.319-0.023-0.65-0.068-0.992-0.16c-0.342-0.091-0.604-0.171-0.798-0.251l-0.308-0.103c0.046-0.616,0.171-1.208,0.388-1.778
		c-0.285-0.046-0.57-0.091-0.866-0.171c-0.296-0.08-0.513-0.148-0.661-0.217l-0.239-0.091c0.023-0.331,0.08-0.673,0.16-1.015
		c0.08-0.342,0.16-0.604,0.239-0.798l0.114-0.251c0.775,0.103,1.482,0.251,2.109,0.445c-0.137,0.912-0.262,1.516-0.41,1.858
		c0.65,0.103,1.243,0.239,1.79,0.41C174.236,258.189,174.065,258.896,173.837,259.386z M256.103,304.714
		c-0.251,0.239-0.467,0.422-0.638,0.536l-0.251,0.194c-0.49-0.365-0.923-0.798-1.288-1.288c-0.194,0.217-0.388,0.433-0.616,0.638
		c-0.217,0.205-0.399,0.353-0.536,0.445l-0.205,0.148c-0.262-0.205-0.524-0.433-0.764-0.684c-0.239-0.251-0.41-0.456-0.513-0.627
		l-0.171-0.228c0.502-0.593,1.015-1.106,1.516-1.528c0.718,0.604,1.163,1.049,1.334,1.334c0.433-0.49,0.866-0.923,1.311-1.288
		c0.718,0.593,1.22,1.129,1.493,1.607C256.581,304.224,256.365,304.475,256.103,304.714z M262.145,304.429
		c-0.262,0.296-0.479,0.513-0.65,0.661l-0.262,0.217c-0.319-0.194-0.616-0.422-0.901-0.684c-0.285-0.262-0.502-0.467-0.627-0.627
		l-0.194-0.239c0.502-0.684,1.015-1.277,1.528-1.756c0.798,0.593,1.379,1.117,1.744,1.562
		C262.624,303.848,262.407,304.133,262.145,304.429z M331.198,229.71l11.674,3.876c0.034,0.011,0.296,0.182,0.798,0.536
		c0.502,0.342,1.026,0.718,1.573,1.117c0.559,0.399,0.855,0.616,0.912,0.65l-0.296,0.901c-8.596-2.599-13.225-3.99-13.886-4.184
		l-0.969-2.314L331.198,229.71z M302.389,275.575l0.513-0.319l3.5,5.609c0.49,0.775,0.832,1.197,1.037,1.277
		c0.205,0.068,0.627-0.091,1.265-0.49l0.456-0.285l3.876-2.896l1.06-0.935c0.935-0.821,1.493-1.402,1.687-1.733
		c-0.559-0.547-1.402-0.992-2.508-1.334c-0.319-0.103-0.752-0.217-1.277-0.365c-0.536-0.148-0.958-0.262-1.277-0.353
		c-0.319-0.091-0.513-0.148-0.57-0.171c-0.137-0.046-0.365-0.524-0.707-1.436c-0.342-0.912-0.479-1.471-0.399-1.653l2.178-7.559
		l0.433,0.011l1.357,2.349l-1.893,5.894l3.956,0.992c1.55,0.376,2.702,0.536,3.454,0.502c0.752-0.046,1.448-0.342,2.086-0.912
		c0,0,1.938-2.2,2.257-2.702l-8.642-7.502l0.091-2.531l0.41-0.445l7.923,7.331c0.775,0.707,1.345,1.083,1.733,1.094
		c0.182,0,1.049-0.502,1.71-1.231c0.707-0.775,1.197-1.767,1.243-2.052c-0.935-0.889-1.642-2.041-2.098-3.466
		c-0.456-1.425-0.376-2.554,0.239-3.386c0.171-0.228,0.388-0.41,0.638-0.536c0.251-0.137,0.502-0.217,0.752-0.262
		c0.239-0.034,0.57-0.034,0.958,0c0.399,0.034,0.73,0.091,1.003,0.148c0.274,0.068,0.65,0.148,1.129,0.262
		c1.3,0.308,2.075,0.456,2.326,0.456c0.388-0.011,0.752-0.262,1.106-0.73l0.148-0.194l0.467-0.73c0.376-0.684,0.57-1.311,0.581-1.87
		c-1.049-0.752-1.904-1.79-2.554-3.146c-0.65-1.357-0.73-2.485-0.228-3.397c0.137-0.251,0.319-0.456,0.559-0.616
		c0.228-0.16,0.467-0.274,0.707-0.353c0.239-0.08,0.547-0.125,0.946-0.137c0.399-0.011,0.741-0.011,1.015,0.011
		c0.274,0.023,0.661,0.057,1.151,0.103c1.334,0.125,2.132,0.171,2.371,0.137c0.376-0.057,0.707-0.353,0.992-0.866l0.114-0.217
		c0,0,1.208-3.318,1.3-3.762l-8.379-3.124l-1.961-0.091l-1.231-3.158l0.547-0.433l1.106,0.445l2.531-0.239l0.718,1.528l6.019,2.44
		c0.433,0.171,0.992,0.866,1.721,2.12c0.695,1.209,1.094,2.029,1.186,2.474c0.046,0.296-0.103,0.866-0.445,1.699l-0.889,2.109
		c-0.319,0.57-0.684,0.958-1.129,1.186c-0.433,0.217-0.992,0.331-1.664,0.342l1.072,2.029c-0.353,0.604-0.798,1.266-1.322,1.961
		c-0.536,0.707-0.923,1.094-1.186,1.197c-0.103,0.057-0.593,0.068-1.459,0.023c0.433,0.467,0.673,0.935,0.741,1.402
		c0.068,0.467-0.068,1.003-0.399,1.608l-0.684,1.072l-0.399,0.547c-0.388,0.513-0.809,0.855-1.277,1.015
		c-0.467,0.16-1.026,0.194-1.699,0.114l0.787,2.155c-0.433,0.559-0.958,1.151-1.573,1.767c-0.616,0.627-1.06,0.969-1.334,1.026
		c-0.114,0.046-0.593-0.011-1.448-0.171c0.353,0.524,0.536,1.026,0.536,1.493c0,0.467-0.205,0.98-0.616,1.539l-0.627,0.741
		c-1.197,1.288-2.759,1.505-4.435,0.752c0.502,1.551,0.718,2.485,0.65,2.782c-0.057,0.296-1.881,2.406-1.881,2.406
		c-0.866,0.752-1.676,1.163-2.44,1.231c-0.764,0.068-1.915-0.068-3.466-0.41c0.502,2.052,0.684,3.192,0.536,3.443
		c-0.194,0.502-0.718,1.117-1.55,1.858l-0.673,0.593c-0.787,0.616-1.585,1.231-2.371,1.847c-0.627,0.445-1.254,0.889-1.881,1.334
		l-0.673,0.422c-1.402,0.878-2.839,0.524-4.309-1.06l0.034,2.394c-0.274,0.331-0.65,0.65-1.151,0.958
		c-0.673,0.422-1.311,0.638-1.915,0.65c-0.604,0.011-1.094-0.103-1.493-0.331c-0.217-0.137-0.467-0.547-0.775-1.231
		c-0.308-0.695-0.456-1.151-0.445-1.391c0.046-0.502,0.251-1.277,0.616-2.337c0.376-1.06,0.878-2.132,1.528-3.226l-0.638-0.855
		L302.389,275.575z M296.779,274.092c0.992,0.125,1.642,0.274,1.972,0.422c0.125-0.718,0.274-1.357,0.445-1.927
		c0.98,0.125,1.744,0.308,2.269,0.524c0,0.342-0.046,0.695-0.137,1.072c-0.091,0.376-0.182,0.673-0.262,0.878l-0.137,0.331
		c-0.673-0.057-1.311-0.194-1.904-0.41c-0.023,0.296-0.08,0.604-0.16,0.923c-0.091,0.319-0.171,0.559-0.239,0.73l-0.103,0.251
		c-0.365-0.023-0.73-0.068-1.106-0.16c-0.376-0.08-0.65-0.16-0.844-0.239l-0.296-0.137
		C296.392,275.517,296.563,274.765,296.779,274.092z M290.714,276.76l0.547-0.262l5.347,11.081c0.011,0.023,0.068,0.342,0.171,0.946
		c0.103,0.604,0.194,1.243,0.285,1.904c0.103,0.673,0.16,1.037,0.171,1.094l-0.855,0.41c-4.116-7.969-6.327-12.256-6.658-12.871
		L290.714,276.76z M264.299,302.263c0.707,0.08,1.288,0.091,1.756,0.023c1.915-0.262,3.215-1.733,3.888-4.378
		c-0.365-0.536-1.049-1.653-2.064-3.329l1.334-2.155l0.467-0.068l0.684,1.756c0.467,1.151,0.866,1.87,1.197,2.155
		c0.331,0.285,0.866,0.376,1.608,0.274l4.925-1.129c0.296-0.08,0.513-0.148,0.65-0.205l-0.034-0.034l-3.295-2.041l-0.513,1.265
		l-0.65-0.217c0.137-2.246,0.445-3.58,0.946-3.979c0.331-0.251,0.923-0.57,1.813-0.958c0.889-0.388,1.756-0.695,2.611-0.935
		c0.958-0.262,1.881-0.41,2.759-0.433c0.878-0.034,1.471,0.057,1.756,0.262c0.16,0.194,0.296,0.581,0.41,1.174
		c0.114,0.593,0.16,0.992,0.137,1.197c-0.296,1.208-0.844,2.394-1.653,3.546l0.046-0.011l3.169-0.958l1.163-0.479
		c1.231-0.49,2.041-0.866,2.44-1.129l-3.58-8.186l-1.3-1.471l1.402-3.078l0.695,0.08l0.445,1.106l1.938,1.653l-0.604,1.585
		l2.428,6.008c0.182,0.433,0.08,1.311-0.308,2.656c-0.388,1.334-0.707,2.2-0.958,2.577c-0.182,0.239-0.695,0.524-1.528,0.866
		l-2.337,0.912c-1.95,0.547-3.66,0.57-5.096,0.091c-1.425,1.265-3.112,2.166-5.062,2.702l-2.405,0.422l-0.274,0.034
		c-0.684,0.103-1.402-0.148-2.155-0.741c0.034,0.433,0.011,0.958-0.08,1.573c-0.091,0.616-0.239,1.254-0.456,1.927
		c-0.217,0.661-0.547,1.254-0.992,1.744c-0.445,0.49-0.969,0.787-1.562,0.866c-0.285,0.046-0.946-0.182-1.995-0.661
		c-1.049-0.479-1.71-0.821-1.984-1.026L264.299,302.263z M241.088,283.965c0.65,0.752,1.037,1.288,1.186,1.619
		c0.57-0.445,1.106-0.832,1.619-1.14c0.65,0.752,1.094,1.391,1.345,1.904c-0.228,0.251-0.502,0.49-0.821,0.707
		c-0.331,0.217-0.581,0.376-0.787,0.479l-0.296,0.16c-0.467-0.49-0.855-1.015-1.151-1.573c-0.217,0.205-0.467,0.399-0.741,0.581
		c-0.274,0.182-0.49,0.308-0.661,0.388l-0.251,0.114c-0.251-0.262-0.502-0.547-0.718-0.855c-0.228-0.319-0.376-0.559-0.467-0.741
		l-0.137-0.296C239.857,284.775,240.484,284.319,241.088,283.965z M236.14,294.933c0.228-0.718,0.422-1.163,0.593-1.334
		c0.365-0.342,1.037-0.787,2.018-1.334c0.98-0.547,2.075-1.015,3.283-1.402l0.091-1.06l2.178-1.072l0.604,0.103l-1.117,6.521
		c-0.16,0.901-0.182,1.448-0.08,1.642c0.103,0.194,0.524,0.353,1.265,0.479l0.536,0.091l5.415,0.365
		c0.787,0.011,1.448-0.023,1.938-0.114l0.946-3.477l1.71-1.049l0.467,0.148c-0.194,2.075-0.399,3.477-0.604,4.23
		c0.456,0.251,1.22,0.388,2.269,0.41l0.502-0.023c1.562-0.08,2.599-0.194,3.101-0.308c-0.137-0.616-0.331-1.334-0.581-2.132
		c-0.251-0.798-0.456-1.448-0.638-1.949l-0.251-0.73l1.721-1.927l0.581-0.034l1.174,2.827l0.034,0.399l-0.57,0.661
		c0.194,0.912,0.285,1.573,0.274,1.995c0,0.331-0.274,0.98-0.809,1.927c-0.547,0.946-0.958,1.516-1.254,1.699
		c-0.49,0.239-1.357,0.399-2.599,0.467l-0.718,0.023h-0.205c-1.516-0.034-2.725-0.638-3.603-1.813
		c-0.798,0.935-1.277,1.425-1.448,1.482c-0.308,0.148-0.855,0.205-1.653,0.194l-5.689-0.41l-0.775-0.137
		c-1.63-0.285-2.463-1.505-2.508-3.66l-1.573,1.813c-0.422,0.068-0.923,0.057-1.505-0.046c-0.787-0.137-1.414-0.399-1.87-0.787
		c-0.456-0.399-0.764-0.809-0.901-1.243C235.833,296.13,235.912,295.651,236.14,294.933z M234.795,281.925l0.581,0.171
		l-3.386,11.822c-0.011,0.034-0.171,0.308-0.502,0.821c-0.319,0.513-0.673,1.049-1.049,1.619c-0.376,0.57-0.57,0.878-0.604,0.935
		l-0.912-0.262c2.234-8.687,3.443-13.373,3.603-14.045L234.795,281.925z M193.856,265.61c0.638,0.661,0.741,1.665,0.319,2.998
		c-0.422,1.334-1.14,2.565-2.155,3.705l0.844,0.878l1.436,1.448l3.352,2.611c0.239,0.182,0.422,0.319,0.547,0.399l0.011-0.046
		l-0.342-3.865l-1.322,0.342l-0.205-0.65c1.881-1.243,3.135-1.79,3.751-1.63c0.388,0.114,1.003,0.399,1.847,0.878
		c0.844,0.479,1.619,0.98,2.314,1.528c0.787,0.604,1.448,1.254,1.995,1.949c0.547,0.695,0.832,1.22,0.844,1.573
		c-0.057,0.239-0.285,0.593-0.695,1.037s-0.695,0.73-0.878,0.832c-1.14,0.479-2.405,0.752-3.819,0.798l0.034,0.023l3.01,2.337
		l0.878,0.775c0.593,0.308,1.163,0.57,1.699,0.787l1.79-1.608l1.653-0.182l0.319,0.422c-0.467,0.684-1.026,1.471-1.664,2.337
		c0.353,0.331,0.866,0.684,1.562,1.049c0.399,0.205,0.764,0.376,1.106,0.502l2.52-2.497l1.721-0.171l0.296,0.41
		c-0.49,0.809-1.243,1.893-2.246,3.249c0.365,0.388,0.889,0.752,1.585,1.117c0.388,0.205,0.878,0.422,1.471,0.65l1.311-3.318
		l2.394-0.422l0.536,0.285l-1.881,3.58c-0.217,0.41-0.296,0.707-0.251,0.889l2.827,1.151c0.239,0.103,0.49,0.182,0.741,0.239
		l1.22,0.296l2.782-8.493l0.011-1.961l3.101-1.357l0.456,0.524l-0.399,1.129l0.342,2.52l-1.539,0.787l-2.189,6.122
		c-0.16,0.445-0.832,1.037-2.007,1.778c-1.174,0.741-1.984,1.174-2.428,1.288c0,0-1.151,0.091-3.42-0.764
		c-0.604-0.319-1.026-0.695-1.265-1.14c-0.239-0.445-0.353-1.026-0.331-1.744c-0.593,0.467-1.129,0.718-1.596,0.764
		c-0.467,0.046-1.037-0.103-1.699-0.456c-0.593-0.308-1.037-0.673-1.334-1.083c-0.296-0.41-0.445-0.969-0.456-1.664
		c-0.559,0.376-1.072,0.581-1.528,0.604c-0.467,0.011-1.015-0.137-1.653-0.479c-0.581-0.308-1.015-0.661-1.311-1.06
		c-0.296-0.399-0.445-0.969-0.445-1.699c-0.616,0.331-1.151,0.524-1.596,0.57c-0.445,0.046-0.969-0.091-1.55-0.399l-1.311-1.049
		l-1.117-0.878c-1.596-1.254-2.645-2.599-3.124-4.036c-1.881-0.388-3.603-1.197-5.199-2.44l-1.003-0.775l-1.756-1.733l-0.98-1.026
		c-1.037,0.661-2.155,1.026-3.352,1.117s-2.155-0.251-2.896-1.026c-0.194-0.205-0.422-0.923-0.684-2.143
		c-0.262-1.22-0.388-1.984-0.376-2.303l0.832-0.296c0.616,0.98,1.094,1.653,1.448,2.018c0.616,0.65,1.322,1.14,2.109,1.505
		c0.798,0.353,1.539,0.502,2.246,0.433l-1.664-1.744c-0.456-0.479-0.809-0.946-1.06-1.402c-0.251-0.467-0.399-0.787-0.433-0.98
		c-0.034-0.194-0.046-0.342-0.034-0.433c0.034-0.194,0.251-0.65,0.65-1.368c0.399-0.707,0.684-1.129,0.832-1.254
		c0.524-0.433,1.174-0.798,1.938-1.094c0.764-0.296,1.585-0.433,2.451-0.41C192.659,264.801,193.343,265.075,193.856,265.61z
		 M186.833,257.14l2.713-0.274l0.353,0.467c-0.41,1.197-1.015,2.554-1.813,4.059c-0.798,1.516-1.55,2.531-2.257,3.067
		c-0.217,0.171-0.832,0.331-1.858,0.479c-1.026,0.148-1.687,0.171-2.007,0.034c-0.137-0.068-0.467-0.376-0.992-0.946
		c-0.513-0.559-1.072-1.243-1.664-2.018c-1.186-1.573-1.129-2.85,0.182-3.842c0.433-0.331,0.958-0.604,1.585-0.832
		c0.627-0.228,1.083-0.353,1.379-0.388l0.319,0.798c-0.49,0.228-0.844,0.422-1.06,0.581c-0.205,0.148-0.342,0.308-0.422,0.456
		c-0.08,0.16-0.057,0.41,0.046,0.775c0.103,0.365,0.353,0.809,0.752,1.334c0.741,0.98,1.516,1.915,2.314,2.804
		C185.203,262.282,186.012,260.093,186.833,257.14z M184.029,251.634l-1.927,2.383l-0.353,0.194l-0.855-0.182
		c-0.707,0.604-1.254,1.003-1.619,1.151c-0.285,0.16-0.98,0.228-2.075,0.205c-1.094-0.023-1.79-0.114-2.086-0.285
		c-0.433-0.308-0.992-1.003-1.642-2.063l-5.256-10.443l-0.262-0.741c-0.559-1.562,0.103-2.884,1.961-3.979l-2.348-0.479
		c-0.274-0.331-0.502-0.775-0.695-1.334c-0.274-0.752-0.342-1.425-0.228-2.018c0.125-0.593,0.342-1.06,0.65-1.391
		c0.171-0.182,0.627-0.342,1.368-0.49c0.73-0.148,1.22-0.182,1.448-0.125c0.49,0.148,1.208,0.513,2.155,1.106
		c0.958,0.593,1.892,1.322,2.827,2.189l0.969-0.445l1.995,1.379l0.205,0.57l-6.236,2.212c-0.866,0.308-1.357,0.559-1.471,0.741
		c-0.114,0.194-0.046,0.638,0.205,1.345l5.244,10.534c0.775,1.254,1.334,2.075,1.664,2.451c0.479-0.422,1.015-0.923,1.596-1.528
		c0.581-0.604,1.06-1.094,1.414-1.493l0.524-0.559l2.519,0.593L184.029,251.634z"/>
	<path style="fill:#04AC63;" d="M280.933,293.906l0.296-0.217c1.129-1.015,1.915-2.132,2.348-3.363
		c-0.969,0-2.178,0.194-3.625,0.593c-0.946,0.262-1.904,0.593-2.884,1.003l1.835,1.06
		C279.793,293.45,280.465,293.747,280.933,293.906z"/>
	<path style="fill:#04AC63;" d="M200.571,278.63l0.353,0.091c1.482,0.296,2.85,0.251,4.104-0.125
		c-0.581-0.764-1.471-1.619-2.656-2.542c-0.775-0.604-1.619-1.174-2.531-1.71l0.251,2.109
		C200.252,277.444,200.411,278.162,200.571,278.63z"/>
	<path style="fill:#04AC63;" d="M189.478,269.623l1.539,1.619l0.023-0.046c0.376-0.627,0.638-1.379,0.798-2.235
		c0.16-0.855,0.046-1.482-0.319-1.87c-0.353-0.376-0.878-0.536-1.585-0.49c-0.707,0.046-1.391,0.251-2.063,0.593
		C188.019,267.845,188.555,268.654,189.478,269.623z"/>
	<path style="fill:#04AC63;" d="M241.567,295.879c0.034-0.353,0.114-1.357,0.262-3.021c-0.764,0.182-1.573,0.433-2.451,0.764
		c-0.878,0.331-1.539,0.65-1.984,0.958c0.513,0.57,1.322,0.958,2.417,1.14C240.256,295.788,240.837,295.845,241.567,295.879z"/>
	<path style="fill:#04AC63;" d="M217.33,239.127c0.205-0.182,0.821-0.718,1.824-1.596c-0.536-0.319-1.151-0.616-1.835-0.912
		c-0.695-0.296-1.243-0.479-1.676-0.547c-0.023,0.616,0.228,1.277,0.764,1.995C216.623,238.363,216.931,238.717,217.33,239.127z"/>
	<path style="fill:#04AC63;" d="M277.148,254.301c0.673-0.319,1.231-0.684,1.71-1.106c-0.627-0.752-1.699-1.322-3.215-1.721
		c-0.513,1.14-0.718,2.189-0.638,3.181C275.632,254.803,276.338,254.677,277.148,254.301z"/>
	<path style="fill:#04AC63;" d="M294.078,240.598c0.49-0.171,1.015-0.627,1.551-1.345c0.41-0.547,0.73-1.072,0.969-1.596
		c-1.596-0.547-2.622-0.524-3.078,0.08c-0.262,0.342-0.319,0.775-0.182,1.322C293.473,239.606,293.713,240.119,294.078,240.598z"/>
	<path style="fill:#04AC63;" d="M256,272.69c32.229,0,59.1-22.892,65.245-53.309h-32.879c-5.221,12.746-17.751,21.718-32.366,21.718
		s-27.145-8.972-32.366-21.718h-32.879C196.888,249.798,223.771,272.69,256,272.69z M223.577,253.743
		c-0.285,0.023-0.513,0.034-0.673,0.034l-0.251,0.011c-0.137-0.467-0.205-0.946-0.205-1.436c-0.217,0.046-0.456,0.091-0.695,0.114
		c-0.239,0.023-0.433,0.034-0.559,0.023h-0.205c-0.068-0.251-0.125-0.524-0.16-0.798c-0.034-0.274-0.046-0.49-0.034-0.65v-0.228
		c0.616-0.137,1.186-0.217,1.71-0.251c0.16,0.73,0.228,1.22,0.205,1.493c0.513-0.103,0.992-0.171,1.448-0.205
		c0.171,0.718,0.239,1.3,0.205,1.733C224.124,253.663,223.862,253.708,223.577,253.743z M285.242,256.684
		c-0.194,0.125-0.787,0.217-1.79,0.262c-1.003,0.046-1.63,0.046-1.858,0l-0.137-0.707c0.638-0.217,1.14-0.456,1.528-0.707
		c0.695-0.445,1.14-1.094,1.345-1.95c0.205-0.855,0.239-1.71,0.114-2.577l-3.739-2.075l0.228-2.234l0.399-0.251
		c0.046,0.034,0.091,0.08,0.171,0.137c0.08,0.057,0.217,0.171,0.422,0.342c0.205,0.171,0.41,0.331,0.604,0.49
		c0.194,0.16,0.41,0.342,0.65,0.547c0.228,0.205,0.445,0.388,0.616,0.536c0.182,0.148,0.331,0.296,0.467,0.433
		c0.137,0.137,0.217,0.217,0.239,0.262c0.262,0.296,0.707,1.015,1.322,2.189c0.342,0.661,0.502,1.608,0.467,2.827
		C286.257,255.43,285.915,256.251,285.242,256.684z M292.048,236.06c0.502-0.673,1.368-0.901,2.611-0.684
		c1.243,0.217,2.451,0.764,3.637,1.653c0.41,0.308,0.832,0.707,1.254,1.208c0.627,0.718,1.015,1.55,1.163,2.474
		c0.148,0.923-0.011,1.71-0.524,2.36c-0.137,0.182-0.673,0.456-1.596,0.821c-0.923,0.365-1.516,0.57-1.767,0.604l-0.342-0.627
		c0.695-0.616,1.151-1.083,1.402-1.414c0.456-0.616,0.741-1.277,0.844-1.995c0.103-0.73,0.034-1.379-0.217-1.972
		c-0.182-0.091-0.536-0.251-1.049-0.49l0.581,1.357c-0.068,0.422-0.319,0.912-0.741,1.471c-0.103,0.137-0.205,0.262-0.319,0.365
		c-0.114,0.114-0.217,0.194-0.319,0.274s-0.194,0.137-0.285,0.194c-0.091,0.057-0.182,0.091-0.285,0.125l-0.217,0.068
		c-0.046,0.011-0.103,0.023-0.171,0.034l-0.103,0.011c-0.16,0.023-0.536-0.091-1.117-0.319c-0.581-0.228-0.946-0.399-1.072-0.513
		c-0.41-0.353-0.787-0.809-1.117-1.379c-0.331-0.57-0.547-1.197-0.638-1.881C291.57,237.109,291.695,236.528,292.048,236.06z
		 M288.241,240.621c0.046,0.023,0.114,0.057,0.194,0.103c0.091,0.046,0.251,0.125,0.479,0.251c0.228,0.125,0.456,0.251,0.684,0.365
		c0.228,0.114,0.467,0.251,0.741,0.41c0.262,0.148,0.502,0.285,0.707,0.399c0.205,0.114,0.376,0.228,0.536,0.331
		c0.16,0.114,0.251,0.182,0.285,0.217c0.308,0.228,0.901,0.855,1.756,1.87c0.467,0.581,0.809,1.471,1.026,2.679
		c0.205,1.197,0.034,2.075-0.536,2.634c-0.16,0.16-0.73,0.353-1.699,0.604c-0.969,0.251-1.573,0.365-1.813,0.365l-0.274-0.661
		c0.57-0.342,1.015-0.673,1.345-0.992c0.581-0.581,0.889-1.3,0.923-2.178c0.034-0.878-0.103-1.721-0.399-2.542l-4.07-1.288
		l-0.217-2.235L288.241,240.621z M284.467,238.101c0.798-0.068,1.425-0.057,1.881,0.034c0.046,0.251,0.068,0.536,0.068,0.855
		c0,0.319-0.023,0.559-0.046,0.741l-0.046,0.262c-0.285,0.046-0.593,0.068-0.901,0.057c-0.308-0.011-0.547-0.034-0.707-0.057
		l-0.239-0.034C284.41,239.287,284.41,238.66,284.467,238.101z M280.887,239.446l0.376-0.308l6.202,7.638
		c0.023,0.023,0.125,0.251,0.308,0.707c0.194,0.445,0.388,0.923,0.593,1.436c0.194,0.502,0.308,0.775,0.331,0.821l-0.593,0.479
		c-4.674-5.449-7.194-8.379-7.559-8.79L280.887,239.446z M279.645,252.454c0.091,0.182,0.148,0.616,0.148,1.288
		c0.023,0.684,0,1.072-0.046,1.163c-0.342,0.627-0.98,1.163-1.915,1.607c-0.365,0.171-0.718,0.285-1.06,0.342
		c-0.342,0.057-0.627,0.057-0.832,0.023c-0.205-0.034-0.41-0.103-0.593-0.194c-0.182-0.091-0.308-0.171-0.376-0.228
		c-0.068-0.057-0.125-0.114-0.16-0.16c-0.068-0.091-0.217-0.388-0.422-0.901c-0.205-0.513-0.319-0.809-0.342-0.912
		c-0.125-0.855-0.034-1.961,0.251-3.318c-0.319-0.057-0.513-0.091-0.593-0.114l0.125-2.394l0.422-0.205
		c1.254,0.422,2.371,0.992,3.34,1.699C278.573,250.858,279.257,251.622,279.645,252.454z M271.653,245.591
		c0.775,0.194,1.288,0.365,1.528,0.513c0.171-0.559,0.342-1.06,0.536-1.493c0.775,0.194,1.357,0.399,1.756,0.627
		c-0.034,0.274-0.103,0.547-0.217,0.844c-0.103,0.285-0.205,0.513-0.285,0.673l-0.137,0.239c-0.524-0.114-1.015-0.274-1.471-0.502
		c-0.046,0.228-0.114,0.467-0.217,0.718c-0.091,0.239-0.182,0.433-0.251,0.559l-0.114,0.194c-0.285-0.046-0.581-0.125-0.866-0.228
		c-0.296-0.103-0.513-0.194-0.661-0.285l-0.217-0.114C271.208,246.686,271.413,246.104,271.653,245.591z M252.272,257.87
		c0.16-0.502,0.308-0.855,0.433-1.06l0.661,0.194c-0.103,0.422-0.16,0.741-0.16,0.958c0,0.205,0.023,0.365,0.08,0.49
		s0.228,0.239,0.513,0.353c0.285,0.114,0.695,0.171,1.22,0.182c0.741,0.011,1.539,0,2.383-0.034l-1.915-5.085l1.379-1.55
		l0.467,0.011l1.471,5.096c0.239,0.764,0.433,1.231,0.604,1.391c0.171,0.171,0.502,0.251,0.992,0.262l2.075-0.41h0.011
		c1.049-0.194,1.744-0.365,2.098-0.502l-1.505-6.989l-0.787-1.357l1.596-2.189l0.524,0.182l0.171,0.935l1.254,1.607l-0.718,1.117
		l0.958,5.107c0.068,0.365-0.16,1.037-0.673,2.029c-0.513,0.992-0.901,1.619-1.163,1.87c-0.182,0.16-0.627,0.296-1.334,0.433
		l-2.782,0.456c-0.593-0.011-1.083-0.137-1.459-0.399c-0.376-0.262-0.707-0.707-0.969-1.334l-1.003,1.425
		c-0.08,0.046-0.388,0.091-0.912,0.148c-0.524,0.057-1.003,0.08-1.436,0.068c-1.585-0.023-2.36-0.695-2.337-2.007
		C252.021,258.839,252.112,258.371,252.272,257.87z M249.194,249.182l1.687-1.083l0.479,0.068l-1.391,9.736
		c0,0.023-0.103,0.262-0.308,0.707c-0.205,0.445-0.433,0.923-0.661,1.402s-0.353,0.752-0.376,0.798l-0.752-0.103
		C248.704,253.572,249.137,249.73,249.194,249.182z M244.029,248.59c0.433,0.673,0.718,1.231,0.855,1.676
		c-0.194,0.171-0.445,0.319-0.718,0.467c-0.274,0.148-0.502,0.251-0.673,0.308l-0.251,0.091c-0.182-0.228-0.342-0.49-0.479-0.764
		c-0.137-0.274-0.239-0.49-0.296-0.673l-0.08-0.228C242.958,249.103,243.505,248.806,244.029,248.59z M221.582,232.64
		c0.046-0.296,0.091-0.524,0.137-0.684l0.091-0.251c0.673,0.046,1.288,0.125,1.835,0.262c-0.034,0.798-0.103,1.322-0.205,1.596
		c0.57,0.046,1.094,0.125,1.562,0.228c-0.046,0.798-0.137,1.414-0.274,1.847c-0.274,0.023-0.559,0-0.866-0.046
		c-0.308-0.046-0.547-0.091-0.718-0.148l-0.262-0.08c0-0.536,0.068-1.049,0.205-1.539c-0.239,0-0.49-0.023-0.752-0.068
		c-0.262-0.046-0.456-0.091-0.604-0.148l-0.205-0.068C221.514,233.245,221.536,232.948,221.582,232.64z M213.727,236.288
		c0.091-0.182,0.41-0.41,0.935-0.695c0.536-0.296,0.889-0.433,1.083-0.445c0.399,0,1.037,0.114,1.904,0.342
		c0.866,0.217,1.756,0.559,2.668,1.003l0.638-0.559l1.847,0.581l0.296,0.388l-4.252,3.147c-0.593,0.445-0.912,0.741-0.958,0.912
		c-0.046,0.171,0.114,0.502,0.467,0.98l0.262,0.353l4.72,4.56c0,0,1.026,0.741,1.414,0.935l2.28-1.778l1.596,0.148l0.228,0.319
		c-1.117,1.231-1.927,2.041-2.417,2.417c0.182,0.376,0.604,0.832,1.265,1.345l2.132,1.402c0.775,0.422,1.391,0.718,1.847,0.866
		l4.127-8.174l1.984-0.422l0.433,0.228l-4.127,7.581c-0.399,0.741-0.57,1.266-0.513,1.562c0.068,0.296,0.445,0.638,1.129,1.015
		l0.73,0.422l2.383,0.98c1.072,0.342,2.223,0.49,3.432,0.456c0.559-0.046,0.958-0.046,1.197-0.023
		c-0.684-0.467-1.277-0.992-1.79-1.585c-0.148-0.16-0.433-0.467-0.844-0.935c-0.41-0.456-0.695-0.764-0.855-0.901l-1.824,0.547
		l-0.251-0.57c0.171-0.148,0.399-0.331,0.673-0.536c0.274-0.217,0.707-0.479,1.3-0.787c0.593-0.319,1.026-0.433,1.3-0.342
		c0.091,0.034,0.182,0.08,0.274,0.148c0.091,0.068,0.205,0.171,0.342,0.308c0.137,0.137,0.251,0.274,0.365,0.399
		c0.103,0.125,0.274,0.308,0.49,0.559c0.217,0.251,0.41,0.467,0.57,0.638c0.513,0.559,1.072,1.037,1.676,1.425
		c0.604,0.388,1.083,0.638,1.414,0.741l1.471,0.467v0.422l-1.174,1.334l-1.368-0.456c-0.296-0.046-0.627-0.034-1.015,0.046
		c-0.376,0.08-0.844,0.194-1.402,0.353c-0.559,0.16-0.958,0.274-1.197,0.319c-0.901,0.194-1.63,0.296-2.2,0.308
		c-0.57,0.011-1.311-0.068-2.645-0.661l-2.166-1.026c-1.243-0.684-1.721-1.744-1.471-3.192c-1.106,0.695-1.778,1.049-2.029,1.049
		c-0.251,0.023-0.707-0.148-1.368-0.513l-2.451-1.607l-0.125-0.103c-0.958-0.752-1.436-1.71-1.436-2.884
		c-0.958,0.205-1.505,0.296-1.642,0.251c-0.262-0.057-0.65-0.285-1.151-0.673l-5.541-5.518c-0.787-1.06-0.604-2.223,0.57-3.5
		l-1.915,0.182c-0.285-0.194-0.559-0.479-0.844-0.855c-0.376-0.513-0.593-1.015-0.638-1.493
		C213.51,237.018,213.567,236.619,213.727,236.288z"/>
	<path style="fill:#04AC63;" d="M138.518,443.789l0.467-0.365c0.274-0.239,0.661-0.593,1.163-1.06
		c0.502-0.467,0.935-0.935,1.311-1.414c0.958,1.129,1.927,2.075,2.884,2.839l0.513-0.41c0.376-0.274,0.844-0.684,1.391-1.243
		c0.547-0.547,1.015-1.094,1.391-1.653c-0.65-0.923-1.756-2.029-3.295-3.295c-1.243,1.06-2.178,2.029-2.839,2.884
		c-0.445-0.65-1.448-1.619-2.987-2.884c-1.06,0.923-2.132,2.029-3.192,3.295l0.365,0.513c0.274,0.353,0.673,0.798,1.208,1.345
		C137.435,442.888,137.971,443.367,138.518,443.789z"/>
	<path style="fill:#04AC63;" d="M182.877,474.661c-0.958,0.889-1.858,1.824-2.679,2.782c-0.41-0.616-1.357-1.55-2.839-2.782
		c-1.026,0.889-2.041,1.938-3.044,3.147l0.365,0.467c0.239,0.342,0.616,0.775,1.106,1.288c0.502,0.502,1.026,0.969,1.585,1.38
		l0.41-0.308c0.308-0.239,0.695-0.581,1.163-1.026c0.467-0.445,0.889-0.889,1.266-1.345c0.958,1.163,1.858,2.063,2.679,2.679
		l0.513-0.41c0.342-0.239,0.787-0.616,1.311-1.129c0.536-0.513,0.969-1.049,1.311-1.596
		C185.442,476.953,184.394,475.904,182.877,474.661z"/>
	<path style="fill:#04AC63;" d="M229.939,458.313c-0.958,0-2.394-0.296-4.309-0.901c-1.904-0.604-3.705-1.379-5.381-2.349
		c-0.752-0.41-1.619-0.912-2.599-1.494c-0.98-0.581-1.71-1.015-2.189-1.288c-0.479-0.274-0.98-0.524-1.493-0.752
		c-0.513-0.228-0.946-0.331-1.288-0.331c-0.718,0-1.721,0.604-2.987,1.801c-1.277,1.197-2.178,2.166-2.736,2.884
		s-0.992,1.322-1.345,1.801l1.083,1.186l4.686-3.192c0.445,0.171,0.992,0.445,1.653,0.821c0.65,0.376,1.448,0.855,2.394,1.414
		c0.946,0.57,1.687,1.003,2.246,1.311c2.269,1.243,4.332,2.166,6.19,2.782c-0.479,0.137-1.687,0.65-3.603,1.55
		c-3.431,1.516-7.023,2.269-10.773,2.269h-5.974c-2.303-0.034-3.762-0.467-4.378-1.288c-0.616-0.821-0.923-2.337-0.923-4.537
		v-25.514h-0.923l-3.603,3.397l0.718,27.578c-1.231,0.239-3.329,0.365-6.282,0.365c-2.679,0-4.572-0.376-5.666-1.129
		c0.445-1.311,0.844-4.503,1.186-9.588l-0.718-0.205l-3.192,2.109l-1.858,8.345c-1.163,0.308-2.873,0.467-5.107,0.467H150.99
		c-1.482,0-2.371-0.171-2.679-0.513c-0.308-0.342-0.467-1.322-0.467-2.941V446.57h-0.923l-3.762,2.736l0.16,2.166
		c-2.474,1.345-4.8,2.884-6.989,4.64c-2.177,1.756-3.568,3.055-4.15,3.922c-0.274,0.41-0.502,1.277-0.695,2.577
		c-0.194,1.311-0.182,2.177,0.023,2.634c0.445,0.889,1.288,1.676,2.531,2.348c1.243,0.673,2.85,1.003,4.845,1.003
		c1.197,0,2.383-0.16,3.557-0.467l2.166-3.397c0.616,4.23,2.668,6.339,6.133,6.339h22.892v-0.011
		c1.63-0.046,2.782-0.228,3.454-0.559c0.41-0.205,1.288-1.151,2.633-2.839c1.687,2.269,4.366,3.397,8.037,3.397h0.365
		c2.474,0,4.047-0.194,4.743-0.57c0.547-0.342,1.619-1.801,3.192-4.378c1.277,3.295,3.762,4.948,7.467,4.948h4.024
		c2.713,0,4.868-0.228,6.464-0.695c1.596-0.467,3.34-1.265,5.233-2.394c0.616-0.342,1.63-0.98,3.044-1.904s2.611-1.653,3.603-2.166
		c0.992-0.513,1.893-0.855,2.759-0.992h4.07l1.653-3.922l-0.205-0.673H229.939z M140.479,463.523c-2.884,0-5.016-0.65-6.396-1.961
		c0.821-0.923,2.177-1.972,4.047-3.147c1.87-1.174,3.705-2.166,5.495-2.987c0.103,1.06,0.228,2.508,0.365,4.332
		c0.137,1.824,0.228,2.953,0.262,3.397C142.862,463.409,141.608,463.523,140.479,463.523z"/>
	<path style="fill:#04AC63;" d="M219.211,447.448l0.513-0.41c0.342-0.274,0.787-0.684,1.345-1.208
		c0.547-0.536,1.015-1.072,1.391-1.619c-0.65-0.923-1.733-2.029-3.249-3.295c-1.06,0.923-2.132,2.029-3.192,3.295l0.365,0.467
		c0.274,0.331,0.673,0.775,1.208,1.322C218.128,446.548,218.663,447.027,219.211,447.448z"/>
	<path style="fill:#04AC63;" d="M237.873,437.895l0.821,33.141h1.493v0.011c1.448-4.503,2.166-7.023,2.166-7.581v-28.969h-0.878
		L237.873,437.895z"/>
	<path style="fill:#04AC63;" d="M281.423,435.125l-1.026-0.616l-4.686,4.583l1.345,3.454l0.57,22.938
		c-1.026,0.239-3.112,0.365-6.236,0.365h-1.231c-1.79,0-2.907-0.274-3.352-0.821c-0.445-0.547-1.243-2.462-2.371-5.723
		l-3.922-12.575h-0.923l-3.044,3.865c1.197,2.919,2.303,5.62,3.295,8.094c0.992,2.474,1.664,4.161,2.006,5.05
		c0.342,0.889,0.604,1.516,0.775,1.858c-2.747,0.171-5.347,0.262-7.786,0.262c-1.516,0-2.668-0.148-3.454-0.433
		c-0.787-0.296-1.265-0.604-1.414-0.958c-0.148-0.342-0.228-0.821-0.228-1.448c0-0.787,0.171-1.767,0.513-2.941l-1.55-0.467
		c-0.342,0.616-0.718,1.562-1.129,2.839c-0.41,1.277-0.616,2.462-0.616,3.557c-0.023,3.363,2.177,5.039,6.578,5.039
		c1.482,0,2.976-0.091,4.515-0.285c1.528-0.194,2.485-0.353,2.862-0.49l2.417-3.192c1.379,2.588,3.375,3.91,5.974,3.956v0.011h0.16
		h0.673h2.109v-0.011c1.984-0.034,3.204-0.205,3.66-0.513c0.752-0.445,1.87-1.653,3.329-3.603c1.459-1.961,2.189-3.363,2.189-4.23
		v-18.286l2.371-2.531l-2.371-4.332V435.125z"/>
	<path style="fill:#04AC63;" d="M288.583,437.895l0.821,33.141h1.493v0.011c1.448-4.503,2.166-7.023,2.166-7.581v-28.969h-0.878
		L288.583,437.895z"/>
	<path style="fill:#04AC63;" d="M318.281,467.091c0.718-1.414,1.083-2.406,1.083-2.987c0-2.611-0.787-5.381-2.371-8.322
		c-1.585-2.941-3.751-5.78-6.498-8.528h-0.923l-2.531,4.788c0.274,0.205,0.718,0.581,1.345,1.129
		c-2.508,3.295-4.207,6.305-5.107,9.018c-0.068,0.239-0.148,0.98-0.228,2.212c-0.091,1.243-0.091,2.029-0.023,2.371
		c0.023,0.171,0.091,0.376,0.194,0.616c0.103,0.239,0.331,0.593,0.673,1.06c0.342,0.467,0.752,0.878,1.243,1.243
		c0.479,0.365,1.174,0.684,2.086,0.958s1.938,0.41,3.067,0.41c2.816,0,5.005-0.547,6.544-1.653
		C317.072,469.269,317.551,468.493,318.281,467.091z M305.125,463.831c0.923-2.816,2.839-5.632,5.723-8.448
		c3.534,3.397,5.552,6.578,6.031,9.531c-1.55,0.616-3.42,0.923-5.62,0.923C308.579,465.837,306.538,465.165,305.125,463.831z"/>
	<path style="fill:#04AC63;" d="M307.701,443.686l0.467-0.365c0.274-0.239,0.661-0.593,1.163-1.06
		c0.502-0.467,0.935-0.935,1.311-1.414c0.958,1.129,1.927,2.075,2.884,2.839l0.513-0.41c0.376-0.274,0.844-0.684,1.391-1.243
		c0.547-0.547,1.015-1.094,1.391-1.653c-0.65-0.923-1.756-2.029-3.295-3.295c-1.243,1.06-2.178,2.029-2.839,2.884
		c-0.445-0.65-1.448-1.619-2.987-2.884c-1.06,0.923-2.132,2.029-3.192,3.295l0.365,0.513c0.262,0.353,0.673,0.798,1.208,1.345
		C306.618,442.786,307.154,443.264,307.701,443.686z"/>
	<path style="fill:#04AC63;" d="M333.956,462.144c-0.125-0.479-0.262-1.026-0.433-1.653c-0.171-0.616-0.376-1.334-0.616-2.143
		c-0.239-0.809-0.467-1.528-0.673-2.166s-0.422-1.311-0.65-2.007c-0.228-0.707-0.376-1.174-0.467-1.414
		c-0.091-0.239-0.148-0.433-0.182-0.57h-0.878l-3.352,4.173l5.21,10.26c-0.342,0.992-0.798,1.995-1.368,2.987
		c-0.57,0.992-1.277,2.007-2.143,3.01c-0.855,1.015-1.893,1.835-3.09,2.474c-1.197,0.638-2.474,0.958-3.819,0.958
		c-0.992,0-2.463-0.228-4.378-0.673l-0.616,1.448c0.513,0.445,1.87,1.254,4.07,2.417s3.603,1.756,4.23,1.756
		c1.482,0,2.964-0.764,4.458-2.292c1.493-1.528,2.668-3.215,3.534-5.05c0.866-1.847,1.334-3.386,1.402-4.617
		c0-3.751-0.011-5.734-0.057-5.974C334.139,462.93,334.082,462.622,333.956,462.144z"/>
	<path style="fill:#04AC63;" d="M343.464,463.466v-28.969h-0.878l-3.603,3.397l0.821,33.141h1.493v0.011
		C342.746,466.544,343.464,464.025,343.464,463.466z"/>
	<path style="fill:#04AC63;" d="M352.152,445.146c0.536,0.536,1.072,1.003,1.619,1.414l0.513-0.41
		c0.342-0.274,0.787-0.684,1.345-1.208c0.547-0.536,1.015-1.072,1.391-1.619c-0.65-0.923-1.733-2.029-3.249-3.295
		c-1.06,0.923-2.132,2.029-3.192,3.295l0.41,0.513C351.228,444.176,351.616,444.621,352.152,445.146z"/>
	<path style="fill:#04AC63;" d="M359.266,462.144c-0.125-0.479-0.262-1.026-0.433-1.653c-0.171-0.627-0.376-1.334-0.616-2.143
		c-0.239-0.809-0.467-1.528-0.673-2.166s-0.422-1.311-0.65-2.007c-0.228-0.707-0.376-1.174-0.467-1.414
		c-0.091-0.239-0.148-0.433-0.182-0.57h-0.878l-3.352,4.173l5.21,10.26c-0.342,0.992-0.798,1.995-1.368,2.987
		c-0.57,0.992-1.277,2.007-2.143,3.01c-0.855,1.015-1.893,1.835-3.09,2.474c-1.197,0.638-2.474,0.958-3.819,0.958
		c-0.992,0-2.463-0.228-4.378-0.673l-0.604,1.448c0.513,0.445,1.87,1.254,4.07,2.417s3.603,1.756,4.23,1.756
		c1.482,0,2.964-0.764,4.458-2.292c1.493-1.528,2.668-3.215,3.534-5.05c0.855-1.835,1.323-3.375,1.391-4.617
		c0-3.751-0.011-5.734-0.057-5.974C359.448,462.93,359.391,462.622,359.266,462.144z"/>
	<path style="fill:#04AC63;" d="M373.254,452.031c-2.405,0-4.446,1.323-6.111,3.967c-1.664,2.645-2.554,5.278-2.656,7.889
		c0,0.445,0.194,1.311,0.593,2.577c0.399,1.277,0.707,2.075,0.958,2.417c1.174,1.448,3.021,2.166,5.563,2.166
		c1.927,0,3.466-0.296,4.64-0.878l1.961-3.192c0.239,1.129,0.376,2.109,0.41,2.941c-0.821,1.824-2.132,3.295-3.922,4.412
		c-1.79,1.117-3.819,1.676-6.076,1.676c-1.243,0-2.85-0.239-4.845-0.718l-0.616,1.448c0.479,0.479,1.824,1.311,4.024,2.497
		c2.2,1.174,3.603,1.767,4.218,1.767c2.235,0,4.207-0.992,5.928-2.987c1.721-1.995,2.85-4.275,3.397-6.852
		c0.274-1.516,0.41-2.919,0.41-4.23c0-3.888-0.764-7.331-2.292-10.363C377.312,453.547,375.443,452.031,373.254,452.031z
		 M372.068,465.894c-2.645,0-4.515-0.479-5.62-1.448c0.376-1.893,1.094-3.591,2.143-5.107c1.049-1.516,2.223-2.269,3.534-2.269
		c1.243,0,2.337,0.787,3.295,2.348c0.958,1.562,1.756,3.511,2.371,5.848C376.036,465.689,374.132,465.894,372.068,465.894z"/>
	<path style="fill:#04AC63;" d="M396.374,256.365c3.249-1.904,6.646-4.469,9.896-7.638c4.743-4.594,8.402-9.656,10.614-14.273
		c-0.068,0.057-0.182,0.148-0.342,0.262c0.148-0.125,0.262-0.205,0.331-0.274c-5.985,2.314-13.521,8.414-18.663,14.627
		c0.627-2.873,1.22-5.757,1.63-8.664c0.091-0.559,0.171-1.117,0.262-1.676c7.456-5.29,15.619-15.516,18.514-23.531
		c-0.034,0.034-0.103,0.103-0.182,0.171c0.068-0.091,0.125-0.148,0.171-0.182c-5.86,2.896-13.054,9.816-17.671,16.519
		c0.057-0.467,0.091-0.946,0.148-1.402c0.16-1.687,0.205-3.397,0.319-5.085c0.091-1.379,0.148-2.759,0.16-4.138
		c7.102-6.35,14.49-18.685,16.326-27.578c-0.137,0.182-0.513,0.661-1.072,1.368c0.547-0.707,0.912-1.186,1.049-1.368
		c-5.962,4.23-12.7,13.441-16.268,21.604c-0.068-3.671-0.296-7.319-0.65-10.967c6.293-7.137,12.256-20.122,13.19-29.117
		c-0.103,0.16-0.342,0.547-0.695,1.106c0.331-0.559,0.57-0.935,0.673-1.106c-5.415,4.891-11.172,14.775-13.863,23.143
		c-0.638-4.549-1.471-9.052-2.542-13.51c4.982-7.194,9.12-19.894,9.018-28.239c-0.011,0.011-0.011,0.023-0.023,0.034
		c0.011-0.011,0.011-0.034,0.011-0.034c-4.515,5.267-8.835,15.436-10.249,23.451c-1.106-3.956-2.371-7.866-3.796-11.697
		c4.777-7.524,8.265-21.536,7.444-30.303c-0.011,0.023-0.011,0.057-0.023,0.08c0-0.023,0.011-0.057,0.011-0.08
		c-4.594,6.407-8.322,18.777-8.516,27.441c-0.16-0.388-0.342-0.787-0.502-1.174c-1.436-3.876-3.021-7.695-4.777-11.4
		c4.047-8.129,5.962-23.029,4.036-31.83c-0.011,0.057-0.034,0.125-0.068,0.239c0.023-0.103,0.034-0.182,0.057-0.239
		c-3.979,7.353-6.168,20.977-5.005,29.789c-1.767-3.591-3.682-7.114-5.734-10.545c2.52-7.912,2.28-21.558-0.616-29.14
		c-2.52,7.011-2.805,19.084-0.821,26.803c-2.246-3.603-4.64-7.091-7.171-10.466c1.676-8.539-0.16-22.63-4.036-30.086
		c-1.778,7.581-0.695,20.099,2.269,27.806c-3.055-3.876-6.316-7.536-9.747-10.979c1.14-8.687-1.721-22.755-6.179-29.938
		c-1.288,8.015,0.969,21.068,4.777,28.547c-3.318-3.238-6.795-6.27-10.443-9.132c0.023-8.767-4.651-22.322-10.044-28.741
		c0.023,0.08,0.057,0.205,0.091,0.353c-0.057-0.16-0.08-0.274-0.091-0.353c-0.205,8.174,3.751,20.783,8.55,27.589
		c-3.751-2.873-7.65-5.529-11.685-8.003c-1.14-8.231-7.627-20.373-13.726-25.457c0.011,0.011,0.011,0.023,0.011,0.046
		c-0.011-0.023-0.023-0.034-0.034-0.046c1.06,8.003,7.194,19.768,13.076,25.047c-5.119-3.101-10.466-5.894-15.995-8.391
		c-5.883-4.332-16.166-7.707-22.858-7.205c0,0,0,0,0.011,0.011c5.176,4.902,15.596,9.109,22.858,9.371
		c6.612,3.443,12.905,7.456,18.856,11.936c-6.852-2.748-17.922-3.238-24.477-0.866c1.197,0.251,14.741,2.93,26.244,2.212
		c0,0.011,0,0.011,0.011,0.011c-11.48,0.718-25.024-1.95-26.244-2.2c6.703,3.66,19.141,4.765,26.483,2.383
		c2.405,1.87,4.754,3.842,7.034,5.86c-7.102-2.246-17.625-2.383-23.987-0.103c0.353,0.068,1.733,0.342,3.796,0.695
		c-2.063-0.331-3.432-0.616-3.796-0.684c6.874,3.751,19.335,5.062,27.179,2.987c3.249,3.055,6.384,6.247,9.36,9.565
		c-7.559-3.283-19.233-4.617-26.461-2.759c0.171,0.057,0.524,0.16,1.06,0.319c-0.536-0.148-0.889-0.251-1.06-0.296
		c7.182,4.811,20.646,7.524,29.356,6.076c3.192,3.751,6.213,7.616,9.052,11.663c-7.456-3.979-19.426-6.236-27.008-4.811
		c0.057,0.023,0.103,0.034,0.182,0.08c-0.068-0.023-0.114-0.034-0.171-0.057c6.932,5.256,20.316,8.847,29.117,7.912
		c2.634,3.967,5.062,8.083,7.274,12.324c-7.228-5.415-19.86-9.645-28.102-9.132c6.646,6.43,20.338,11.925,29.561,11.971
		c2.246,4.503,4.23,9.132,5.974,13.886c-6.726-6.578-19.768-12.632-28.501-12.917c0.205,0.137,0.787,0.502,1.676,1.06
		c-0.889-0.547-1.471-0.912-1.676-1.049c6.225,7.182,19.894,14.137,29.208,14.889c1.744,4.971,3.215,10.067,4.401,15.277
		c-5.871-7.866-19.141-16.189-28.285-17.557v0.011c5.62,8.071,19.119,16.793,28.467,18.343c1.208,5.449,2.086,11.001,2.645,16.656
		c-5.552-8.87-17.374-19.016-26.278-22.117c0.034,0.034,0.08,0.091,0.125,0.16c-0.068-0.057-0.103-0.103-0.148-0.148
		c4.629,9.565,16.93,21.273,26.575,25.355c0.41,5.267,0.502,10.659,0.296,15.972c-4.469-9.953-15.835-22.391-24.899-26.711
		c0.023,0.034,0.08,0.103,0.114,0.182c-0.068-0.08-0.103-0.125-0.125-0.171c3.774,10.272,15.345,23.713,24.773,28.741
		c-0.376,4.811-1.003,9.588-1.87,14.319c-3.432-10.397-12.826-23.77-20.988-29.254c0.023,0.057,0.068,0.125,0.114,0.228
		c-0.068-0.08-0.103-0.16-0.125-0.205c2.428,10.568,11.936,25.298,20.532,31.842c-0.866,4.298-1.938,8.539-3.181,12.723
		c-2.69-10.477-10.523-24.066-17.842-30.188c0.057,0.114,0.125,0.331,0.251,0.616c-0.125-0.274-0.205-0.49-0.262-0.604
		c1.414,10.5,9.2,25.662,16.918,33.175c-0.878,2.736-1.835,5.438-2.884,8.094c-2.611-10.146-9.77-23.006-16.576-29.026
		c0.046,0.125,0.125,0.342,0.239,0.65c-0.125-0.296-0.205-0.513-0.251-0.638c1.129,10.101,8.026,24.705,15.197,32.469
		c-1.265,2.975-2.634,5.905-4.093,8.79c-0.376,0.73-0.787,1.459-1.163,2.178c-1.835-10.602-7.935-24.283-14.296-31.066
		c0.011,0.034,0.011,0.068,0.023,0.114c-0.023-0.034-0.023-0.08-0.034-0.103c0.262,10.295,5.94,25.708,12.461,34.407
		c-1.653,2.884-3.42,5.712-5.256,8.493c-1.436-10.523-6.475-23.827-12.096-30.85c-0.456,10.089,3.774,25.4,9.337,34.863
		c-2.44,3.34-4.982,6.612-7.65,9.77c0.775-12.221-2.121-28.832-7.125-38.192c0.011,0.046,0.011,0.091,0,0.16
		c0-0.057,0-0.114-0.011-0.148c-2.531,11.309-0.547,29.926,4.138,41.589c-0.103,0.114-0.205,0.239-0.319,0.353
		c-2.907,3.09-5.94,6.088-9.063,8.949c2.28-12.176,1.368-29.231-2.531-39.275c-0.114,1.414-1.083,13.054-0.821,26.495
		c-0.046-1.699-0.057-3.352-0.057-4.982c0-11.207,0.752-20.224,0.855-21.513c-3.865,10.944-4.024,29.835-0.673,42.113
		c-0.559,0.467-1.129,0.969-1.687,1.436c-1.208,1.049-2.531,1.984-3.785,2.976c-1.254,0.98-2.531,1.961-3.865,2.862l-0.456,0.331
		c3.546-12.062,4.207-29.618,1.129-40.232c-0.023,0.148-0.068,0.376-0.125,0.707c0.057-0.331,0.091-0.547,0.114-0.695
		c-4.891,10.614-6.635,29.732-4.23,42.387l-0.365,0.251l-4.059,2.554c-2.884,1.733-5.791,3.397-8.767,4.971
		c5.461-11.503,8.71-29.425,7.034-40.666c-0.011,0.057-0.034,0.114-0.068,0.194c0.011-0.08,0.034-0.125,0.057-0.182
		c-6.396,9.896-10.739,29.071-9.861,42.102c-1.767,0.878-3.568,1.733-5.381,2.508l-2.189,0.98l-2.223,0.878
		c-1.493,0.581-2.976,1.174-4.469,1.733c-3.044,0.992-6.054,2.109-9.143,2.896c-12.29,3.546-25.104,5.142-37.872,5.199
		c-12.78-0.08-25.583-1.653-37.872-5.199c-3.089-0.798-6.088-1.904-9.132-2.896c-1.505-0.547-2.987-1.151-4.48-1.733l-2.223-0.878
		l-2.189-0.98c-1.835-0.787-3.637-1.653-5.438-2.531c0.365-5.997-0.148-13.019-1.687-20.339c-1.824-8.63-4.754-16.211-8.14-21.741
		l-0.011-0.011c-0.809,6.612-0.41,14.855,1.414,23.474c1.379,6.475,3.363,12.347,5.689,17.203c-2.976-1.573-5.905-3.249-8.801-4.993
		l-4.07-2.542l-0.365-0.262c2.394-12.666,0.638-31.762-4.241-42.353c-3.09,10.603-2.44,28.125,1.117,40.187l-0.445-0.319
		c-1.334-0.889-2.599-1.87-3.865-2.862c-1.243-0.992-2.565-1.915-3.774-2.976c-0.581-0.467-1.14-0.969-1.699-1.459
		c3.352-12.278,3.181-31.146-0.684-42.079c0.171,2.007,1.881,22.881-0.068,41.441c-0.011,0-0.011,0-0.023-0.011
		c1.961-18.594,0.251-39.503,0.08-41.429c-3.899,10.044-4.822,27.076-2.542,39.252c-3.135-2.862-6.133-5.848-9.041-8.927
		c-0.114-0.125-0.228-0.251-0.331-0.376c4.674-11.663,6.669-30.257,4.127-41.555c-0.023,0.684-0.114,3.523-0.41,7.695
		c0.274-4.207,0.365-7.045,0.388-7.707c-4.993,9.36-7.901,25.925-7.114,38.169c-2.69-3.158-5.21-6.418-7.638-9.77
		c5.552-9.462,9.782-24.75,9.326-34.84c-0.011,0.103-0.057,0.262-0.103,0.467c0.034-0.228,0.08-0.376,0.091-0.49
		c-5.609,7.023-10.625,20.304-12.084,30.838c-1.835-2.782-3.591-5.598-5.244-8.493c6.498-8.687,12.187-24.078,12.438-34.384
		c-0.011,0.046-0.034,0.114-0.057,0.182c0.011-0.08,0.034-0.148,0.046-0.194c-6.339,6.783-12.449,20.43-14.285,31.021
		c-0.376-0.707-0.775-1.414-1.151-2.143c-1.459-2.884-2.827-5.814-4.093-8.801c7.137-7.752,14.057-22.356,15.185-32.446
		c0,0.011-0.011,0.023-0.023,0.034c0.011-0.023,0.011-0.034,0.011-0.057c-6.795,6.008-13.954,18.845-16.576,28.98
		c-1.037-2.645-1.995-5.347-2.873-8.06c7.718-7.536,15.482-22.687,16.907-33.175c-0.023,0.057-0.057,0.114-0.091,0.194
		c0.023-0.091,0.068-0.16,0.08-0.205c-7.319,6.122-15.151,19.666-17.83,30.166c-1.254-4.184-2.314-8.425-3.181-12.712
		c8.585-6.555,18.104-21.262,20.509-31.83v-0.011c-8.163,5.472-17.545,18.811-20.988,29.219c-0.855-4.731-1.482-9.497-1.858-14.296
		c9.428-5.039,20.988-18.457,24.75-28.729v-0.011c-9.052,4.332-20.441,16.747-24.899,26.711c-0.205-5.301-0.103-10.705,0.285-15.972
		c9.645-4.07,21.957-15.801,26.575-25.355v-0.011c-8.927,3.101-20.726,13.247-26.301,22.117c0.559-5.643,1.459-11.207,2.656-16.645
		c9.36-1.573,22.835-10.283,28.456-18.355c-0.16,0.125-0.502,0.41-1.026,0.809c0.524-0.422,0.866-0.707,1.026-0.821
		c-9.143,1.368-22.402,9.69-28.273,17.557c1.174-5.21,2.656-10.306,4.389-15.277c9.326-0.752,22.995-7.695,29.219-14.9
		c-8.721,0.285-21.764,6.327-28.501,12.917c1.733-4.743,3.739-9.383,5.962-13.886c9.234-0.057,22.915-5.541,29.561-11.971
		c-8.254-0.513-20.863,3.717-28.102,9.12c2.223-4.23,4.651-8.345,7.274-12.313c8.801,0.912,22.185-2.645,29.117-7.912
		c-1.334,0.502-15.607,5.757-28.706,7.319c0-0.011,0-0.011,0-0.011c13.133-1.585,27.418-6.84,28.718-7.342
		c-7.559-1.425-19.54,0.809-26.985,4.811c2.827-4.047,5.86-7.912,9.041-11.663c8.71,1.436,22.197-1.265,29.379-6.076
		c-0.171,0.046-0.547,0.16-1.083,0.308c0.547-0.16,0.912-0.274,1.083-0.319c-7.251-1.847-18.902-0.524-26.461,2.759
		c2.976-3.318,6.088-6.51,9.36-9.554c7.821,2.041,20.27,0.752,27.145-2.998c-6.373-2.28-16.884-2.143-23.964,0.091
		c2.28-2.018,4.629-3.979,7.023-5.86c7.342,2.371,19.78,1.288,26.483-2.383c-0.502,0.103-3.01,0.604-6.601,1.106
		c3.603-0.524,6.133-1.026,6.612-1.129c-6.532-2.348-17.625-1.881-24.465,0.866c6.019-4.537,12.381-8.585,19.084-12.05
		c6.988-0.627,16.496-4.651,21.364-9.269c-7.365-0.559-18.97,3.58-24.807,8.687c-4.389,2.098-8.664,4.401-12.803,6.909
		c5.883-5.29,12.016-17.044,13.076-25.047c-0.011,0.011-0.011,0.023-0.023,0.046c0-0.023,0-0.034,0.011-0.046
		c-6.088,5.085-12.586,17.226-13.715,25.457c-4.036,2.474-7.935,5.142-11.697,8.003c4.811-6.795,8.778-19.426,8.573-27.589
		c-0.011,0.034-0.023,0.103-0.057,0.171c0.011-0.08,0.023-0.148,0.034-0.182c-5.392,6.418-10.078,19.996-10.044,28.763
		c-3.625,2.862-7.125,5.894-10.443,9.132c3.831-7.467,6.065-20.544,4.8-28.547c-0.011,0.114-0.023,0.308-0.057,0.581
		c0.023-0.285,0.034-0.479,0.046-0.593c-4.469,7.182-7.319,21.262-6.179,29.949c-3.432,3.443-6.681,7.102-9.736,10.979
		c2.953-7.707,4.036-20.224,2.269-27.806c-3.876,7.456-5.7,21.558-4.024,30.086c-2.542,3.363-4.925,6.874-7.182,10.466
		c1.984-7.718,1.699-19.803-0.809-26.803c0,0.068,0.011,0.16,0.023,0.296c-0.023-0.125-0.023-0.228-0.034-0.296
		c-2.884,7.581-3.135,21.216-0.604,29.151c-2.052,3.42-3.979,6.943-5.757,10.534c1.163-8.813-1.026-22.459-4.993-29.789
		c0.023,0.125,0.091,0.388,0.171,0.764c-0.091-0.365-0.16-0.627-0.182-0.764c-1.927,8.778-0.011,23.713,4.036,31.83
		c-1.756,3.694-3.329,7.479-4.765,11.332c-0.171,0.422-0.353,0.821-0.513,1.243c-0.205-8.676-3.933-21.034-8.528-27.441
		c0.057,0.114,0.125,0.353,0.251,0.695c-0.125-0.342-0.205-0.581-0.262-0.695c-0.821,8.756,2.656,22.79,7.456,30.302
		c-1.425,3.842-2.702,7.741-3.808,11.686c-1.414-8.015-5.712-18.172-10.249-23.439v0.251c0.011,0.034,0.034,0.08,0.057,0.125
		c-0.023-0.034-0.046-0.068-0.057-0.103c-0.023,8.357,4.081,20.851,9.006,27.943c-1.072,4.458-1.904,8.961-2.531,13.51
		c-2.702-8.357-8.448-18.252-13.874-23.12c0.011,0.023,0.023,0.034,0.034,0.068c-0.011-0.023-0.034-0.034-0.057-0.068
		c0.935,8.984,6.909,21.969,13.179,29.117c-0.353,3.625-0.593,7.285-0.65,10.944c-3.591-8.151-10.306-17.351-16.268-21.581
		c0.057,0.068,0.148,0.194,0.274,0.353c-0.125-0.16-0.228-0.285-0.285-0.353c1.847,8.892,9.223,21.228,16.325,27.566
		c0.011,1.391,0.068,2.782,0.16,4.15c0.103,1.687,0.16,3.397,0.296,5.085c0.057,0.456,0.103,0.912,0.16,1.379
		c-4.629-6.692-11.822-13.612-17.671-16.496c0.091,0.091,0.274,0.262,0.524,0.502c-0.262-0.239-0.433-0.388-0.536-0.49
		c2.896,8.014,11.058,18.229,18.514,23.531c0.091,0.559,0.171,1.117,0.262,1.676c0.422,2.907,0.98,5.791,1.642,8.664
		c-5.153-6.213-12.677-12.312-18.674-14.627l0.011,0.023c3.5,7.798,12.563,17.329,20.51,21.935c0.365,1.3,0.73,2.576,1.129,3.865
		l0.901,2.805c-6.133-5.86-15.117-11.264-21.866-12.643c0.125,0.08,0.41,0.228,0.798,0.456c-0.388-0.205-0.684-0.365-0.809-0.445
		c4.651,7.296,15.311,15.425,23.975,18.514l0.365,0.958c0.559,1.607,1.254,3.169,1.938,4.731c0,0.011,0,0.023,0.011,0.023
		c-6.635-4.811-15.858-8.778-22.493-9.269c0.034,0.011,0.103,0.034,0.171,0.08c-0.08-0.023-0.148-0.057-0.182-0.068
		c5.29,6.51,16.382,13.019,25.161,15.094c1.562,3.261,3.249,6.464,5.062,9.576c-7.832-5.278-18.606-9.462-26.301-9.69
		c0.08,0.023,0.182,0.068,0.319,0.114c-0.148-0.034-0.251-0.08-0.331-0.103c6.487,7.433,20.031,14.581,30.382,16.314
		c1.459,2.223,2.987,4.412,4.572,6.555c-8.482-4.48-19.677-7.559-27.498-7.045c0.091,0.011,0.228,0.057,0.422,0.103
		c-0.194-0.034-0.342-0.08-0.433-0.091c7.387,7.08,22.026,13.133,32.913,13.909c1.653,1.984,3.352,3.899,5.107,5.791
		c-8.961-3.477-20.635-5.164-28.433-3.614c0.011,0,0.034,0,0.08,0.011h-0.091c8.129,6.111,23.451,10.249,34.327,9.576
		c3.226,3.09,6.567,6.042,10.044,8.835c-10.386-3.352-23.679-4.469-32.446-2.177c1.824,0.091,19.825,0.992,36.425,5.256
		c0.023,0.011,0.034,0.023,0.057,0.034c-16.656-4.286-34.737-5.187-36.493-5.267c9.816,6.533,28.205,10.124,40.54,8.174
		c1.607,1.129,3.238,2.212,4.891,3.272c2.029,1.288,4.116,2.508,6.202,3.694c-11.845-2.645-27.715-1.744-37.143,2.634
		c1.938-0.251,22.413-2.816,40.437-0.821c0.011,0.011,0.023,0.011,0.034,0.023c-18.058-2.007-38.613,0.581-40.472,0.809
		c5.974,2.474,13.772,3.956,22.277,3.888c7.718-0.034,14.832-1.368,20.532-3.511c9.998,5.073,20.566,8.972,31.454,11.651
		c-11.298,3.694-21.228,9.234-28.615,16.337c4.617,1.858,9.314,3.523,14.114,4.982c10.602-10.386,28.125-16.565,47.301-16.565
		c19.552,0,37.861,6.669,48.213,17.477c4.891-1.379,9.668-2.964,14.365-4.754c-7.148-7.296-16.873-13.054-28.057-16.93
		c11.708-2.668,23.097-6.76,33.802-12.198c5.7,2.143,12.814,3.454,20.532,3.511c8.505,0.068,16.303-1.414,22.288-3.888
		c-1.87-0.239-22.436-2.816-40.494-0.809c0.011-0.011,0.023-0.011,0.057-0.023c18.013-1.995,38.511,0.581,40.437,0.821
		c-5.951-2.554-13.726-4.127-22.22-4.184c-5.415-0.023-10.534,0.547-15.083,1.63c2.143-1.22,4.275-2.463,6.35-3.785
		c1.653-1.049,3.272-2.143,4.879-3.261c12.347,1.949,30.736-1.63,40.552-8.186c-1.756,0.091-19.837,0.992-36.493,5.278l0.034-0.034
		c16.611-4.264,34.623-5.164,36.436-5.256c-8.756-2.292-22.06-1.174-32.457,2.177c3.489-2.793,6.84-5.734,10.067-8.835
		c10.876,0.673,26.198-3.454,34.338-9.576h-0.091c0.034-0.011,0.068-0.011,0.08-0.011c-7.809-1.551-19.495,0.148-28.456,3.614
		c1.756-1.881,3.477-3.808,5.119-5.791c10.876-0.775,25.537-6.84,32.913-13.909c-0.091,0.023-0.228,0.057-0.388,0.091
		c0.171-0.057,0.285-0.08,0.376-0.103c-7.821-0.513-19.05,2.576-27.509,7.08c1.585-2.166,3.124-4.332,4.583-6.578
		c10.34-1.733,23.895-8.881,30.394-16.314c-0.023,0.011-0.057,0.023-0.091,0.023c0.023-0.023,0.057-0.023,0.08-0.034
		c-7.707,0.239-18.492,4.423-26.324,9.713c1.813-3.124,3.5-6.327,5.062-9.588c8.778-2.052,19.86-8.573,25.172-15.083
		c0,0-0.011,0-0.011-0.011s0-0.011,0.011-0.011c-6.658,0.467-15.892,4.469-22.505,9.28c0-0.011,0.011-0.023,0.011-0.034
		c0.684-1.562,1.379-3.124,1.938-4.731l0.365-0.958c8.664-3.09,19.335-11.207,23.975-18.514c-0.057,0.023-0.148,0.08-0.262,0.137
		c0.114-0.068,0.205-0.125,0.262-0.16c-6.76,1.379-15.744,6.783-21.878,12.655l0.901-2.816
		C395.667,258.987,396.021,257.676,396.374,256.365z M408.721,225.116c-1.3,1.402-2.656,2.919-4.024,4.503
		C406.042,228.035,407.41,226.53,408.721,225.116z M401.561,217.808c0.194-0.365,0.388-0.73,0.604-1.083
		c-0.194,0.365-0.41,0.752-0.604,1.117V217.808z M401.276,199.1c-0.239,0.547-0.479,1.094-0.707,1.653c0,0-0.011-0.011-0.011-0.023
		C400.786,200.183,401.037,199.647,401.276,199.1z M407.296,242.513c-3.078,2.793-6.532,6.111-9.804,9.656v-0.034
		C400.752,248.59,404.218,245.283,407.296,242.513z M400.079,172.377c-1.083,3.067-2.166,6.339-3.078,9.633c0,0,0-0.011-0.011-0.023
		C397.902,178.693,398.985,175.433,400.079,172.377z M353.782,88.914c0.08,0.684,0.171,1.357,0.262,2.029
		C353.941,90.226,353.85,89.541,353.782,88.914z M325.041,78.574c0.798,1.608,1.664,3.318,2.599,5.073
		C326.706,81.892,325.828,80.182,325.041,78.574z M329.898,108.375c0.821,0.103,1.687,0.217,2.599,0.331
		C331.597,108.603,330.719,108.489,329.898,108.375z M358.764,113.425c-0.011,0-0.011,0-0.011-0.011
		c-0.057-0.217-0.125-0.433-0.194-0.65C358.627,112.992,358.695,113.209,358.764,113.425z M353.417,121.588
		c2.371,0.331,4.788,0.581,7.159,0.718c0,0,0,0.011,0.011,0.011C358.217,122.181,355.8,121.93,353.417,121.588z M368.614,117.974
		c0.308,2.086,0.661,4.195,1.072,6.259C369.264,122.158,368.91,120.049,368.614,117.974z M371.464,137.059
		c0.125,0.023,0.262,0.034,0.399,0.046c0,0,0.011,0,0.011,0.011C371.738,137.104,371.601,137.081,371.464,137.059z M378.293,122.648
		c-0.046,2.303-0.057,4.8,0.011,7.376C378.225,127.448,378.247,124.951,378.293,122.648z M378.464,117.997
		c-0.057,1.015-0.091,2.109-0.137,3.283C378.361,120.118,378.407,119.012,378.464,117.997z M378.407,133.148
		c0.068,1.357,0.16,2.725,0.274,4.081C378.555,135.873,378.475,134.516,378.407,133.148z M378.852,139.02
		c-0.046-0.41-0.091-0.832-0.114-1.254c0.034,0.422,0.08,0.832,0.125,1.254H378.852z M374.417,150.568
		c2.098,0.65,4.218,1.265,6.316,1.778c0,0.011,0,0.011,0.011,0.011C378.635,151.845,376.514,151.241,374.417,150.568z
		 M385.806,151.731c0,0-0.011,0-0.011-0.011c0.023-0.798,0.068-1.607,0.114-2.417C385.863,150.112,385.829,150.922,385.806,151.731z
		 M392.224,184.69c-4.309-1.938-8.71-4.446-12.734-7c4.024,2.531,8.436,5.039,12.734,6.989
		C392.224,184.678,392.224,184.678,392.224,184.69z M392.076,166.654c-0.011,0-0.011,0-0.011-0.011
		c0.536-3.158,1.174-6.156,1.881-9.018C393.262,160.498,392.612,163.496,392.076,166.654z M395.131,204.116
		c-4.024-2.896-8.003-6.259-11.617-9.576c3.614,3.283,7.604,6.658,11.617,9.554C395.131,204.094,395.131,204.105,395.131,204.116z
		 M372.718,223.999c0.137,0.285,0.262,0.593,0.399,0.923C372.969,224.592,372.832,224.272,372.718,223.999z M370.256,236.471
		c0.148,0.342,0.296,0.73,0.467,1.14C370.541,237.2,370.392,236.813,370.256,236.471z M185.237,297.224
		c0.08,0.262,0.182,0.57,0.274,0.901C185.408,297.794,185.317,297.486,185.237,297.224z M188.042,307.051
		c0.251,0.912,0.502,1.87,0.752,2.862C188.532,308.921,188.281,307.963,188.042,307.051z M145.678,168.467
		c-0.376,0.296-0.787,0.616-1.243,0.946C144.879,169.06,145.301,168.741,145.678,168.467z M149.896,156.109
		c-0.513,0.319-1.06,0.638-1.664,0.98C148.835,156.736,149.394,156.405,149.896,156.109z M179.206,92.278
		c-0.445,0.684-0.901,1.334-1.368,1.984c-0.011,0-0.011,0-0.023,0.011C178.294,93.611,178.75,92.95,179.206,92.278z M166.461,99.961
		c-0.433,1.037-0.889,2.075-1.368,3.067c0,0-0.011,0-0.023,0.011C165.549,102.036,166.016,100.999,166.461,99.961z M178.887,117.267
		c-0.274,0.08-0.57,0.16-0.912,0.251C178.317,117.427,178.614,117.336,178.887,117.267z M173.358,118.727
		c-0.912,0.228-1.893,0.456-2.919,0.684C171.465,119.171,172.446,118.943,173.358,118.727z M158.777,85.072
		c-0.034,0.331-0.08,0.741-0.137,1.22C158.697,85.814,158.731,85.403,158.777,85.072z M158.469,86.828
		c-0.125,1.14-0.296,2.576-0.536,4.23C158.15,89.405,158.321,87.968,158.469,86.828z M155.186,106.22
		c-0.559,2.428-1.208,4.857-1.938,7.194c-0.011,0.011-0.011,0.011-0.011,0.011C153.966,111.088,154.604,108.649,155.186,106.22z
		 M151.526,122.295c4.252-0.262,8.642-0.889,12.666-1.608c-4.024,0.741-8.414,1.368-12.677,1.619
		C151.515,122.306,151.526,122.306,151.526,122.295z M144.321,111.305c-0.467,4.708-1.197,10.021-2.303,14.957
		c0,0.011-0.011,0.011-0.023,0.011C143.112,121.337,143.842,116.025,144.321,111.305z M133.513,134.266
		c-0.091,1.596-0.205,3.192-0.376,4.754c0,0.011,0,0.011-0.011,0.023C133.285,137.481,133.422,135.873,133.513,134.266z
		 M125.51,142.44c0.353,3.067,0.616,6.213,0.695,9.28C126.092,148.664,125.841,145.495,125.51,142.44z M124.438,168.376
		c0.205-0.057,0.422-0.125,0.627-0.205l-0.627,0.217V168.376z M119.764,184.678c3.454-1.55,6.977-3.477,10.317-5.472
		c-3.329,2.029-6.852,3.933-10.317,5.484V184.678z M116.857,204.082c2.143-1.528,4.264-3.192,6.327-4.914
		c-2.063,1.733-4.195,3.397-6.327,4.936C116.857,204.105,116.857,204.094,116.857,204.082z M110.427,217.82
		c-0.65-1.22-1.334-2.428-2.041-3.625c0.707,1.174,1.391,2.383,2.041,3.603C110.427,217.808,110.427,217.82,110.427,217.82z
		 M111.419,200.742c-0.935-2.246-1.95-4.48-2.976-6.646c1.037,2.132,2.041,4.355,2.987,6.612
		C111.431,200.719,111.431,200.73,111.419,200.742z M135.987,201.232c-0.536,0.684-1.106,1.402-1.721,2.143
		C134.858,202.634,135.44,201.916,135.987,201.232z M130.526,207.924c-1.562,1.835-3.226,3.739-4.993,5.632
		C127.277,211.675,128.942,209.76,130.526,207.924z M116.641,222.311c2.006-1.756,3.979-3.66,5.905-5.609
		c-1.927,1.984-3.899,3.876-5.905,5.62V222.311z M97.807,251.565c0.41,0.228,0.866,0.502,1.379,0.798
		C98.673,252.078,98.217,251.804,97.807,251.565z M109.971,259.215c1.858,1.265,3.785,2.656,5.7,4.127
		C113.756,261.894,111.829,260.503,109.971,259.215z M117.564,264.835c0.319,0.239,0.627,0.49,0.935,0.73l0.011,0.023
		C118.191,265.348,117.883,265.086,117.564,264.835z M133.502,218.378c-1.231,2.052-2.611,4.275-4.138,6.567
		C130.857,222.653,132.248,220.43,133.502,218.378z M118.898,239.104c1.254-1.471,2.485-2.998,3.694-4.56
		c-1.208,1.585-2.44,3.124-3.694,4.583C118.898,239.127,118.898,239.116,118.898,239.104z M122.922,254.712
		c0.547-0.798,1.083-1.607,1.63-2.428c1.607-2.485,3.124-5.062,4.583-7.616c-1.425,2.554-2.964,5.142-4.583,7.616
		c-0.536,0.821-1.072,1.653-1.63,2.451C122.922,254.723,122.922,254.723,122.922,254.712z M102.048,266.409
		c0.365,0.148,0.764,0.319,1.186,0.502C102.8,266.739,102.413,266.58,102.048,266.409z M120.026,275.244
		c1.037,0.593,2.075,1.208,3.09,1.835c0.011,0,0.011,0.011,0.011,0.023C122.101,276.464,121.064,275.837,120.026,275.244z
		 M130.617,260.127c0.844-1.516,1.665-3.033,2.451-4.549C132.293,257.094,131.473,258.611,130.617,260.127
		c-1.129,2.029-2.303,4.024-3.534,5.962C128.292,264.14,129.477,262.145,130.617,260.127z M105.263,281.024
		c0.308,0.114,0.661,0.239,1.037,0.388C105.924,281.275,105.571,281.149,105.263,281.024z M126.764,290.441
		c1.596,0.809,3.181,1.676,4.754,2.577c0,0.011,0.011,0.023,0.011,0.023C129.956,292.139,128.349,291.262,126.764,290.441z
		 M146.977,247.051c-0.034,0.125-0.08,0.285-0.137,0.467C146.897,247.324,146.932,247.164,146.977,247.051z M134.038,280.443
		c2.269-4.458,4.332-9.212,6.111-13.703c-1.767,4.492-3.819,9.257-6.099,13.715C134.049,280.443,134.049,280.443,134.038,280.443z
		 M150.945,262.92c-0.114,0.49-0.239,1.038-0.388,1.608C150.694,263.957,150.819,263.41,150.945,262.92z M147.855,274.776
		c-0.593,2.086-1.254,4.298-1.984,6.544C146.59,279.063,147.251,276.863,147.855,274.776z M140.467,306.23
		c0.103,0.034,0.194,0.08,0.296,0.125c0.011,0,0.011,0.011,0.023,0.023C140.673,306.333,140.57,306.276,140.467,306.23z
		 M141.779,292.732c1.14-2.816,2.189-5.723,3.158-8.573c-0.958,2.862-2.006,5.757-3.146,8.585
		C141.79,292.744,141.79,292.732,141.779,292.732z M148.037,317.631c1.163,0.319,2.337,0.65,3.5,1.026
		c0.011,0.011,0.011,0.011,0.023,0.023C150.397,318.304,149.223,317.973,148.037,317.631z M152.427,306.116
		c0-0.011,0-0.011-0.011-0.011c0.57-2.531,1.072-5.13,1.528-7.707C153.498,300.975,152.997,303.574,152.427,306.116z
		 M177.519,312.432c-0.103-1.379-0.205-2.736-0.319-4.07C177.314,309.685,177.428,311.053,177.519,312.432z M177.952,328.313
		l-0.011-0.011c0.103-5.278-0.08-10.716-0.422-15.847C177.872,317.597,178.066,323.046,177.952,328.313z M194.05,337.696
		c-0.41-3.865-1.015-7.787-1.699-11.617c0.707,3.842,1.311,7.764,1.721,11.629C194.073,337.696,194.073,337.696,194.05,337.696z
		 M317.927,337.707h-0.011c0.376-3.546,0.912-7.171,1.55-10.716C318.851,330.548,318.315,334.162,317.927,337.707z M334.059,328.313
		l-0.011,0.011c-0.171-7.433,0.285-15.208,0.935-22.026C334.367,313.116,333.899,320.891,334.059,328.313z M335.746,299.037
		c0.103-0.946,0.228-1.835,0.342-2.702C335.986,297.19,335.872,298.09,335.746,299.037z M363.928,317.631
		c-1.174,0.342-2.36,0.684-3.523,1.049c0.011,0,0.023-0.011,0.034-0.023C361.603,318.292,362.765,317.939,363.928,317.631z
		 M362.195,267.549c0.228,0.866,0.467,1.79,0.718,2.748C362.663,269.338,362.412,268.415,362.195,267.549z M370.21,292.778
		c-1.653-4.104-3.135-8.368-4.401-12.438c1.3,4.059,2.759,8.334,4.412,12.415C370.221,292.755,370.221,292.755,370.21,292.778z
		 M377.962,280.465c-0.798-1.573-1.585-3.181-2.303-4.811c0.752,1.608,1.516,3.226,2.314,4.777
		C377.962,280.454,377.962,280.454,377.962,280.465z M407.535,280.75c-0.855,0.308-2.177,0.798-3.842,1.436
		C405.358,281.526,406.68,281.035,407.535,280.75z M387.596,289.232c-2.371,1.186-4.777,2.462-7.148,3.831
		c0,0,0.011-0.011,0.011-0.023C382.819,291.683,385.224,290.406,387.596,289.232z M386.57,250.915c0.832,1.3,1.664,2.576,2.52,3.831
		c0,0.011,0,0.011,0,0.023C388.223,253.515,387.391,252.226,386.57,250.915z M392.293,275.061c-1.163,0.673-2.314,1.368-3.466,2.075
		c0-0.011,0.011-0.011,0.011-0.023C389.978,276.407,391.141,275.711,392.293,275.061z M410.773,253.572
		c-0.559,0.342-1.151,0.707-1.778,1.106C409.621,254.267,410.214,253.914,410.773,253.572z M402.143,259.135
		c-2.827,1.95-5.814,4.138-8.664,6.475v-0.023C396.328,263.262,399.315,261.073,402.143,259.135z"/>
	<path style="fill:#04AC63;" d="M105.354,156.531c0.023,0.046,0.046,0.103,0.08,0.171c0-0.011,0-0.011,0-0.023
		C105.4,156.622,105.377,156.576,105.354,156.531z"/>
</g>
</svg>
