<?xml version="1.0" encoding="utf-8"?>
<!-- Generator: Adobe Illustrator 22.0.1, SVG Export Plug-In . SVG Version: 6.00 Build 0)  -->
<svg version="1.1" id="Layer_1" xmlns="http://www.w3.org/2000/svg" xmlns:xlink="http://www.w3.org/1999/xlink" x="0px" y="0px"
	 viewBox="0 0 1000 1000" style="enable-background:new 0 0 1000 1000;" xml:space="preserve">
<style type="text/css">
	.st0{fill:#006B68;}
	.st1{fill:#80BC00;}
</style>
<g id="XMLID_1251_">
	<path id="XMLID_1259_" class="st0" d="M119.2,403.3c0-2.4,2.1-4.4,4.6-4.4c2.4,0,4.3,2,4.3,4.4c0,2.4-1.9,4.6-4.3,4.6
		C121.3,407.8,119.2,405.6,119.2,403.3 M139.5,416.8h7.4v39.9c0,12.8-12.3,18.1-23.7,18.1c-10.7,0-23.6-5.2-23.6-18.1v-19.2l7.4-4.8
		V456c0,8.6,8.4,11.5,16.2,11.5c8.3,0,16.3-3.3,16.3-11.4V416.8z"/>
	<path id="XMLID_1262_" class="st0" d="M177.4,424.1h-7.3c-3.9,0-5.2,1.7-5.2,5.6v12.1c0,5,2.3,5.6,6.8,5.6h5.7V424.1z M161,468.1
		h1.1c8.7,0,15.3-2.6,15.3-11.1v-2.3h-6.3c-8.1,0-13.7-3.9-13.7-12.9v-12.1c0-7.9,4.7-12.9,12.9-12.9h14.5v38.8
		c0,12.1-5.3,18.1-18.9,19.1L161,468.1z"/>
	<path id="XMLID_1271_" class="st0" d="M215.3,424.1H208c-3.9,0-5.2,1.7-5.2,5.6v12.1c0,5,2.3,5.6,6.8,5.6h5.7V424.1z M202,407.8v-3
		h3.3c-0.6-1-0.9-2.1-0.9-3.1c0-3.1,1.9-5.9,5.9-5.9h3.2v3h-2.1c-2.5,0-3.8,1-3.8,3c0,2.2,1.6,3.1,3.8,3.1h4.3v3H202z M222.7,454.7
		v0.9c0,12.1-5.3,18.1-18.9,19.1l-4.9-6.6h1.1c8.7,0,15.3-2.6,15.3-11.1v-2.3H209c-8.1,0-13.7-3.9-13.7-12.9v-12.1
		c0-7.9,4.7-12.9,12.9-12.9h14.5v30.6h4.5v7.3H222.7z"/>
	<rect id="XMLID_1281_" x="226.7" y="447.4" class="st0" width="20" height="7.3"/>
	<rect id="XMLID_1283_" x="246.1" y="447.4" class="st0" width="12.3" height="7.3"/>
	<rect id="XMLID_1285_" x="257.8" y="447.4" class="st0" width="12.3" height="7.3"/>
	<rect id="XMLID_1287_" x="269.6" y="447.4" class="st0" width="12.3" height="7.3"/>
	<rect id="XMLID_1289_" x="281.3" y="447.4" class="st0" width="12.3" height="7.3"/>
	<rect id="XMLID_1292_" x="293.1" y="447.4" class="st0" width="12.3" height="7.3"/>
	<rect id="XMLID_1293_" x="304.8" y="447.4" class="st0" width="12.3" height="7.3"/>
	<path id="XMLID_1294_" class="st0" d="M361.4,397.8c-2.5,0-4.4-2.1-4.4-4.5c0-2.5,1.9-4.6,4.4-4.6c2.5,0,4.4,2.1,4.4,4.6
		C365.8,395.7,363.8,397.8,361.4,397.8 M367.3,407.8c-2.5,0-4.5-2.1-4.5-4.4c0-2.5,1.9-4.6,4.5-4.6c2.5,0,4.4,2,4.4,4.6
		C371.8,405.8,369.7,407.8,367.3,407.8 M356,407.8c-2.5,0-4.6-2.1-4.6-4.4c0-2.5,2.1-4.6,4.6-4.6c2.4,0,4.4,2,4.4,4.6
		C360.5,405.8,358.4,407.8,356,407.8 M316.6,454.7v-7.3H338v-30.6h7.2v30.6H358v-30.6h7.3v30.6H378v-30.6h7.3v30.6h3.1v7.3H316.6z"
		/>
	<path id="XMLID_1299_" class="st0" d="M387.9,454.7v-7.3h2.9c4,0,5.8-1.3,5.8-5.6v-40.4h7.3v41c0,7.2-3.9,12.3-12.9,12.3H387.9z"/>
	<polygon id="XMLID_1300_" class="st0" points="414.5,458.8 414.5,401.4 421.9,401.4 421.9,454.7 	"/>
	<path id="XMLID_1301_" class="st0" d="M461.7,403.3c0-2.4,2.1-4.4,4.4-4.4c2.4,0,4.4,2.1,4.4,4.4c0,2.4-2.1,4.6-4.4,4.6
		C463.7,407.8,461.7,405.7,461.7,403.3 M466.7,424.1h-7.3c-3.1,0-5.3,1.1-5.3,5.6v12.3c0,4.3,2.9,5.5,6.3,5.5c3.5,0,6.3-1.1,6.3-5.5
		V424.1z M450.4,403.3c0-2.4,2.1-4.4,4.6-4.4c2.4,0,4.5,2.1,4.5,4.4c0,2.4-2.1,4.6-4.5,4.6C452.4,407.8,450.4,405.7,450.4,403.3
		 M474.1,441.8c0,9.8-6.8,12.9-13.7,12.9c-7.6,0-13.7-3.9-13.7-13.1v-11.9c0-8.2,5-12.9,12.7-12.9h14.7V441.8z"/>
	<path id="XMLID_1306_" class="st0" d="M481.3,468.2c7.5-2.4,9.1-5.4,9.1-12.4v-38.9h7.3V458c0,7.8-4,13.6-11.3,16.7L481.3,468.2z"
		/>
	<polygon id="XMLID_1307_" class="st0" points="508.3,458.8 508.3,401.4 515.8,401.4 515.8,454.7 	"/>
	<path id="XMLID_1311_" class="st0" d="M531.3,403.3c0-2.4,1.9-4.5,4.4-4.5c2.4,0,4.3,2.1,4.3,4.5c0,2.4-1.9,4.6-4.3,4.6
		C533.2,407.8,531.3,405.6,531.3,403.3 M522.9,468.2c7.5-2.4,9.1-5.4,9.1-12.4v-38.9h7.3V458c0,7.8-4,13.6-11.3,16.7L522.9,468.2z"
		/>
	<path id="XMLID_1317_" class="st0" d="M570,424.1h-7.3c-3.9,0-5.2,1.7-5.2,5.6v12.1c0,5,2.3,5.6,6.8,5.6h5.7V424.1z M553.5,468.1
		h1.1c8.7,0,15.3-2.6,15.3-11.1v-2.3h-6.3c-8.1,0-13.7-3.9-13.7-12.9v-12.1c0-7.9,4.7-12.9,12.9-12.9h14.5v38.8
		c0,12.1-5.2,18.1-18.9,19.1L553.5,468.1z"/>
	<path id="XMLID_1321_" class="st0" d="M114.2,491.1c0-2.4,2.1-4.4,4.5-4.4s4.5,2,4.5,4.4c0,2.4-2.1,4.6-4.5,4.6
		S114.2,493.5,114.2,491.1 M119.2,512h-7.3c-3.1,0-5.2,1.1-5.2,5.4v12.4c0,3.3,0.9,5.5,5.7,5.5h6.8V512z M102.9,491.1
		c0-2.4,2.1-4.4,4.6-4.4c2.4,0,4.4,2,4.4,4.4c0,2.4-2.1,4.6-4.4,4.6C104.9,495.6,102.9,493.5,102.9,491.1 M119.2,542.5v-4.8
		l-3.5,4.8h-2.7c-9.1,0-13.7-4.8-13.7-12.9v-12.1c0-8.7,5.7-12.9,12.9-12.9h14.5v30.6h4.5v7.3H119.2z"/>
	<rect id="XMLID_1326_" x="130.6" y="535.2" class="st0" width="12.3" height="7.3"/>
	<path id="XMLID_1327_" class="st0" d="M155.8,558.1c0-2.4,1.9-4.4,4.5-4.4c2.4,0,4.3,2,4.3,4.4c0,2.5-1.9,4.4-4.3,4.4
		C157.8,562.5,155.8,560.6,155.8,558.1 M149,562.5c-2.5,0-4.5-1.9-4.5-4.4c0-2.4,1.9-4.4,4.5-4.4c2.4,0,4.5,2,4.5,4.4
		C153.4,560.6,151.4,562.5,149,562.5 M142.4,542.5v-7.3h8.9c3.7,0,5.4-1.7,5.4-5v-25.6h7.3v25.2c0,9-6.1,12.7-13.2,12.7H142.4z"/>
	<path id="XMLID_1331_" class="st0" d="M194.4,512h-7.3c-3.9,0-5.2,1.7-5.2,5.6v12.1c0,5,2.3,5.6,6.8,5.6h5.7V512z M178,555.9h1.1
		c8.7,0,15.3-2.6,15.3-11.1v-2.3h-6.3c-8.1,0-13.7-3.9-13.7-12.9v-12.1c0-7.9,4.7-12.9,12.9-12.9h14.5v38.8
		c0,12.1-5.3,18.1-18.9,19.1L178,555.9z"/>
	<path id="XMLID_1334_" class="st0" d="M209,556c7.5-2.4,9.1-5.4,9.1-12.4v-38.9h7.3v30.6h4.6v7.3h-4.6v3.3c0,7.8-4,13.6-11.3,16.7
		L209,556z"/>
	<rect id="XMLID_1335_" x="229.4" y="535.2" class="st0" width="12.3" height="7.3"/>
	<path id="XMLID_1336_" class="st0" d="M264.4,491.1c0-2.4,2.2-4.4,4.6-4.4c2.4,0,4.5,2,4.5,4.4c0,2.4-2.1,4.6-4.5,4.6
		C266.6,495.6,264.4,493.5,264.4,491.1 M269.6,512h-7.3c-3.1,0-5.3,1.1-5.3,5.6v17.7h12.6V512z M253.2,491.1c0-2.4,2.1-4.4,4.6-4.4
		c2.4,0,4.3,2,4.3,4.4c0,2.4-1.9,4.6-4.3,4.6C255.3,495.6,253.2,493.5,253.2,491.1 M241.2,542.5v-7.3h8.4v-17.7
		c0-8.2,5-12.9,12.7-12.9H277v30.6h4.5v7.3H241.2z"/>
	<path id="XMLID_1341_" class="st0" d="M281,542.5v-7.3h2.8c4,0,5.8-1.3,5.8-5.6v-40.4h7.3v41c0,7.2-3.9,12.3-12.9,12.3H281z"/>
	<polygon id="XMLID_1342_" class="st0" points="307.6,546.7 307.6,489.3 315,489.3 315,542.5 	"/>
	<path id="XMLID_1343_" class="st0" d="M345.4,512h-7.3c-3.9,0-5.3,1.7-5.3,5.6v12.1c0,5,2.3,5.6,6.8,5.6h5.7V512z M329,555.9h1.1
		c8.7,0,15.3-2.6,15.3-11.1v-2.3h-6.3c-8.1,0-13.7-3.9-13.7-12.9v-12.1c0-7.9,4.7-12.9,12.9-12.9h14.5v38.8
		c0,12.1-5.2,18.1-18.9,19.1L329,555.9z"/>
	<path id="XMLID_1346_" class="st0" d="M392.7,491.1c0-2.4,2.1-4.4,4.5-4.4c2.4,0,4.5,2,4.5,4.4c0,2.4-2.1,4.6-4.5,4.6
		C394.7,495.6,392.7,493.5,392.7,491.1 M397.7,512h-7.3c-3.1,0-5.2,1.1-5.2,5.4v12.4c0,3.3,0.9,5.5,5.7,5.5h6.8V512z M381.4,491.1
		c0-2.4,2.1-4.4,4.6-4.4c2.4,0,4.5,2,4.5,4.4c0,2.4-2.1,4.6-4.5,4.6C383.4,495.6,381.4,493.5,381.4,491.1 M397.7,542.5v-4.8
		l-3.5,4.8h-2.7c-9.1,0-13.7-4.8-13.7-12.9v-12.1c0-8.7,5.7-12.9,12.9-12.9h14.5v30.6h4.4v7.3H397.7z"/>
	<rect id="XMLID_1351_" x="409.1" y="535.2" class="st0" width="11.6" height="7.3"/>
	<path id="XMLID_1352_" class="st0" d="M433.6,558.1c0-2.4,1.9-4.4,4.5-4.4c2.4,0,4.3,2,4.3,4.4c0,2.5-1.9,4.4-4.3,4.4
		C435.6,562.5,433.6,560.6,433.6,558.1 M426.8,562.5c-2.5,0-4.5-1.9-4.5-4.4c0-2.4,1.9-4.4,4.5-4.4c2.4,0,4.4,2,4.4,4.4
		C431.2,560.6,429.2,562.5,426.8,562.5 M420.2,542.5v-7.3h8.9c3.7,0,5.4-1.7,5.4-5v-25.6h7.3v25.2c0,9-6,12.7-13.2,12.7H420.2z"/>
	<path id="XMLID_1356_" class="st0" d="M452.2,542.5v-7.3h22v-12.3c0-8.1-4.7-11-10.7-11h-4.9v-7.3h5.4c8.9,0,17.5,6,17.5,17.5v13.1
		h4.6v7.3H452.2z"/>
	<rect id="XMLID_1357_" x="485.4" y="535.2" class="st0" width="12.3" height="7.3"/>
	<polygon id="XMLID_1358_" class="st0" points="497.2,542.5 497.2,535.2 505.8,535.2 505.8,489.2 513,489.2 513,535.2 517.6,535.2 
		517.6,542.5 	"/>
	<path id="XMLID_1359_" class="st0" d="M530.6,558.1c0-2.4,1.9-4.4,4.5-4.4c2.4,0,4.3,2,4.3,4.4c0,2.5-1.9,4.4-4.3,4.4
		C532.5,562.5,530.6,560.6,530.6,558.1 M517.1,542.5v-7.3h14.3v-30.6h7.3v30.6h4.6v7.3H517.1z"/>
	<path id="XMLID_1362_" class="st0" d="M542.7,542.5v-7.3h2.9c4,0,5.8-1.3,5.8-5.6v-40.4h7.3v41c0,7.2-3.9,12.3-12.9,12.3H542.7z"/>
	<polygon id="XMLID_1363_" class="st0" points="569.3,546.7 569.3,489.3 576.7,489.3 576.7,542.5 	"/>
	<polygon id="XMLID_1364_" class="st1" points="118,605.4 118,587.4 112.3,605.4 108.5,605.4 102.8,587.4 102.8,605.4 99.9,605.4 
		99.9,583.7 104.6,583.7 110.4,602.7 116.3,583.7 120.9,583.7 120.9,605.4 	"/>
	<path id="XMLID_1365_" class="st1" d="M130.4,605.2c-0.6,0.3-1.4,0.5-2.6,0.5c-0.5,0-2.5-0.1-2.5-2.3V590h3.1v12.7
		c0,0.5,0.2,0.8,0.7,0.8c0.2,0,0.5,0,0.8-0.1L130.4,605.2z M126.9,586.9c-1,0-2-0.9-2-1.9c0-1.1,1-2,2-2c1.1,0,2,0.9,2,2
		C128.9,586.1,128,586.9,126.9,586.9"/>
	<path id="XMLID_1368_" class="st1" d="M147.9,605.2c-0.6,0.3-1.4,0.5-2.5,0.5c-0.5,0-2.6-0.1-2.6-2.3V595c0-2-0.5-2.5-2-2.5
		c-2.1,0-4.3,1.6-5,2.2v10.7h-3.1V590h3.1v2.1c1.2-1.1,3.5-2.3,5.5-2.3c2.9,0,4.6,0.7,4.6,5v7.9c0,0.5,0.2,0.8,0.7,0.8
		c0.2,0,0.5,0,0.8-0.1L147.9,605.2z"/>
	<path id="XMLID_1369_" class="st1" d="M155.3,605.2c-0.6,0.3-1.4,0.5-2.6,0.5c-0.5,0-2.5-0.1-2.5-2.3V590h3.1v12.7
		c0,0.5,0.2,0.8,0.7,0.8c0.2,0,0.5,0,0.8-0.1L155.3,605.2z M151.8,586.9c-1,0-2-0.9-2-1.9c0-1.1,1-2,2-2c1.1,0,2,0.9,2,2
		C153.8,586.1,153,586.9,151.8,586.9"/>
	<path id="XMLID_1372_" class="st1" d="M157.8,602.3c0.8,0.4,2.7,0.9,4.1,0.9c2.2,0,3.7-0.5,3.7-2.2c0-2.8-8-2.1-8-7
		c0-3.4,3.2-4.3,6.1-4.3c1.9,0,3.3,0.3,4.4,0.8l-0.5,2.5c-1.2-0.6-2.6-0.8-3.8-0.8c-2.1,0-3.1,0.5-3.1,1.6c0,2.5,8,1.8,8,7.2
		c0,2.9-2.8,4.7-6.2,4.7c-2.4,0-4-0.3-5.3-0.7L157.8,602.3z"/>
	<path id="XMLID_1373_" class="st1" d="M179.5,605.1c-1.1,0.4-1.7,0.6-3.5,0.6c-2.1,0-3.2-0.9-3.2-4v-9.3h-2.5l0.5-2.5h2v-4.1l3.1-1
		v5.2h3.2v2.5h-3.2v8.9c0,1.6,0.4,1.8,1.6,1.8c0.4,0,1.2-0.2,1.5-0.4L179.5,605.1z"/>
	<path id="XMLID_1374_" class="st1" d="M182.2,605.4V590h3.1v2c0.6-1.4,1.8-2.3,2.9-2.3c1.2,0,2.1,0.4,2.9,0.8l-0.6,2.6
		c-0.8-0.3-1.6-0.5-2.6-0.5c-1.4,0-2.3,1.4-2.7,2.1v10.8H182.2z"/>
	<path id="XMLID_1375_" class="st1" d="M192.1,590h3.3l4,11.1l3.4-11.1h3.4l-5.5,16c-1.6,4.6-3.1,5.8-5.9,5.8
		c-1.4,0-2.8-0.4-3.2-0.6l0.6-2.6c0.7,0.3,1.7,0.5,2.6,0.5c0.8,0,2,0,3.3-4.1L192.1,590z"/>
	<path id="XMLID_1376_" class="st1" d="M225.7,597.8c0-4.8-1.8-5.7-4.2-5.7c-2.5,0-4.2,0.9-4.2,5.7c0,4.8,1.7,5.5,4.2,5.5
		C223.9,603.3,225.7,602.5,225.7,597.8 M213.9,597.8c0-6.4,3.5-8.1,7.5-8.1c4,0,7.5,1.7,7.5,8.1c0,6.4-3.5,7.9-7.5,7.9
		C217.5,605.7,213.9,604.2,213.9,597.8"/>
	<path id="XMLID_1379_" class="st1" d="M233.4,605.4v-13h-2.5l0.5-2.5h2v-2.2c0-2.7,0.5-5,4.3-5c1.2,0,2.2,0.1,3.2,0.5l-0.6,2.6
		c-0.7-0.2-1.4-0.4-2.1-0.4c-1.4,0-1.8,0.3-1.8,1.9v2.6h3.4v2.5h-3.4v13H233.4z"/>
	<polygon id="XMLID_1380_" class="st1" points="267,605.4 267,587.4 261.3,605.4 257.5,605.4 251.8,587.4 251.8,605.4 248.8,605.4 
		248.8,583.7 253.6,583.7 259.4,602.7 265.3,583.7 269.9,583.7 269.9,605.4 	"/>
	<path id="XMLID_1381_" class="st1" d="M289.1,605.2c-0.6,0.3-1.5,0.5-2.5,0.5c-2.5,0-2.6-2-2.6-2.3c-1,0.9-3.1,2.3-5.2,2.3
		c-2.9,0-4.7-0.7-4.7-5V590h3.1v10.3c0,2.1,0.6,2.5,2,2.5c2,0,4.2-1.4,4.8-2.2V590h3.1v12.7c0,0.5,0.3,0.8,0.8,0.8
		c0.2,0,0.5,0,0.8-0.1L289.1,605.2z"/>
	<path id="XMLID_1382_" class="st1" d="M306.6,605.2c-0.6,0.3-1.4,0.5-2.5,0.5c-0.5,0-2.6-0.1-2.6-2.3V595c0-2-0.5-2.5-2-2.5
		c-2.1,0-4.3,1.6-5,2.2v10.7h-3.1V590h3.1v2.1c1.2-1.1,3.5-2.3,5.5-2.3c2.9,0,4.6,0.7,4.6,5v7.9c0,0.5,0.2,0.8,0.7,0.8
		c0.2,0,0.5,0,0.8-0.1L306.6,605.2z"/>
	<path id="XMLID_1383_" class="st1" d="M314,605.2c-0.6,0.3-1.4,0.5-2.6,0.5c-0.5,0-2.5-0.1-2.5-2.3V590h3.1v12.7
		c0,0.5,0.2,0.8,0.7,0.8c0.2,0,0.5,0,0.8-0.1L314,605.2z M310.5,586.9c-1,0-2-0.9-2-1.9c0-1.1,1-2,2-2c1.1,0,2,0.9,2,2
		C312.4,586.1,311.6,586.9,310.5,586.9"/>
	<path id="XMLID_1386_" class="st1" d="M327.3,605c-1.1,0.4-2.8,0.7-4.6,0.7c-2.9,0-6.9-2-6.9-8.1c0-3.4,2.1-7.9,7.4-7.9
		c2.1,0,3.7,0.3,4.8,0.8l-0.5,2.6c-1-0.4-2.7-0.7-3.9-0.7c-4.1,0-4.5,3.3-4.5,5.4c0,4.1,2.1,5.3,5,5.3c1,0,2.9-0.3,3.8-0.7
		L327.3,605z"/>
	<path id="XMLID_1387_" class="st1" d="M336.1,605.2c-0.6,0.3-1.4,0.5-2.6,0.5c-0.5,0-2.5-0.1-2.5-2.3V590h3.1v12.7
		c0,0.5,0.2,0.8,0.7,0.8c0.2,0,0.5,0,0.8-0.1L336.1,605.2z M332.6,586.9c-1,0-2-0.9-2-1.9c0-1.1,1-2,2-2c1.1,0,2,0.9,2,2
		C334.5,586.1,333.7,586.9,332.6,586.9"/>
	<path id="XMLID_1390_" class="st1" d="M341.5,601.7c0.7,0.7,2.4,1.4,3.6,1.4c2.8,0,4.3-1.1,4.3-5.3c0-3.7-0.9-5.4-3.8-5.4
		c-2.7,0-4.1,2-4.1,4V601.7z M338.4,611.6V590h3.1v2c0.8-1,2.3-2.3,5.1-2.3c2.9,0,6.1,1.8,6.1,8c0,4.5-2,8-6.9,8
		c-2.1,0-3.7-0.7-4.3-1.3v7.2H338.4z"/>
	<path id="XMLID_1393_" class="st1" d="M365,598.2c-0.5,0-1.6-0.1-2.2-0.1c-2.5,0-3.9,0.7-3.9,2.8c0,2.2,2,2.3,2.8,2.3
		c1.9,0,3.4-1.4,3.4-3.4V598.2z M370,605.2c-0.8,0.4-1.4,0.5-2.5,0.5c-2.3,0-2.6-1.6-2.6-2.2c-0.5,0.9-1.5,2.2-4.5,2.2
		c-3.4,0-4.9-1.7-4.9-4.5c0-4.1,3.3-5.3,6.9-5.3c0.8,0,2.1,0.1,2.5,0.2v-1.4c0-2.2-1.9-2.3-3.7-2.3c-1.9,0-3.5,0.4-4.6,0.8l0.5-2.6
		c1.1-0.4,3-0.8,4.9-0.8c4,0,5.9,1.2,5.9,5.7v7.2c0,0.6,0.2,0.8,0.8,0.8c0.3,0,0.5,0,0.8-0.1L370,605.2z"/>
	<path id="XMLID_1396_" class="st1" d="M377.4,605.2c-0.6,0.3-1.4,0.5-2.5,0.5c-0.5,0-2.6-0.1-2.6-2.3v-19.7h3.1v19
		c0,0.5,0.2,0.8,0.7,0.8c0.2,0,0.5,0,0.8-0.1L377.4,605.2z"/>
	<path id="XMLID_1397_" class="st1" d="M390.8,595.3c-0.8,0.3-2.4,1.1-2.4,4.1c0,2.9,2.1,3.6,4,3.6c1.6,0,3.3-0.9,3.9-1.6
		C394.5,599.8,392.4,597.2,390.8,595.3 M404,605.5c-0.6,0.2-1.5,0.2-2.1,0.2c-1.4,0-2.7-1-3.8-2.3c-1.2,1.3-3.3,2.3-5.9,2.3
		c-3.9,0-7-1.7-7-5.9c0-4.3,2.4-5.9,4.2-6.6c-0.8-1.1-1.9-2.9-1.9-5c0-2.5,1.7-4.9,5.3-4.9c2.3,0,4,0.5,5.1,1l-0.5,2.8
		c-1.3-0.6-2.7-0.9-4.1-0.9c-1.6,0-2.6,0.5-2.6,2.1c0,2.5,1.7,4.6,7.3,10.7c0.9-1.7,1-3.5,1-6.3h5.7l-0.5,2.7h-2.6
		c0,1.4-0.4,4.1-1.6,5.9c1.2,1.4,1.7,1.9,2.9,1.9c0.5,0,1.1-0.1,1.5-0.2L404,605.5z"/>
	<path id="XMLID_1400_" class="st1" d="M421.8,594.6c1.6,0,3.4-0.8,3.4-4c0-2.5-1.4-4.1-3.4-4.1h-4.3v8.1H421.8z M425.6,605.4
		l-4.2-8h-4v8h-3.3v-21.8h6.9c5.3,0,7.5,2.8,7.5,6.9c0,3.1-1.4,5.3-3.9,6.3l4.6,8.6H425.6z"/>
	<path id="XMLID_1403_" class="st1" d="M447.4,605.2c-0.6,0.3-1.5,0.5-2.5,0.5c-2.5,0-2.6-2-2.6-2.3c-1,0.9-3.1,2.3-5.2,2.3
		c-2.9,0-4.7-0.7-4.7-5V590h3.1v10.3c0,2.1,0.6,2.5,2,2.5c2,0,4.2-1.4,4.8-2.2V590h3.1v12.7c0,0.5,0.3,0.8,0.8,0.8
		c0.2,0,0.5,0,0.8-0.1L447.4,605.2z"/>
	<path id="XMLID_1404_" class="st1" d="M449.6,605.4V590h3.1v2c0.6-1.4,1.8-2.3,2.9-2.3c1.2,0,2.1,0.4,2.9,0.8l-0.6,2.6
		c-0.8-0.3-1.6-0.5-2.6-0.5c-1.3,0-2.3,1.4-2.7,2.1v10.8H449.6z"/>
	<path id="XMLID_1405_" class="st1" d="M469.8,598.2c-0.5,0-1.6-0.1-2.2-0.1c-2.5,0-3.9,0.7-3.9,2.8c0,2.2,2,2.3,2.8,2.3
		c1.9,0,3.4-1.4,3.4-3.4V598.2z M474.8,605.2c-0.8,0.4-1.4,0.5-2.5,0.5c-2.3,0-2.6-1.6-2.6-2.2c-0.5,0.9-1.5,2.2-4.5,2.2
		c-3.4,0-4.9-1.7-4.9-4.5c0-4.1,3.3-5.3,6.9-5.3c0.8,0,2.1,0.1,2.5,0.2v-1.4c0-2.2-1.9-2.3-3.7-2.3c-1.9,0-3.5,0.4-4.6,0.8l0.5-2.6
		c1.1-0.4,3-0.8,4.9-0.8c4,0,5.9,1.2,5.9,5.7v7.2c0,0.6,0.2,0.8,0.8,0.8c0.3,0,0.5,0,0.8-0.1L474.8,605.2z"/>
	<path id="XMLID_1408_" class="st1" d="M482.2,605.2c-0.6,0.3-1.4,0.5-2.5,0.5c-0.5,0-2.6-0.1-2.6-2.3v-19.7h3.1v19
		c0,0.5,0.2,0.8,0.7,0.8c0.2,0,0.5,0,0.8-0.1L482.2,605.2z"/>
	<path id="XMLID_1409_" class="st1" d="M498.1,587.9l-3.2,9.8h6.2L498.1,587.9z M503.7,605.4l-1.6-5h-8l-1.6,5H489l7.4-21.8h3.6
		l7.4,21.8H503.7z"/>
	<path id="XMLID_1412_" class="st1" d="M521.5,605.4v-13H519l0.5-2.5h2v-2.2c0-2.7,0.5-5,4.3-5c1.2,0,2.2,0.1,3.2,0.5l-0.6,2.6
		c-0.7-0.2-1.5-0.4-2.1-0.4c-1.4,0-1.8,0.3-1.8,1.9v2.6h3.4v2.5h-3.4v13H521.5z M510.8,605.4v-13h-2.5l0.5-2.5h2v-2.2
		c0-2.7,0.5-5,4.3-5c1.2,0,2.2,0.1,3.2,0.5l-0.6,2.6c-0.7-0.2-1.5-0.4-2.1-0.4c-1.4,0-1.8,0.3-1.8,1.9v2.6h3.4v2.5h-3.4v13H510.8z"
		/>
	<path id="XMLID_1415_" class="st1" d="M539.5,598.2c-0.5,0-1.6-0.1-2.2-0.1c-2.5,0-3.9,0.7-3.9,2.8c0,2.2,2,2.3,2.8,2.3
		c1.9,0,3.4-1.4,3.4-3.4V598.2z M544.5,605.2c-0.8,0.4-1.4,0.5-2.5,0.5c-2.3,0-2.6-1.6-2.6-2.2c-0.5,0.9-1.5,2.2-4.5,2.2
		c-3.4,0-4.9-1.7-4.9-4.5c0-4.1,3.3-5.3,6.9-5.3c0.8,0,2.1,0.1,2.5,0.2v-1.4c0-2.2-1.9-2.3-3.7-2.3c-1.9,0-3.5,0.4-4.6,0.8l0.5-2.6
		c1.1-0.4,3-0.8,4.9-0.8c4,0,5.9,1.2,5.9,5.7v7.2c0,0.6,0.2,0.8,0.8,0.8c0.3,0,0.5,0,0.8-0.1L544.5,605.2z"/>
	<path id="XMLID_1418_" class="st1" d="M551.9,605.2c-0.6,0.3-1.4,0.5-2.6,0.5c-0.5,0-2.5-0.1-2.5-2.3V590h3.1v12.7
		c0,0.5,0.2,0.8,0.7,0.8c0.2,0,0.5,0,0.8-0.1L551.9,605.2z M548.4,586.9c-1,0-2-0.9-2-1.9c0-1.1,1-2,2-2c1.1,0,2,0.9,2,2
		C550.4,586.1,549.6,586.9,548.4,586.9"/>
	<path id="XMLID_1421_" class="st1" d="M554.3,605.4V590h3.1v2c0.6-1.4,1.8-2.3,2.9-2.3c1.2,0,2.1,0.4,2.9,0.8l-0.6,2.6
		c-0.8-0.3-1.6-0.5-2.6-0.5c-1.4,0-2.3,1.4-2.7,2.1v10.8H554.3z"/>
	<path id="XMLID_1422_" class="st1" d="M565.9,602.3c0.8,0.4,2.7,0.9,4.1,0.9c2.2,0,3.7-0.5,3.7-2.2c0-2.8-8-2.1-8-7
		c0-3.4,3.2-4.3,6.1-4.3c1.9,0,3.3,0.3,4.4,0.8l-0.5,2.5c-1.2-0.6-2.6-0.8-3.8-0.8c-2.1,0-3.1,0.5-3.1,1.6c0,2.5,8,1.8,8,7.2
		c0,2.9-2.7,4.7-6.2,4.7c-2.4,0-4-0.3-5.3-0.7L565.9,602.3z"/>
	<path id="XMLID_1423_" class="st1" d="M779,611.8c-66.9,0-121.3-54.4-121.3-121.3l0.9-16.8h19v-25.4l2.1,0v-4.1h9.1l2.6,4.4h4.7
		v32.4h3.8v4.5h1.4v-26h15.3v6.7h5.1v12.5h8.5v-12.1h11.4l4.1,5.2v13.8h23.4v3.5h-26.9v-16.1l-2.3-2.9h-6.2v16.3h-4.7v-4.2h-10.8
		v-12.5h-5.1v-6.7h-8.3v26.1h-8.4v-4.6h-3.8v-32.4h-3.2l-2.6-4.4h-3.6v4.1h-2.1v25.4H662l-0.7,13.3c0,64.8,52.8,117.6,117.7,117.6
		c64.8,0,117.5-52.6,117.7-117.2h-12v-20.7h-7.1v-10.6h-8.3l0-4.5h-10.1v3.2l-2,2.3v19.2h-10.3v-14.3l-2.6-2.9h-5.7v-4.8l-6.5,0
		v31.3h-10.5v-11.6h-9.3v11.6h-24.7v-3.5h21.2v-11.6H825v11.6h3.5v-31.3l13.5,0v4.8h3.8l4.5,5.1v12.1h3.3v-17l2-2.3v-5.4h17.2l0,4.6
		h8.3v10.6h7.1v20.7h12v3.1C900.2,557.5,845.8,611.8,779,611.8"/>
	<path id="XMLID_1424_" class="st1" d="M733.1,563.1c-1,0-2,0.3-2.9,0.8c-2.5,1.8-3.4,5.2-1.8,7.9c0.6,1.3,1.9,2.1,3.8,2.6
		c0.5,0,1.1,0.1,1.8,0.1c7.5,0,13.9-4.6,19.4-8.9l1-0.8l0.7,1.1c2.5,4.2,6.8,7.2,11.4,8.1c0.3,0,0.6,0,1,0c3.3,0,6.9-1.6,7.6-5
		c0.4-2.5-1.1-5.2-3.5-6.4c-1.5-0.6-3.3-0.5-5.8,0.5c-0.6,0.2-0.8,1-1.1,2.1c-0.3,1.2-0.7,2.9-2.5,2.9c-1.3,0-3.4-1.1-4.2-2.6
		c-0.4-0.8-0.4-1.7,0.1-2.4c3.8-5.7,8.7-9.7,13.5-13.6c2.2-1.8,4.5-3.6,6.6-5.6l0.8-0.7l0.8,0.7c2.1,1.9,4.3,3.7,6.5,5.5
		c5.1,4,10.3,8.1,13.6,14.3c0.2,0.3,0.4,0.8,0.1,1.5c-0.5,1.2-2.5,2.9-4.1,3c-0.9,0.2-1.5-0.1-1.8-0.4c-0.6-0.6-0.5-1.3-0.5-2
		c0-0.5,0-1-0.1-1.2c-0.7-1.5-2.2-1.8-3.8-2.2c-2.9-0.7-6,1.5-6.7,4.6c-0.3,1.4-0.1,2.8,0.7,4c1.6,2.1,3.8,3.2,6.3,3.2
		c5,0,10.4-4.2,13-8.2l0.7-1.1l1,0.8c5,4,11.5,8.6,18.1,8.6c1.8,0,3.5-0.3,5.1-1c1.2-0.5,2.1-1.6,2.5-3c0.4-1.5,0.2-3.1-0.7-4.3
		c-1.1-1.6-2.9-2.6-4.9-2.6c-2,0-3.9,1-4.9,2.5l-0.5,0.8l-0.9-0.3c-3.4-1.3-7.6-3.2-9.7-6.9c-0.8-1.2-0.4-3.1,0.2-4.4
		c0.7-1.2,1.4-1.5,2-1.5c0.2,0,0.5,0.1,0.7,0.2c1.6,1,3.3,1.6,4.9,1.6c2.9,0,5-1.7,5.7-4.4c0.3-1.4,0-2.9-0.9-4.1
		c-0.9-1.3-2.2-2.2-3.7-2.6c-0.2,0-0.6-0.1-0.9-0.1c-2.6,0-5.2,1.3-6.9,3.3c-1.1,1.3-1.6,2.9-2.1,4.6c-0.5,1.5-1,3-1.9,4.4l-0.8,1.1
		L784,537.9l0.9-0.9c22.7-21.8,53-29.5,77.9-31.8c-3.2-0.3-6.4-0.4-9.6-0.4c-27.5,0-53.5,9.5-73.1,26.6l-0.7,0.6l-0.8-0.6
		c-10.3-7.6-24.1-16.9-39.9-21.6c-14.8-4.3-29.6-6-43.8-4.8c24.9,2.2,55.3,9.9,78,31.8l0.9,0.9l-20.9,19.4l-0.8-1.1
		c-0.9-1.4-1.4-2.9-1.9-4.4c-0.5-1.7-1-3.3-2.1-4.6c-1.5-1.5-3.1-2.4-5.3-3.3c-3.4-0.7-6.4,1.2-7.1,4.6c-0.4,2.5,1.1,5.2,3.5,6.4
		c0.3,0.1,0.8,0.2,1.4,0.2c1.6,0,3.1-0.6,4.6-1.3l0.7-0.3c0.3-0.1,0.5-0.1,0.7-0.1c0.9,0,1.8,0.6,2.4,1.7c0.6,1.2,0.9,3,0.1,4.2
		c-2,3.6-6.2,5.5-9.6,6.8l-0.8,0.3l-0.5-0.7C736.9,564.1,735,563.1,733.1,563.1 M733.9,576.8c-0.7,0-1.4,0-2.2-0.1
		c-2.7-0.7-4.5-1.9-5.5-3.8c-2.1-3.7-1-8.4,2.6-11c3.6-2.1,8-1.1,10.6,1.8c2.9-1.1,6.1-2.8,7.7-5.5c0.1-0.2,0.2-0.6,0-1.3
		c-0.2-0.6-0.4-0.9-0.6-1.1l-0.5,0.2c-1.6,0.7-3.5,1.4-5.5,1.4c-0.8,0-1.5-0.1-2.3-0.4c-3.4-1.7-5.4-5.4-4.9-9c0.9-4,4.1-6.6,8-6.6
		c0.7,0,1.3,0.1,2,0.2l0.2,0.1c2.5,1,4.4,2,6.3,3.9c1.5,1.7,2.1,3.6,2.6,5.5c0.3,0.9,0.6,1.7,0.9,2.5l17-15.8
		c-25.9-24.3-61.8-30.2-87.5-31l-10.6-0.3l10.4-2c18.1-3.5,37.4-2.4,56.7,3.2c15.9,4.6,29.6,13.8,39.9,21.4
		c19.9-17.2,46.1-26.6,73.9-26.6c7.4,0,14.7,0.7,21.9,2l10.7,2l-10.8,0.3c-25.7,0.7-61.6,6.7-87.5,31l17,15.8
		c0.3-0.8,0.6-1.7,0.9-2.5c0.6-1.8,1.2-3.7,2.6-5.4c2.4-2.9,6.5-4.6,10.1-4c2.2,0.5,4,1.8,5.2,3.6c1.3,1.9,1.7,4,1.2,6
		c-1,3.8-4,6.2-7.9,6.2c-1.8,0-3.7-0.5-5.5-1.5c-0.3,0.6-0.6,1.7-0.3,2.1c1.6,2.8,4.8,4.5,7.7,5.6c1.5-1.8,3.8-2.8,6.3-2.8
		c2.8,0,5.4,1.3,6.9,3.6c1.3,1.8,1.7,4.1,1,6.3c-0.6,2.1-2,3.7-3.8,4.5c-1.9,0.8-3.9,1.2-6,1.2c-6.9,0-13.5-4.3-18.6-8.3
		c-3.2,4.2-8.8,8.2-14.2,8.2c-3.2,0-6.1-1.5-8.2-4.2c-1.2-1.8-1.6-4-1.1-6c0.9-3.7,4.3-6.5,7.9-6.5c0.6,0,1.1,0.1,1.7,0.2
		c1.9,0.5,4.1,1,5.3,3.3c0.5,0.7,0.5,1.7,0.5,2.5v0c0.5-0.1,1.4-0.9,1.8-1.3c-3-5.5-7.8-9.3-12.8-13.2c-2-1.5-4-3.1-5.9-4.8
		c-1.9,1.8-4,3.4-5.9,5c-4.9,4-9.4,7.7-13,13.1c0.1,0.4,1.4,1.3,2.1,1.3c0.1-0.2,0.3-0.8,0.4-1.2c0.3-1.3,0.8-3,2.5-3.7
		c3.1-1.2,5.4-1.3,7.7-0.4c3.3,1.7,5.3,5.4,4.8,8.9c-1.1,5.4-6.7,7.4-11.3,6.9c-4.9-0.9-9.5-3.9-12.4-8.1
		C748.2,572.5,741.6,576.8,733.9,576.8"/>
	<path id="XMLID_1427_" class="st1" d="M823.1,420.5l2.9,2.2l-2.1-3c-13.6-19.4-28.8-20-33.6-19.6c1-1,2.7-2.6,5.1-3.5l1.7-0.6
		l-1.7-0.5c-3.6-1-8.7-1.8-13.1,1.8c-0.7-3.7-2.3-7.6-3.4-8.3c-0.3-0.2-0.6-0.2-0.7-0.2c-1.2,0.3-3.2,3.4-4.2,8.5
		c-3.1-2.5-8.4-3.6-12.8-1.4l-1.3,0.6l1.4,0.5c0,0,2.9,1,4.6,3.5c-19.8,0.5-27,10.2-32.8,18c-0.4,0.6-0.8,1.1-1.3,1.7l0.9,0.8
		c8.1-7.5,20.6-10.1,26.6-8.5c-7.2,2.9-21.1,11.4-25.8,35.2l-0.6,3.1l1.7-2.7c7.9-12.5,15.7-20.1,24.8-24.3
		c-5.9,9-14.1,24.6-10.9,38.6l0.6,2.6l0.6-2.6c3-13.8,11.1-25.3,16.5-30.5c-4.3,15.3-2.6,30.1-0.4,36.1l1,2.6l0.2-2.8
		c0.8-12.7,4.3-26.3,6.9-32.9l1.8,12.6l-1.1,0.3l0.8,17.3h-1.4l1.3,17.8l-1.6,0.4l0.1,0.5c0,0.1,1.1,11.2,1.5,17.4
		c-2.1,1.1-4.2,3.2-4.8,3.9v1.2h15.5v-1.1l0.1-0.1c-1.6-1.9-3.8-3.2-4.7-3.7l1.7-18.6l-1.7,0.1l1.2-18.2l-1.2,0.2l0.8-17.3h-1.3
		c0.3-1.5,0.9-5.7,1.5-12.8c3.4,5.7,6.3,17.6,7.8,32.5l0.5,4.4l0.7-4.4c2.9-18,0.1-31.8-1.1-36.6c4.6,4.5,13.8,20.3,16.9,31.6
		l0.9,3.4l0.3-3.5c1.1-15.1-2.3-26.5-11.9-38.9c3.9,1.1,8.7,4.4,13.7,9.4c4.7,4.7,9.3,10.6,11.7,15.2l1.4,2.7l-0.3-3
		c-1.9-18.4-15.7-31.4-25.5-35.4C806.1,410.5,819.1,417.5,823.1,420.5"/>
</g>
</svg>
