<?xml version="1.0" encoding="iso-8859-1"?>
<!-- Generator: Adobe Illustrator 23.0.1, SVG Export Plug-In . SVG Version: 6.00 Build 0)  -->
<svg version="1.1" id="Layer_1" xmlns="http://www.w3.org/2000/svg" xmlns:xlink="http://www.w3.org/1999/xlink" x="0px" y="0px"
	 viewBox="0 0 512 512" style="enable-background:new 0 0 512 512;" xml:space="preserve">
<g>
	<path style="fill:#CA1517;" d="M256,481C131.935,481,31,380.065,31,256S131.935,31,256,31s225,100.934,225,225S380.066,481,256,481
		z M256,37.009C135.248,37.009,37.009,135.248,37.009,256S135.248,474.991,256,474.991S474.991,376.752,474.991,256
		S376.752,37.009,256,37.009z"/>
	<path style="fill:none;stroke:#26231E;stroke-width:0.1605;stroke-miterlimit:10;" d="M368.162,368.162"/>
	<path style="fill:none;stroke:#26231E;stroke-width:0.1605;stroke-miterlimit:10;" d="M368.162,143.838"/>
	<path style="fill:none;stroke:#26231E;stroke-width:0.1605;stroke-miterlimit:10;" d="M368.162,368.162"/>
	<path style="fill:none;stroke:#26231E;stroke-width:0.1605;stroke-miterlimit:10;" d="M368.162,143.838"/>
	<g>
		<g>
			<path style="fill:#00923D;" d="M279.339,215.835c-13.28,2.086-23.427,13.569-23.427,27.428c0,0.689,0.025,1.371,0.077,2.043
				c3.311-10.981,13.254-19.103,25.172-19.699c-6.163,4.776-10.13,12.25-10.13,20.643c0,0.817,0.034,1.617,0.111,2.417
				c0.094,1.022,0.247,2.026,0.452,3.014c0.332,1.567,0.809,3.09,1.413,4.537c0.026-1.575,0.179-3.124,0.442-4.631
				c0.298-1.677,0.741-3.303,1.32-4.861c2.128-5.806,6.052-10.734,11.092-14.131c0.928-0.622,1.9-1.186,2.903-1.698
				c0.451,16.804,0.496,38.562-1.539,52.306c1.486,1.104,2.954,2.223,4.379,3.329c0.206,0.159,0.411,0.319,0.617,0.478
				c0.206-0.159,0.413-0.319,0.619-0.48c1.426-1.105,2.894-2.225,4.38-3.329c-2.004-13.7-1.784-35.36-1.241-52.141
				c0.895,0.47,1.767,0.976,2.601,1.535c5.039,3.397,8.964,8.326,11.092,14.131c0.579,1.558,1.022,3.184,1.32,4.861
				c0.264,1.507,0.417,3.056,0.443,4.631c0.604-1.447,1.081-2.971,1.413-4.537c0.205-0.987,0.358-1.992,0.451-3.014
				c0.077-0.8,0.111-1.6,0.111-2.417c0-8.393-3.967-15.868-10.13-20.643c11.918,0.596,21.861,8.717,25.172,19.699
				c0.051-0.673,0.077-1.354,0.077-2.043c0-13.859-10.147-25.342-23.427-27.428c3.098-1.192,6.461-1.847,9.977-1.847
				c6.614,0,12.701,2.315,17.468,6.189c-4.631-8.326-13.527-13.961-23.733-13.961c-1.949,0-3.848,0.204-5.678,0.596
				c3.533-4.376,8.393-7.636,13.978-9.159c-1.209-0.17-2.443-0.255-3.703-0.255c-7.088,0-13.532,2.729-18.368,7.179
				c-0.428-3.098-1.308-6.052-2.588-8.784c-1.444,2.704-2.496,5.65-3.079,8.76c-4.833-4.435-11.267-7.154-18.343-7.154
				c-1.26,0-2.494,0.085-3.703,0.255c5.584,1.524,10.445,4.784,13.978,9.159c-1.83-0.392-3.729-0.596-5.678-0.596
				c-10.207,0-19.102,5.635-23.733,13.961c4.767-3.874,10.854-6.189,17.468-6.189C272.877,213.988,276.24,214.644,279.339,215.835z"
				/>
			<path style="fill:#DC9C01;" d="M330.468,274.282c-4.331,0.278-8.651,1.146-12.81,2.54c-6.262,2.087-11.993,5.42-17.702,8.672
				c-6.138,3.496-12.291,6.967-18.368,10.569c-4.375,2.595-8.556,5.506-12.922,8.136c-3.403,2.05-6.833,4.352-10.673,5.442
				c-1.242,0.353-2.657,0.082-3.483-0.965c-0.267-0.338-0.406-0.841-0.92-0.841c-0.946,0-0.876,1.385-0.827,2.022
				c0.181,2.365,2.332,3.962,4.47,4.547c3.113,0.851,6.358-0.169,9.17-1.514c6.083-2.91,11.686-6.782,17.435-10.282
				c4.192-2.553,8.389-5.099,12.56-7.69c7.565-4.701,14.994-9.698,23.106-13.433c7.304-3.363,15.287-5.602,23.758-5.928
				C339.171,274.307,334.792,274.054,330.468,274.282z"/>
			<path style="fill:#DC9C01;" d="M253.97,274.282c4.331,0.278,8.651,1.146,12.81,2.54c6.262,2.087,11.993,5.42,17.702,8.672
				c6.139,3.496,12.291,6.967,18.368,10.569c4.375,2.595,8.556,5.506,12.922,8.136c3.403,2.05,6.833,4.352,10.673,5.442
				c1.242,0.353,2.657,0.082,3.483-0.965c0.267-0.338,0.406-0.841,0.92-0.841c0.946,0,0.876,1.385,0.827,2.022
				c-0.181,2.365-2.332,3.962-4.47,4.547c-3.113,0.851-6.358-0.169-9.17-1.514c-6.083-2.91-11.686-6.782-17.435-10.282
				c-4.192-2.553-8.389-5.099-12.56-7.69c-7.565-4.701-14.994-9.698-23.106-13.433c-7.304-3.363-15.287-5.602-23.758-5.928
				C245.267,274.307,249.646,274.054,253.97,274.282z"/>
		</g>
		<path style="fill:#CA1517;" d="M292.144,351.908c-51.652,0-93.524-41.872-93.524-93.524s41.872-93.524,93.524-93.524
			c11.346,0,22.22,2.022,32.282,5.723c-19.087-14.895-43.098-23.772-69.185-23.772c-62.164,0-112.557,50.394-112.557,112.558
			c0,62.164,50.394,112.557,112.557,112.557c28.248,0,54.065-10.408,73.828-27.596C317.74,349.204,305.259,351.908,292.144,351.908z
			"/>
	</g>
	<g>
		<path style="fill:#13110C;" d="M80.032,221.066c0.753,0.72,1.759,1.194,3.011,1.435c0.865,0.166,1.669,0.135,2.415-0.088
			c0.744-0.222,1.452-0.535,2.123-0.935c0.67-0.4,1.307-0.854,1.911-1.361c0.604-0.507,1.18-0.963,1.731-1.368
			c0.552-0.406,1.095-0.724,1.632-0.957c0.537-0.234,1.076-0.284,1.619-0.156c0.714,0.169,1.334,0.565,1.863,1.182
			c0.529,0.615,0.945,1.373,1.248,2.271c0.303,0.898,0.48,1.894,0.53,2.992c0.039,1.095-0.055,2.228-0.227,3.417
			c-0.28,1.709-0.726,3.15-1.339,4.34c-0.634,1.184-1.314,2.149-2.114,2.881c-0.808,0.732-1.713,1.244-2.713,1.528
			c-1,0.285-2.047,0.369-3.14,0.243c-1.063-0.122-2.113-0.402-3.147-0.847c-1.033-0.446-1.927-1.05-2.679-1.819l-2.251,3.171
			c0.948,0.876,2.105,1.62,3.473,2.234c1.368,0.613,2.864,0.986,4.484,1.136c0.804,0.074,1.655,0.052,2.555-0.062
			c0.899-0.113,1.805-0.35,2.718-0.705c0.912-0.355,1.801-0.841,2.662-1.453c0.861-0.612,1.648-1.38,2.36-2.302
			c0.714-0.921,1.293-2.019,1.886-3.273c0.566-1.258,0.985-2.715,1.257-4.383c0.178-1.252,0.295-2.43,0.25-3.562
			c-0.049-1.132-0.223-2.199-0.519-3.201c-0.295-1.002-0.706-1.932-1.203-2.785c-0.473-0.846-1.011-1.606-1.616-2.276
			c-0.604-0.67-1.263-1.237-1.976-1.696c-0.713-0.459-1.446-0.79-2.198-0.987c-0.709-0.185-1.406-0.188-2.092-0.003
			c-0.686,0.185-1.357,0.469-2.012,0.857c-0.656,0.387-1.296,0.83-1.92,1.324c-0.602,0.501-1.176,0.969-1.741,1.398
			c-0.564,0.429-1.11,0.773-1.637,1.029c-0.527,0.255-1.042,0.332-1.543,0.223c-0.545-0.118-0.972-0.364-1.282-0.742
			c-0.309-0.377-0.527-0.814-0.653-1.31c-0.126-0.495-0.179-1.019-0.158-1.57c0.011-0.553,0.099-1.052,0.219-1.509
			c0.136-0.516,0.316-1.01,0.538-1.48c0.222-0.47,0.44-0.881,0.654-1.234c0.258-0.404,0.515-0.776,0.772-1.115l-3.508-2.052
			c-0.264,0.426-0.532,0.892-0.802,1.399c-0.236,0.436-0.477,0.948-0.723,1.535c-0.245,0.587-0.46,1.228-0.642,1.921
			c-0.273,0.959-0.347,1.999-0.328,3.087c0.021,1.089,0.213,2.121,0.575,3.094C78.72,219.501,79.278,220.347,80.032,221.066z"/>
		<path style="fill:#13110C;" d="M104.34,231.664c-0.047,0.284-0.029,0.56,0.052,0.83c0.082,0.27,0.212,0.51,0.393,0.721
			c0.181,0.211,0.403,0.391,0.668,0.541c0.265,0.151,0.557,0.248,0.876,0.294c0.653,0.094,1.233-0.019,1.74-0.335
			c0.507-0.316,0.806-0.753,0.899-1.314c0.046-0.275,0.026-0.544-0.056-0.808c-0.083-0.264-0.211-0.504-0.383-0.72
			c-0.173-0.216-0.391-0.402-0.656-0.557c-0.264-0.156-0.555-0.261-0.872-0.317c-0.319-0.055-0.627-0.053-0.927,0.007
			c-0.299,0.061-0.569,0.165-0.809,0.316c-0.241,0.151-0.443,0.341-0.607,0.572C104.492,231.123,104.387,231.381,104.34,231.664z"/>
		<path style="fill:#13110C;" d="M105.685,227.733c0.18,0.219,0.402,0.409,0.666,0.568c0.263,0.16,0.555,0.269,0.871,0.327
			c0.649,0.119,1.226,0.025,1.727-0.276c0.489-0.302,0.83-0.723,0.945-1.28c0.059-0.272,0.053-0.54-0.017-0.806
			c-0.07-0.266-0.187-0.511-0.349-0.732c-0.163-0.222-0.373-0.416-0.63-0.58c-0.257-0.165-0.544-0.282-0.859-0.348
			c-0.316-0.067-0.625-0.075-0.928-0.027c-0.303,0.049-0.578,0.144-0.826,0.285c-0.248,0.141-0.461,0.324-0.636,0.548
			c-0.176,0.224-0.294,0.476-0.355,0.757c-0.06,0.281-0.057,0.557,0.013,0.828C105.372,227.267,105.503,227.515,105.685,227.733z"/>
		<path style="fill:#13110C;" d="M85.752,196.196c1.074-0.565,2.131-1.031,3.172-1.399c1.041-0.368,2.034-0.598,2.983-0.694
			s1.785-0.001,2.512,0.277c0.411,0.157,0.752,0.366,1.024,0.625c0.273,0.26,0.457,0.609,0.553,1.049
			c0.097,0.439,0.091,0.99-0.019,1.65c-0.11,0.662-0.34,1.473-0.694,2.436c-0.838,2.319-1.503,4.695-2.266,7.039l3.795,1.135
			c0.804-2.439,1.468-4.927,2.38-7.331c0.491-1.339,0.746-2.536,0.77-3.602c0.022-1.065-0.147-2.014-0.506-2.846
			c-0.331-0.821-0.835-1.533-1.513-2.134c-0.678-0.601-1.498-1.1-2.463-1.491c-1.006-0.409-2.114-0.611-3.328-0.599
			c-1.205,0.019-2.487,0.172-3.73,0.516c-1.257,0.339-2.519,0.797-3.787,1.379c-1.267,0.582-2.475,1.224-3.621,1.923
			c0.555,1.31,1.072,2.589,1.692,3.886C83.634,197.359,84.682,196.763,85.752,196.196z"/>
		<path style="fill:#13110C;" d="M145.919,91.714l15.413,22.964c-1.66,1.056-3.259,2.2-4.838,3.374
			c-0.003,0.002-0.006,0.005-0.009,0.008c-0.003,0.002-0.005,0.003-0.008,0.005l-0.14,0.102c-1.1,0.801-2.111,1.364-3.041,1.697
			c-0.941,0.318-1.812,0.518-2.696,0.502l-6.986-8.977l-3.282,2.625l6.675,8.184c0.528,0.648,0.816,1.216,0.866,1.701
			c0.049,0.486-0.105,0.874-0.468,1.162c-0.395,0.306-0.776,0.63-1.148,0.965c-0.851,0.745-1.716,1.349-2.604,1.814
			c-0.887,0.466-1.786,0.735-2.7,0.815l-6.123-6.774c-1.058,0.892-2.028,1.88-3.034,2.829l5.611,5.929
			c0.574,0.607,0.906,1.154,0.995,1.638c0.088,0.484-0.034,0.886-0.369,1.207l-1.084,1.039c-0.717,0.698-1.488,1.278-2.225,1.837
			c-0.75,0.545-1.566,0.917-2.45,1.122l-5.433-5.206l-2.832,2.973l4.642,4.249c0.616,0.564,0.983,1.084,1.101,1.554
			c0.125,0.477,0.04,0.892-0.264,1.241l-4.173,4.794c-0.393,0.453-0.752,0.936-1.13,1.402c-0.45,0.567-0.906,1.1-1.368,1.601
			c-0.464,0.501-0.914,0.956-1.353,1.367c-0.439,0.411-0.861,0.772-1.267,1.082c-0.413,0.306-0.766,0.558-1.091,0.732
			c-0.262-1.562-0.499-2.853-0.854-3.962c-0.343-1.1-0.71-2.035-1.106-2.799c-0.396-0.762-0.801-1.385-1.219-1.862
			c-0.417-0.478-0.802-0.859-1.157-1.142c-0.505-0.403-1.08-0.581-1.728-0.531s-1.312,0.255-1.991,0.616
			c-0.677,0.362-1.355,0.828-1.999,1.418c-0.629,0.604-1.191,1.251-1.687,1.937c-0.661,0.913-1.227,1.826-1.691,2.734
			c-0.46,0.912-0.867,1.761-1.15,2.598c-0.28,0.84-0.491,1.623-0.635,2.348c-0.143,0.727-0.242,1.358-0.296,1.895
			c-0.012,0.178,0.056,0.411,0.2,0.697c0.145,0.288,0.334,0.595,0.568,0.919c0.234,0.325,0.482,0.643,0.741,0.956
			c0.26,0.313,0.503,0.577,0.729,0.793c0.397-0.069,0.971-0.122,1.721-0.155c0.757-0.045,1.57-0.094,2.437-0.146
			c0.875-0.064,1.765-0.158,2.671-0.282c0.912-0.119,1.714-0.328,2.476-0.578c0.012,0.202-0.034,0.489-0.126,0.865
			c-0.096,0.375-0.253,0.815-0.472,1.323c-0.219,0.508-0.491,1.069-0.817,1.686c-0.327,0.617-0.707,1.258-1.143,1.923
			c-0.562,0.851-1.128,1.699-1.631,2.586c-0.001,0.003-0.002,0.005-0.004,0.007l-2.374,4.005l-3.259-1.88
			c-1.181-0.682-2.283-1.176-3.307-1.477c-1.024-0.3-1.967-0.449-2.83-0.445c-0.869,0-1.641,0.143-2.332,0.415
			c-0.692,0.27-1.317,0.624-1.874,1.058c-0.556,0.434-1.041,0.924-1.454,1.466c-0.413,0.542-0.763,1.084-1.05,1.623
			c-0.742,1.343-1.112,2.705-1.216,4.016c-0.104,1.312,0.034,2.534,0.415,3.665c0.381,1.131,0.982,2.129,1.803,3
			c0.82,0.871,1.815,1.562,2.98,2.083c0.923,0.414,1.928,0.677,3.008,0.795c1.08,0.12,2.151,0.01,3.211-0.322
			c1.059-0.333,2.077-0.928,3.053-1.787c0.978-0.859,1.809-2.078,2.654-3.596l1.633-3.066c1.191,1.164,1.808,2.731,1.859,4.676
			c0.009,1.926-0.391,4.222-1.404,6.82l3.613,1.268c0.538-1.527,0.908-3.034,1.183-4.493c0.313-1.44,0.414-2.829,0.306-4.171
			c-0.108-1.342-0.461-2.641-1.056-3.896c-0.582-1.247-1.445-2.418-2.647-3.535l2.463-4.153c0,0,0.001-0.001,0.001-0.002
			c0.45-0.793,0.947-1.556,1.453-2.314c0.512-0.779,0.948-1.57,1.308-2.374c0.361-0.804,0.658-1.598,0.892-2.382
			c0.221-0.793,0.438-1.535,0.586-2.266c0.15-0.732,0.259-1.434,0.33-2.107c0.361-0.148,0.831-0.374,1.411-0.675
			c0.58-0.301,1.208-0.696,1.886-1.183c0.662-0.497,1.408-1.048,2.17-1.701c0.763-0.653,1.498-1.426,2.209-2.322l1.788-2.234
			l4.591-5.276c0.597-0.659,0.976-1.308,1.094-1.991c0.121-0.681,0.104-1.342-0.055-1.984c0.562-0.058,1.101-0.177,1.619-0.359
			c0.518-0.182,1.012-0.409,1.483-0.681c0.476-0.267,0.91-0.588,1.357-0.911c0.445-0.324,0.861-0.672,1.248-1.043l1.651-1.583
			c0.672-0.646,1.081-1.327,1.231-2.051c0.15-0.724,0.142-1.442,0.002-2.126c1.2,0.021,2.322-0.209,3.371-0.7
			c1.049-0.49,1.989-1.1,2.828-1.836c0.563-0.515,1.169-0.98,1.763-1.456c0.749-0.6,1.225-1.266,1.434-2.005
			c0.207-0.739,0.248-1.47,0.118-2.193c0.966,0.099,1.962-0.015,3.032-0.283c1.082-0.251,2.246-0.83,3.502-1.746l0.171-0.124
			c0.003-0.002,0.005-0.005,0.009-0.008c0.003-0.002,0.006-0.003,0.009-0.005c2.542-1.936,5.256-3.623,7.908-5.4l-17.015-26.649
			L145.919,91.714z M104.845,177.931c-0.487,0.919-1.036,1.629-1.567,2.174c-0.548,0.537-1.119,0.92-1.716,1.15
			c-0.596,0.23-1.209,0.314-1.836,0.25c-0.628-0.064-1.241-0.236-1.837-0.518c-0.689-0.328-1.268-0.742-1.733-1.249
			c-0.466-0.507-0.807-1.061-1.024-1.665c-0.216-0.602-0.305-1.236-0.265-1.899c0.034-0.666,0.209-1.316,0.551-1.933
			c0.294-0.555,0.676-1.06,1.142-1.515c0.467-0.455,1.056-0.766,1.766-0.928c0.71-0.163,1.569-0.138,2.576,0.077
			c1.008,0.214,2.199,0.701,3.576,1.454l2.181,1.193L104.845,177.931z M115.808,154.98c-0.662,0.265-1.427,0.478-2.297,0.644
			c-0.871,0.165-1.739,0.296-2.604,0.39c-0.855,0.101-1.636,0.174-2.374,0.196c-0.734,0.023-1.31,0.018-1.723-0.022
			c0.233-1.277,0.52-2.428,0.965-3.371c0.428-0.956,0.896-1.784,1.401-2.482c0.441-0.61,0.892-1.115,1.351-1.511
			c0.459-0.396,0.904-0.691,1.333-0.886c0.432-0.192,0.821-0.291,1.188-0.281c0.366,0.011,0.677,0.115,0.934,0.31
			c0.233,0.178,0.468,0.49,0.704,0.934c0.236,0.444,0.456,0.992,0.638,1.623c0.184,0.634,0.329,1.336,0.433,2.104
			C115.863,153.396,115.88,154.18,115.808,154.98z"/>
		<path style="fill:#13110C;" d="M176.213,110.279l-15.21-27.719c-1.334,0.716-2.671,1.425-3.958,2.221l15.842,27.361
			C173.967,111.468,175.093,110.877,176.213,110.279z"/>
		<path style="fill:#13110C;" d="M245.808,90.184l-0.24-3.953c-0.533,0.038-0.982-0.124-1.349-0.488
			c-0.367-0.363-0.688-0.866-0.961-1.507c-0.275-0.642-0.519-1.39-0.733-2.243c-0.21-0.852-0.429-1.741-0.657-2.665
			c-0.245-1.011-0.605-1.939-1.083-2.779c-0.477-0.84-1.073-1.551-1.788-2.132c-0.717-0.596-1.551-0.964-2.513-1.213
			c-0.96-0.24-2.043-0.288-3.241-0.144c-1.183,0.142-2.233,0.368-3.145,0.678c-0.913,0.302-1.796,0.714-2.666,1.1l0.555,3.544
			c0.252-0.161,0.567-0.326,0.946-0.493c0.378-0.166,0.779-0.332,1.207-0.477c0.43-0.133,0.856-0.251,1.275-0.353
			c0.42-0.103,0.798-0.174,1.134-0.214c1.189-0.143,2.172-0.05,2.942,0.279c0.769,0.33,1.395,0.808,1.88,1.437
			c0.484,0.629,0.86,1.356,1.13,2.181c0.269,0.824,0.503,1.661,0.703,2.508c0.22,0.906,0.453,1.62,0.698,2.13
			c0.244,0.512,0.533,0.911,0.863,1.196c-5.117,0.485-10.22,1.14-15.277,2.067l-0.171,0.028c-1.287,0.197-2.398,0.29-3.345,0.249
			c-0.95-0.056-1.813-0.262-2.593-0.618c0.092-0.951,0.057-1.821-0.112-2.61c-0.132-0.616-0.345-1.253-0.64-1.909
			c-0.295-0.657-0.67-1.285-1.129-1.883c-0.457-0.598-0.995-1.153-1.614-1.665c-0.619-0.511-1.309-0.927-2.069-1.249
			c-0.764-0.334-1.587-0.502-2.482-0.55c-0.895-0.05-1.851,0.061-2.86,0.33c-0.467,0.125-0.964,0.307-1.489,0.546
			c-0.524,0.24-1.05,0.574-1.574,1.003c-0.526,0.42-1.019,0.972-1.48,1.641c-0.464,0.662-0.866,1.467-1.204,2.414
			c-0.339,0.947-0.594,2.043-0.763,3.29c-0.168,1.246-0.21,2.68-0.124,4.298c0.047,0.94-0.199,1.714-0.734,2.323
			c-0.543,0.594-1.215,1.088-2.057,1.395l-0.956,0.355l-4.78,1.768l-4.81-12.128l-3.874,1.636l5.69,13.432
			c0.434,1.027,0.757,1.973,0.972,2.837c0.215,0.866,0.239,1.687,0.075,2.466c-0.163,0.778-0.561,1.528-1.195,2.248
			c-0.644,0.698-1.544,1.534-2.781,2.338l1.942,3.266c1.179-0.816,2.175-1.65,3.03-2.422c0.844-0.794,1.491-1.677,1.942-2.65
			s0.704-2.048,0.755-3.225c0.05-1.177-0.109-2.524-0.484-4.037l4.864-1.807l1.549-0.575c0.542-0.203,1.014-0.435,1.429-0.664
			c0.412-0.238,0.765-0.527,1.063-0.868c0.297-0.34,0.546-0.746,0.745-1.218c0.2-0.471,0.356-1.025,0.47-1.662
			c0.43,0.263,0.946,0.504,1.543,0.721c0.597,0.217,1.249,0.376,1.952,0.474c0.699,0.086,1.467,0.142,2.294,0.131
			c0.825-0.015,1.678-0.14,2.564-0.377c1.444-0.386,2.599-0.995,3.483-1.833c0.894-0.79,1.582-1.683,2.063-2.689
			c0.437,0.31,0.91,0.587,1.415,0.83c0.507,0.242,1.055,0.431,1.649,0.564c0.594,0.134,1.245,0.197,1.958,0.193
			c0.708-0.022,1.502-0.059,2.365-0.208l0.209-0.035c3.247-0.554,6.491-1.13,9.772-1.456
			C239.23,90.626,242.519,90.408,245.808,90.184z M215.921,88.849c-0.135,0.538-0.401,0.996-0.794,1.404
			c-0.394,0.401-0.901,0.746-1.521,1.033c-0.62,0.288-1.326,0.537-2.121,0.75c-0.558,0.149-1.156,0.248-1.795,0.297
			c-0.639,0.053-1.258,0.049-1.844,0.033c-0.583-0.006-1.109-0.054-1.577-0.144c-0.468-0.089-0.803-0.21-1.003-0.362
			c-0.146-1.016-0.182-2.035-0.105-3.06c0.076-1.025,0.275-1.977,0.598-2.856c0.319-0.889,0.786-1.607,1.373-2.243
			c0.59-0.628,1.316-1.058,2.173-1.287c0.901-0.241,1.729-0.245,2.48-0.014c0.75,0.233,1.406,0.593,1.968,1.08
			c0.559,0.48,1.025,1.068,1.38,1.689c0.357,0.628,0.596,1.207,0.721,1.735C216.034,87.662,216.055,88.311,215.921,88.849z"/>
		<path style="fill:#13110C;" d="M275.2,90.982l3.614-31.41c-1.503-0.168-3.004-0.373-4.51-0.505l-2.531,27.541l-7.272-0.514
			l0.939-19.074c-1.445-0.071-2.89-0.082-4.336-0.124l-0.508,19.091l-4.805-0.104l-4.805,0.115l0.114,3.959
			C259.148,89.656,267.213,90.066,275.2,90.982z"/>
		<path style="fill:#13110C;" d="M267.198,62.444l-0.714-0.049c-0.625-0.038-1.159-0.162-1.605-0.302
			c-0.447-0.152-0.815-0.341-1.103-0.568c-0.289-0.227-0.503-0.481-0.642-0.764c-0.14-0.282-0.204-0.562-0.195-0.841
			c0.021-0.586,0.268-0.998,0.747-1.236c0.478-0.236,1.08-0.347,1.802-0.326c0.318,0.022,0.61,0.057,0.877,0.104
			c0.266,0.048,0.465,0.091,0.598,0.129l0.432-1.844c-0.386-0.085-0.743-0.146-1.073-0.184c-0.329-0.034-0.638-0.071-0.925-0.078
			c-0.762-0.021-1.431,0.047-2.003,0.201c-0.573,0.155-1.049,0.367-1.429,0.636c-0.379,0.269-0.66,0.582-0.846,0.937
			c-0.186,0.355-0.282,0.724-0.292,1.104c-0.009,0.381,0.041,0.728,0.15,1.039c0.109,0.31,0.243,0.589,0.401,0.834
			c0.158,0.246,0.326,0.452,0.503,0.617c0.176,0.166,0.337,0.294,0.482,0.386l-2.813-0.067l-0.033,1.847
			c2.524,0.093,5.054,0.04,7.575,0.27L267.198,62.444z"/>
		<polygon style="fill:#13110C;" points="291.783,61.5 287.305,60.755 282.332,91.978 286.093,92.601 		"/>
		<path style="fill:#13110C;" d="M330.4,72.738l-10.42,25.643c-0.557,1.372-1.243,2.524-2.045,3.461
			c-0.803,0.938-1.69,1.635-2.666,2.12c-0.986,0.509-2.047,0.785-3.188,0.831c-1.14,0.044-2.339-0.161-3.605-0.626
			c-1.168-0.458-2.181-0.935-2.976-1.657c-0.801-0.704-1.412-1.511-1.836-2.42c-0.423-0.91-0.663-1.9-0.714-2.969
			c-0.051-1.068,0.079-2.154,0.399-3.252c0.149-0.508,0.333-1.014,0.556-1.521c0.223-0.506,0.472-0.993,0.747-1.46
			c0.274-0.467,0.57-0.9,0.89-1.3c0.318-0.399,0.646-0.746,0.984-1.041c-0.901-0.938-1.811-1.887-2.757-2.759
			c-0.478,0.42-0.946,0.912-1.402,1.474c-0.457,0.562-0.881,1.175-1.273,1.838c-0.392,0.662-0.747,1.35-1.065,2.063
			c-0.319,0.712-0.57,1.424-0.758,2.132c-0.395,1.489-0.537,2.972-0.443,4.445c0.093,1.473,0.453,2.845,1.069,4.113
			c0.621,1.254,1.484,2.47,2.635,3.485c1.144,1.043,2.624,1.792,4.41,2.414c1.851,0.679,3.597,0.96,5.266,0.856
			c1.679-0.134,3.185-0.443,4.612-1.152c1.42-0.694,2.712-1.685,3.866-2.975c1.153-1.291,2.127-2.82,2.897-4.597l11.009-25.395
			L330.4,72.738z"/>
		<path style="fill:#13110C;" d="M345.1,115.764c0.827,0.538,1.638,0.776,2.439,0.719c0.801-0.057,1.528-0.276,2.18-0.657
			c0.103,0.486,0.248,0.97,0.438,1.451c0.19,0.481,0.424,0.987,0.734,1.474c0.308,0.491,0.691,0.978,1.155,1.462
			c0.463,0.485,1.02,0.96,1.675,1.429l0.172,0.123c0.005,0.003,0.009,0.005,0.014,0.008c0.001,0.001,0.002,0.002,0.004,0.003
			c1.281,0.881,2.506,1.838,3.721,2.807c-1.059,1.368-1.88,2.663-2.47,3.879c-0.59,1.215-0.999,2.344-1.229,3.384
			c-0.23,1.041-0.316,1.998-0.256,2.874c0.053,0.883,0.226,1.638,0.447,2.359c0.229,0.711,0.524,1.329,0.89,1.856
			c0.365,0.527,0.749,0.964,1.154,1.312c0.505,0.433,1.13,0.751,1.88,0.958c0.76,0.197,1.536,0.29,2.379,0.228
			c0.843-0.063,1.714-0.304,2.617-0.724c0.902-0.42,1.761-1.061,2.574-1.929c0.871-0.932,1.468-1.871,1.782-2.824
			c0.315-0.953,0.443-1.859,0.386-2.718l0.073-0.081c1.682,1.603,3.411,3.16,5.061,4.796c2.203,2.309,4.517,4.518,6.589,6.949
			l23.499-21.151c-1.021-1.115-1.982-2.286-3.056-3.351l-20.128,18.966l-4.118-4.227c-1.573-1.566-3.225-3.052-4.831-4.583
			l0.074-0.081c0.92-0.041,1.83-0.262,2.73-0.666c0.898-0.404,1.731-1.008,2.495-1.821c0.672-0.716,1.223-1.533,1.647-2.453
			c0.423-0.92,0.689-1.851,0.797-2.798c0.107-0.945,0.036-1.856-0.21-2.732c-0.258-0.864-0.741-1.573-1.413-2.157
			c-0.248-0.213-0.642-0.422-1.179-0.622c-0.537-0.201-1.202-0.346-1.991-0.434c-0.789-0.088-1.678-0.097-2.665-0.026
			c-0.977,0.062-2.07,0.306-3.224,0.673c-1.157,0.37-2.369,0.9-3.637,1.592c-1.268,0.692-2.561,1.594-3.881,2.701
			c-1.369-1.08-2.732-2.166-4.168-3.154c-0.003-0.002-0.007-0.004-0.01-0.006c-0.003-0.002-0.004-0.004-0.007-0.007l-0.141-0.101
			c-1.165-0.833-2.052-1.661-2.667-2.49c-0.617-0.826-1.024-1.718-1.268-2.61l14.421-21.35l-3.804-2.476l-13.608,21.177
			c-0.452,0.703-0.903,1.154-1.348,1.354c-0.446,0.201-0.861,0.175-1.247-0.076c-1.597-1.091-3.313-1.988-4.964-2.992l9.627-16.494
			c-1.254-0.723-2.484-1.49-3.761-2.172l-9.244,16.711c-2.852-1.456-5.618-3.086-8.547-4.387l-1.717,3.569
			c2.993,1.325,5.81,3.004,8.726,4.483C339.49,112.4,342.384,113.938,345.1,115.764z M365.226,122.433
			c0.701-0.464,1.397-0.845,2.106-1.165c0.708-0.32,1.406-0.575,2.095-0.767c0.69-0.191,1.325-0.317,1.905-0.379
			c0.58-0.063,1.083-0.071,1.506-0.025c0.423,0.044,0.723,0.142,0.897,0.292c0.301,0.259,0.513,0.62,0.634,1.082
			c0.121,0.463,0.153,0.964,0.097,1.505c-0.057,0.542-0.204,1.091-0.445,1.65c-0.245,0.564-0.58,1.08-1.002,1.548
			c-0.452,0.502-0.954,0.876-1.511,1.133c-0.561,0.262-1.15,0.404-1.765,0.427c-0.614,0.022-1.232-0.077-1.853-0.302
			c-0.622-0.224-1.211-0.576-1.769-1.056c-0.937-0.785-1.832-1.62-2.802-2.364C363.893,123.418,364.528,122.891,365.226,122.433z
			 M360.366,126.729c1.063,0.798,2.046,1.693,3.058,2.553c0.547,0.469,0.942,1.002,1.182,1.595c0.241,0.594,0.349,1.204,0.327,1.832
			c-0.023,0.628-0.164,1.246-0.422,1.856c-0.257,0.609-0.612,1.164-1.063,1.667c-0.343,0.381-0.724,0.708-1.139,0.979
			c-0.416,0.271-0.832,0.47-1.25,0.595c-0.418,0.125-0.819,0.168-1.202,0.129c-0.384-0.039-0.718-0.18-1.001-0.423
			c-0.445-0.382-0.805-0.915-1.085-1.6c-0.279-0.685-0.395-1.492-0.352-2.423c0.049-0.938,0.285-1.967,0.725-3.107
			C358.587,129.238,359.325,128.018,360.366,126.729z"/>
		<polygon style="fill:#13110C;" points="386.604,153.332 411.448,133.775 408.585,130.256 384.195,150.374 		"/>
		<path style="fill:#13110C;" d="M407.445,159.471c-0.973-0.293-1.997-0.367-2.982-0.281c-0.993,0.091-1.944,0.443-2.864,1.048
			c-0.98,0.645-1.688,1.392-2.131,2.228c-0.449,0.841-0.676,1.685-0.766,2.588c-0.08,0.896,0,1.779,0.244,2.653
			c0.242,0.874,0.586,1.673,1.033,2.402c0.509,0.842,1.159,1.582,1.846,2.291c0.703,0.7,1.599,1.352,2.693,1.967
			c-0.33,0.313-0.613,0.672-0.853,1.073c-0.239,0.401-0.385,0.864-0.439,1.388c-0.054,0.524-0.002,1.118,0.155,1.782
			c0.163,0.66,0.413,1.435,0.84,2.279l1.07,2.164v0c0.752,1.511,1.515,3.017,2.162,4.576c0.363,0.824,0.846,1.425,1.454,1.806
			c0.607,0.38,1.254,0.619,1.937,0.715c-0.285,0.879-0.368,1.822-0.394,2.888c-0.016,1.063,0.239,2.274,0.767,3.643l0.076,0.197
			c0.001,0.004,0.004,0.007,0.005,0.011c0.001,0.004,0.001,0.006,0.003,0.01c0.613,1.572,1.232,3.141,1.735,4.753
			c0.286,0.855,0.712,1.496,1.283,1.931c0.57,0.435,1.191,0.732,1.863,0.889c-0.364,0.849-0.534,1.781-0.656,2.84
			c-0.113,1.056,0.028,2.286,0.429,3.698l0.058,0.204c0.001,0.004,0.003,0.008,0.005,0.012c0.001,0.003,0.001,0.005,0.001,0.007
			c2.325,8.372,4.025,16.918,5.041,25.554c1.406-0.102,2.51-0.181,3.308-0.239c0.799-0.058,1.401-0.101,1.804-0.129
			c0.402-0.035,0.669-0.058,0.801-0.069c0.131-0.015,0.233-0.026,0.306-0.034c2.055-0.234,3.783-0.767,5.184-1.628
			c1.399-0.859,2.55-2.107,3.448-3.759c0.865-1.647,1.647-3.759,1.94-6.276c0.301-2.518,0.593-5.589,0.405-9.124
			c-0.15-0.063-0.367-0.153-0.649-0.27c-0.284-0.115-0.597-0.231-0.94-0.347c-0.343-0.116-0.708-0.226-1.093-0.331
			c-0.386-0.105-0.756-0.171-1.109-0.201c0,0.065,0.001,0.213,0.002,0.444c-0.002,0.225-0.003,0.492-0.005,0.803
			c-1.131-1.101-2.419-1.823-3.864-2.171c-1.445-0.349-2.912-0.327-4.406,0.046c-0.854,0.212-1.683,0.53-2.489,0.948
			c-0.806,0.419-1.583,0.959-2.334,1.616c-0.43-1.986-0.954-3.949-1.534-5.897c-0.001-0.004-0.003-0.007-0.004-0.01
			c-0.001-0.004-0.001-0.007-0.002-0.011l-0.047-0.166c-0.335-1.182-0.515-2.232-0.54-3.155c-0.013-0.926,0.081-1.764,0.296-2.52
			l11.12-3.511l-1.332-3.989l-9.974,3.406c-0.791,0.27-1.424,0.342-1.897,0.222c-0.473-0.121-0.782-0.4-0.929-0.838
			c-0.431-1.397-1.011-2.74-1.523-4.107c-0.002-0.004-0.004-0.007-0.005-0.011c-0.001-0.004-0.001-0.006-0.003-0.01l-0.062-0.161
			c-0.443-1.147-0.718-2.176-0.827-3.093c-0.099-0.921-0.079-1.764,0.066-2.537l10.752-4.514l-1.69-3.85l-9.621,4.302
			c-0.763,0.341-1.387,0.472-1.869,0.395c-0.483-0.077-0.817-0.327-1.002-0.75c-0.555-1.344-1.252-2.622-1.881-3.93c0,0,0,0,0-0.001
			l-0.674-1.361c-0.275-0.557-0.451-1.028-0.525-1.411c-0.076-0.384-0.056-0.725,0.06-1.021c0.115-0.297,0.334-0.566,0.655-0.809
			c0.322-0.242,0.743-0.499,1.263-0.771l12.074-6.303l-2.065-3.759l-2.042,1.127c-0.597-0.622-1.269-1.321-2.015-2.1
			c-0.727-0.772-1.555-1.502-2.452-2.206c-0.889-0.709-1.814-1.358-2.775-1.943C409.401,160.192,408.429,159.757,407.445,159.471z
			 M432.661,229.196c-0.42,0.77-0.918,1.392-1.497,1.868c-0.579,0.476-1.218,0.836-1.917,1.082
			c-0.699,0.245-1.405,0.415-2.117,0.512c-0.451,0.061-0.893,0.102-1.326,0.124c-0.435,0.011-0.868,0.022-1.295,0.032
			c-0.244-1.644-0.414-3.301-0.716-4.936c0.331,0.091,0.71,0.168,1.139,0.231c0.428,0.063,0.888,0.106,1.378,0.131
			c0.489,0.024,0.985,0.026,1.501,0.004c0.515-0.023,1.034-0.075,1.555-0.158c0.782-0.125,1.532-0.328,2.247-0.611
			c0.712-0.284,1.331-0.669,1.867-1.161C433.4,227.458,433.065,228.429,432.661,229.196z M422.918,219.804
			c0.227-0.382,0.537-0.764,0.93-1.142c0.393-0.379,0.879-0.733,1.458-1.059c0.578-0.328,1.261-0.582,2.047-0.762
			c0.6-0.136,1.248-0.188,1.942-0.152c0.693,0.037,1.355,0.177,1.984,0.42c0.629,0.244,1.183,0.603,1.663,1.074
			c0.492,0.47,0.769,1.086,0.912,1.828c0.084,0.455,0.073,0.938-0.034,1.445c-0.107,0.507-0.348,0.995-0.724,1.462
			c-0.376,0.467-0.899,0.884-1.57,1.252c-0.67,0.367-1.534,0.643-2.587,0.83c-0.42,0.074-0.894,0.109-1.423,0.107
			c-0.531-0.003-1.065-0.027-1.603-0.071c-0.538-0.045-1.05-0.114-1.538-0.209c-0.488-0.096-0.892-0.201-1.212-0.318l-0.682-3.668
			C422.547,220.531,422.692,220.187,422.918,219.804z M414.501,168.736l-7.089,3.911c-0.753-0.39-1.452-0.9-2.102-1.53
			c-0.643-0.633-1.217-1.398-1.772-2.27c-0.289-0.472-0.523-0.968-0.705-1.488c-0.181-0.521-0.274-1.037-0.278-1.55
			c-0.005-0.512,0.109-1.003,0.339-1.468c0.231-0.466,0.618-0.871,1.165-1.215c0.671-0.422,1.399-0.594,2.19-0.511
			c0.79,0.083,1.635,0.375,2.536,0.876c0.901,0.501,1.843,1.191,2.827,2.068C412.553,166.464,413.512,167.525,414.501,168.736z"/>
		<path style="fill:#13110C;" d="M420.413,160.673c0.26,0.214,0.536,0.372,0.828,0.474c0.293,0.103,0.596,0.144,0.911,0.123
			c0.316-0.021,0.613-0.111,0.894-0.271c0.281-0.159,0.512-0.371,0.693-0.635c0.181-0.264,0.305-0.554,0.374-0.869
			c0.068-0.315,0.078-0.644,0.029-0.989c-0.049-0.344-0.181-0.664-0.369-0.976c-0.189-0.311-0.422-0.572-0.696-0.783
			c-0.276-0.211-0.564-0.361-0.867-0.448c-0.303-0.088-0.613-0.117-0.93-0.087c-0.318,0.028-0.614,0.127-0.89,0.294
			c-0.564,0.342-0.909,0.841-1.034,1.493c-0.126,0.652-0.001,1.285,0.378,1.905C419.916,160.211,420.152,160.462,420.413,160.673z"
			/>
		<path style="fill:#13110C;" d="M422.808,164.001c-0.154,0.649-0.056,1.289,0.295,1.926c0.171,0.31,0.387,0.574,0.649,0.791
			c0.262,0.218,0.54,0.382,0.835,0.491c0.295,0.109,0.603,0.159,0.922,0.148c0.321-0.013,0.619-0.089,0.906-0.24
			c0.286-0.149,0.527-0.354,0.712-0.608c0.186-0.254,0.316-0.536,0.388-0.845c0.073-0.308,0.087-0.633,0.042-0.974
			c-0.045-0.341-0.156-0.672-0.332-0.99c-0.175-0.319-0.396-0.59-0.661-0.812c-0.265-0.223-0.547-0.383-0.844-0.482
			c-0.298-0.1-0.605-0.141-0.923-0.123c-0.317,0.017-0.616,0.104-0.898,0.261C423.323,162.866,422.96,163.353,422.808,164.001z"/>
		<path style="fill:#13110C;" d="M425.123,177.055c1.313,3.01,2.7,5.991,3.915,9.041l2.285-0.923l-0.34-0.877
			c-0.294-0.748-0.508-1.417-0.564-2.04c-0.064-0.619-0.038-1.166,0.075-1.637c0.113-0.471,0.301-0.872,0.566-1.201
			c0.264-0.329,0.563-0.567,0.899-0.715c0.712-0.313,1.342-0.254,1.893,0.18c0.552,0.435,1.017,1.086,1.395,1.949
			c0.172,0.394,0.307,0.758,0.405,1.093c0.079,0.33,0.142,0.589,0.188,0.781l2.486-0.527c-0.124-0.51-0.241-0.977-0.395-1.384
			c-0.154-0.408-0.308-0.788-0.462-1.14c-0.41-0.937-0.866-1.703-1.366-2.295c-0.501-0.593-1.021-1.038-1.559-1.334
			c-0.54-0.296-1.076-0.449-1.61-0.46c-0.534-0.012-1.034,0.091-1.501,0.305c-0.453,0.207-0.838,0.468-1.157,0.783
			c-0.317,0.315-0.576,0.638-0.776,0.968c-0.198,0.33-0.353,0.652-0.464,0.966c-0.111,0.314-0.177,0.572-0.2,0.776l-1.483-3.352
			L425.123,177.055z"/>
		<path style="fill:#13110C;" d="M407.28,205.259c0.306-0.103,0.576-0.254,0.811-0.456c0.234-0.2,0.421-0.429,0.559-0.687
			c0.139-0.256,0.225-0.533,0.258-0.827c0.033-0.294,0.002-0.587-0.094-0.873c-0.096-0.288-0.245-0.537-0.446-0.749
			c-0.201-0.213-0.431-0.375-0.705-0.479c-0.269-0.108-0.559-0.165-0.87-0.175c-0.311-0.01-0.617,0.041-0.92,0.152
			c-0.62,0.227-1.065,0.609-1.338,1.143c-0.269,0.532-0.338,1.091-0.144,1.66c0.093,0.278,0.24,0.52,0.439,0.728
			c0.201,0.206,0.428,0.369,0.685,0.487c0.256,0.118,0.537,0.187,0.845,0.204C406.667,205.404,406.974,205.361,407.28,205.259z"/>
		<path style="fill:#13110C;" d="M406.615,210.124c0.19,0.214,0.41,0.385,0.659,0.514c0.249,0.128,0.526,0.206,0.832,0.236
			c0.305,0.029,0.613-0.002,0.922-0.093c0.31-0.092,0.586-0.233,0.828-0.425c0.243-0.194,0.439-0.416,0.589-0.667
			c0.15-0.252,0.248-0.526,0.294-0.82c0.043-0.293,0.038-0.591-0.061-0.876c-0.097-0.286-0.248-0.539-0.451-0.755
			c-0.204-0.217-0.438-0.383-0.702-0.501c-0.263-0.116-0.549-0.186-0.858-0.207c-0.309-0.021-0.617,0.018-0.924,0.118
			c-0.627,0.204-1.089,0.57-1.384,1.095c-0.296,0.524-0.349,1.069-0.158,1.638C406.299,209.657,406.422,209.91,406.615,210.124z"/>
		<path style="fill:#13110C;" d="M75.216,284.378c0.958,0.322,2.063,0.384,3.316,0.193c0.966-0.147,1.786-0.414,2.46-0.796
			c0.673-0.382,1.246-0.84,1.717-1.373c0.471-0.533,0.86-1.113,1.165-1.743c0.308-0.629,0.561-1.261,0.794-1.899
			c0.315-0.871,0.639-1.683,0.971-2.439c0.333-0.756,0.725-1.389,1.176-1.899c0.43-0.508,1.033-0.796,1.806-0.87
			c0.608-0.058,1.13,0.01,1.562,0.2c0.431,0.191,0.787,0.454,1.067,0.787c0.279,0.334,0.49,0.717,0.633,1.148
			c0.144,0.431,0.237,0.861,0.279,1.287c0.041,0.397,0.047,0.761,0.045,1.089c0.004,0.327-0.013,0.646-0.051,0.958
			c-0.037,0.312-0.093,0.635-0.166,0.968c-0.079,0.316-0.17,0.683-0.274,1.101l3.182-0.022c0.189-0.775,0.291-1.552,0.309-2.336
			c0.004-0.782-0.021-1.524-0.077-2.228c-0.092-0.937-0.32-1.796-0.683-2.584c-0.364-0.788-0.848-1.465-1.453-2.033
			c-0.604-0.568-1.329-0.999-2.174-1.288c-0.846-0.29-1.79-0.4-2.832-0.322c-0.92,0.069-1.703,0.261-2.346,0.581
			c-0.645,0.32-1.19,0.726-1.638,1.22c-0.448,0.494-0.823,1.048-1.125,1.663c-0.302,0.615-0.575,1.24-0.819,1.878
			c-0.243,0.641-0.483,1.269-0.717,1.887c-0.235,0.621-0.508,1.184-0.821,1.691c-0.31,0.507-0.654,0.927-1.087,1.266
			c-0.428,0.337-0.972,0.552-1.634,0.639c-0.694,0.091-1.307,0.021-1.836-0.215c-0.524-0.237-0.994-0.563-1.348-0.988
			c-0.356-0.424-0.634-0.902-0.832-1.432c-0.199-0.529-0.322-1.034-0.369-1.508c-0.045-0.442-0.051-0.897-0.02-1.363
			c0.032-0.467,0.085-0.92,0.158-1.36c0.073-0.441,0.158-0.857,0.253-1.248c0.097-0.382,0.185-0.73,0.265-1.045l-3.18-0.087
			c-0.174,0.825-0.323,1.653-0.446,2.484c-0.122,0.831-0.142,1.675-0.056,2.529c0.119,1.191,0.365,2.306,0.737,3.338
			c0.387,1.031,0.961,1.9,1.632,2.616C73.439,283.538,74.258,284.056,75.216,284.378z"/>
		<path style="fill:#13110C;" d="M98.168,295.664c-0.247-1.026-0.526-2.045-0.749-3.076c-8.301-1.232-16.854-2.869-25.195-4.99
			c0.161,1.201,0.368,2.394,0.62,3.58c2.125,0.441,4.246,0.856,6.362,1.245c0.671,3.76,1.623,7.457,2.55,11.16
			c-1.741,1.284-3.488,2.597-5.165,3.918l1.078,3.613c3.325-2.777,6.649-5.44,10.064-8.015
			C91.184,300.514,94.664,298.036,98.168,295.664z M82.16,292.923c4.176,0.706,8.248,1.331,12.464,1.819
			c-3.493,2.27-6.967,4.639-10.412,7.108C83.48,298.886,82.694,295.933,82.16,292.923z"/>
		<path style="fill:#13110C;" d="M90.046,329.321c1.339-0.146,2.78-0.563,4.327-1.241l12.796-5.603
			c-0.442-0.9-0.767-1.849-1.158-2.772l-12.507,5.201c-1.048,0.436-2.043,0.748-2.988,0.935c-0.945,0.186-1.815,0.2-2.612,0.038
			c-0.797-0.161-1.512-0.519-2.144-1.073c-0.633-0.553-1.155-1.344-1.567-2.365c-0.378-1.033-0.499-1.973-0.392-2.8
			c0.109-0.829,0.41-1.569,0.901-2.218c0.491-0.649,1.153-1.216,1.983-1.702c0.831-0.487,1.784-0.912,2.858-1.279l12.815-4.39
			c-0.324-0.953-0.691-1.892-0.982-2.855l-13.298,4.279c-3.216,1.032-5.416,2.558-6.527,4.626c-1.118,2.077-1.176,4.571-0.164,7.403
			c0.561,1.393,1.268,2.554,2.112,3.469c0.844,0.915,1.815,1.573,2.911,1.969C87.509,329.336,88.704,329.468,90.046,329.321z"/>
		<path style="fill:#13110C;" d="M102.762,350.738c1.605-0.305,3.252-0.993,4.955-2.043c1.56-0.963,2.789-2.088,3.699-3.356
			c0.93-1.28,1.573-2.629,1.921-4.037c0.348-1.408,0.415-2.831,0.195-4.274c-0.246-1.43-0.662-2.863-1.38-4.25
			c-0.921-1.855-1.977-3.646-2.795-5.551l-21.515,10.264c0.951,2.181,2.143,4.245,3.206,6.37c0.904,1.766,1.956,3.229,3.219,4.335
			c1.236,1.12,2.566,1.9,3.987,2.335C99.675,350.964,101.167,351.038,102.762,350.738z M98.835,347.256
			c-1.022-0.292-1.974-0.839-2.855-1.641c-0.887-0.797-1.607-1.885-2.292-3.178l-1.643-3.176l15.952-7.979l1.65,3.184
			c0.521,0.981,0.785,2.01,0.92,3.031c0.13,1.023,0.045,2.031-0.253,3.025c-0.299,0.995-0.818,1.948-1.557,2.859
			c-0.739,0.911-1.705,1.724-2.902,2.431c-1.321,0.78-2.564,1.292-3.733,1.527C100.954,347.575,99.858,347.547,98.835,347.256z"/>
		<path style="fill:#13110C;" d="M120.133,346.349l-19.931,13.076c0.628,0.968,1.229,1.955,1.914,2.886l19.684-13.444
			C121.2,348.059,120.681,347.194,120.133,346.349z"/>
		<path style="fill:#13110C;" d="M127.154,376.03c0.021-0.221,0.011-0.452-0.032-0.692c-0.042-0.241-0.106-0.486-0.189-0.738
			l0.049-0.045c0.529,0.403,1.1,0.708,1.713,0.915c0.612,0.205,1.228,0.299,1.85,0.28c0.621-0.02,1.235-0.156,1.844-0.408
			c0.609-0.252,1.173-0.63,1.694-1.13c0.515-0.492,0.932-0.981,1.255-1.465c0.324-0.483,0.565-0.957,0.726-1.42
			c0.16-0.463,0.248-0.918,0.265-1.363c0.017-0.445-0.022-0.888-0.114-1.329c-0.093-0.44-0.238-0.867-0.435-1.281
			c-0.199-0.414-0.431-0.823-0.699-1.23c-0.277-0.4-0.543-0.824-0.853-1.225c-0.308-0.404-0.634-0.808-0.978-1.211l-3.343-3.93
			l-18.499,15.034c0.725,0.898,1.492,1.762,2.236,2.645l8.088-6.827l1.274,1.49c0.29,0.339,0.538,0.651,0.745,0.937
			c0.206,0.285,0.354,0.59,0.443,0.915c0.089,0.327,0.102,0.696,0.04,1.11c-0.063,0.414-0.206,0.895-0.453,1.465
			c-1.241,2.706-2.446,5.452-3.613,8.238l2.704,2.883c1.219-3.319,2.492-6.585,3.819-9.794
			C126.971,377.094,127.125,376.488,127.154,376.03z M125.795,370.744l-1.771-2.073l5.542-4.677l1.911,2.237
			c0.915,1.101,1.406,2.103,1.457,3.037c0.038,0.945-0.348,1.799-1.167,2.554c-0.861,0.793-1.815,1.11-2.874,0.942
			C127.822,372.61,126.793,371.926,125.795,370.744z"/>
		<path style="fill:#13110C;" d="M135.842,385.149c2.097,1.975,4.289,3.847,6.428,5.774l1.947-2.284
			c-2.103-1.895-4.257-3.735-6.318-5.676l4.787-5.087c2.183,2.031,4.428,3.997,6.673,5.958l1.937-2.292
			c-2.948-2.6-5.943-5.153-8.707-7.952l-16.652,17.057c3.175,3.198,6.594,6.138,9.979,9.107l1.936-2.293
			c-2.49-2.167-4.974-4.347-7.39-6.597L135.842,385.149z"/>
		<path style="fill:#13110C;" d="M162.947,391.482c-0.844-1.181-1.825-2.318-3.094-3.229c-1.666-1.234-3.357-2.434-4.941-3.776
			l-14.853,18.644c1.82,1.531,3.753,2.915,5.663,4.329c1.606,1.162,3.157,2.068,4.782,2.499c1.605,0.461,3.145,0.578,4.614,0.344
			c1.47-0.234,2.851-0.83,4.148-1.788c1.294-0.952,2.48-2.297,3.552-3.987c0.981-1.547,1.591-3.091,1.873-4.655
			c0.278-1.56,0.262-3.049-0.042-4.464C164.345,393.984,163.779,392.679,162.947,391.482z M161.439,399.273
			c-0.266,1.141-0.778,2.295-1.545,3.453c-0.848,1.279-1.742,2.284-2.692,3.007c-0.949,0.724-1.946,1.18-2.996,1.367
			c-1.048,0.186-2.148,0.116-3.288-0.222c-1.116-0.373-2.266-0.996-3.444-1.865l-2.874-2.124l10.853-14.154l2.887,2.13
			c0.894,0.66,1.607,1.436,2.147,2.334c0.56,0.87,0.931,1.803,1.097,2.828C161.753,397.05,161.705,398.133,161.439,399.273z"/>
		<path style="fill:#13110C;" d="M183.227,425.699c-0.468-0.09-0.935-0.207-1.4-0.352c-0.464-0.145-0.891-0.3-1.279-0.467
			c-1.142-0.468-2.072-1.227-2.866-2.086c-0.786-0.875-1.361-1.852-1.72-2.93c-0.36-1.078-0.485-2.229-0.377-3.456
			c0.109-1.227,0.488-2.462,1.126-3.709c0.613-1.198,1.366-2.214,2.25-3.053c0.882-0.839,1.837-1.47,2.861-1.895
			c1.024-0.424,2.09-0.627,3.201-0.606c1.119,0.003,2.195,0.334,3.334,0.792c1.459,0.624,2.63,1.61,3.545,2.97l1.51-2.962
			c-0.561-0.652-1.168-1.2-1.825-1.645c-0.657-0.445-1.367-0.83-2.133-1.158c-1.475-0.635-2.906-1.067-4.394-1.123
			c-1.482-0.07-2.916,0.153-4.306,0.664c-1.382,0.495-2.664,1.233-3.878,2.288c-1.211,1.049-2.262,2.381-3.136,4.007
			c-0.899,1.675-1.458,3.322-1.66,4.951c-0.2,1.626-0.076,3.194,0.398,4.661c0.488,1.443,1.31,2.769,2.461,3.977
			c1.157,1.192,2.585,2.266,4.345,3.035c0.663,0.286,1.484,0.584,2.457,0.893c0.484,0.159,0.971,0.278,1.459,0.354
			c0.488,0.076,0.986,0.12,1.493,0.132l1.085-3.126c-0.343,0.049-0.738,0.059-1.18,0.027
			C184.151,425.85,183.695,425.79,183.227,425.699z"/>
		<path style="fill:#13110C;" d="M207.457,414.414c-0.204-0.398-0.455-0.769-0.752-1.109c-0.296-0.34-0.632-0.645-1.007-0.91
			c-0.375-0.266-0.778-0.513-1.21-0.738c-0.432-0.227-0.884-0.429-1.356-0.61c-0.483-0.187-0.96-0.37-1.45-0.559l-4.828-1.808
			l-8.686,22.199l3.245,1.217l3.673-9.928l1.836,0.688c0.418,0.156,0.786,0.31,1.105,0.459c0.319,0.153,0.606,0.321,0.847,0.555
			c0.242,0.23,0.438,0.535,0.592,0.916c0.153,0.382,0.262,0.882,0.33,1.498c0.252,2.977,0.557,5.971,0.915,8.979
			c1.256,0.403,2.507,0.822,3.787,1.144c-0.604-3.409-1.094-6.93-1.524-10.379c-0.129-0.8-0.293-1.408-0.493-1.822
			c-0.091-0.204-0.213-0.402-0.369-0.592c-0.155-0.19-0.331-0.375-0.527-0.555l0.021-0.063c0.657,0.095,1.303,0.084,1.936-0.034
			c0.632-0.117,1.213-0.336,1.743-0.656c0.529-0.32,0.995-0.738,1.399-1.256c0.404-0.518,0.707-1.124,0.914-1.815
			c0.204-0.682,0.326-1.313,0.369-1.895c0.043-0.582,0.019-1.115-0.068-1.598C207.807,415.254,207.661,414.813,207.457,414.414z
			 M204.414,418.268c-0.356,1.114-1.029,1.857-2.029,2.225c-0.997,0.357-2.252,0.34-3.707-0.186l-2.552-0.956l2.515-6.801
			l2.753,1.033c1.355,0.458,2.284,1.064,2.779,1.878C204.67,416.269,204.754,417.207,204.414,418.268z"/>
		<path style="fill:#13110C;" d="M214.689,414.468l-6.047,23.059c2.167,0.623,4.365,1.125,6.571,1.591
			c2.207,0.451,4.39,1.04,6.619,1.371l0.548-2.951c-3.257-0.556-6.464-1.371-9.696-2.051l1.85-7.63
			c2.817,0.603,5.621,1.271,8.447,1.82l0.561-2.948c-2.779-0.54-5.534-1.197-8.302-1.789l1.646-6.788
			c2.918,0.603,5.808,1.351,8.748,1.849l0.547-2.951c-1.946-0.279-3.843-0.809-5.767-1.197
			C218.49,415.451,216.575,415.018,214.689,414.468z"/>
		<path style="fill:#13110C;" d="M232.596,422.414c0.288-0.378,0.627-0.669,1.018-0.868c0.39-0.2,0.813-0.322,1.267-0.368
			c0.454-0.046,0.893-0.043,1.319,0.008c0.396,0.049,0.753,0.114,1.07,0.198c0.318,0.083,0.623,0.185,0.916,0.305
			c0.294,0.119,0.594,0.259,0.9,0.42c0.289,0.156,0.623,0.338,1.005,0.545l0.726-3.106c-0.712-0.334-1.439-0.665-2.194-0.887
			c-0.756-0.226-1.483-0.381-2.183-0.467c-0.934-0.113-1.824-0.077-2.678,0.106c-0.853,0.185-1.627,0.515-2.316,0.935
			c-0.691,0.434-1.276,1.023-1.755,1.764c-0.478,0.742-0.806,1.628-0.973,2.66c-0.149,0.91-0.147,1.72,0.012,2.43
			c0.159,0.709,0.423,1.347,0.796,1.912c0.374,0.562,0.819,1.084,1.346,1.525c0.528,0.428,1.074,0.83,1.637,1.206
			c0.567,0.377,1.124,0.747,1.669,1.11c0.551,0.364,1.036,0.752,1.456,1.168c0.42,0.415,0.745,0.874,0.972,1.378
			c0.227,0.503,0.307,1.087,0.237,1.751c-0.074,0.696-0.286,1.271-0.638,1.72c-0.353,0.451-0.778,0.803-1.274,1.056
			c-0.496,0.253-1.027,0.42-1.589,0.497c-0.563,0.077-1.083,0.087-1.557,0.029c-0.441-0.054-0.885-0.147-1.332-0.28
			c-0.446-0.137-0.877-0.274-1.287-0.462c-0.409-0.187-0.792-0.379-1.148-0.574c-0.347-0.196-0.662-0.373-0.949-0.533l-0.828,3.06
			c0.757,0.386,1.524,0.749,2.3,1.088c0.776,0.336,1.598,0.514,2.448,0.626c1.188,0.145,2.333,0.15,3.426,0.013
			c1.093-0.137,2.067-0.439,2.919-0.908c0.849-0.455,1.547-1.17,2.085-2.024c0.538-0.863,0.857-1.926,0.965-3.188
			c0.084-0.974,0.017-1.831-0.198-2.571c-0.214-0.74-0.525-1.398-0.933-1.973c-0.409-0.565-0.879-1.119-1.418-1.575
			c-0.538-0.461-1.09-0.884-1.655-1.267c-0.774-0.497-1.49-0.989-2.149-1.477c-0.659-0.489-1.183-1.008-1.574-1.559
			c-0.395-0.529-0.534-1.179-0.423-1.948C232.12,423.286,232.308,422.793,232.596,422.414z"/>
		<path style="fill:#13110C;" d="M260.095,440.294c-0.417,0.156-0.857,0.292-1.321,0.403c-0.464,0.112-0.937,0.2-1.419,0.261
			c-0.482,0.063-0.934,0.098-1.356,0.108c-1.232-0.028-2.391-0.279-3.467-0.749c-1.075-0.471-2.001-1.122-2.772-1.953
			c-0.772-0.83-1.359-1.827-1.766-2.988c-0.407-1.162-0.57-2.442-0.503-3.842c0.064-1.345,0.331-2.581,0.79-3.711
			c0.459-1.13,1.069-2.099,1.828-2.911c0.76-0.81,1.648-1.438,2.67-1.88c1.022-0.446,2.141-0.641,3.369-0.624
			c1.587-0.04,3.062,0.369,4.456,1.225l0.161-3.322c-0.781-0.359-1.56-0.604-2.343-0.735c-0.783-0.131-1.59-0.186-2.424-0.164
			c-1.609-0.042-3.093,0.213-4.475,0.764c-1.382,0.55-2.598,1.348-3.655,2.389c-1.054,0.993-1.92,2.216-2.591,3.672
			c-0.671,1.454-1.08,3.102-1.204,4.943c-0.129,1.895,0.04,3.627,0.529,5.193c0.488,1.568,1.247,2.931,2.283,4.091
			c1.038,1.122,2.332,1.98,3.876,2.604c1.543,0.621,3.285,0.954,5.202,0.998c0.722-0.014,1.59-0.085,2.603-0.207
			c0.507-0.057,0.998-0.152,1.474-0.285c0.475-0.134,0.947-0.3,1.412-0.501l-0.293-3.294
			C260.867,439.966,260.513,440.138,260.095,440.294z"/>
		<path style="fill:#13110C;" d="M273.951,439.772l-4.938,0.372l-0.551-7.831l4.309-0.308l4.291-0.508l-0.357-2.98l-4.217,0.501
			l-4.236,0.301l-0.49-6.968l4.462-0.333l4.441-0.53l-0.371-2.978c-1.954,0.206-3.897,0.524-5.859,0.644l-5.883,0.42l1.233,23.806
			l6.74-0.48c2.247-0.144,4.478-0.494,6.717-0.735l-0.371-2.977L273.951,439.772z"/>
		<path style="fill:#13110C;" d="M294.263,415.279l4.503,18.65l-0.064,0.017c-4.892-5.514-9.399-10.971-13.596-16.767l-4.055,0.678
			l3.647,23.557l3.417-0.571l-3.36-19.314l0.06-0.01c4.352,5.976,9.015,11.52,14.085,17.144c1.446-0.303,2.86-0.734,4.292-1.096
			l-6.027-23.063L294.263,415.279z"/>
		<path style="fill:#13110C;" d="M316.427,411.423l-1.096-2.792c-2.525,0.905-5.024,1.888-7.567,2.74
			c-2.567,0.776-5.097,1.683-7.692,2.363l0.812,2.888c2.156-0.538,4.244-1.306,6.37-1.944l6.452,19.813
			c1.096-0.363,2.213-0.667,3.293-1.08l-6.823-19.689L316.427,411.423z"/>
		<path style="fill:#13110C;" d="M331.733,401.063c1.098,8.494,1.679,16.942,1.897,25.651l3.281-1.562
			c-0.133-2.152-0.289-4.294-0.469-6.424c1.713-0.84,3.376-1.778,5.066-2.664c1.691-0.884,3.367-1.796,4.994-2.795
			c1.69,1.323,3.404,2.633,5.14,3.928c1.076-0.648,2.17-1.267,3.23-1.942c-7.14-4.98-13.896-10.158-20.343-15.682L331.733,401.063z
			 M344.193,411.382c-2.629,1.552-5.37,2.908-8.05,4.37c-0.437-4.231-0.964-8.416-1.582-12.551
			C337.689,405.986,340.932,408.772,344.193,411.382z"/>
		<path style="fill:#13110C;" d="M366.777,394.614l-8.782-10.863l-2.356,1.868l8.321,10.69c0.696,0.896,1.262,1.774,1.693,2.639
			c0.43,0.865,0.678,1.705,0.737,2.522c0.057,0.813-0.078,1.624-0.464,2.355c-0.378,0.74-1.016,1.435-1.907,2.079
			c-0.892,0.645-1.75,1.031-2.569,1.156c-0.82,0.125-1.606,0.04-2.356-0.254c-0.747-0.289-1.484-0.799-2.172-1.471
			c-0.692-0.677-1.356-1.485-1.994-2.423l-7.626-11.196l-2.527,1.656l7.648,11.69c1.842,2.819,3.893,4.531,6.209,5.097
			c2.343,0.595,4.718-0.07,7.154-1.83c1.211-0.887,2.182-1.821,2.832-2.89c0.648-1.072,1.013-2.195,1.096-3.367
			c0.083-1.172-0.12-2.379-0.607-3.624C368.618,397.203,367.839,395.927,366.777,394.614z"/>
		<path style="fill:#13110C;" d="M374.312,372.943l-2.146-2.097c-3.73,3.865-7.711,7.48-11.794,10.968l1.93,2.298l5.027-4.377
			l14.03,15.407l2.512-2.384l-14.312-15.144C371.168,376.081,372.804,374.576,374.312,372.943z"/>
		<path style="fill:#13110C;" d="M382.935,358.655l7.802,6.232c-2.184,2.823-4.553,5.489-6.918,8.16l-7.402-6.701
			c-0.648,0.766-1.342,1.49-2.043,2.206l17.375,16.321c0.801-0.824,1.594-1.655,2.34-2.529l-8.044-7.283
			c2.406-2.717,4.815-5.43,7.037-8.301l8.48,6.773l2.166-2.702l-18.898-14.53L382.935,358.655z"/>
		<path style="fill:#13110C;" d="M412.779,344.422c-1.083-1.173-2.423-2.188-4.01-3.062c-1.547-0.852-3.097-1.423-4.636-1.729
			c-1.544-0.307-2.993-0.333-4.384-0.109c-1.413,0.212-2.709,0.694-3.891,1.451c-1.187,0.754-2.163,1.814-3.003,3.161
			c-0.887,1.329-1.414,2.685-1.596,4.083c-0.189,1.393-0.047,2.79,0.333,4.133c0.379,1.343,1.036,2.648,1.972,3.909
			c0.936,1.261,2.114,2.419,3.543,3.456c1.465,1.065,2.953,1.846,4.474,2.326c1.521,0.48,3.012,0.643,4.48,0.48
			c1.467-0.16,2.809-0.703,4.116-1.557c1.298-0.859,2.466-2.069,3.489-3.612c0.981-1.571,1.558-3.155,1.785-4.696
			c0.221-1.544,0.112-3.007-0.333-4.384C414.652,346.882,413.86,345.594,412.779,344.422z M411.134,355.744
			c-0.755,1.139-1.629,1.978-2.614,2.506c-0.985,0.528-2.011,0.81-3.076,0.844c-1.065,0.035-2.138-0.146-3.221-0.536
			c-1.083-0.39-2.11-0.929-3.086-1.61c-0.986-0.687-1.855-1.482-2.615-2.38c-0.759-0.896-1.332-1.839-1.72-2.822
			c-0.388-0.983-0.555-1.984-0.497-3.005c0.057-1.021,0.416-2.017,1.084-3c0.62-1.001,1.348-1.76,2.251-2.249
			c0.899-0.491,1.875-0.77,2.928-0.837c1.052-0.067,2.146,0.052,3.277,0.361c1.131,0.311,2.221,0.757,3.268,1.349
			c1.031,0.594,1.956,1.295,2.771,2.11c0.814,0.815,1.433,1.712,1.853,2.696c0.421,0.985,0.604,2.034,0.551,3.147
			C412.229,353.43,411.863,354.589,411.134,355.744z"/>
		<path style="fill:#13110C;" d="M416.312,328.045c-0.211,0.07-0.419,0.171-0.621,0.307c-0.203,0.135-0.403,0.292-0.6,0.468
			l-0.062-0.027c0.156-0.646,0.207-1.292,0.15-1.937c-0.057-0.643-0.218-1.247-0.485-1.809c-0.267-0.561-0.639-1.071-1.113-1.529
			c-0.475-0.457-1.046-0.824-1.713-1.101c-0.656-0.274-1.272-0.462-1.844-0.564c-0.572-0.104-1.103-0.136-1.59-0.098
			c-0.488,0.038-0.939,0.139-1.354,0.302c-0.415,0.162-0.804,0.375-1.17,0.636c-0.366,0.261-0.698,0.565-0.998,0.912
			c-0.298,0.347-0.581,0.725-0.845,1.132c-0.283,0.401-0.552,0.821-0.797,1.265c-0.247,0.443-0.484,0.904-0.716,1.381
			c-0.764,1.539-1.462,3.111-2.274,4.626l21.164,10.968c0.57-1.005,1.029-2.069,1.546-3.1l-9.487-4.694l0.854-1.765
			c0.194-0.402,0.38-0.754,0.557-1.058c0.178-0.304,0.398-0.561,0.661-0.774c0.263-0.212,0.597-0.372,1.001-0.48
			c0.401-0.11,0.927-0.158,1.539-0.163c2.974,0.057,5.971,0.063,8.988,0.019l1.555-3.637c-3.527,0.211-7.026,0.35-10.495,0.418
			C417.359,327.788,416.742,327.888,416.312,328.045z M412,331.398l-1.186,2.454l-6.499-3.216l1.28-2.647
			c0.624-1.287,1.382-2.12,2.212-2.542c0.849-0.413,1.785-0.4,2.804,0.049c1.071,0.473,1.744,1.221,2.014,2.259
			C412.918,328.803,412.667,330.003,412,331.398z"/>
		<polygon style="fill:#13110C;" points="407.845,315.025 430.13,323.487 431.346,320.241 408.906,312.199 		"/>
		<path style="fill:#13110C;" d="M417.182,294.531l-2.924-0.67c-1.166,5.237-2.67,10.396-4.364,15.485l2.843,0.96
			c0.666-2.117,1.398-4.216,2.016-6.348l19.998,5.855l0.913-3.344l-20.104-5.478C416.155,298.851,416.742,296.71,417.182,294.531z"
			/>
		<path style="fill:#13110C;" d="M430.232,284.26c-4.147-3.637-8.42-7.057-12.663-10.237l-0.442,3.494
			c3.272,2.463,6.608,5.071,9.71,7.78c-3.917,1.625-7.753,3.123-11.665,4.466l-0.768,3.436c2.554-0.832,5.121-1.721,7.7-2.669
			c2.514-0.96,5.036-1.979,7.569-3.055l9.825,1.689l0.588-3.398L430.232,284.26z"/>
	</g>
</g>
</svg>
